<?xml version="1.0" encoding="utf-8"?>
<!-- Generator: Adobe Illustrator 19.0.0, SVG Export Plug-In . SVG Version: 6.00 Build 0)  -->
<svg version="1.1" id="Calque_1" xmlns="http://www.w3.org/2000/svg" xmlns:xlink="http://www.w3.org/1999/xlink" x="0px" y="0px"
	 width="181.6px" height="85.4px" viewBox="0 0 181.6 85.4" enable-background="new 0 0 181.6 85.4" xml:space="preserve">
<g>
	<g>
		<path fill="#009A9E" d="M97.9,7.8c0.7-1.7,2.1-2.9,4-2.9c2.4,0,3.8,1.6,3.8,4.6c0,4.1-2.2,7.2-5.6,7.2c-1.8,0-3.1-1.1-3.3-2.6
			l-1.3,7.4h-1.2l2.9-16.3h1.1L97.9,7.8z M97.2,11.9c-0.3,1.8,0.7,3.7,2.9,3.7c2.7,0,4.3-2.8,4.3-6.1c0-2.2-1-3.6-2.8-3.6
			C99.7,6,98,7.6,97.5,10L97.2,11.9z"/>
		<path fill="#009A9E" d="M115.2,6.5c-0.2-0.1-0.5-0.2-0.9-0.2c-1.7,0-3.2,1.5-3.6,3.7l-1.1,6.4h-1.3l2-11.4h1.1l-0.3,2.8
			c0.6-1.6,1.8-3,3.6-3c0.3,0,0.6,0.1,0.8,0.1L115.2,6.5z"/>
		<path fill="#009A9E" d="M125.1,13.7c-0.7,2.1-2.2,3-4.3,3c-2.8,0-4.3-1.7-4.3-4.7c0-4.1,2.3-7.1,5.4-7.1c2.7,0,3.8,1.8,3.8,3.9
			c0,0.8-0.1,1.5-0.5,2.1h-7.5c0,0.3-0.1,0.7-0.1,1c0,2.3,1,3.8,3.2,3.8c1.9,0,2.7-0.8,3.2-2.3L125.1,13.7z M117.8,9.8h6.4
			c0.1-0.3,0.2-0.7,0.2-1.1c0-1.6-0.8-2.8-2.6-2.8C119.6,5.9,118.3,7.7,117.8,9.8z"/>
		<path fill="#009A9E" d="M141.3,4.9c1.6,0,2.7,0.9,2.7,2.7c0,0.3-0.1,0.8-0.1,1.4l-0.9,5.3c0,0.2-0.1,0.4-0.1,0.6
			c0,0.4,0.2,0.7,0.7,0.7c0.2,0,0.4,0,0.7-0.2l-0.2,1c-0.3,0.1-0.6,0.2-1,0.2c-1.1,0-1.5-0.6-1.5-1.5c0-0.2,0-0.4,0.1-0.7l1-5.5
			c0.1-0.5,0.1-0.8,0.1-1.1c0-1.1-0.5-1.8-1.9-1.8c-1.6,0-3.3,1.4-3.8,4.3l-1.1,6.2h-1.2L136,9c0.1-0.5,0.1-0.8,0.1-1.1
			c0-1.1-0.5-1.8-1.9-1.8c-1.6,0-3.3,1.4-3.8,4.3l-1.1,6.2h-1.2l2-11.4h1.1l-0.3,2.7c0.7-1.7,1.8-2.9,3.8-2.9c1.6,0,2.6,0.9,2.7,2.5
			c0,0.1,0,0.3,0,0.4C138.1,6.2,139.3,4.9,141.3,4.9z"/>
		<path fill="#009A9E" d="M148.6,14.3c0,0.2-0.1,0.4-0.1,0.6c0,0.4,0.2,0.7,0.7,0.7c0.2,0,0.4,0,0.8-0.2l-0.2,1
			c-0.3,0.1-0.6,0.2-1,0.2c-1.1,0-1.5-0.6-1.5-1.5c0-0.2,0-0.4,0.1-0.7l1.6-9.3h1.3L148.6,14.3z M150.1,0.7c0.5,0,0.9,0.4,0.9,1
			c0,0.5-0.4,0.9-0.9,0.9s-0.9-0.4-0.9-0.9C149.2,1.1,149.6,0.7,150.1,0.7z"/>
		<path fill="#009A9E" d="M161.1,14.3c0,0.2-0.1,0.4-0.1,0.6c0,0.4,0.2,0.7,0.7,0.7c0.2,0,0.4,0,0.8-0.2l-0.2,1
			c-0.3,0.1-0.6,0.2-1,0.2c-1.1,0-1.5-0.5-1.5-1.4c0-0.2,0-0.6,0.2-1.3c-0.6,1.7-1.9,2.8-3.9,2.8c-1.9,0-2.9-1-2.9-2.9
			c0-0.4,0.1-0.9,0.1-1.4l1.3-7.4h1.3l-1.3,7.6c-0.1,0.3-0.1,0.7-0.1,1c0,1.2,0.7,2,2,2c1.8,0,3.4-1.5,3.9-4l1.1-6.6h1.3L161.1,14.3
			z"/>
		<path fill="#009A9E" d="M178.7,4.9c1.6,0,2.7,0.9,2.7,2.7c0,0.3,0,0.8-0.1,1.4l-0.9,5.3c0,0.2-0.1,0.4-0.1,0.6
			c0,0.4,0.2,0.7,0.7,0.7c0.2,0,0.4,0,0.7-0.2l-0.2,1c-0.3,0.1-0.6,0.2-1,0.2c-1.1,0-1.5-0.6-1.5-1.5c0-0.2,0-0.4,0.1-0.7l1-5.5
			c0.1-0.5,0.1-0.8,0.1-1.1c0-1.1-0.5-1.8-1.9-1.8c-1.6,0-3.3,1.4-3.8,4.3l-1.1,6.2h-1.2l1.3-7.5c0.1-0.5,0.1-0.8,0.1-1.1
			c0-1.1-0.5-1.8-1.9-1.8c-1.6,0-3.3,1.4-3.8,4.3l-1.1,6.2h-1.2l2-11.4h1.1l-0.3,2.7c0.7-1.7,1.8-2.9,3.8-2.9c1.6,0,2.6,0.9,2.7,2.5
			c0,0.1,0,0.3,0,0.4C175.5,6.2,176.7,4.9,178.7,4.9z"/>
	</g>
</g>
<path fill="#009A9E" d="M85,85.3c0,0-40.1,0-50.1,0S21,73.1,21,73.1S17.5,85.3,8.2,85.3c-2.3,0-8.2,0-8.2,0V0h85V85.3z"/>
<g>
	<g>
		<g>
			<path fill="#344967" d="M103.2,83.3c-0.8,1.4-1.9,2.1-3.9,2.1c-2.5,0-4.2-1.7-4.2-4.7c0-3,1.7-4.7,4.4-4.7c1.9,0,3,0.8,3.7,2.3
				l-2,1c-0.3-0.9-0.8-1.4-1.8-1.4c-1.4,0-2.2,1.1-2.2,2.9c0,1.8,0.7,2.8,2.2,2.8c0.8,0,1.5-0.4,1.9-1.3L103.2,83.3z"/>
		</g>
		<g>
			<path fill="#344967" d="M109.8,85.2c-0.3-0.2-0.4-0.6-0.5-0.9l-0.3-1.4c-0.2-0.8-0.5-0.9-1.2-0.9h-0.9v3.2h-2.1v-9.1h3.6
				c2,0,3.3,0.7,3.3,2.8c0,1.4-0.8,2.2-2,2.3v0c0.8,0.1,1.3,0.5,1.5,1.3l0.5,1.7c0.1,0.4,0.2,0.7,0.5,1H109.8z M106.8,80.3h1.3
				c0.8,0,1.3-0.3,1.3-1.2c0-0.8-0.4-1.2-1.3-1.2h-1.3V80.3z"/>
		</g>
		<g>
			<path fill="#344967" d="M115.8,76.2v9.1h-2.1v-9.1H115.8z"/>
		</g>
		<g>
			<path fill="#344967" d="M118.2,85.2v-9.1h3.3c2.5,0,4.4,1.2,4.4,4.4c0,3.4-2,4.6-4.6,4.6H118.2z M121.2,83.5
				c1.6,0,2.6-0.7,2.6-2.7c0-2.2-1-2.8-2.4-2.8h-1v5.5H121.2z"/>
		</g>
		<g>
			<path fill="#344967" d="M127.2,80.7c0-3,1.6-4.7,4.3-4.7c2.7,0,4.3,1.7,4.3,4.7c0,3-1.6,4.7-4.3,4.7
				C128.8,85.4,127.2,83.7,127.2,80.7z M129.4,80.7c0,1.8,0.7,2.9,2.1,2.9s2.1-1.1,2.1-2.9c0-1.8-0.7-2.9-2.1-2.9
				C130.1,77.9,129.4,78.9,129.4,80.7z"/>
		</g>
		<g>
			<path fill="#344967" d="M142.8,80.6c0.5,0.7,0.8,1.2,0.8,1.2h0.1c0,0,0-0.8,0-1.9v-3.7h2.1v9.1h-1.9l-3.2-4.3
				c-0.6-0.8-0.9-1.3-0.9-1.3h-0.1c0,0,0.1,0.7,0.1,2v3.6h-2.1v-9.1h2L142.8,80.6z"/>
		</g>
		<g>
			<path fill="#344967" d="M152.2,76.2v8.4h4.2v0.7h-5v-9.1H152.2z"/>
		</g>
		<g>
			<path fill="#344967" d="M158.8,79.5c0.6,1,0.7,1.4,0.7,1.4h0c0,0,0.1-0.4,0.7-1.4l1.8-3.3h0.8l-2.9,5.4v3.6h-0.8v-3.6l-3-5.4h0.9
				L158.8,79.5z"/>
		</g>
		<g>
			<path fill="#344967" d="M163.4,80.7c0-3,1.5-4.7,3.9-4.7s3.9,1.7,3.9,4.7s-1.5,4.7-3.9,4.7S163.4,83.7,163.4,80.7z M164.2,80.7
				c0,2.5,1.1,4,3.1,4c2,0,3.1-1.5,3.1-4c0-2.5-1.1-4-3.1-4C165.3,76.7,164.2,78.3,164.2,80.7z"/>
		</g>
		<g>
			<path fill="#344967" d="M178.5,82.5c0.6,0.8,1,1.7,1,1.7h0c0,0,0-0.9,0-1.9v-6.1h0.8v9.1h-0.9l-4.3-6.3c-0.6-0.8-1-1.7-1-1.7
				h-0.1c0,0,0.1,0.9,0.1,1.9v6.1h-0.8v-9.1h0.9L178.5,82.5z"/>
		</g>
	</g>
	<g>
		<g>
			<g>
				<path fill="#009A9A" d="M105.6,46.8c-6.4,0-10.4-4.5-10.4-11.7c0-7.3,4.1-11.7,11-11.7c4.4,0,7.5,1.9,9.2,5.7l0.2,0.4l-5.7,2.8
					l-0.2-0.6c-0.7-2.1-1.8-3-3.7-3c-3,0-4.7,2.4-4.7,6.4c0,2.8,0.8,6.2,4.8,6.2c1.8,0,3.2-0.9,4-2.8l0.2-0.5l5.1,3.1l-0.2,0.4
					C113.1,45.3,110.3,46.8,105.6,46.8z M106.2,24.4c-6.4,0-10,3.9-10,10.7c0,6.6,3.6,10.7,9.4,10.7c4.2,0,6.6-1.2,8.6-4.3l-3.3-2
					c-1,1.9-2.6,2.9-4.7,2.9c-3.7,0-5.8-2.6-5.8-7.2c0-4.6,2.2-7.4,5.7-7.4c2.2,0,3.6,1,4.5,3.2l3.8-1.9
					C112.7,26,110.1,24.4,106.2,24.4z"/>
			</g>
		</g>
		<g>
			<g>
				<path fill="#009A9A" d="M138,46.4h-6.9l-0.1-0.1c-0.8-0.6-1.1-1.6-1.3-2.5l-0.8-3.2c-0.4-1.5-0.9-1.8-2.4-1.8h-1.6v7.6h-6V23.8
					h9c5.6,0,8.3,2.3,8.3,7.1c0,2.7-1.2,4.7-3.4,5.5c1.2,0.6,1.9,1.5,2.3,3l1.1,4c0.2,0.8,0.5,1.4,1.1,2.1L138,46.4z M131.5,45.4
					h4.3c-0.4-0.6-0.5-1.1-0.7-1.7l-1.1-4c-0.5-1.7-1.3-2.5-3.2-2.8l-0.4-0.1V36l0.4-0.1c2.8-0.3,4.3-2,4.3-4.9
					c0-4.1-2.3-6.1-7.3-6.1h-8v20.5h4v-7.6h2.6c1.8,0,2.9,0.4,3.4,2.5l0.8,3.2C130.9,44.4,131.1,45,131.5,45.4z M127.5,34.7h-3.7
					v-6.6h3.7c2.3,0,3.6,1.2,3.6,3.3C131.1,33.6,129.9,34.7,127.5,34.7z M124.8,33.7h2.7c1.8,0,2.6-0.7,2.6-2.3
					c0-1.6-0.8-2.3-2.6-2.3h-2.7V33.7z"/>
			</g>
		</g>
		<g>
			<g>
				<path fill="#009A9A" d="M147,46.4h-6V23.8h6V46.4z M142,45.4h4V24.8h-4V45.4z"/>
			</g>
		</g>
		<g>
			<g>
				<path fill="#009A9A" d="M160.6,46.4h-8.1V23.8h8.4c7.1,0,11,3.9,11,11C172,42.3,167.9,46.4,160.6,46.4z M153.5,45.4h7.1
					c4.7,0,10.3-1.8,10.3-10.5c0-8.3-5.4-10-10-10h-7.4V45.4z M160.2,42.2h-2.7V28.1h2.9c4.3,0,6.3,2.3,6.3,7.1
					C166.8,39.9,164.7,42.2,160.2,42.2z M158.5,41.2h1.7c3.9,0,5.6-1.8,5.6-6c0-4.3-1.5-6.1-5.3-6.1h-1.9V41.2z"/>
			</g>
		</g>
	</g>
	<g>
		<g>
			<path fill="#009A9A" d="M95.7,61.5c0-5.9,2.8-9.2,7.1-9.2c4.4,0,7.1,3.3,7.1,9.2s-2.8,9.2-7.1,9.2C98.5,70.6,95.7,67.4,95.7,61.5
				z M97.2,61.5c0,4.8,2,7.8,5.6,7.8c3.7,0,5.6-2.9,5.6-7.8c0-4.8-2-7.8-5.6-7.8C99.2,53.7,97.2,56.6,97.2,61.5z"/>
			<path fill="#009A9A" d="M102.8,71.1c-4.8,0-7.6-3.6-7.6-9.7c0-6.1,2.9-9.7,7.6-9.7c4.8,0,7.6,3.6,7.6,9.7
				C110.5,67.5,107.6,71.1,102.8,71.1z M102.8,52.8c-4.2,0-6.6,3.3-6.6,8.7c0,5.4,2.5,8.7,6.6,8.7c4.2,0,6.6-3.2,6.6-8.7
				C109.5,56,107,52.8,102.8,52.8z M102.8,69.7c-3.9,0-6.1-3-6.1-8.3c0-5.3,2.2-8.3,6.1-8.3c3.8,0,6.1,3.1,6.1,8.3
				C109,66.7,106.7,69.7,102.8,69.7z M102.8,54.2c-4.4,0-5.1,4.6-5.1,7.3c0,2.7,0.7,7.3,5.1,7.3c4.5,0,5.1-4.6,5.1-7.3
				C108,56.8,106.1,54.2,102.8,54.2z"/>
		</g>
		<g>
			<path fill="#009A9A" d="M123.8,64.9c1.1,1.7,1.8,3.3,1.8,3.3h0.1c0,0-0.1-1.8-0.1-3.8v-12h1.5v17.8h-1.6L117.7,58
				c-1-1.6-1.8-3.3-1.8-3.3h-0.1c0,0,0.1,1.8,0.1,3.8v12h-1.5V52.5h1.6L123.8,64.9z"/>
			<path fill="#009A9A" d="M127.6,70.9h-2.3l-8-12.6c-0.3-0.5-0.7-1.1-0.9-1.6c0,0.5,0,1.1,0,1.8v12.5h-2.5V52h2.4l8,12.6
				c0.3,0.5,0.7,1.1,0.9,1.6c0-0.5,0-1.1,0-1.8V52h2.5V70.9z M125.8,69.9h0.8V53h-0.5v11.5c0,2,0.1,3.7,0.1,3.7l0,0.5h-0.8l-0.2-0.3
				c0,0-0.8-1.6-1.8-3.2l0,0L115.7,53h-0.8v16.8h0.5V58.4c0-2-0.1-3.7-0.1-3.7l0-0.5h1l0.1,0.3c0,0,0.8,1.7,1.8,3.2L125.8,69.9z"/>
		</g>
		<g>
			<path fill="#009A9A" d="M134.2,52.5V69h7.6v1.4h-9.1V52.5H134.2z"/>
			<path fill="#009A9A" d="M142.3,70.9h-10.1V52h2.5v16.4h7.6V70.9z M133.2,69.9h8.1v-0.4h-7.6V53h-0.5V69.9z"/>
		</g>
		<g>
			<path fill="#009A9A" d="M147,52.5v17.8h-1.5V52.5H147z"/>
			<path fill="#009A9A" d="M147.5,70.9H145V52h2.5V70.9z M146,69.9h0.5V53H146V69.9z"/>
		</g>
		<g>
			<path fill="#009A9A" d="M162,64.9c1.1,1.7,1.8,3.3,1.8,3.3h0.1c0,0-0.1-1.8-0.1-3.8v-12h1.5v17.8h-1.6L155.9,58
				c-1-1.6-1.8-3.3-1.8-3.3h-0.1c0,0,0.1,1.8,0.1,3.8v12h-1.5V52.5h1.6L162,64.9z"/>
			<path fill="#009A9A" d="M165.8,70.9h-2.3l-8-12.6c-0.3-0.5-0.7-1.1-0.9-1.6c0,0.5,0,1.1,0,1.8v12.5h-2.5V52h2.4l8,12.6
				c0.3,0.5,0.7,1.1,0.9,1.6c0-0.5,0-1.1,0-1.8V52h2.5V70.9z M164,69.9h0.8V53h-0.5v11.5c0,2,0.1,3.7,0.1,3.7l0,0.5h-0.8l-0.2-0.3
				c0,0-0.8-1.6-1.8-3.2l0,0L153.9,53h-0.8v16.8h0.5V58.4c0-2-0.1-3.7-0.1-3.7l0-0.5h1l0.1,0.3c0,0,0.8,1.7,1.8,3.2L164,69.9z"/>
		</g>
		<g>
			<path fill="#009A9A" d="M180.2,70.4h-9.3V52.5h9.3v1.4h-7.9v6.8h7v1.4h-7V69h7.9V70.4z"/>
			<path fill="#009A9A" d="M180.7,70.9h-10.3V52h10.3v2.4h-7.9v5.8h7v2.4h-7v5.8h7.9V70.9z M171.3,69.9h8.3v-0.4h-7.9v-7.8h7v-0.4
				h-7v-7.8h7.9V53h-8.3V69.9z"/>
		</g>
	</g>
	<g>
		<g>
			<path fill="#009A9A" d="M173.5,33.5v-2.6l0.5,0c1.7-0.2,2.2-0.8,2.4-1.3c-0.7,0-1.3-0.3-1.8-0.7c-0.6-0.5-0.9-1.2-0.9-2.1
				c0-1.7,1.2-2.9,3.1-2.9c2,0,3.4,1.6,3.4,3.8c0,3.7-2.2,5.7-6.2,5.8L173.5,33.5z M174.5,31.7v0.7c3.1-0.2,4.7-1.8,4.7-4.8
				c0-1.7-1-2.8-2.4-2.8c-0.5,0-2.1,0.1-2.1,1.9c0,0.6,0.2,1,0.6,1.3c0.4,0.3,1,0.5,1.6,0.4l0.6-0.1V29
				C177.4,30.1,176.9,31.4,174.5,31.7z"/>
		</g>
	</g>
</g>
<g>
	
		<image overflow="visible" opacity="0.26" width="220" height="100" xlink:href="D7648F2A.png"  transform="matrix(0.24 0 0 0.24 18.9331 37.1639)">
	</image>
	
		<image overflow="visible" opacity="0.62" width="137" height="55" xlink:href="D7648F2E.png"  transform="matrix(0.24 0 0 0.24 28.4897 45.5809)">
	</image>
	
		<image overflow="visible" opacity="0.62" width="75" height="21" xlink:href="D7648F29.png"  transform="matrix(0.24 0 0 0.24 35.8647 50.7635)">
	</image>
</g>
<g>
	
		<image overflow="visible" opacity="0.31" width="102" height="36" xlink:href="D7648F2B.png"  transform="matrix(0.24 0 0 0.24 52.9125 68.0414)">
	</image>
	
		<image overflow="visible" opacity="0.31" width="56" height="14" xlink:href="D7648F28.png"  transform="matrix(0.24 0 0 0.24 58.4005 71.4218)">
	</image>
</g>
<g>
	
		<image overflow="visible" opacity="0.31" width="102" height="36" xlink:href="D7648F36.png"  transform="matrix(0.24 0 0 0.24 11.5947 61.9169)">
	</image>
	
		<image overflow="visible" opacity="0.31" width="56" height="14" xlink:href="D7648F39.png"  transform="matrix(0.24 0 0 0.24 17.0819 65.297)">
	</image>
</g>
<g>
	
		<image overflow="visible" opacity="0.31" width="31" height="11" xlink:href="D7648F3A.png"  transform="matrix(0.24 0 0 0.24 59.0579 48.2628)">
	</image>
	
		<image overflow="visible" opacity="0.31" width="17" height="5" xlink:href="D7648F38.png"  transform="matrix(0.24 0 0 0.24 60.7187 49.2857)">
	</image>
</g>
<g>
	<path fill="#FFFFFF" d="M44.2,49.1c-7.4,0-13.4-6-13.4-13.4s6-13.4,13.4-13.4s13.4,6,13.4,13.4S51.6,49.1,44.2,49.1z M44.2,23.3
		c-6.8,0-12.4,5.6-12.4,12.4c0,6.8,5.6,12.4,12.4,12.4c6.8,0,12.4-5.6,12.4-12.4C56.6,28.8,51,23.3,44.2,23.3z"/>
	<path fill="#FFFFFF" d="M23.8,65.5c-1.6,0-3.1-0.5-4.4-1.4c-1.7-1.2-2.9-3-3.3-5c-0.8-4.2,2-8.3,6.2-9.1c2-0.4,4.1,0,5.8,1.2
		s2.9,3,3.3,5l0,0c0.8,4.2-2,8.3-6.2,9.1C24.7,65.5,24.2,65.5,23.8,65.5z M23.8,50.9c-0.4,0-0.8,0-1.3,0.1c-3.7,0.7-6.1,4.3-5.4,7.9
		c0.3,1.8,1.3,3.3,2.8,4.4c1.5,1,3.3,1.4,5.1,1.1c1.8-0.3,3.3-1.3,4.4-2.8c1-1.5,1.4-3.3,1.1-5.1l0,0c-0.3-1.8-1.3-3.3-2.8-4.4
		C26.5,51.3,25.1,50.9,23.8,50.9z"/>
	<path fill="#FFFFFF" d="M63.5,69.9c-5.1,0-9.2-4.1-9.2-9.2s4.1-9.2,9.2-9.2s9.2,4.1,9.2,9.2S68.6,69.9,63.5,69.9z M63.5,52.5
		c-4.5,0-8.2,3.7-8.2,8.2s3.7,8.2,8.2,8.2s8.2-3.7,8.2-8.2S68,52.5,63.5,52.5z"/>
	<path fill="#FFFFFF" d="M25.5,22.9c-2.5,0-4.6-2.1-4.6-4.6s2.1-4.6,4.6-4.6s4.6,2.1,4.6,4.6S28.1,22.9,25.5,22.9z M25.5,14.7
		c-2,0-3.6,1.6-3.6,3.6s1.6,3.6,3.6,3.6s3.6-1.6,3.6-3.6S27.5,14.7,25.5,14.7z"/>
	<path fill="#FFFFFF" d="M65.5,26.3c-2.5,0-4.6-2.1-4.6-4.6s2.1-4.6,4.6-4.6c2.5,0,4.6,2.1,4.6,4.6S68,26.3,65.5,26.3z M65.5,18.1
		c-2,0-3.6,1.6-3.6,3.6s1.6,3.6,3.6,3.6c2,0,3.6-1.6,3.6-3.6S67.5,18.1,65.5,18.1z"/>
	<path fill="#FFFFFF" d="M24.5,40.7c-2.5,0-4.6-2.1-4.6-4.6s2.1-4.6,4.6-4.6s4.6,2.1,4.6,4.6S27,40.7,24.5,40.7z M24.5,32.5
		c-2,0-3.6,1.6-3.6,3.6s1.6,3.6,3.6,3.6s3.6-1.6,3.6-3.6S26.5,32.5,24.5,32.5z"/>
	<path fill="#FFFFFF" d="M63.5,46.3c-1.5,0-2.6-1.2-2.6-2.6s1.2-2.6,2.6-2.6c1.5,0,2.6,1.2,2.6,2.6S65,46.3,63.5,46.3z M63.5,42
		c-0.9,0-1.6,0.7-1.6,1.6s0.7,1.6,1.6,1.6c0.9,0,1.6-0.7,1.6-1.6S64.4,42,63.5,42z"/>
	<rect x="27" y="24.3" transform="matrix(0.7129 0.7013 -0.7013 0.7129 26.3699 -14.8522)" fill="#FFFFFF" width="8.7" height="1"/>
	
		<rect x="58.2" y="22.4" transform="matrix(0.5898 0.8076 -0.8076 0.5898 45.5677 -36.5052)" fill="#FFFFFF" width="1" height="8.5"/>
	
		<rect x="55.9" y="40.9" transform="matrix(0.9443 0.3292 -0.3292 0.9443 16.9072 -17.0842)" fill="#FFFFFF" width="6.1" height="1"/>
	
		<rect x="48.1" y="50.7" transform="matrix(0.6383 0.7697 -0.7697 0.6383 58.7483 -22.558)" fill="#FFFFFF" width="10.5" height="1"/>
	<rect x="31.5" y="44.4" transform="matrix(0.7551 0.6556 -0.6556 0.7551 40.241 -8.8966)" fill="#FFFFFF" width="1" height="10"/>
	<rect x="29.2" y="34.4" transform="matrix(0.1192 0.9929 -0.9929 0.1192 61.8171 2.0776)" fill="#FFFFFF" width="1" height="3.1"/>
</g>
</svg>
