<?xml version="1.0" encoding="utf-8"?>
<!-- Generator: Adobe Illustrator 19.0.0, SVG Export Plug-In . SVG Version: 6.00 Build 0)  -->
<svg version="1.1" id="Calque_1" xmlns="http://www.w3.org/2000/svg" xmlns:xlink="http://www.w3.org/1999/xlink" x="0px" y="0px"
	 width="186.8px" height="85.6px" viewBox="0 0 186.8 85.6" enable-background="new 0 0 186.8 85.6" xml:space="preserve">
<g>
	<g>
		<path fill="#37486A" d="M102,6.6c-0.2-0.1-0.5-0.2-0.9-0.2c-1.7,0-3.2,1.5-3.6,3.7l-1.1,6.4h-1.3l2-11.4h1.1L97.9,8
			c0.6-1.6,1.8-3,3.6-3c0.3,0,0.6,0.1,0.8,0.1L102,6.6z"/>
		<path fill="#37486A" d="M111.9,13.8c-0.7,2.1-2.2,3-4.3,3c-2.8,0-4.3-1.7-4.3-4.7c0-4.1,2.3-7.1,5.4-7.1c2.7,0,3.8,1.8,3.8,3.9
			c0,0.8-0.1,1.5-0.5,2.1h-7.5c0,0.3-0.1,0.7-0.1,1c0,2.3,1,3.8,3.2,3.8c1.9,0,2.7-0.8,3.2-2.3L111.9,13.8z M104.7,10h6.4
			c0.1-0.3,0.2-0.7,0.2-1.1c0-1.6-0.8-2.8-2.6-2.8C106.4,6,105.1,7.8,104.7,10z M108.2,3.5l2-3.3h1.7l-2.7,3.3H108.2z"/>
		<path fill="#37486A" d="M117,6.3h-1.7l0.2-1h1.7l0.3-1.7C118,0.8,119.2,0,121,0c1,0,1.7,0.3,2.3,0.8l-0.6,1
			c-0.5-0.5-1-0.8-1.7-0.8c-1.1,0-1.9,0.5-2.3,2.4l-0.3,1.7h2.9l-0.2,1h-2.9L116,19.1c-0.3,1.8-1.1,2.6-2.6,2.6
			c-0.8,0-1.5-0.3-1.9-0.7l0.3-1c0.4,0.4,0.9,0.6,1.4,0.6c0.9,0,1.3-0.5,1.5-1.6L117,6.3z"/>
		<path fill="#37486A" d="M130.7,13.8c-0.7,2.1-2.2,3-4.3,3c-2.8,0-4.3-1.7-4.3-4.7c0-4.1,2.3-7.1,5.4-7.1c2.7,0,3.8,1.8,3.8,3.9
			c0,0.8-0.1,1.5-0.5,2.1h-7.5c0,0.3-0.1,0.7-0.1,1c0,2.3,1,3.8,3.2,3.8c1.9,0,2.7-0.8,3.2-2.3L130.7,13.8z M123.4,10h6.4
			c0.1-0.3,0.2-0.7,0.2-1.1c0-1.6-0.8-2.8-2.6-2.8C125.2,6,123.9,7.8,123.4,10z M127,3.5l2-3.3h1.7L128,3.5H127z"/>
		<path fill="#37486A" d="M140.6,6.6c-0.2-0.1-0.5-0.2-0.9-0.2c-1.7,0-3.2,1.5-3.6,3.7l-1.1,6.4h-1.3l2-11.4h1.1L136.4,8
			c0.6-1.6,1.8-3,3.6-3c0.3,0,0.6,0.1,0.8,0.1L140.6,6.6z"/>
		<path fill="#37486A" d="M150.4,13.8c-0.7,2.1-2.2,3-4.3,3c-2.8,0-4.3-1.7-4.3-4.7c0-4.1,2.3-7.1,5.4-7.1c2.7,0,3.8,1.8,3.8,3.9
			c0,0.8-0.1,1.5-0.5,2.1H143c0,0.3-0.1,0.7-0.1,1c0,2.3,1,3.8,3.2,3.8c1.9,0,2.7-0.8,3.2-2.3L150.4,13.8z M143.2,10h6.4
			c0.1-0.3,0.2-0.7,0.2-1.1c0-1.6-0.8-2.8-2.6-2.8C145,6,143.7,7.8,143.2,10z"/>
		<path fill="#37486A" d="M161.7,9.1c0.1-0.5,0.1-0.8,0.1-1.1c0-1.1-0.6-1.8-1.9-1.8c-1.7,0-3.6,1.3-4.1,4.3l-1.1,6.2h-1.2l2-11.4
			h1.1l-0.3,2.7c0.7-1.7,2-2.9,3.9-2.9c1.7,0,2.9,0.9,2.9,2.7c0,0.3,0,0.8-0.1,1.4l-0.9,5.3c0,0.2-0.1,0.4-0.1,0.6
			c0,0.4,0.2,0.7,0.7,0.7c0.2,0,0.4,0,0.8-0.2l-0.2,1c-0.3,0.1-0.6,0.2-1,0.2c-1.1,0-1.5-0.6-1.5-1.5c0-0.2,0-0.4,0.1-0.7L161.7,9.1
			z"/>
		<path fill="#37486A" d="M170.6,15.8c1.9,0,2.8-1.1,3.2-2.5l1.2,0.3c-0.7,2-2,3.2-4.5,3.2c-2.6,0-4.2-1.6-4.2-4.7
			c0-3.5,1.8-7.1,5.5-7.1c2.5,0,3.6,1.5,3.6,3.7l-1.1,0.2c0-1.6-0.7-2.8-2.6-2.8c-2.8,0-4.2,3-4.2,5.9
			C167.5,14.5,168.6,15.8,170.6,15.8z"/>
		<path fill="#37486A" d="M186.3,13.8c-0.7,2.1-2.2,3-4.3,3c-2.8,0-4.3-1.7-4.3-4.7c0-4.1,2.3-7.1,5.4-7.1c2.7,0,3.8,1.8,3.8,3.9
			c0,0.8-0.1,1.5-0.5,2.1h-7.5c0,0.3-0.1,0.7-0.1,1c0,2.3,1,3.8,3.2,3.8c1.9,0,2.7-0.8,3.2-2.3L186.3,13.8z M179,10h6.4
			c0.1-0.3,0.2-0.7,0.2-1.1c0-1.6-0.8-2.8-2.6-2.8C180.8,6,179.5,7.8,179,10z"/>
	</g>
</g>
<path fill="#37486A" d="M85,85.5c0,0-40.1,0-50.1,0S21,73.3,21,73.3S17.5,85.5,8.2,85.5c-2.3,0-8.2,0-8.2,0V0.1h85V85.5z"/>
<g>
	<g>
		<g>
			<path fill="#344967" d="M103.2,83.5c-0.8,1.4-1.9,2.1-3.9,2.1c-2.5,0-4.2-1.7-4.2-4.7s1.7-4.7,4.4-4.7c1.9,0,3,0.8,3.7,2.3l-2,1
				c-0.3-0.9-0.8-1.4-1.8-1.4c-1.4,0-2.2,1.1-2.2,2.9c0,1.8,0.7,2.8,2.2,2.8c0.8,0,1.5-0.4,1.9-1.3L103.2,83.5z"/>
		</g>
		<g>
			<path fill="#344967" d="M109.8,85.4c-0.3-0.2-0.4-0.6-0.5-0.9l-0.3-1.4c-0.2-0.8-0.5-0.9-1.2-0.9h-0.9v3.2h-2.1v-9.1h3.6
				c2,0,3.3,0.7,3.3,2.8c0,1.4-0.8,2.2-2,2.3v0c0.8,0.1,1.3,0.5,1.5,1.3l0.5,1.7c0.1,0.4,0.2,0.7,0.5,1H109.8z M106.8,80.5h1.3
				c0.8,0,1.3-0.3,1.3-1.2c0-0.8-0.4-1.2-1.3-1.2h-1.3V80.5z"/>
		</g>
		<g>
			<path fill="#344967" d="M115.8,76.3v9.1h-2.1v-9.1H115.8z"/>
		</g>
		<g>
			<path fill="#344967" d="M118.2,85.4v-9.1h3.3c2.5,0,4.4,1.2,4.4,4.4c0,3.4-2,4.6-4.6,4.6H118.2z M121.2,83.6
				c1.6,0,2.6-0.7,2.6-2.7c0-2.2-1-2.8-2.4-2.8h-1v5.5H121.2z"/>
		</g>
		<g>
			<path fill="#344967" d="M127.2,80.9c0-3,1.6-4.7,4.3-4.7c2.7,0,4.3,1.7,4.3,4.7c0,3-1.6,4.7-4.3,4.7
				C128.8,85.6,127.2,83.9,127.2,80.9z M129.4,80.9c0,1.8,0.7,2.9,2.1,2.9s2.1-1.1,2.1-2.9c0-1.8-0.7-2.9-2.1-2.9
				C130.1,78,129.4,79.1,129.4,80.9z"/>
		</g>
		<g>
			<path fill="#344967" d="M142.8,80.7c0.5,0.7,0.8,1.2,0.8,1.2h0.1c0,0,0-0.8,0-1.9v-3.7h2.1v9.1h-1.9l-3.2-4.3
				c-0.6-0.8-0.9-1.3-0.9-1.3h-0.1c0,0,0.1,0.7,0.1,2v3.6h-2.1v-9.1h2L142.8,80.7z"/>
		</g>
		<g>
			<path fill="#344967" d="M152.2,76.3v8.4h4.2v0.7h-5v-9.1H152.2z"/>
		</g>
		<g>
			<path fill="#344967" d="M158.8,79.6c0.6,1,0.7,1.4,0.7,1.4h0c0,0,0.1-0.4,0.7-1.4l1.8-3.3h0.8l-2.9,5.4v3.6h-0.8v-3.6l-3-5.4h0.9
				L158.8,79.6z"/>
		</g>
		<g>
			<path fill="#344967" d="M163.4,80.9c0-3,1.5-4.7,3.9-4.7s3.9,1.7,3.9,4.7s-1.5,4.7-3.9,4.7S163.4,83.9,163.4,80.9z M164.2,80.9
				c0,2.5,1.1,4,3.1,4c2,0,3.1-1.5,3.1-4s-1.1-4-3.1-4C165.3,76.9,164.2,78.4,164.2,80.9z"/>
		</g>
		<g>
			<path fill="#344967" d="M178.5,82.6c0.6,0.8,1,1.7,1,1.7h0c0,0,0-0.9,0-1.9v-6.1h0.8v9.1h-0.9l-4.3-6.3c-0.6-0.8-1-1.7-1-1.7
				h-0.1c0,0,0.1,0.9,0.1,1.9v6.1h-0.8v-9.1h0.9L178.5,82.6z"/>
		</g>
	</g>
	<g>
		<g>
			<g>
				<path fill="#009A9A" d="M105.6,47c-6.4,0-10.4-4.5-10.4-11.7c0-7.3,4.1-11.7,11-11.7c4.4,0,7.5,1.9,9.2,5.7l0.2,0.4l-5.7,2.8
					l-0.2-0.6c-0.7-2.1-1.8-3-3.7-3c-3,0-4.7,2.4-4.7,6.4c0,2.8,0.8,6.2,4.8,6.2c1.8,0,3.2-0.9,4-2.8l0.2-0.5l5.1,3.1l-0.2,0.4
					C113.1,45.5,110.3,47,105.6,47z M106.2,24.6c-6.4,0-10,3.9-10,10.7c0,6.6,3.6,10.7,9.4,10.7c4.2,0,6.6-1.2,8.6-4.3l-3.3-2
					c-1,1.9-2.6,2.9-4.7,2.9c-3.7,0-5.8-2.6-5.8-7.2c0-4.6,2.2-7.4,5.7-7.4c2.2,0,3.6,1,4.5,3.2l3.8-1.9
					C112.7,26.1,110.1,24.6,106.2,24.6z"/>
			</g>
		</g>
		<g>
			<g>
				<path fill="#009A9A" d="M138,46.5h-6.9l-0.1-0.1c-0.8-0.6-1.1-1.6-1.3-2.5l-0.8-3.2c-0.4-1.5-0.9-1.8-2.4-1.8h-1.6v7.6h-6V24h9
					c5.6,0,8.3,2.3,8.3,7.1c0,2.7-1.2,4.7-3.4,5.5c1.2,0.6,1.9,1.5,2.3,3l1.1,4c0.2,0.8,0.5,1.4,1.1,2.1L138,46.5z M131.5,45.5h4.3
					c-0.4-0.6-0.5-1.1-0.7-1.7l-1.1-4c-0.5-1.7-1.3-2.5-3.2-2.8l-0.4-0.1v-0.9l0.4-0.1c2.8-0.3,4.3-2,4.3-4.9c0-4.1-2.3-6.1-7.3-6.1
					h-8v20.5h4v-7.6h2.6c1.8,0,2.9,0.4,3.4,2.5l0.8,3.2C130.9,44.5,131.1,45.1,131.5,45.5z M127.5,34.8h-3.7v-6.6h3.7
					c2.3,0,3.6,1.2,3.6,3.3C131.1,33.7,129.9,34.8,127.5,34.8z M124.8,33.8h2.7c1.8,0,2.6-0.7,2.6-2.3c0-1.6-0.8-2.3-2.6-2.3h-2.7
					V33.8z"/>
			</g>
		</g>
		<g>
			<g>
				<path fill="#009A9A" d="M147,46.5h-6V24h6V46.5z M142,45.5h4V25h-4V45.5z"/>
			</g>
		</g>
		<g>
			<g>
				<path fill="#009A9A" d="M160.6,46.5h-8.1V24h8.4c7.1,0,11,3.9,11,11C172,42.4,167.9,46.5,160.6,46.5z M153.5,45.5h7.1
					c4.7,0,10.3-1.8,10.3-10.5c0-8.3-5.4-10-10-10h-7.4V45.5z M160.2,42.3h-2.7V28.2h2.9c4.3,0,6.3,2.3,6.3,7.1
					C166.8,40.1,164.7,42.3,160.2,42.3z M158.5,41.3h1.7c3.9,0,5.6-1.8,5.6-6c0-4.3-1.5-6.1-5.3-6.1h-1.9V41.3z"/>
			</g>
		</g>
	</g>
	<g>
		<g>
			<path fill="#009A9A" d="M95.7,61.6c0-5.9,2.8-9.2,7.1-9.2c4.4,0,7.1,3.3,7.1,9.2s-2.8,9.2-7.1,9.2C98.5,70.8,95.7,67.5,95.7,61.6
				z M97.2,61.6c0,4.8,2,7.8,5.6,7.8c3.7,0,5.6-2.9,5.6-7.8c0-4.8-2-7.8-5.6-7.8C99.2,53.8,97.2,56.8,97.2,61.6z"/>
			<path fill="#009A9A" d="M102.8,71.3c-4.8,0-7.6-3.6-7.6-9.7c0-6.1,2.9-9.7,7.6-9.7c4.8,0,7.6,3.6,7.6,9.7
				C110.5,67.7,107.6,71.3,102.8,71.3z M102.8,52.9c-4.2,0-6.6,3.3-6.6,8.7c0,5.4,2.5,8.7,6.6,8.7c4.2,0,6.6-3.2,6.6-8.7
				C109.5,56.2,107,52.9,102.8,52.9z M102.8,69.9c-3.9,0-6.1-3-6.1-8.3c0-5.3,2.2-8.3,6.1-8.3c3.8,0,6.1,3.1,6.1,8.3
				C109,66.9,106.7,69.9,102.8,69.9z M102.8,54.3c-4.4,0-5.1,4.6-5.1,7.3c0,2.7,0.7,7.3,5.1,7.3c4.5,0,5.1-4.6,5.1-7.3
				C108,57,106.1,54.3,102.8,54.3z"/>
		</g>
		<g>
			<path fill="#009A9A" d="M123.8,65.1c1.1,1.7,1.8,3.3,1.8,3.3h0.1c0,0-0.1-1.8-0.1-3.8v-12h1.5v17.8h-1.6l-7.8-12.4
				c-1-1.6-1.8-3.3-1.8-3.3h-0.1c0,0,0.1,1.8,0.1,3.8v12h-1.5V52.7h1.6L123.8,65.1z"/>
			<path fill="#009A9A" d="M127.6,71h-2.3l-8-12.6c-0.3-0.5-0.7-1.1-0.9-1.6c0,0.5,0,1.1,0,1.8V71h-2.5V52.2h2.4l8,12.6
				c0.3,0.5,0.7,1.1,0.9,1.6c0-0.5,0-1.1,0-1.8V52.2h2.5V71z M125.8,70h0.8V53.2h-0.5v11.5c0,2,0.1,3.7,0.1,3.7l0,0.5h-0.8l-0.2-0.3
				c0,0-0.8-1.6-1.8-3.2l0,0l-7.7-12.2h-0.8V70h0.5V58.6c0-2-0.1-3.7-0.1-3.7l0-0.5h1l0.1,0.3c0,0,0.8,1.7,1.8,3.2L125.8,70z"/>
		</g>
		<g>
			<path fill="#009A9A" d="M134.2,52.7v16.4h7.6v1.4h-9.1V52.7H134.2z"/>
			<path fill="#009A9A" d="M142.3,71h-10.1V52.2h2.5v16.4h7.6V71z M133.2,70h8.1v-0.4h-7.6V53.2h-0.5V70z"/>
		</g>
		<g>
			<path fill="#009A9A" d="M147,52.7v17.8h-1.5V52.7H147z"/>
			<path fill="#009A9A" d="M147.5,71H145V52.2h2.5V71z M146,70h0.5V53.2H146V70z"/>
		</g>
		<g>
			<path fill="#009A9A" d="M162,65.1c1.1,1.7,1.8,3.3,1.8,3.3h0.1c0,0-0.1-1.8-0.1-3.8v-12h1.5v17.8h-1.6l-7.8-12.4
				c-1-1.6-1.8-3.3-1.8-3.3h-0.1c0,0,0.1,1.8,0.1,3.8v12h-1.5V52.7h1.6L162,65.1z"/>
			<path fill="#009A9A" d="M165.8,71h-2.3l-8-12.6c-0.3-0.5-0.7-1.1-0.9-1.6c0,0.5,0,1.1,0,1.8V71h-2.5V52.2h2.4l8,12.6
				c0.3,0.5,0.7,1.1,0.9,1.6c0-0.5,0-1.1,0-1.8V52.2h2.5V71z M164,70h0.8V53.2h-0.5v11.5c0,2,0.1,3.7,0.1,3.7l0,0.5h-0.8l-0.2-0.3
				c0,0-0.8-1.6-1.8-3.2l0,0l-7.7-12.2h-0.8V70h0.5V58.6c0-2-0.1-3.7-0.1-3.7l0-0.5h1l0.1,0.3c0,0,0.8,1.7,1.8,3.2L164,70z"/>
		</g>
		<g>
			<path fill="#009A9A" d="M180.2,70.5h-9.3V52.7h9.3v1.4h-7.9v6.8h7v1.4h-7v6.8h7.9V70.5z"/>
			<path fill="#009A9A" d="M180.7,71h-10.3V52.2h10.3v2.4h-7.9v5.8h7v2.4h-7v5.8h7.9V71z M171.3,70h8.3v-0.4h-7.9v-7.8h7v-0.4h-7
				v-7.8h7.9v-0.4h-8.3V70z"/>
		</g>
	</g>
	<g>
		<g>
			<path fill="#009A9A" d="M173.5,33.6V31l0.5,0c1.7-0.2,2.2-0.8,2.4-1.3c-0.7,0-1.3-0.3-1.8-0.7c-0.6-0.5-0.9-1.2-0.9-2.1
				c0-1.7,1.2-2.9,3.1-2.9c2,0,3.4,1.6,3.4,3.8c0,3.7-2.2,5.7-6.2,5.8L173.5,33.6z M174.5,31.9v0.7c3.1-0.2,4.7-1.8,4.7-4.8
				c0-1.7-1-2.8-2.4-2.8c-0.5,0-2.1,0.1-2.1,1.9c0,0.6,0.2,1,0.6,1.3c0.4,0.3,1,0.5,1.6,0.4l0.6-0.1v0.6
				C177.4,30.2,176.9,31.5,174.5,31.9z"/>
		</g>
	</g>
</g>
<g>
	
		<image overflow="visible" opacity="0.26" width="220" height="100" xlink:href="B5B9BDB9.png"  transform="matrix(0.24 0 0 0.24 27.8874 37.3133)">
	</image>
	
		<image overflow="visible" opacity="0.62" width="137" height="55" xlink:href="B5B9BDBB.png"  transform="matrix(0.24 0 0 0.24 37.444 45.7302)">
	</image>
	
		<image overflow="visible" opacity="0.62" width="75" height="21" xlink:href="B5B9BDBE.png"  transform="matrix(0.24 0 0 0.24 44.819 50.9128)">
	</image>
</g>
<g>
	
		<image overflow="visible" opacity="0.31" width="102" height="36" xlink:href="B5B9BDBF.png"  transform="matrix(0.24 0 0 0.24 24.2934 68.1907)">
	</image>
	
		<image overflow="visible" opacity="0.31" width="56" height="14" xlink:href="B5B9BDBA.png"  transform="matrix(0.24 0 0 0.24 29.7814 71.5711)">
	</image>
</g>
<g>
	<path fill="#FFFFFF" d="M53.8,44.2c-5.2,0-10.2-3.1-12.4-8.2c-1.4-3.3-1.4-7,0-10.3s3.9-5.9,7.2-7.3c3.3-1.4,7-1.4,10.3,0
		c3.3,1.4,5.9,3.9,7.3,7.2c2.9,6.8-0.4,14.7-7.2,17.6l0,0C57.3,43.9,55.6,44.2,53.8,44.2z M53.8,18.4c-1.6,0-3.2,0.3-4.8,1
		c-6.3,2.6-9.3,9.9-6.7,16.3c2.6,6.3,9.9,9.3,16.3,6.7c6.3-2.6,9.3-9.9,6.7-16.3C63.3,21.3,58.7,18.4,53.8,18.4z"/>
	<path fill="#FFFFFF" d="M27.2,26.9c-1.9,0-3.7-0.9-4.8-2.6c-0.8-1.3-1.1-2.8-0.8-4.3c0.3-1.5,1.2-2.8,2.5-3.7
		c1.3-0.8,2.8-1.1,4.3-0.8c1.5,0.3,2.8,1.2,3.7,2.5c0.8,1.3,1.1,2.8,0.8,4.3c-0.3,1.5-1.2,2.8-2.5,3.7l0,0
		C29.4,26.6,28.3,26.9,27.2,26.9z M27.2,16.4c-0.9,0-1.8,0.3-2.6,0.8c-1.1,0.7-1.8,1.8-2,3c-0.3,1.2,0,2.5,0.7,3.6
		c1.4,2.2,4.4,2.8,6.6,1.4c1.1-0.7,1.8-1.8,2-3c0.3-1.2,0-2.5-0.7-3.6s-1.8-1.8-3-2C27.9,16.4,27.5,16.4,27.2,16.4z"/>
	<path fill="#FFFFFF" d="M37.6,70.3c-1.3,0-2.7-0.3-3.9-0.8c-2.6-1-4.6-3-5.6-5.6c-2.2-5.3,0.3-11.4,5.6-13.6
		c5.3-2.2,11.4,0.3,13.6,5.6c2.2,5.3-0.3,11.4-5.6,13.6l0,0C40.3,70,39,70.3,37.6,70.3z M37.6,50.5c-1.2,0-2.4,0.2-3.6,0.7
		c-4.8,2-7,7.5-5,12.3c2,4.8,7.5,7,12.3,5l0,0c4.8-2,7-7.5,5-12.3C44.7,52.7,41.3,50.5,37.6,50.5z"/>
	
		<rect x="44.8" y="41.5" transform="matrix(0.8873 0.4612 -0.4612 0.8873 26.5256 -15.6678)" fill="#FFFFFF" width="1" height="9.8"/>
	<rect x="31.5" y="24.4" transform="matrix(0.9498 0.3129 -0.3129 0.9498 9.6297 -10.1588)" fill="#FFFFFF" width="10" height="1"/>
</g>
</svg>
