<?xml version="1.0" encoding="utf-8"?>
<!-- Generator: Adobe Illustrator 19.0.0, SVG Export Plug-In . SVG Version: 6.00 Build 0)  -->
<svg version="1.1" id="Calque_1" xmlns="http://www.w3.org/2000/svg" xmlns:xlink="http://www.w3.org/1999/xlink" x="0px" y="0px"
	 width="198.1px" height="85.4px" viewBox="0 0 198.1 85.4" enable-background="new 0 0 198.1 85.4" xml:space="preserve">
<path id="XMLID_176_" fill="#FBB714" d="M85,85.3c0,0-40.1,0-50.1,0S21,69.1,21,69.1S17.5,85.3,8.2,85.3c-2.3,0-8.2,0-8.2,0V0h85
	V85.3z"/>
<g id="XMLID_70_">
	<g id="XMLID_141_">
		<g id="XMLID_173_">
			<path id="XMLID_174_" fill="#344967" d="M103.2,83.3c-0.8,1.4-1.9,2.1-3.9,2.1c-2.5,0-4.2-1.7-4.2-4.7c0-3,1.7-4.7,4.4-4.7
				c1.9,0,3,0.8,3.7,2.3l-2,1c-0.3-0.9-0.8-1.4-1.8-1.4c-1.4,0-2.2,1.1-2.2,2.9c0,1.8,0.7,2.8,2.2,2.8c0.8,0,1.5-0.4,1.9-1.3
				L103.2,83.3z"/>
		</g>
		<g id="XMLID_169_">
			<path id="XMLID_170_" fill="#344967" d="M109.8,85.2c-0.3-0.2-0.4-0.6-0.5-0.9l-0.3-1.4c-0.2-0.8-0.5-0.9-1.2-0.9h-0.9v3.2h-2.1
				v-9.1h3.6c2,0,3.3,0.7,3.3,2.8c0,1.4-0.8,2.2-2,2.3v0c0.8,0.1,1.3,0.5,1.5,1.3l0.5,1.7c0.1,0.4,0.2,0.7,0.5,1H109.8z M106.8,80.3
				h1.3c0.8,0,1.3-0.3,1.3-1.2c0-0.8-0.4-1.2-1.3-1.2h-1.3V80.3z"/>
		</g>
		<g id="XMLID_166_">
			<path id="XMLID_167_" fill="#344967" d="M115.8,76.2v9.1h-2.1v-9.1H115.8z"/>
		</g>
		<g id="XMLID_162_">
			<path id="XMLID_163_" fill="#344967" d="M118.2,85.2v-9.1h3.3c2.5,0,4.4,1.2,4.4,4.4c0,3.4-2,4.6-4.6,4.6H118.2z M121.2,83.5
				c1.6,0,2.6-0.7,2.6-2.7c0-2.2-1-2.8-2.4-2.8h-1v5.5H121.2z"/>
		</g>
		<g id="XMLID_158_">
			<path id="XMLID_159_" fill="#344967" d="M127.2,80.7c0-3,1.6-4.7,4.3-4.7c2.7,0,4.3,1.7,4.3,4.7c0,3-1.6,4.7-4.3,4.7
				C128.8,85.4,127.2,83.7,127.2,80.7z M129.4,80.7c0,1.8,0.7,2.9,2.1,2.9s2.1-1.1,2.1-2.9c0-1.8-0.7-2.9-2.1-2.9
				C130.1,77.9,129.4,78.9,129.4,80.7z"/>
		</g>
		<g id="XMLID_155_">
			<path id="XMLID_156_" fill="#344967" d="M142.8,80.6c0.5,0.7,0.8,1.2,0.8,1.2h0.1c0,0,0-0.8,0-1.9v-3.7h2.1v9.1h-1.9l-3.2-4.3
				c-0.6-0.8-0.9-1.3-0.9-1.3h-0.1c0,0,0.1,0.7,0.1,2v3.6h-2.1v-9.1h2L142.8,80.6z"/>
		</g>
		<g id="XMLID_152_">
			<path id="XMLID_153_" fill="#344967" d="M152.2,76.2v8.4h4.2v0.7h-5v-9.1H152.2z"/>
		</g>
		<g id="XMLID_149_">
			<path id="XMLID_150_" fill="#344967" d="M158.8,79.5c0.6,1,0.7,1.4,0.7,1.4h0c0,0,0.1-0.4,0.7-1.4l1.8-3.3h0.8l-2.9,5.4v3.6h-0.8
				v-3.6l-3-5.4h0.9L158.8,79.5z"/>
		</g>
		<g id="XMLID_145_">
			<path id="XMLID_146_" fill="#344967" d="M163.4,80.7c0-3,1.5-4.7,3.9-4.7s3.9,1.7,3.9,4.7s-1.5,4.7-3.9,4.7
				S163.4,83.7,163.4,80.7z M164.2,80.7c0,2.5,1.1,4,3.1,4c2,0,3.1-1.5,3.1-4c0-2.5-1.1-4-3.1-4C165.3,76.7,164.2,78.3,164.2,80.7z"
				/>
		</g>
		<g id="XMLID_142_">
			<path id="XMLID_143_" fill="#344967" d="M178.5,82.5c0.6,0.8,1,1.7,1,1.7h0c0,0,0-0.9,0-1.9v-6.1h0.8v9.1h-0.9l-4.3-6.3
				c-0.6-0.8-1-1.7-1-1.7h-0.1c0,0,0.1,0.9,0.1,1.9v6.1h-0.8v-9.1h0.9L178.5,82.5z"/>
		</g>
	</g>
	<g id="XMLID_116_">
		<g id="XMLID_136_">
			<g id="XMLID_137_">
				<path id="XMLID_138_" fill="#009A9A" d="M105.6,46.8c-6.4,0-10.4-4.5-10.4-11.7c0-7.3,4.1-11.7,11-11.7c4.4,0,7.5,1.9,9.2,5.7
					l0.2,0.4l-5.7,2.8l-0.2-0.6c-0.7-2.1-1.8-3-3.7-3c-3,0-4.7,2.4-4.7,6.4c0,2.8,0.8,6.2,4.8,6.2c1.8,0,3.2-0.9,4-2.8l0.2-0.5
					l5.1,3.1l-0.2,0.4C113.1,45.3,110.3,46.8,105.6,46.8z M106.2,24.4c-6.4,0-10,3.9-10,10.7c0,6.6,3.6,10.7,9.4,10.7
					c4.2,0,6.6-1.2,8.6-4.3l-3.3-2c-1,1.9-2.6,2.9-4.7,2.9c-3.7,0-5.8-2.6-5.8-7.2c0-4.6,2.2-7.4,5.7-7.4c2.2,0,3.6,1,4.5,3.2
					l3.8-1.9C112.7,26,110.1,24.4,106.2,24.4z"/>
			</g>
		</g>
		<g id="XMLID_129_">
			<g id="XMLID_130_">
				<path id="XMLID_131_" fill="#009A9A" d="M138,46.4h-6.9l-0.1-0.1c-0.8-0.6-1.1-1.6-1.3-2.5l-0.8-3.2c-0.4-1.5-0.9-1.8-2.4-1.8
					h-1.6v7.6h-6V23.8h9c5.6,0,8.3,2.3,8.3,7.1c0,2.7-1.2,4.7-3.4,5.5c1.2,0.6,1.9,1.5,2.3,3l1.1,4c0.2,0.8,0.5,1.4,1.1,2.1
					L138,46.4z M131.5,45.4h4.3c-0.4-0.6-0.5-1.1-0.7-1.7l-1.1-4c-0.5-1.7-1.3-2.5-3.2-2.8l-0.4-0.1V36l0.4-0.1
					c2.8-0.3,4.3-2,4.3-4.9c0-4.1-2.3-6.1-7.3-6.1h-8v20.5h4v-7.6h2.6c1.8,0,2.9,0.4,3.4,2.5l0.8,3.2
					C130.9,44.4,131.1,45,131.5,45.4z M127.5,34.7h-3.7v-6.6h3.7c2.3,0,3.6,1.2,3.6,3.3C131.1,33.6,129.9,34.7,127.5,34.7z
					 M124.8,33.7h2.7c1.8,0,2.6-0.7,2.6-2.3c0-1.6-0.8-2.3-2.6-2.3h-2.7V33.7z"/>
			</g>
		</g>
		<g id="XMLID_124_">
			<g id="XMLID_125_">
				<path id="XMLID_126_" fill="#009A9A" d="M147,46.4h-6V23.8h6V46.4z M142,45.4h4V24.8h-4V45.4z"/>
			</g>
		</g>
		<g id="XMLID_117_">
			<g id="XMLID_118_">
				<path id="XMLID_119_" fill="#009A9A" d="M160.6,46.4h-8.1V23.8h8.4c7.1,0,11,3.9,11,11C172,42.3,167.9,46.4,160.6,46.4z
					 M153.5,45.4h7.1c4.7,0,10.3-1.8,10.3-10.5c0-8.3-5.4-10-10-10h-7.4V45.4z M160.2,42.2h-2.7V28.1h2.9c4.3,0,6.3,2.3,6.3,7.1
					C166.8,39.9,164.7,42.2,160.2,42.2z M158.5,41.2h1.7c3.9,0,5.6-1.8,5.6-6c0-4.3-1.5-6.1-5.3-6.1h-1.9V41.2z"/>
			</g>
		</g>
	</g>
	<g id="XMLID_76_">
		<g id="XMLID_107_">
			<path id="XMLID_113_" fill="#009A9A" d="M95.7,61.5c0-5.9,2.8-9.2,7.1-9.2c4.4,0,7.1,3.3,7.1,9.2s-2.8,9.2-7.1,9.2
				C98.5,70.6,95.7,67.4,95.7,61.5z M97.2,61.5c0,4.8,2,7.8,5.6,7.8c3.7,0,5.6-2.9,5.6-7.8c0-4.8-2-7.8-5.6-7.8
				C99.2,53.7,97.2,56.6,97.2,61.5z"/>
			<path id="XMLID_108_" fill="#009A9A" d="M102.8,71.1c-4.8,0-7.6-3.6-7.6-9.7c0-6.1,2.9-9.7,7.6-9.7c4.8,0,7.6,3.6,7.6,9.7
				C110.5,67.5,107.6,71.1,102.8,71.1z M102.8,52.8c-4.2,0-6.6,3.3-6.6,8.7c0,5.4,2.5,8.7,6.6,8.7c4.2,0,6.6-3.2,6.6-8.7
				C109.5,56,107,52.8,102.8,52.8z M102.8,69.7c-3.9,0-6.1-3-6.1-8.3c0-5.3,2.2-8.3,6.1-8.3c3.8,0,6.1,3.1,6.1,8.3
				C109,66.7,106.7,69.7,102.8,69.7z M102.8,54.2c-4.4,0-5.1,4.6-5.1,7.3c0,2.7,0.7,7.3,5.1,7.3c4.5,0,5.1-4.6,5.1-7.3
				C108,56.8,106.1,54.2,102.8,54.2z"/>
		</g>
		<g id="XMLID_101_">
			<path id="XMLID_105_" fill="#009A9A" d="M123.8,64.9c1.1,1.7,1.8,3.3,1.8,3.3h0.1c0,0-0.1-1.8-0.1-3.8v-12h1.5v17.8h-1.6
				L117.7,58c-1-1.6-1.8-3.3-1.8-3.3h-0.1c0,0,0.1,1.8,0.1,3.8v12h-1.5V52.5h1.6L123.8,64.9z"/>
			<path id="XMLID_102_" fill="#009A9A" d="M127.6,70.9h-2.3l-8-12.6c-0.3-0.5-0.7-1.1-0.9-1.6c0,0.5,0,1.1,0,1.8v12.5h-2.5V52h2.4
				l8,12.6c0.3,0.5,0.7,1.1,0.9,1.6c0-0.5,0-1.1,0-1.8V52h2.5V70.9z M125.8,69.9h0.8V53h-0.5v11.5c0,2,0.1,3.7,0.1,3.7l0,0.5h-0.8
				l-0.2-0.3c0,0-0.8-1.6-1.8-3.2l0,0L115.7,53h-0.8v16.8h0.5V58.4c0-2-0.1-3.7-0.1-3.7l0-0.5h1l0.1,0.3c0,0,0.8,1.7,1.8,3.2
				L125.8,69.9z"/>
		</g>
		<g id="XMLID_95_">
			<path id="XMLID_99_" fill="#009A9A" d="M134.2,52.5V69h7.6v1.4h-9.1V52.5H134.2z"/>
			<path id="XMLID_96_" fill="#009A9A" d="M142.3,70.9h-10.1V52h2.5v16.4h7.6V70.9z M133.2,69.9h8.1v-0.4h-7.6V53h-0.5V69.9z"/>
		</g>
		<g id="XMLID_89_">
			<path id="XMLID_93_" fill="#009A9A" d="M147,52.5v17.8h-1.5V52.5H147z"/>
			<path id="XMLID_90_" fill="#009A9A" d="M147.5,70.9H145V52h2.5V70.9z M146,69.9h0.5V53H146V69.9z"/>
		</g>
		<g id="XMLID_83_">
			<path id="XMLID_87_" fill="#009A9A" d="M162,64.9c1.1,1.7,1.8,3.3,1.8,3.3h0.1c0,0-0.1-1.8-0.1-3.8v-12h1.5v17.8h-1.6L155.9,58
				c-1-1.6-1.8-3.3-1.8-3.3h-0.1c0,0,0.1,1.8,0.1,3.8v12h-1.5V52.5h1.6L162,64.9z"/>
			<path id="XMLID_84_" fill="#009A9A" d="M165.8,70.9h-2.3l-8-12.6c-0.3-0.5-0.7-1.1-0.9-1.6c0,0.5,0,1.1,0,1.8v12.5h-2.5V52h2.4
				l8,12.6c0.3,0.5,0.7,1.1,0.9,1.6c0-0.5,0-1.1,0-1.8V52h2.5V70.9z M164,69.9h0.8V53h-0.5v11.5c0,2,0.1,3.7,0.1,3.7l0,0.5h-0.8
				l-0.2-0.3c0,0-0.8-1.6-1.8-3.2l0,0L153.9,53h-0.8v16.8h0.5V58.4c0-2-0.1-3.7-0.1-3.7l0-0.5h1l0.1,0.3c0,0,0.8,1.7,1.8,3.2
				L164,69.9z"/>
		</g>
		<g id="XMLID_77_">
			<path id="XMLID_81_" fill="#009A9A" d="M180.2,70.4h-9.3V52.5h9.3v1.4h-7.9v6.8h7v1.4h-7V69h7.9V70.4z"/>
			<path id="XMLID_78_" fill="#009A9A" d="M180.7,70.9h-10.3V52h10.3v2.4h-7.9v5.8h7v2.4h-7v5.8h7.9V70.9z M171.3,69.9h8.3v-0.4
				h-7.9v-7.8h7v-0.4h-7v-7.8h7.9V53h-8.3V69.9z"/>
		</g>
	</g>
	<g id="XMLID_71_">
		<g id="XMLID_72_">
			<path id="XMLID_73_" fill="#009A9A" d="M173.5,33.5v-2.6l0.5,0c1.7-0.2,2.2-0.8,2.4-1.3c-0.7,0-1.3-0.3-1.8-0.7
				c-0.6-0.5-0.9-1.2-0.9-2.1c0-1.7,1.2-2.9,3.1-2.9c2,0,3.4,1.6,3.4,3.8c0,3.7-2.2,5.7-6.2,5.8L173.5,33.5z M174.5,31.7v0.7
				c3.1-0.2,4.7-1.8,4.7-4.8c0-1.7-1-2.8-2.4-2.8c-0.5,0-2.1,0.1-2.1,1.9c0,0.6,0.2,1,0.6,1.3c0.4,0.3,1,0.5,1.6,0.4l0.6-0.1V29
				C177.4,30.1,176.9,31.4,174.5,31.7z"/>
		</g>
	</g>
</g>
<g id="XMLID_45_">
	<path id="XMLID_67_" fill="#FBB714" d="M104.5,13.7c-0.7,2.1-2.2,3-4.3,3c-2.8,0-4.3-1.7-4.3-4.7c0-4.1,2.3-7.1,5.4-7.1
		c2.7,0,3.8,1.8,3.8,3.9c0,0.8-0.1,1.5-0.5,2.1h-7.5c0,0.3-0.1,0.7-0.1,1c0,2.3,1,3.8,3.2,3.8c1.9,0,2.7-0.8,3.2-2.3L104.5,13.7z
		 M97.3,9.8h6.4c0.1-0.3,0.2-0.7,0.2-1.1c0-1.6-0.8-2.8-2.6-2.8C99.1,5.9,97.8,7.7,97.3,9.8z"/>
	<path id="XMLID_65_" fill="#FBB714" d="M112.3,13.1c-0.6-1.3-0.6-1.6-0.6-1.6h-0.1c0,0-0.1,0.3-1.3,1.6l-2.9,3.3h-1.4l5-5.8
		l-2.7-5.6h1.3l1.4,3.1c0.6,1.3,0.7,1.6,0.7,1.6h0.1c0,0,0.2-0.3,1.2-1.6l2.6-3.1h1.5l-4.7,5.6l2.8,5.8H114L112.3,13.1z"/>
	<path id="XMLID_63_" fill="#FBB714" d="M122.4,15.6c1.9,0,2.8-1.1,3.2-2.5l1.2,0.3c-0.7,2-2,3.2-4.5,3.2c-2.6,0-4.2-1.6-4.2-4.7
		c0-3.5,1.8-7.1,5.5-7.1c2.5,0,3.6,1.5,3.6,3.7l-1.1,0.2c0-1.6-0.7-2.8-2.6-2.8c-2.8,0-4.2,3-4.2,5.9
		C119.3,14.4,120.4,15.6,122.4,15.6z"/>
	<path id="XMLID_60_" fill="#FBB714" d="M138.1,13.7c-0.7,2.1-2.2,3-4.3,3c-2.8,0-4.3-1.7-4.3-4.7c0-4.1,2.3-7.1,5.4-7.1
		c2.7,0,3.8,1.8,3.8,3.9c0,0.8-0.1,1.5-0.5,2.1h-7.5c0,0.3-0.1,0.7-0.1,1c0,2.3,1,3.8,3.2,3.8c1.9,0,2.7-0.8,3.2-2.3L138.1,13.7z
		 M130.9,9.8h6.4c0.1-0.3,0.2-0.7,0.2-1.1c0-1.6-0.8-2.8-2.6-2.8C132.7,5.9,131.4,7.7,130.9,9.8z"/>
	<path id="XMLID_58_" fill="#FBB714" d="M142.7,14.2c0,0.2-0.1,0.4-0.1,0.6c0,0.4,0.2,0.7,0.7,0.7c0.2,0,0.4,0,0.8-0.2l-0.2,1
		c-0.3,0.1-0.6,0.2-1,0.2c-1.1,0-1.5-0.6-1.5-1.5c0-0.2,0-0.4,0.1-0.7L144,0h1.3L142.7,14.2z"/>
	<path id="XMLID_56_" fill="#FBB714" d="M148.6,14.2c0,0.2-0.1,0.4-0.1,0.6c0,0.4,0.2,0.7,0.7,0.7c0.2,0,0.4,0,0.8-0.2l-0.2,1
		c-0.3,0.1-0.6,0.2-1,0.2c-1.1,0-1.5-0.6-1.5-1.5c0-0.2,0-0.4,0.1-0.7L149.9,0h1.3L148.6,14.2z"/>
	<path id="XMLID_53_" fill="#FBB714" d="M161.7,13.7c-0.7,2.1-2.2,3-4.3,3c-2.8,0-4.3-1.7-4.3-4.7c0-4.1,2.3-7.1,5.4-7.1
		c2.7,0,3.8,1.8,3.8,3.9c0,0.8-0.1,1.5-0.5,2.1h-7.5c0,0.3-0.1,0.7-0.1,1c0,2.3,1,3.8,3.2,3.8c1.9,0,2.7-0.8,3.2-2.3L161.7,13.7z
		 M154.4,9.8h6.4c0.1-0.3,0.2-0.7,0.2-1.1c0-1.6-0.8-2.8-2.6-2.8C156.2,5.9,154.9,7.7,154.4,9.8z"/>
	<path id="XMLID_51_" fill="#FBB714" d="M173,8.9c0.1-0.5,0.1-0.8,0.1-1.1c0-1.1-0.6-1.8-1.9-1.8c-1.7,0-3.6,1.3-4.1,4.3l-1.1,6.2
		h-1.2l2-11.4h1.1l-0.3,2.7c0.7-1.7,2-2.9,3.9-2.9c1.7,0,2.9,0.9,2.9,2.7c0,0.3,0,0.8-0.1,1.4l-0.9,5.3c0,0.2-0.1,0.4-0.1,0.6
		c0,0.4,0.2,0.7,0.7,0.7c0.2,0,0.4,0,0.8-0.2l-0.2,1c-0.3,0.1-0.6,0.2-1,0.2c-1.1,0-1.5-0.6-1.5-1.5c0-0.2,0-0.4,0.1-0.7L173,8.9z"
		/>
	<path id="XMLID_49_" fill="#FBB714" d="M181.9,15.6c1.9,0,2.8-1.1,3.2-2.5l1.2,0.3c-0.7,2-2,3.2-4.5,3.2c-2.6,0-4.2-1.6-4.2-4.7
		c0-3.5,1.8-7.1,5.5-7.1c2.5,0,3.6,1.5,3.6,3.7l-1.1,0.2c0-1.6-0.7-2.8-2.6-2.8c-2.8,0-4.2,3-4.2,5.9
		C178.7,14.4,179.9,15.6,181.9,15.6z"/>
	<path id="XMLID_46_" fill="#FBB714" d="M197.6,13.7c-0.7,2.1-2.2,3-4.3,3c-2.8,0-4.3-1.7-4.3-4.7c0-4.1,2.3-7.1,5.4-7.1
		c2.7,0,3.8,1.8,3.8,3.9c0,0.8-0.1,1.5-0.5,2.1h-7.5c0,0.3-0.1,0.7-0.1,1c0,2.3,1,3.8,3.2,3.8c1.9,0,2.7-0.8,3.2-2.3L197.6,13.7z
		 M190.3,9.8h6.4c0.1-0.3,0.2-0.7,0.2-1.1c0-1.6-0.8-2.8-2.6-2.8C192.1,5.9,190.8,7.7,190.3,9.8z"/>
</g>
<image overflow="visible" opacity="0.15" width="274" height="47" xlink:href="A8F19E78.png"  transform="matrix(0.24 0 0 0.24 9.6566 59.1649)">
</image>
<g>
	
		<image overflow="visible" opacity="0.31" width="102" height="36" xlink:href="A8F19E79.png"  transform="matrix(0.24 0 0 0.24 50.275 71.1175)">
	</image>
	
		<image overflow="visible" opacity="0.31" width="56" height="14" xlink:href="A8F19E7F.png"  transform="matrix(0.24 0 0 0.24 55.763 74.4979)">
	</image>
</g>
<g opacity="0.6">
	
		<image overflow="visible" opacity="0.31" width="56" height="20" xlink:href="A8F19E7A.png"  transform="matrix(0.24 0 0 0.24 38.5027 63.3689)">
	</image>
	
		<image overflow="visible" opacity="0.31" width="31" height="8" xlink:href="A8F19E7B.png"  transform="matrix(0.24 0 0 0.24 41.5209 65.2284)">
	</image>
</g>
<g opacity="0.6">
	
		<image overflow="visible" opacity="0.31" width="31" height="11" xlink:href="A8F19E76.png"  transform="matrix(0.24 0 0 0.24 71.0597 63.6782)">
	</image>
	
		<image overflow="visible" opacity="0.31" width="17" height="5" xlink:href="A8F19E77.png"  transform="matrix(0.24 0 0 0.24 72.7206 64.7011)">
	</image>
</g>
<g>
	<path fill="#FFFFFF" d="M62.5,75.1c-4,0-7.3-3.3-7.3-7.3c0-4,3.3-7.3,7.3-7.3c4,0,7.3,3.3,7.3,7.3C69.7,71.9,66.5,75.1,62.5,75.1z
		 M62.5,61.6c-3.5,0-6.3,2.8-6.3,6.3s2.8,6.3,6.3,6.3c3.5,0,6.3-2.8,6.3-6.3S65.9,61.6,62.5,61.6z"/>
	<path fill="#FFFFFF" d="M77.1,21.4c-2,0-3.7-1.7-3.7-3.7s1.7-3.7,3.7-3.7s3.7,1.7,3.7,3.7S79.2,21.4,77.1,21.4z M77.1,15
		c-1.5,0-2.7,1.2-2.7,2.7s1.2,2.7,2.7,2.7s2.7-1.2,2.7-2.7S78.6,15,77.1,15z"/>
	<path fill="#FFFFFF" d="M45.5,15c-2,0-3.7-1.7-3.7-3.7s1.7-3.7,3.7-3.7s3.7,1.7,3.7,3.7S47.6,15,45.5,15z M45.5,8.6
		c-1.5,0-2.7,1.2-2.7,2.7c0,1.5,1.2,2.7,2.7,2.7c1.5,0,2.7-1.2,2.7-2.7C48.2,9.8,47,8.6,45.5,8.6z"/>
	<path fill="#FFFFFF" d="M71.5,54.8c-2,0-3.7-1.7-3.7-3.7c0-2,1.7-3.7,3.7-3.7s3.7,1.7,3.7,3.7C75.2,53.1,73.6,54.8,71.5,54.8z
		 M71.5,48.4c-1.5,0-2.7,1.2-2.7,2.7s1.2,2.7,2.7,2.7s2.7-1.2,2.7-2.7S73,48.4,71.5,48.4z"/>
	
		<rect x="68" y="16.4" transform="matrix(0.5641 0.8257 -0.8257 0.5641 49.4009 -46.2286)" fill="#FFFFFF" width="1" height="14.6"/>
	<rect x="64" y="49" transform="matrix(0.9443 0.3292 -0.3292 0.9443 20.0042 -19.095)" fill="#FFFFFF" width="4.7" height="1"/>
	
		<rect x="46.8" y="59.7" transform="matrix(0.7746 0.6324 -0.6324 0.7746 49.902 -19.7152)" fill="#FFFFFF" width="11.6" height="1"/>
	<path id="XMLID_29_" fill-rule="evenodd" clip-rule="evenodd" fill="none" stroke="#FFFFFF" stroke-miterlimit="10" d="M36,63.3"/>
	
		<rect x="44.5" y="14.9" transform="matrix(0.1198 0.9928 -0.9928 0.1198 55.4526 -31.8045)" fill="#FFFFFF" width="2.4" height="1"/>
	<g id="XMLID_25_">
		<path fill="#FFFFFF" d="M31.6,34.9c-1.7,0-3.3-0.9-4.1-2.4c-0.4-0.7-0.7-1.6-0.7-2.4c0-2.6,2.1-4.8,4.8-4.8c0.9,0,1.7,0.2,2.4,0.7
			c1.4,0.9,2.3,2.4,2.3,4.1C36.4,32.8,34.3,34.9,31.6,34.9z M31.6,26.4c-2.1,0-3.8,1.7-3.8,3.8c0,0.7,0.2,1.3,0.5,1.9
			c0.7,1.1,1.9,1.9,3.3,1.9c2.1,0,3.8-1.7,3.8-3.8c0-1.3-0.7-2.6-1.8-3.2C33,26.6,32.3,26.4,31.6,26.4z"/>
	</g>
	<g id="XMLID_23_">
		<path fill="#FFFFFF" d="M59,34.9c-1.7,0-3.3-0.9-4.1-2.4c-0.4-0.7-0.7-1.6-0.7-2.4c0-2.6,2.1-4.8,4.8-4.8c0.9,0,1.7,0.2,2.4,0.7
			c1.4,0.9,2.3,2.4,2.3,4.1C63.8,32.8,61.6,34.9,59,34.9z M59,26.4c-2.1,0-3.8,1.7-3.8,3.8c0,0.7,0.2,1.3,0.5,1.9
			c0.7,1.1,1.9,1.9,3.3,1.9c2.1,0,3.8-1.7,3.8-3.8c0-1.3-0.7-2.6-1.8-3.2C60.3,26.6,59.7,26.4,59,26.4z"/>
	</g>
	<g id="XMLID_21_">
		<path fill="#FFFFFF" d="M45.2,58.7c-1.7,0-3.3-0.9-4.1-2.4c-0.4-0.7-0.7-1.6-0.7-2.4c0-2.6,2.1-4.8,4.8-4.8c0.9,0,1.7,0.2,2.4,0.7
			c1.4,0.9,2.3,2.4,2.3,4.1C50,56.5,47.8,58.7,45.2,58.7z M45.2,50.1c-2.1,0-3.8,1.7-3.8,3.8c0,0.7,0.2,1.3,0.5,1.9
			c0.7,1.1,1.9,1.9,3.3,1.9c2.1,0,3.8-1.7,3.8-3.8c0-1.3-0.7-2.5-1.8-3.2C46.5,50.3,45.9,50.1,45.2,50.1z"/>
	</g>
	<g id="XMLID_19_">
		<path fill="#FFFFFF" d="M16.6,59.7c-1.7,0-3.3-0.9-4.1-2.4c-0.4-0.7-0.7-1.6-0.7-2.4c0-2.6,2.1-4.8,4.8-4.8c0.9,0,1.7,0.2,2.4,0.7
			c1.4,0.9,2.3,2.4,2.3,4.1C21.4,57.6,19.2,59.7,16.6,59.7z M16.6,51.2c-2.1,0-3.8,1.7-3.8,3.8c0,0.7,0.2,1.3,0.5,1.9
			c0.7,1.1,1.9,1.9,3.3,1.9c2.1,0,3.8-1.7,3.8-3.8c0-1.3-0.7-2.6-1.8-3.2C18,51.3,17.3,51.2,16.6,51.2z"/>
	</g>
	<g id="XMLID_17_">
		<path fill="#FFFFFF" d="M45.5,28.3c-2.2,0-4.2-1.2-5.3-3c-0.5-0.9-0.8-2-0.8-3.1c0-3.4,2.7-6.1,6.1-6.1c1.1,0,2.2,0.3,3.1,0.9
			c1.8,1.1,3,3.1,3,5.2C51.6,25.6,48.9,28.3,45.5,28.3z M45.5,17.1c-2.8,0-5.1,2.3-5.1,5.1c0,0.9,0.2,1.8,0.7,2.6
			c0.9,1.6,2.6,2.5,4.4,2.5c2.8,0,5.1-2.3,5.1-5.1c0-1.8-1-3.5-2.5-4.4C47.3,17.4,46.4,17.1,45.5,17.1z"/>
	</g>
	<g id="XMLID_15_">
		<path fill="#FFFFFF" d="M31.4,52.3c-2.2,0-4.2-1.2-5.3-3c-0.5-0.9-0.8-2-0.8-3.1c0-3.4,2.7-6.1,6.1-6.1c1.1,0,2.2,0.3,3.1,0.9
			c1.8,1.1,3,3.1,3,5.2C37.5,49.6,34.8,52.3,31.4,52.3z M31.4,41.1c-2.8,0-5.1,2.3-5.1,5.1c0,0.9,0.2,1.8,0.7,2.6
			c0.9,1.6,2.6,2.5,4.4,2.5c2.8,0,5.1-2.3,5.1-5.1c0-1.8-0.9-3.4-2.5-4.4C33.2,41.4,32.3,41.1,31.4,41.1z"/>
	</g>
	<g id="XMLID_13_">
		<path fill="#FFFFFF" d="M59,52.3c-2.2,0-4.2-1.2-5.3-3c-0.5-0.9-0.8-2-0.8-3.1c0-3.4,2.7-6.1,6.1-6.1c1.1,0,2.2,0.3,3.1,0.9
			c1.8,1.1,3,3.1,3,5.2C65.1,49.6,62.4,52.3,59,52.3z M59,41.1c-2.8,0-5.1,2.3-5.1,5.1c0,0.9,0.2,1.8,0.7,2.6
			c0.9,1.6,2.6,2.5,4.4,2.5c2.8,0,5.1-2.3,5.1-5.1c0-1.8-0.9-3.4-2.5-4.4C60.8,41.4,59.9,41.1,59,41.1z"/>
	</g>
	
		<rect x="37.4" y="23.3" transform="matrix(0.4378 0.8991 -0.8991 0.4378 45.0365 -19.2683)" fill="#FFFFFF" width="1" height="6.2"/>
	<rect x="30.4" y="34.4" fill="#FFFFFF" width="1" height="6.2"/>
	<rect x="58.5" y="34.4" fill="#FFFFFF" width="1" height="6.2"/>
	
		<rect x="50.4" y="25.1" transform="matrix(0.9423 0.3347 -0.3347 0.9423 11.6632 -16.4422)" fill="#FFFFFF" width="6.3" height="1"/>
	
		<rect x="51.8" y="48.4" transform="matrix(0.3337 0.9427 -0.9427 0.3337 83.5054 -14.9637)" fill="#FFFFFF" width="1" height="6.5"/>
	<rect x="35" y="50.9" transform="matrix(0.9381 0.3464 -0.3464 0.9381 20.1725 -9.9928)" fill="#FFFFFF" width="6.2" height="1"/>
	<rect x="23.2" y="47.5" transform="matrix(0.5393 0.8421 -0.8421 0.5393 53.7624 3.4752)" fill="#FFFFFF" width="1" height="6.8"/>
	<g id="XMLID_4_">
		<path fill="#FFFFFF" d="M15.1,26.5c-2.6,0-5-1.4-6.4-3.6c-0.7-1.1-1-2.4-1-3.7c0-4.1,3.3-7.4,7.4-7.4c1.3,0,2.6,0.4,3.8,1
			c2.2,1.3,3.6,3.8,3.6,6.3C22.5,23.2,19.2,26.5,15.1,26.5z M15.1,12.8c-3.5,0-6.4,2.9-6.4,6.4c0,1.1,0.3,2.3,0.9,3.2
			c1.1,1.9,3.3,3.2,5.5,3.2c3.5,0,6.4-2.9,6.4-6.4c0-2.2-1.2-4.3-3.1-5.5C17.4,13.1,16.3,12.8,15.1,12.8z"/>
	</g>
	<rect x="20" y="25.2" transform="matrix(0.8707 0.4918 -0.4918 0.8707 15.7755 -8.6461)" fill="#FFFFFF" width="8.6" height="1"/>
</g>
</svg>
