<?xml version="1.0" encoding="utf-8"?>
<!-- Generator: Adobe Illustrator 19.0.0, SVG Export Plug-In . SVG Version: 6.00 Build 0)  -->
<svg version="1.1" id="Mode_Isolation" xmlns="http://www.w3.org/2000/svg" xmlns:xlink="http://www.w3.org/1999/xlink" x="0px"
	 y="0px" width="61.4px" height="10px" viewBox="0 0 61.4 10" enable-background="new 0 0 61.4 10" xml:space="preserve">
<g id="XMLID_738_">
	<path id="XMLID_760_" fill="#FAB612" d="M5.2,8.2C4.8,9.5,3.9,10,2.6,10C0.9,10,0,9,0,7.1c0-2.5,1.4-4.2,3.3-4.2
		c1.6,0,2.3,1.1,2.3,2.3c0,0.5-0.1,0.9-0.3,1.3H0.7c0,0.2,0,0.4,0,0.6c0,1.4,0.6,2.3,1.9,2.3c1.1,0,1.6-0.5,1.9-1.4L5.2,8.2z
		 M0.8,5.9h3.9c0.1-0.2,0.1-0.4,0.1-0.7c0-0.9-0.5-1.7-1.6-1.7C1.9,3.5,1.1,4.6,0.8,5.9z"/>
	<path id="XMLID_758_" fill="#FAB612" d="M9.9,7.8C9.5,7.1,9.5,6.9,9.5,6.9H9.5c0,0-0.1,0.2-0.8,1L7,9.9H6.1l3-3.5L7.5,3h0.8
		l0.9,1.9c0.4,0.8,0.4,1,0.4,1h0c0,0,0.1-0.2,0.7-1L11.9,3h0.9L10,6.4l1.7,3.5h-0.8L9.9,7.8z"/>
	<path id="XMLID_756_" fill="#FAB612" d="M16,9.4c1.1,0,1.7-0.6,1.9-1.5l0.7,0.2c-0.4,1.2-1.2,1.9-2.7,1.9c-1.5,0-2.5-1-2.5-2.8
		c0-2.1,1.1-4.3,3.3-4.3c1.5,0,2.2,0.9,2.2,2.2l-0.7,0.1c0-1-0.4-1.7-1.6-1.7c-1.7,0-2.5,1.8-2.5,3.5C14.1,8.6,14.8,9.4,16,9.4z"/>
	<path id="XMLID_753_" fill="#FAB612" d="M25.4,8.2C25,9.5,24.1,10,22.8,10c-1.7,0-2.6-1-2.6-2.9c0-2.5,1.4-4.2,3.3-4.2
		c1.6,0,2.3,1.1,2.3,2.3c0,0.5-0.1,0.9-0.3,1.3h-4.5c0,0.2,0,0.4,0,0.6c0,1.4,0.6,2.3,1.9,2.3c1.1,0,1.6-0.5,1.9-1.4L25.4,8.2z
		 M21,5.9h3.9C25,5.7,25,5.5,25,5.2c0-0.9-0.5-1.7-1.6-1.7C22.1,3.5,21.3,4.6,21,5.9z"/>
	<path id="XMLID_751_" fill="#FAB612" d="M28.1,8.6c0,0.1,0,0.3,0,0.4c0,0.3,0.1,0.4,0.4,0.4c0.1,0,0.3,0,0.5-0.1l-0.1,0.6
		c-0.2,0.1-0.4,0.1-0.6,0.1c-0.6,0-0.9-0.3-0.9-0.9c0-0.1,0-0.3,0-0.4L28.9,0h0.8L28.1,8.6z"/>
	<path id="XMLID_749_" fill="#FAB612" d="M31.7,8.6c0,0.1,0,0.3,0,0.4c0,0.3,0.1,0.4,0.4,0.4c0.1,0,0.3,0,0.5-0.1l-0.1,0.6
		c-0.2,0.1-0.4,0.1-0.6,0.1c-0.6,0-0.9-0.3-0.9-0.9c0-0.1,0-0.3,0-0.4L32.4,0h0.8L31.7,8.6z"/>
	<path id="XMLID_746_" fill="#FAB612" d="M39.5,8.2c-0.4,1.3-1.3,1.8-2.6,1.8c-1.7,0-2.6-1-2.6-2.9c0-2.5,1.4-4.2,3.3-4.2
		c1.6,0,2.3,1.1,2.3,2.3c0,0.5-0.1,0.9-0.3,1.3h-4.5c0,0.2,0,0.4,0,0.6c0,1.4,0.6,2.3,1.9,2.3c1.1,0,1.6-0.5,1.9-1.4L39.5,8.2z
		 M35.2,5.9H39c0.1-0.2,0.1-0.4,0.1-0.7c0-0.9-0.5-1.7-1.6-1.7C36.3,3.5,35.5,4.6,35.2,5.9z"/>
	<path id="XMLID_744_" fill="#FAB612" d="M46.3,5.3c0-0.3,0.1-0.5,0.1-0.7c0-0.7-0.4-1.1-1.2-1.1c-1,0-2.1,0.8-2.5,2.6l-0.7,3.8
		h-0.7L42.6,3h0.7l-0.2,1.6c0.4-1,1.2-1.7,2.4-1.7c1,0,1.7,0.5,1.7,1.6c0,0.2,0,0.5-0.1,0.8l-0.6,3.2c0,0.1,0,0.3,0,0.4
		c0,0.3,0.1,0.4,0.4,0.4c0.1,0,0.3,0,0.5-0.1l-0.1,0.6c-0.2,0.1-0.4,0.1-0.6,0.1c-0.6,0-0.9-0.3-0.9-0.9c0-0.1,0-0.3,0-0.4L46.3,5.3
		z"/>
	<path id="XMLID_742_" fill="#FAB612" d="M51.7,9.4c1.1,0,1.7-0.6,1.9-1.5l0.7,0.2c-0.4,1.2-1.2,1.9-2.7,1.9C50,10,49,9,49,7.2
		c0-2.1,1.1-4.3,3.3-4.3c1.5,0,2.2,0.9,2.2,2.2l-0.7,0.1c0-1-0.4-1.7-1.6-1.7c-1.7,0-2.5,1.8-2.5,3.5C49.8,8.6,50.5,9.4,51.7,9.4z"
		/>
	<path id="XMLID_739_" fill="#FAB612" d="M61.1,8.2c-0.4,1.3-1.3,1.8-2.6,1.8c-1.7,0-2.6-1-2.6-2.9c0-2.5,1.4-4.2,3.3-4.2
		c1.6,0,2.3,1.1,2.3,2.3c0,0.5-0.1,0.9-0.3,1.3h-4.5c0,0.2,0,0.4,0,0.6c0,1.4,0.6,2.3,1.9,2.3c1.1,0,1.6-0.5,1.9-1.4L61.1,8.2z
		 M56.7,5.9h3.9c0.1-0.2,0.1-0.4,0.1-0.7c0-0.9-0.5-1.7-1.6-1.7C57.8,3.5,57,4.6,56.7,5.9z"/>
</g>
</svg>
