<?xml version="1.0" encoding="utf-8"?>
<!-- Generator: Adobe Illustrator 19.0.0, SVG Export Plug-In . SVG Version: 6.00 Build 0)  -->
<svg version="1.1" id="Calque_1" xmlns="http://www.w3.org/2000/svg" xmlns:xlink="http://www.w3.org/1999/xlink" x="0px" y="0px"
	 width="101px" height="101px" viewBox="-429.5 231.2 101 101" style="enable-background:new -429.5 231.2 101 101;"
	 xml:space="preserve">
<style type="text/css">
	.st0{display:none;}
	.st1{display:inline;}
	.st2{fill:#00999D;}
	.st3{fill:#344968;}
	.st4{fill:#009999;}
	.st5{fill:none;stroke:#E6E6E6;stroke-miterlimit:10;}
	.st6{fill:#FAB612;}
</style>
<g id="XMLID_568_" class="st0">
	<g id="XMLID_700_" class="st1">
		<g id="XMLID_131_">
			<path id="XMLID_146_" class="st2" d="M-412,251.7c0.5-1.4,1.8-2.4,3.3-2.4c1.9,0,3.1,1.3,3.1,3.8c0,3.4-1.8,5.9-4.6,5.9
				c-1.5,0-2.6-0.9-2.7-2.2l-1.1,6.2h-1l2.4-13.5h0.9L-412,251.7z M-412.6,255.1c-0.3,1.5,0.5,3.1,2.4,3.1c2.2,0,3.6-2.3,3.6-5.1
				c0-1.8-0.8-2.9-2.3-2.9c-1.6,0-3,1.4-3.4,3.4L-412.6,255.1z"/>
			<path id="XMLID_144_" class="st2" d="M-397.8,250.6c-0.2-0.1-0.4-0.1-0.7-0.1c-1.4,0-2.7,1.2-3,3.1l-0.9,5.3h-1l1.6-9.4h0.9
				l-0.3,2.3c0.5-1.3,1.5-2.5,3-2.5c0.2,0,0.5,0.1,0.7,0.1L-397.8,250.6z"/>
			<path id="XMLID_141_" class="st2" d="M-389.6,256.6c-0.6,1.7-1.8,2.5-3.6,2.5c-2.3,0-3.6-1.4-3.6-3.9c0-3.4,1.9-5.8,4.5-5.8
				c2.2,0,3.1,1.5,3.1,3.2c0,0.6-0.1,1.2-0.4,1.7h-6.2c0,0.3-0.1,0.5-0.1,0.8c0,1.9,0.8,3.2,2.6,3.2c1.5,0,2.3-0.7,2.6-1.9
				L-389.6,256.6z M-395.6,253.4h5.3c0.1-0.2,0.1-0.6,0.1-0.9c0-1.3-0.6-2.3-2.2-2.3C-394.1,250.1-395.2,251.6-395.6,253.4z"/>
			<path id="XMLID_139_" class="st2" d="M-376.2,249.3c1.3,0,2.2,0.7,2.2,2.2c0,0.3,0,0.7-0.1,1.2l-0.8,4.3c0,0.2-0.1,0.3-0.1,0.5
				c0,0.4,0.1,0.6,0.6,0.6c0.2,0,0.4,0,0.6-0.1l-0.1,0.8c-0.2,0.1-0.5,0.2-0.8,0.2c-0.9,0-1.3-0.5-1.3-1.2c0-0.2,0-0.3,0.1-0.6
				l0.8-4.5c0.1-0.4,0.1-0.7,0.1-0.9c0-0.9-0.4-1.5-1.5-1.5c-1.3,0-2.7,1.1-3.1,3.5l-0.9,5.2h-1l1.1-6.2c0.1-0.4,0.1-0.7,0.1-0.9
				c0-0.9-0.4-1.5-1.5-1.5c-1.3,0-2.7,1.1-3.1,3.5l-1.1,4.9h-1l1.6-9.4h0.9l-0.2,2.2c0.6-1.4,1.5-2.4,3.1-2.4c1.3,0,2.1,0.7,2.2,2.1
				c0,0.1,0,0.2,0,0.4C-378.9,250.3-377.9,249.3-376.2,249.3z"/>
			<path id="XMLID_136_" class="st2" d="M-370.2,257c0,0.2-0.1,0.3-0.1,0.5c0,0.4,0.2,0.6,0.6,0.6c0.2,0,0.4,0,0.6-0.1l-0.2,0.8
				c-0.2,0.1-0.5,0.2-0.8,0.2c-0.9,0-1.3-0.5-1.3-1.2c0-0.2,0-0.3,0.1-0.6l1.3-7.7h1L-370.2,257z M-369,245.8c0.4,0,0.8,0.3,0.8,0.8
				c0,0.4-0.3,0.8-0.8,0.8s-0.8-0.3-0.8-0.8C-369.7,246.1-369.4,245.8-369,245.8z"/>
			<path id="XMLID_134_" class="st2" d="M-359.9,257c0,0.2-0.1,0.3-0.1,0.5c0,0.4,0.2,0.6,0.6,0.6c0.2,0,0.4,0,0.6-0.1l-0.2,0.8
				c-0.2,0.1-0.5,0.2-0.8,0.2c-0.9,0-1.2-0.4-1.2-1.2c0-0.2,0-0.5,0.1-1.1c-0.4,1.4-1.5,2.3-3.1,2.3c-1.5,0-2.4-0.8-2.4-2.4
				c0-0.3,0.1-0.8,0.1-1.1l1.1-6.1h1l-1.1,6.3c-0.1,0.3-0.1,0.6-0.1,0.9c0,1,0.6,1.6,1.6,1.6c1.5,0,2.8-1.2,3.2-3.3l0.9-5.5h1
				L-359.9,257z"/>
			<path id="XMLID_132_" class="st2" d="M-345.3,249.3c1.3,0,2.2,0.7,2.2,2.2c0,0.3,0,0.7-0.1,1.2l-0.8,4.3c0,0.2-0.1,0.3-0.1,0.5
				c0,0.4,0.1,0.6,0.6,0.6c0.2,0,0.4,0,0.6-0.1l-0.1,0.8c-0.2,0.1-0.5,0.2-0.8,0.2c-0.9,0-1.3-0.5-1.3-1.2c0-0.2,0-0.3,0.1-0.6
				l0.8-4.5c0.1-0.4,0.1-0.7,0.1-0.9c0-0.9-0.4-1.5-1.5-1.5c-1.3,0-2.7,1.1-3.1,3.5l-0.9,5.2h-1l1.1-6.2c0.1-0.4,0.1-0.7,0.1-0.9
				c0-0.9-0.4-1.5-1.5-1.5c-1.3,0-2.7,1.1-3.1,3.5l-0.9,5.2h-1l1.6-9.4h0.9l-0.2,2.2c0.6-1.4,1.5-2.4,3.1-2.4c1.3,0,2.1,0.7,2.2,2.1
				c0,0.1,0,0.2,0,0.4C-348,250.3-347,249.3-345.3,249.3z"/>
		</g>
	</g>
	<g id="XMLID_569_" class="st1">
		<g id="XMLID_665_">
			<g id="XMLID_697_">
				<path id="XMLID_698_" class="st3" d="M-407.7,314.1c-0.7,1.2-1.6,1.7-3.2,1.7c-2,0-3.4-1.4-3.4-3.9s1.4-3.9,3.7-3.9
					c1.5,0,2.5,0.7,3.1,1.9l-1.7,0.8c-0.2-0.7-0.6-1.2-1.4-1.2c-1.1,0-1.8,0.9-1.8,2.4s0.6,2.3,1.8,2.3c0.7,0,1.2-0.3,1.6-1.1
					L-407.7,314.1z"/>
			</g>
			<g id="XMLID_693_">
				<path id="XMLID_694_" class="st3" d="M-402.2,315.6c-0.2-0.2-0.3-0.5-0.4-0.8l-0.3-1.1c-0.2-0.6-0.4-0.8-1-0.8h-0.7v2.6h-1.7
					V308h3c1.7,0,2.7,0.6,2.7,2.3c0,1.2-0.7,1.8-1.6,1.9l0,0c0.7,0.1,1.1,0.4,1.2,1.1l0.4,1.4c0.1,0.3,0.2,0.5,0.4,0.8h-2V315.6z
					 M-404.7,311.6h1.1c0.7,0,1.1-0.3,1.1-1c0-0.6-0.4-1-1.1-1h-1.1V311.6z"/>
			</g>
			<g id="XMLID_690_">
				<path id="XMLID_691_" class="st3" d="M-397.3,308.1v7.5h-1.7v-7.5H-397.3z"/>
			</g>
			<g id="XMLID_686_">
				<path id="XMLID_687_" class="st3" d="M-395.3,315.6v-7.5h2.8c2.1,0,3.6,1,3.6,3.7c0,2.8-1.6,3.8-3.8,3.8H-395.3z M-392.8,314.2
					c1.3,0,2.1-0.6,2.1-2.3c0-1.8-0.8-2.3-2-2.3h-0.9v4.6C-393.6,314.2-392.8,314.2-392.8,314.2z"/>
			</g>
			<g id="XMLID_682_">
				<path id="XMLID_683_" class="st3" d="M-387.9,311.9c0-2.5,1.3-3.9,3.5-3.9c2.2,0,3.6,1.4,3.6,3.9s-1.3,3.9-3.6,3.9
					C-386.7,315.8-387.9,314.4-387.9,311.9z M-386.1,311.9c0,1.5,0.6,2.4,1.8,2.4c1.2,0,1.8-0.9,1.8-2.4s-0.6-2.4-1.8-2.4
					C-385.5,309.5-386.1,310.4-386.1,311.9z"/>
			</g>
			<g id="XMLID_679_">
				<path id="XMLID_680_" class="st3" d="M-375,311.8c0.4,0.6,0.6,1,0.6,1h0.1c0,0,0-0.6,0-1.6v-3h1.7v7.5h-1.6l-2.6-3.6
					c-0.5-0.6-0.7-1.1-0.7-1.1h-0.1c0,0,0.1,0.6,0.1,1.7v3h-1.7v-7.5h1.6L-375,311.8z"/>
			</g>
			<g id="XMLID_676_">
				<path id="XMLID_677_" class="st3" d="M-367.2,308.1v6.9h3.5v0.6h-4.2v-7.5H-367.2z"/>
			</g>
			<g id="XMLID_673_">
				<path id="XMLID_674_" class="st3" d="M-361.8,310.9c0.5,0.8,0.6,1.2,0.6,1.2l0,0c0,0,0.1-0.3,0.6-1.2l1.4-2.7h0.7l-2.4,4.5v3
					h-0.7v-3l-2.4-4.6h0.8L-361.8,310.9z"/>
			</g>
			<g id="XMLID_669_">
				<path id="XMLID_670_" class="st3" d="M-358,311.9c0-2.5,1.3-3.9,3.3-3.9s3.3,1.4,3.3,3.9s-1.3,3.9-3.3,3.9S-358,314.4-358,311.9
					z M-357.3,311.9c0,2,0.9,3.3,2.6,3.3c1.7,0,2.6-1.2,2.6-3.3c0-2-0.9-3.3-2.6-3.3C-356.4,308.6-357.3,309.9-357.3,311.9z"/>
			</g>
			<g id="XMLID_666_">
				<path id="XMLID_667_" class="st3" d="M-345.5,313.4c0.5,0.7,0.8,1.4,0.8,1.4l0,0c0,0,0-0.7,0-1.6v-5h0.7v7.5h-0.7l-3.6-5.2
					c-0.5-0.7-0.8-1.4-0.8-1.4h-0.1c0,0,0.1,0.7,0.1,1.6v5h-0.7v-7.5h0.8L-345.5,313.4z"/>
			</g>
		</g>
		<g id="XMLID_640_">
			<g id="XMLID_660_">
				<g id="XMLID_661_">
					<path id="XMLID_662_" class="st4" d="M-405.7,283.9c-5.3,0-8.6-3.7-8.6-9.7s3.4-9.6,9.1-9.6c3.6,0,6.2,1.6,7.6,4.7l0.2,0.4
						l-4.7,2.3l-0.1-0.5c-0.5-1.8-1.5-2.5-3-2.5c-2.4,0-3.9,2-3.9,5.3c0,2.3,0.7,5.1,4,5.1c1.5,0,2.6-0.8,3.3-2.3l0.2-0.4l4.2,2.5
						l-0.2,0.4C-399.5,282.7-401.8,283.9-405.7,283.9z M-405.2,265.4c-5.3,0-8.3,3.2-8.3,8.8c0,5.5,3,8.9,7.7,8.9
						c3.5,0,5.5-1,7.1-3.5l-2.7-1.6c-0.8,1.5-2.2,2.4-3.9,2.4c-3.1,0-4.8-2.1-4.8-6c0-3.8,1.8-6.1,4.7-6.1c1.8,0,3,0.8,3.7,2.6
						l3.2-1.5C-399.8,266.7-402,265.4-405.2,265.4z"/>
				</g>
			</g>
			<g id="XMLID_653_">
				<g id="XMLID_654_">
					<path id="XMLID_655_" class="st4" d="M-378.9,283.5h-5.7l-0.1-0.1c-0.7-0.5-0.9-1.3-1.1-2.1l-0.7-2.7c-0.3-1.3-0.8-1.5-2-1.5
						h-1.3v6.3h-4.9v-18.5h7.4c4.6,0,6.9,1.9,6.9,5.8c0,2.2-1,3.8-2.8,4.5c1,0.5,1.5,1.2,1.9,2.5l0.9,3.3c0.2,0.6,0.4,1.2,0.9,1.7
						L-378.9,283.5z M-384.3,282.7h3.6c-0.3-0.5-0.4-0.9-0.6-1.4l-0.9-3.3c-0.4-1.4-1.1-2-2.6-2.3l-0.3-0.1v-0.7l0.4-0.1
						c2.3-0.2,3.5-1.7,3.5-4.1c0-3.4-1.9-5-6-5h-6.6v17h3.3v-6.3h2.2c1.5,0,2.4,0.3,2.8,2.1l0.7,2.7
						C-384.8,281.9-384.7,282.4-384.3,282.7z M-387.6,273.9h-3v-5.5h3c1.9,0,2.9,1,2.9,2.7C-384.7,273-385.6,273.9-387.6,273.9z
						 M-389.8,273.1h2.2c1.5,0,2.1-0.6,2.1-1.9c0-1.3-0.7-1.9-2.1-1.9h-2.2V273.1z"/>
				</g>
			</g>
			<g id="XMLID_648_">
				<g id="XMLID_649_">
					<path id="XMLID_650_" class="st4" d="M-371.5,283.5h-4.9v-18.6h4.9V283.5z M-375.6,282.7h3.3v-17h-3.3V282.7z"/>
				</g>
			</g>
			<g id="XMLID_641_">
				<g id="XMLID_642_">
					<path id="XMLID_643_" class="st4" d="M-360.2,283.5h-6.7v-18.6h7c5.9,0,9.1,3.2,9.1,9.1C-350.9,280.2-354.2,283.5-360.2,283.5z
						 M-366.1,282.7h5.9c3.9,0,8.5-1.5,8.5-8.7c0-6.8-4.5-8.3-8.2-8.3h-6.1v17H-366.1z M-360.6,280.1h-2.2v-11.7h2.4
						c3.6,0,5.2,1.9,5.2,5.9C-355.2,278.2-356.9,280.1-360.6,280.1z M-362,279.2h1.4c3.2,0,4.6-1.5,4.6-5c0-3.6-1.3-5-4.4-5h-1.6
						V279.2z"/>
				</g>
			</g>
		</g>
		<g id="XMLID_575_">
			<g id="XMLID_631_">
				<path id="XMLID_637_" class="st4" d="M-413.9,296c0-4.9,2.3-7.6,5.9-7.6s5.9,2.7,5.9,7.6s-2.3,7.6-5.9,7.6
					S-413.9,300.9-413.9,296z M-412.6,296c0,4,1.6,6.4,4.6,6.4s4.7-2.4,4.7-6.4s-1.6-6.4-4.7-6.4S-412.6,292-412.6,296z"/>
				<path id="XMLID_632_" class="st4" d="M-408,304c-4,0-6.3-3-6.3-8s2.4-8,6.3-8c4,0,6.3,3,6.3,8S-404,304-408,304z M-408,288.8
					c-3.4,0-5.5,2.7-5.5,7.2s2.1,7.2,5.5,7.2s5.5-2.7,5.5-7.2S-404.6,288.8-408,288.8z M-408,302.8c-3.2,0-5-2.5-5-6.8
					c0-4.4,1.8-6.9,5-6.9s5.1,2.6,5.1,6.9C-402.9,300.3-404.8,302.8-408,302.8z M-408,290c-3.7,0-4.2,3.8-4.2,6c0,2.2,0.5,6,4.2,6
					s4.2-3.8,4.2-6C-403.7,292.2-405.3,290-408,290z"/>
			</g>
			<g id="XMLID_625_">
				<path id="XMLID_629_" class="st4" d="M-390.6,298.9c0.9,1.4,1.5,2.7,1.5,2.7h0.1c0,0-0.1-1.5-0.1-3.1v-9.9h1.2v14.7h-1.3
					l-6.5-10.2c-0.9-1.3-1.5-2.7-1.5-2.7h-0.1c0,0,0.1,1.4,0.1,3.1v9.9h-1.2v-14.8h1.3L-390.6,298.9z"/>
				<path id="XMLID_626_" class="st4" d="M-387.5,303.8h-1.9l-6.6-10.5c-0.3-0.4-0.6-0.9-0.8-1.3c0,0.4,0,0.9,0,1.5v10.3h-2v-15.6h2
					l6.6,10.4c0.3,0.5,0.6,0.9,0.8,1.3c0-0.4,0-0.9,0-1.5v-10.2h2v15.6H-387.5z M-389,302.9h0.7V289h-0.4v9.5c0,1.6,0.1,3.1,0.1,3.1
					v0.4h-0.7l-0.2-0.2c0,0-0.6-1.3-1.5-2.7l0,0l-6.3-10.1h-0.7v13.9h0.4v-9.5c0-1.6-0.1-3.1-0.1-3.1v-0.4h0.8l0.1,0.2
					c0,0,0.7,1.4,1.5,2.7L-389,302.9z"/>
			</g>
			<g id="XMLID_619_">
				<path id="XMLID_623_" class="st4" d="M-382.1,288.6v13.6h6.3v1.2h-7.5v-14.8H-382.1z"/>
				<path id="XMLID_620_" class="st4" d="M-375.4,303.8h-8.4v-15.6h2v13.6h6.3v2H-375.4z M-382.9,302.9h6.7v-0.3h-6.3V289h-0.4
					V302.9z"/>
			</g>
			<g id="XMLID_613_">
				<path id="XMLID_617_" class="st4" d="M-371.5,288.6v14.7h-1.2v-14.7H-371.5z"/>
				<path id="XMLID_614_" class="st4" d="M-371.1,303.8h-2v-15.6h2V303.8z M-372.3,302.9h0.4V289h-0.4V302.9z"/>
			</g>
			<g id="XMLID_582_">
				<path id="XMLID_586_" class="st4" d="M-359.1,298.9c0.9,1.4,1.5,2.7,1.5,2.7h0.1c0,0-0.1-1.5-0.1-3.1v-9.9h1.2v14.7h-1.3
					l-6.5-10.2c-0.9-1.3-1.5-2.7-1.5-2.7h-0.1c0,0,0.1,1.4,0.1,3.1v9.9h-1.2v-14.8h1.3L-359.1,298.9z"/>
				<path id="XMLID_583_" class="st4" d="M-356,303.8h-1.9l-6.6-10.4c-0.3-0.4-0.6-0.9-0.8-1.3c0,0.4,0,0.9,0,1.5v10.3h-2v-15.7h2
					l6.6,10.4c0.3,0.5,0.6,0.9,0.8,1.3c0-0.4,0-0.9,0-1.5v-10.2h2v15.6H-356z M-357.5,302.9h0.6V289h-0.4v9.5c0,1.6,0.1,3.1,0.1,3.1
					v0.4h-0.7l-0.1-0.2c0,0-0.6-1.3-1.5-2.7l0,0l-6.3-10.1h-0.7v13.9h0.4v-9.5c0-1.6-0.1-3.1-0.1-3.1v-0.4h0.8l0.1,0.2
					c0,0,0.7,1.4,1.5,2.7L-357.5,302.9z"/>
			</g>
			<g id="XMLID_576_">
				<path id="XMLID_580_" class="st4" d="M-344.1,303.3h-7.7v-14.7h7.7v1.2h-6.5v5.6h5.8v1.2h-5.8v5.6h6.5V303.3z"/>
				<path id="XMLID_577_" class="st4" d="M-343.7,303.8h-8.5v-15.6h8.5v2h-6.5v4.8h5.8v2h-5.8v4.8h6.5V303.8z M-351.4,302.9h6.9
					v-0.3h-6.5v-6.5h5.8v-0.3h-5.8v-6.5h6.5V289h-6.9V302.9z"/>
			</g>
		</g>
		<g id="XMLID_570_">
			<g id="XMLID_571_">
				<path id="XMLID_572_" class="st4" d="M-349.6,272.9v-2.2h0.4c1.4-0.1,1.8-0.6,2-1c-0.6,0-1.1-0.2-1.5-0.6
					c-0.5-0.4-0.7-1-0.7-1.7c0-1.4,1-2.4,2.6-2.4c1.7,0,2.8,1.3,2.8,3.2c0,3-1.8,4.7-5.1,4.8L-349.6,272.9z M-348.8,271.4v0.6
					c2.6-0.1,3.9-1.5,3.9-3.9c0-1.4-0.8-2.3-2-2.3c-0.4,0-1.7,0.1-1.7,1.6c0,0.5,0.2,0.9,0.5,1.1c0.3,0.3,0.8,0.4,1.3,0.3l0.5-0.1
					v0.5C-346.4,270.1-346.8,271.1-348.8,271.4z"/>
			</g>
		</g>
	</g>
</g>
<rect id="XMLID_1_" x="-429" y="231.7" class="st5" width="100" height="100"/>
<g id="XMLID_737_">
	<g id="XMLID_763_">
		<g id="XMLID_834_">
			<g id="XMLID_866_">
				<path id="XMLID_867_" class="st3" d="M-414.6,314.9c-0.7,1.1-1.5,1.7-3.2,1.7c-2,0-3.4-1.4-3.4-3.9s1.4-3.9,3.6-3.9
					c1.5,0,2.5,0.7,3,1.9l-1.7,0.8c-0.2-0.7-0.6-1.2-1.4-1.2c-1.1,0-1.8,0.9-1.8,2.4s0.6,2.3,1.8,2.3c0.7,0,1.2-0.3,1.6-1.1
					L-414.6,314.9z"/>
			</g>
			<g id="XMLID_862_">
				<path id="XMLID_863_" class="st3" d="M-409.2,316.5c-0.2-0.2-0.3-0.5-0.4-0.8l-0.3-1.1c-0.2-0.6-0.4-0.7-1-0.7h-0.7v2.6h-1.7
					v-7.4h2.9c1.7,0,2.7,0.6,2.7,2.3c0,1.1-0.7,1.8-1.6,1.9l0,0c0.7,0.1,1,0.4,1.2,1.1l0.4,1.4c0.1,0.3,0.2,0.5,0.4,0.8h-1.9V316.5z
					 M-411.6,312.5h1.1c0.7,0,1.1-0.3,1.1-1c0-0.6-0.4-1-1.1-1h-1.1V312.5z"/>
			</g>
			<g id="XMLID_859_">
				<path id="XMLID_860_" class="st3" d="M-404.3,309.1v7.4h-1.7v-7.4H-404.3z"/>
			</g>
			<g id="XMLID_855_">
				<path id="XMLID_856_" class="st3" d="M-402.3,316.5v-7.4h2.7c2.1,0,3.6,1,3.6,3.6c0,2.8-1.6,3.8-3.7,3.8H-402.3z M-399.9,315
					c1.3,0,2.1-0.6,2.1-2.2c0-1.8-0.8-2.3-2-2.3h-0.8v4.5H-399.9z"/>
			</g>
			<g id="XMLID_851_">
				<path id="XMLID_852_" class="st3" d="M-394.9,312.8c0-2.5,1.3-3.9,3.5-3.9c2.2,0,3.5,1.4,3.5,3.9s-1.3,3.9-3.5,3.9
					C-393.6,316.7-394.9,315.3-394.9,312.8z M-393.2,312.8c0,1.5,0.6,2.4,1.7,2.4s1.8-0.9,1.8-2.4s-0.6-2.4-1.8-2.4
					C-392.6,310.4-393.2,311.3-393.2,312.8z"/>
			</g>
			<g id="XMLID_848_">
				<path id="XMLID_849_" class="st3" d="M-382.2,312.7c0.4,0.6,0.6,1,0.6,1h0.1c0,0,0-0.6,0-1.6v-3h1.7v7.4h-1.6l-2.6-3.5
					c-0.5-0.6-0.7-1.1-0.7-1.1h-0.1c0,0,0.1,0.6,0.1,1.7v3h-1.7v-7.4h1.6L-382.2,312.7z"/>
			</g>
			<g id="XMLID_845_">
				<path id="XMLID_846_" class="st3" d="M-374.5,309.1v6.9h3.5v0.6h-4.1v-7.4L-374.5,309.1L-374.5,309.1z"/>
			</g>
			<g id="XMLID_842_">
				<path id="XMLID_843_" class="st3" d="M-369,311.8c0.5,0.8,0.6,1.2,0.6,1.2l0,0c0,0,0.1-0.3,0.6-1.2l1.4-2.7h0.7l-2.4,4.5v3h-0.7
					v-3l-2.5-4.5h0.8L-369,311.8z"/>
			</g>
			<g id="XMLID_838_">
				<path id="XMLID_839_" class="st3" d="M-365.3,312.8c0-2.5,1.3-3.8,3.2-3.8s3.2,1.4,3.2,3.8c0,2.5-1.3,3.8-3.2,3.8
					S-365.3,315.3-365.3,312.8z M-364.6,312.8c0,2,0.9,3.2,2.5,3.2c1.7,0,2.5-1.2,2.5-3.2s-0.9-3.3-2.5-3.3
					S-364.6,310.8-364.6,312.8z"/>
			</g>
			<g id="XMLID_835_">
				<path id="XMLID_836_" class="st3" d="M-352.9,314.2c0.5,0.7,0.8,1.4,0.8,1.4l0,0c0,0,0-0.7,0-1.6v-5h0.7v7.4h-0.7l-3.5-5.2
					c-0.5-0.7-0.8-1.4-0.8-1.4h-0.1c0,0,0.1,0.7,0.1,1.6v5h-0.7V309h0.7L-352.9,314.2z"/>
			</g>
		</g>
		<g id="XMLID_809_">
			<g id="XMLID_829_">
				<g id="XMLID_830_">
					<path id="XMLID_831_" class="st4" d="M-412.6,285c-5.2,0-8.5-3.7-8.5-9.6c0-6,3.4-9.6,9-9.6c3.6,0,6.1,1.6,7.6,4.7l0.2,0.4
						l-4.7,2.3l-0.1-0.5c-0.5-1.7-1.4-2.5-3-2.5c-2.4,0-3.9,2-3.9,5.2c0,2.3,0.7,5.1,3.9,5.1c1.5,0,2.6-0.8,3.3-2.3l0.2-0.4l4.2,2.5
						l-0.2,0.3C-406.5,283.8-408.8,285-412.6,285z M-412.1,266.7c-5.2,0-8.2,3.2-8.2,8.8c0,5.4,2.9,8.8,7.7,8.8c3.4,0,5.4-1,7-3.5
						l-2.7-1.6c-0.8,1.5-2.2,2.3-3.9,2.3c-3.1,0-4.8-2.1-4.8-5.9c0-3.7,1.8-6.1,4.7-6.1c1.8,0,3,0.8,3.7,2.6l3.1-1.5
						C-406.8,267.9-409,266.7-412.1,266.7z"/>
				</g>
			</g>
			<g id="XMLID_822_">
				<g id="XMLID_823_">
					<path id="XMLID_824_" class="st4" d="M-386.1,284.6h-5.6l-0.1-0.1c-0.7-0.5-0.9-1.3-1.1-2.1l-0.7-2.6c-0.3-1.2-0.8-1.5-2-1.5
						h-1.3v6.2h-4.9v-18.3h7.4c4.6,0,6.8,1.9,6.8,5.8c0,2.2-1,3.8-2.8,4.5c0.9,0.5,1.5,1.2,1.9,2.5l0.9,3.3c0.2,0.6,0.4,1.2,0.9,1.7
						L-386.1,284.6z M-391.4,283.8h3.5c-0.3-0.5-0.4-0.9-0.6-1.4l-0.9-3.3c-0.4-1.4-1.1-2-2.6-2.3l-0.3-0.1V276l0.4-0.1
						c2.3-0.2,3.5-1.7,3.5-4c0-3.4-1.9-5-6-5h-6.6v16.8h3.3v-6.2h2.1c1.5,0,2.4,0.3,2.8,2.1l0.7,2.6
						C-391.9,283-391.8,283.5-391.4,283.8z M-394.7,275.1h-3v-5.4h3c1.9,0,2.9,1,2.9,2.7C-391.8,274.2-392.7,275.1-394.7,275.1z
						 M-396.9,274.2h2.2c1.5,0,2.1-0.5,2.1-1.9c0-1.3-0.7-1.9-2.1-1.9h-2.2V274.2z"/>
				</g>
			</g>
			<g id="XMLID_817_">
				<g id="XMLID_818_">
					<path id="XMLID_819_" class="st4" d="M-378.7,284.6h-4.9v-18.4h4.9V284.6z M-382.8,283.8h3.3V267h-3.3V283.8z"/>
				</g>
			</g>
			<g id="XMLID_810_">
				<g id="XMLID_811_">
					<path id="XMLID_812_" class="st4" d="M-367.5,284.6h-6.6v-18.4h6.9c5.8,0,9,3.2,9,9C-358.3,281.3-361.5,284.6-367.5,284.6z
						 M-373.3,283.8h5.8c3.9,0,8.5-1.5,8.5-8.6c0-6.8-4.5-8.2-8.2-8.2h-6.1V283.8z M-367.9,281.2h-2.2v-11.6h2.4
						c3.5,0,5.2,1.9,5.2,5.8C-362.5,279.4-364.2,281.2-367.9,281.2z M-369.3,280.4h1.4c3.2,0,4.6-1.5,4.6-4.9c0-3.6-1.3-5-4.4-5
						h-1.6C-369.3,270.5-369.3,280.4-369.3,280.4z"/>
				</g>
			</g>
		</g>
		<g id="XMLID_769_">
			<g id="XMLID_800_">
				<path id="XMLID_806_" class="st4" d="M-420.8,297c0-4.8,2.3-7.5,5.9-7.5s5.9,2.7,5.9,7.5s-2.3,7.5-5.9,7.5
					S-420.8,301.8-420.8,297z M-419.5,297c0,4,1.6,6.4,4.6,6.4s4.6-2.4,4.6-6.4s-1.6-6.4-4.6-6.4S-419.5,293-419.5,297z"/>
				<path id="XMLID_801_" class="st4" d="M-414.9,304.9c-3.9,0-6.3-3-6.3-7.9c0-5,2.3-7.9,6.3-7.9c3.9,0,6.3,3,6.3,7.9
					C-408.6,302-411,304.9-414.9,304.9z M-414.9,289.9c-3.4,0-5.4,2.7-5.4,7.1s2,7.1,5.4,7.1s5.4-2.7,5.4-7.1
					C-409.5,292.5-411.5,289.9-414.9,289.9z M-414.9,303.8c-3.2,0-5-2.5-5-6.8s1.8-6.8,5-6.8c3.1,0,5,2.5,5,6.8
					S-411.7,303.8-414.9,303.8z M-414.9,291c-3.6,0-4.2,3.8-4.2,6c0,2.2,0.5,6,4.2,6c3.7,0,4.2-3.7,4.2-6
					C-410.7,293.2-412.2,291-414.9,291z"/>
			</g>
			<g id="XMLID_794_">
				<path id="XMLID_798_" class="st4" d="M-397.7,299.9c0.9,1.4,1.5,2.7,1.5,2.7h0.1c0,0-0.1-1.4-0.1-3.1v-9.8h1.2v14.6h-1.3
					l-6.4-10.2c-0.8-1.3-1.5-2.7-1.5-2.7h-0.1c0,0,0.1,1.4,0.1,3.1v9.8h-1.2v-14.6h1.3L-397.7,299.9z"/>
				<path id="XMLID_795_" class="st4" d="M-394.6,304.7h-1.9l-6.5-10.3c-0.3-0.4-0.5-0.9-0.8-1.3c0,0.4,0,0.9,0,1.4v10.2h-2v-15.4
					h1.9l6.5,10.4c0.3,0.4,0.5,0.9,0.8,1.3c0-0.4,0-0.9,0-1.4v-10.3h2V304.7z M-396,303.9h0.6v-13.8h-0.4v9.4c0,1.6,0.1,3,0.1,3.1
					v0.4h-0.7l-0.2-0.2c0,0-0.6-1.3-1.5-2.7l0,0l-6.3-10h-0.6v13.8h0.4v-9.4c0-1.6-0.1-3-0.1-3v-0.4h0.7l0.1,0.2
					c0,0,0.7,1.4,1.5,2.7L-396,303.9z"/>
			</g>
			<g id="XMLID_788_">
				<path id="XMLID_792_" class="st4" d="M-389.2,289.7v13.5h6.2v1.1h-7.5v-14.6H-389.2z"/>
				<path id="XMLID_789_" class="st4" d="M-382.6,304.7h-8.3v-15.4h2v13.5h6.3V304.7z M-390,303.9h6.7v-0.3h-6.3v-13.5h-0.4V303.9z"
					/>
			</g>
			<g id="XMLID_782_">
				<path id="XMLID_786_" class="st4" d="M-378.7,289.7v14.6h-1.2v-14.6H-378.7z"/>
				<path id="XMLID_783_" class="st4" d="M-378.3,304.7h-2v-15.4h2V304.7z M-379.5,303.9h0.4v-13.8h-0.4V303.9z"/>
			</g>
			<g id="XMLID_776_">
				<path id="XMLID_780_" class="st4" d="M-366.4,299.9c0.9,1.4,1.5,2.7,1.5,2.7h0.1c0,0-0.1-1.4-0.1-3.1v-9.8h1.2v14.6h-1.3
					l-6.4-10.2c-0.8-1.3-1.5-2.7-1.5-2.7h-0.1c0,0,0.1,1.4,0.1,3.1v9.8h-1.2v-14.6h1.3L-366.4,299.9z"/>
				<path id="XMLID_777_" class="st4" d="M-363.3,304.7h-1.9l-6.5-10.4c-0.3-0.4-0.5-0.9-0.8-1.3c0,0.4,0,0.9,0,1.4v10.2h-2v-15.3
					h1.9l6.5,10.4c0.3,0.4,0.5,0.9,0.8,1.3c0-0.4,0-0.9,0-1.4v-10.3h2V304.7z M-364.8,303.9h0.6v-13.8h-0.4v9.4c0,1.6,0.1,3,0.1,3.1
					v0.4h-0.7l-0.2-0.2c0,0-0.6-1.3-1.5-2.7l0,0l-6.3-10h-0.7v13.8h0.4v-9.4c0-1.6-0.1-3-0.1-3v-0.4h0.8l0.1,0.2
					c0,0,0.7,1.4,1.5,2.7L-364.8,303.9z"/>
			</g>
			<g id="XMLID_770_">
				<path id="XMLID_774_" class="st4" d="M-351.5,304.3h-7.7v-14.6h7.7v1.1h-6.5v5.6h5.7v1.1h-5.7v5.6h6.4v1.2H-351.5z"/>
				<path id="XMLID_771_" class="st4" d="M-351.1,304.7h-8.5v-15.4h8.5v2h-6.4v4.7h5.7v2h-5.7v4.8h6.4V304.7z M-358.8,303.9h6.8
					v-0.3h-6.4v-6.4h5.7v-0.3h-5.7v-6.4h6.4v-0.3h-6.8V303.9z"/>
			</g>
		</g>
		<g id="XMLID_764_">
			<g id="XMLID_765_">
				<path id="XMLID_766_" class="st4" d="M-357,274.1v-2.2h0.4c1.4-0.1,1.8-0.6,2-1c-0.6,0-1.1-0.2-1.5-0.5c-0.5-0.4-0.7-1-0.7-1.7
					c0-1.4,1-2.4,2.5-2.4c1.7,0,2.8,1.3,2.8,3.1c0,3-1.8,4.7-5.1,4.7H-357z M-356.2,272.6v0.6c2.6-0.1,3.9-1.5,3.9-3.9
					c0-1.4-0.8-2.3-2-2.3c-0.4,0-1.7,0.1-1.7,1.5c0,0.5,0.2,0.8,0.5,1.1c0.3,0.3,0.8,0.4,1.3,0.3l0.5-0.1v0.5
					C-353.8,271.3-354.2,272.4-356.2,272.6z"/>
			</g>
		</g>
	</g>
	<g id="XMLID_738_">
		<path id="XMLID_760_" class="st6" d="M-413.5,257.8c-0.6,1.7-1.8,2.5-3.5,2.5c-2.3,0-3.5-1.4-3.5-3.9c0-3.4,1.9-5.8,4.5-5.8
			c2.2,0,3.1,1.5,3.1,3.2c0,0.6-0.1,1.2-0.4,1.7h-6.3c0,0.3-0.1,0.5-0.1,0.8c0,1.9,0.8,3.1,2.6,3.1c1.5,0,2.2-0.7,2.6-1.9
			L-413.5,257.8z M-419.5,254.7h5.3c0.1-0.2,0.1-0.6,0.1-0.9c0-1.3-0.6-2.3-2.1-2.3C-418,251.5-419.1,252.9-419.5,254.7z"/>
		<path id="XMLID_758_" class="st6" d="M-407.1,257.3c-0.5-1-0.5-1.3-0.5-1.3h-0.1c0,0-0.1,0.2-1,1.3l-2.4,2.7h-1.2l4.1-4.7
			l-2.2-4.6h1.1l1.2,2.5c0.5,1.1,0.5,1.3,0.5,1.3h0.1c0,0,0.1-0.2,1-1.3l2.2-2.6h1.2l-3.9,4.8l2.3,4.7h-1.1L-407.1,257.3z"/>
		<path id="XMLID_756_" class="st6" d="M-398.8,259.5c1.6,0,2.3-0.9,2.6-2l0.9,0.2c-0.5,1.6-1.7,2.6-3.7,2.6c-2.1,0-3.4-1.4-3.4-3.9
			c0-2.9,1.5-5.8,4.5-5.8c2.1,0,2.9,1.2,2.9,3l-0.9,0.2c0-1.3-0.6-2.3-2.1-2.3c-2.3,0-3.4,2.5-3.4,4.8
			C-401.4,258.4-400.5,259.5-398.8,259.5z"/>
		<path id="XMLID_753_" class="st6" d="M-386,257.8c-0.6,1.7-1.8,2.5-3.5,2.5c-2.3,0-3.5-1.4-3.5-3.9c0-3.4,1.9-5.8,4.5-5.8
			c2.2,0,3.1,1.5,3.1,3.2c0,0.6-0.1,1.2-0.4,1.7h-6.2c0,0.3-0.1,0.5-0.1,0.8c0,1.9,0.8,3.1,2.6,3.1c1.5,0,2.2-0.7,2.6-1.9
			L-386,257.8z M-391.9,254.7h5.3c0.1-0.2,0.1-0.6,0.1-0.9c0-1.3-0.6-2.3-2.1-2.3C-390.5,251.5-391.5,252.9-391.9,254.7z"/>
		<path id="XMLID_751_" class="st6" d="M-382.2,258.3c0,0.2-0.1,0.3-0.1,0.5c0,0.4,0.2,0.6,0.6,0.6c0.2,0,0.4,0,0.6-0.1l-0.1,0.7
			c-0.2,0.1-0.5,0.2-0.8,0.2c-0.9,0-1.2-0.5-1.2-1.2c0-0.2,0-0.3,0.1-0.6l2-11.8h1L-382.2,258.3z"/>
		<path id="XMLID_749_" class="st6" d="M-377.4,258.3c0,0.2-0.1,0.3-0.1,0.5c0,0.4,0.2,0.6,0.6,0.6c0.2,0,0.4,0,0.6-0.1l-0.1,0.7
			c-0.2,0.1-0.5,0.2-0.8,0.2c-0.9,0-1.2-0.5-1.2-1.2c0-0.2,0-0.3,0.1-0.6l2-11.8h1L-377.4,258.3z"/>
		<path id="XMLID_746_" class="st6" d="M-366.7,257.8c-0.6,1.7-1.8,2.5-3.5,2.5c-2.3,0-3.5-1.4-3.5-3.9c0-3.4,1.9-5.8,4.5-5.8
			c2.2,0,3.1,1.5,3.1,3.2c0,0.6-0.1,1.2-0.4,1.7h-6.1c0,0.3-0.1,0.5-0.1,0.8c0,1.9,0.8,3.1,2.6,3.1c1.5,0,2.2-0.7,2.6-1.9
			L-366.7,257.8z M-372.6,254.7h5.3c0.1-0.2,0.1-0.6,0.1-0.9c0-1.3-0.6-2.3-2.1-2.3C-371.1,251.5-372.2,252.9-372.6,254.7z"/>
		<path id="XMLID_744_" class="st6" d="M-357.4,253.9c0.1-0.4,0.1-0.7,0.1-0.9c0-0.9-0.5-1.5-1.6-1.5c-1.4,0-2.9,1.1-3.3,3.5
			l-0.9,5.1h-1l1.6-9.3h0.9l-0.3,2.2c0.6-1.4,1.7-2.4,3.2-2.4c1.4,0,2.4,0.7,2.4,2.2c0,0.3,0,0.7-0.1,1.1l-0.8,4.4
			c0,0.2-0.1,0.3-0.1,0.5c0,0.4,0.2,0.6,0.6,0.6c0.2,0,0.4,0,0.6-0.1l-0.1,0.7c-0.2,0.1-0.5,0.2-0.8,0.2c-0.9,0-1.2-0.5-1.2-1.2
			c0-0.2,0-0.3,0.1-0.6L-357.4,253.9z"/>
		<path id="XMLID_742_" class="st6" d="M-350.1,259.5c1.6,0,2.3-0.9,2.6-2l0.9,0.2c-0.5,1.6-1.7,2.6-3.7,2.6c-2.1,0-3.4-1.4-3.4-3.9
			c0-2.9,1.5-5.8,4.5-5.8c2.1,0,2.9,1.2,2.9,3l-0.9,0.2c0-1.3-0.6-2.3-2.1-2.3c-2.3,0-3.4,2.5-3.4,4.8
			C-352.7,258.4-351.8,259.5-350.1,259.5z"/>
		<path id="XMLID_739_" class="st6" d="M-337.3,257.8c-0.6,1.7-1.8,2.5-3.5,2.5c-2.3,0-3.5-1.4-3.5-3.9c0-3.4,1.9-5.8,4.5-5.8
			c2.2,0,3.1,1.5,3.1,3.2c0,0.6-0.1,1.2-0.4,1.7h-6.1c0,0.3-0.1,0.5-0.1,0.8c0,1.9,0.8,3.1,2.6,3.1c1.5,0,2.2-0.7,2.6-1.9
			L-337.3,257.8z M-343.2,254.7h5.3c0.1-0.2,0.1-0.6,0.1-0.9c0-1.3-0.6-2.3-2.1-2.3C-341.8,251.5-342.8,252.9-343.2,254.7z"/>
	</g>
</g>
</svg>
