<?xml version="1.0" encoding="utf-8"?>
<!-- Generator: Adobe Illustrator 19.0.0, SVG Export Plug-In . SVG Version: 6.00 Build 0)  -->
<svg version="1.1" id="Calque_1" xmlns="http://www.w3.org/2000/svg" xmlns:xlink="http://www.w3.org/1999/xlink" x="0px" y="0px"
	 width="276.3px" height="52.4px" viewBox="0 0 276.3 52.4" enable-background="new 0 0 276.3 52.4" xml:space="preserve">
<g>
	<g>
		<defs>
			<path id="SVGID_1_" d="M25.1,43.7c-0.6-3.7-1.5-7.4-1.7-11.1c0-0.9-0.1-2.2,1-2.6c1.1-0.5,2.2,0.5,3,1.1c0.4,0.3,0.8,0.7,1.2,1
				c-0.3,1.2-0.8,2.3-1.3,3.4c-2,4.3-1.5,8.7,0.6,12.8h-2.2C25.6,46.8,25.4,45.2,25.1,43.7 M30.4,43.6c0-0.1-0.1-0.3-0.1-0.5
				c0.5-0.3,1-0.7,1.5-1.1c0.7-0.4,1.4-0.9,1.9-1.5c2-2.6-0.8-5.6-2.6-7.3c-0.3-0.3-0.9-0.9-1.5-1.5c0.2-1.1,0.4-2.2,0.4-3.2
				c1.7,1.7,3.1,3.7,4.3,5.8c0.8,1.5,1.6,3.4,1.3,5.2c-0.2,1.1-0.8,1.9-1.7,2.5c-1.1,0.8-2.2,1.5-3.2,2.3
				C30.6,44.2,30.5,43.9,30.4,43.6 M10.1,48.2c0-0.1-0.9-1.7-1.3-2.5c-0.5-1.2-0.9-2.4-1.1-3.7c-0.2-1.9,0-3.9,0-5.8
				c0-0.7,0.1-1.7,0.1-1.7s0.9-0.5,1.3-0.8c2.8-2.3,2.7-6.2,1.4-9.6c1-0.6,2-1.3,3.2-1.6c2.1-0.7,4.2-0.6,6.3-0.1
				c0.6,2.1,0.9,4.3,0.5,6.5c-0.6,3.1-2.8,5.8-5.5,7.3c-1.5,0.9-3.3,1.2-4.7,2.1c-1.6,1.1-1.2,4.1-0.7,5.7c0.5,1.5,1.2,2.9,2.1,4.1
				H10.1z M4.1,22c0-1.3-0.2-2.5-0.7-3.7c-0.3-0.8-0.8-1.5-1.3-2.3c1.8,0.9,3.4,2.2,4.8,3.6c1.2,1.2,2,2.7,2.7,4.2
				c-0.9,0.6-1.9,1.4-3,1.4c0,0-0.1,0-0.1,0C4.6,25.2,4.1,23.5,4.1,22 M29.7,11.3c-1.2,1.1-2.8,2.4-4.5,2.2
				c-0.7-0.1-1.3-0.4-1.8-0.8c0,0,0,0,0,0c-0.5-0.4-0.9-1.3-0.9-1.3s0,0,0,0c0.5-0.7,0.8-1.9,0.7-2.7c-0.1-1.3-1-2.1-2-2.5
				c0.2-0.4,0.4-0.8,0.6-1.1c0.1-0.2,0-0.5-0.2-0.6c-1.2-0.2-2.6-0.2-3.7,0.3c-1.8,0.8-2.4,3.1-1.8,4.9c0.4,1.4,1.6,2.3,3,2.7
				c0.2,0.1,0.5,0.1,0.7,0.2c0.1,0,0.1,0,0.2,0c0.2,0.2,0.4,0.4,0.5,0.6c0.6,1.1-0.5,1.4-1.1,2.2c-1.1,1.4-0.3,3.4,0.2,4.9
				c0.1,0.4,0.3,0.9,0.4,1.3c-0.1,0-0.1,0-0.2-0.1c-2.4-0.5-4.8-0.3-7.1,0.6c-0.8,0.3-1.5,0.7-2.3,1.2c-0.7-1.5-1.6-2.9-2.5-3.9
				c-1.9-2.2-4.6-3.9-7.3-5c-0.4-0.1-0.7,0.4-0.4,0.7c1,0.8,1.8,1.9,2.3,3c0.6,1.1,0.8,2.4,0.9,3.7c0,1,0.1,2,0.6,2.9
				c1,1.5,2.8,1.6,4.3,0.8c0.6-0.3,1.1-0.6,1.6-0.9c0.2,0.6,0.4,1.3,0.5,1.9c0.3,1.5,0.4,3.2-0.2,4.7c-0.4,0.8-1,1.5-1.8,2.1
				c-0.5,0.3-1,0.4-1.2,1c-0.4,1-0.2,2.6-0.3,3.7c-0.1,1.8,0,3.7,0.4,5.5c0.2,1.1,0.7,2.1,1.2,3.1c0.3,0.6,0.6,1.7,1.1,2.2
				c0.6,0.5,2.9,0.2,2.9,0.2c0.4,0,0.5-0.4,0.3-0.7c-1-1.2-1.8-2.7-2.3-4.1c-0.5-1.6-1.2-4.5,0.7-5.4c1.6-0.7,3.2-1.2,4.7-2.2
				c1.9-1.2,3.5-3,4.6-5.1c1.5-3,1.1-6,0.4-8.9c3,0.9,5.8,2.8,8,4.8c0.1,0.1,0.3,0.3,0.4,0.4c0,1.1-0.1,2.2-0.3,3.3
				C27,29.5,24.6,28,23.1,30c-0.6,0.9-0.5,2.1-0.4,3.1c0.2,2.1,0.6,4.1,0.9,6.2c0.5,3.1,1,6.2,1.4,9.4c0,0.2,0.2,0.4,0.4,0.4h3.2
				c0.3,0,0.5-0.3,0.3-0.6c-1.5-2.5-2.4-5.3-2.2-8.2c0.2-2.6,1.5-4.6,2.3-6.9c0.1-0.2,0.1-0.4,0.2-0.6c0.3,0.3,0.6,0.5,0.8,0.8
				c1.3,1.2,2.9,2.7,3.3,4.4c0.5,1.7-0.8,2.7-2.1,3.5c-0.5,0.3-1.7,0.8-1.9,1.4c-0.2,0.6,0.5,1.8,0.6,2.4c0.1,0.3,0.4,0.4,0.7,0.2
				c1.2-1,2.4-1.8,3.6-2.7c0.7-0.5,1.3-1.2,1.6-2c1.5-3.5-1.4-7.5-3.4-10.1c-0.8-1.1-1.7-2.1-2.7-3.1c-0.1-2.4-0.8-4.8-1.7-7.2
				c-0.2-0.5-0.9-0.3-0.8,0.2c0.8,2,1.5,4.1,1.7,6.2c-2.5-2.3-5.4-4.1-8.6-4.9c-0.3-1.1-0.6-2.3-0.9-3.4c-0.1-0.5-0.2-1-0.1-1.5
				c0.1-0.8,0.5-1.1,1.1-1.6c0.6-0.6,0.9-1.3,0.5-2.1c-0.4-1-0.9-1.2-1.7-1.4c-2.1-0.6-3.4-2.5-2.7-4.7c0.5-1.7,2.4-2,4-1.8
				c-0.2,0.3-0.3,0.7-0.5,1c-0.1,0.2,0,0.5,0.2,0.6c1.7,0.6,2.3,1.9,1.6,3.6c-0.1,0.4-0.5,0.8-0.4,1.2c0.1,0.5,0.7,1.2,1,1.5
				c2.1,2.2,4.9,1,6.9-0.7c2.5-2.1,4.4-4.9,6.2-7.7l-0.6-0.6C33.7,6.7,31.9,9.2,29.7,11.3 M36.6,1.8c-0.3,0.5-0.6,1.1-0.9,1.6
				L36.2,4c0.4-0.6,0.7-1.2,1.1-1.8c0.2-0.3-0.1-0.6-0.4-0.6C36.8,1.6,36.7,1.7,36.6,1.8"/>
		</defs>
		<clipPath id="SVGID_2_">
			<use xlink:href="#SVGID_1_"  overflow="visible"/>
		</clipPath>
		
			<linearGradient id="SVGID_3_" gradientUnits="userSpaceOnUse" x1="-836.3666" y1="517.4301" x2="-835.8156" y2="517.4301" gradientTransform="matrix(55.7329 -91.6645 -91.6645 -55.7329 94047.8359 -47778.8398)">
			<stop  offset="0" style="stop-color:#344967"/>
			<stop  offset="2.148350e-002" style="stop-color:#344967"/>
			<stop  offset="0.5007" style="stop-color:#009A9A"/>
			<stop  offset="1" style="stop-color:#2DAE9F"/>
		</linearGradient>
		<polygon clip-path="url(#SVGID_2_)" fill="url(#SVGID_3_)" points="-21.4,36.5 10,-15.1 58.7,14.5 27.3,66.1 		"/>
	</g>
	<g>
		<path fill="#B90541" d="M36.1,5c1.4,1.5,2.5,3.4,3.2,5.4c0.2,0.5,0.9,0.3,0.8-0.2c-0.8-2.3-2-4.2-3.5-5.9c0,0-0.4-0.4-0.6-0.6
			c-1.6-1.6-3.5-2.8-5.6-3.7c-0.5-0.2-0.7,0.6-0.2,0.8c2.1,0.9,3.9,2.1,5.4,3.6C35.5,4.4,35.9,4.8,36.1,5"/>
	</g>
</g>
<g>
	<g>
		<path fill="#344967" d="M61.9,27.4c-1.5,2.6-3.5,4-7.4,4c-4.6,0-7.8-3.2-7.8-8.8c0-5.6,3-8.7,8.3-8.7c3.6,0,5.8,1.6,7,4.3l-4.2,2
			c-0.5-1.6-1.2-2.6-3-2.6c-2.4,0-3.8,1.9-3.8,5c0,3.1,1.3,4.9,3.9,4.9c1.3,0,2.5-0.8,3.1-2.3L61.9,27.4z"/>
		<path fill="#344967" d="M73.8,31.1c-0.5-0.4-0.8-1.1-0.9-1.8l-0.6-2.4c-0.3-1.3-0.8-1.5-2-1.5h-1.5v5.6h-4.3V14.3h6.9
			c3.7,0,6.2,1.3,6.2,5.2c0,2.6-1.4,4-3.6,4.2v0.1c1.5,0.3,2.3,0.9,2.7,2.3l0.9,3.1c0.2,0.7,0.4,1.2,1,1.8H73.8z M68.8,21.9h2.3
			c1.4,0,2.2-0.5,2.2-2c0-1.3-0.8-2-2.2-2h-2.3V21.9z"/>
		<path fill="#344967" d="M85.7,14.3v16.8h-4.3V14.3H85.7z"/>
		<path fill="#344967" d="M90,31.1V14.3h6.5c4.6,0,8.2,2.3,8.2,8.2c0,6.2-3.6,8.6-8.5,8.6H90z M95.7,27.4c2.9,0,4.5-1.1,4.5-4.7
			c0-3.8-1.5-4.8-4.2-4.8h-1.7v9.5H95.7z"/>
		<path fill="#344967" d="M106.9,22.7c0-5.6,3-8.7,8.1-8.7c5.1,0,8.1,3.1,8.1,8.7c0,5.6-3,8.7-8.1,8.7
			C109.9,31.4,106.9,28.3,106.9,22.7z M111.4,22.7c0,3.1,1.2,5,3.6,5c2.5,0,3.6-1.9,3.6-5c0-3.1-1.2-5-3.6-5
			C112.6,17.8,111.4,19.7,111.4,22.7z"/>
		<path fill="#344967" d="M136,21.9c0.9,1.2,1.3,2,1.3,2h0.1c0,0-0.1-1.3-0.1-3.4v-6.1h4.3v16.8h-3.8l-5.7-7.4
			c-1.1-1.4-1.5-2.2-1.5-2.2h-0.1c0,0,0.2,1.3,0.2,3.7v5.9h-4.3V14.3h4L136,21.9z"/>
	</g>
	<g>
		<path fill="#344967" d="M164.6,22.9v8.2h-1.3l-0.2-2.9c-0.6,2-2.6,3.1-4.9,3.1c-4.4,0-7.3-3-7.3-8.6c0-5.6,3.1-8.7,7.5-8.7
			c3,0,5,1.3,6,4l-1.3,0.7c-0.8-2.2-2.4-3.4-4.7-3.4c-3.7,0-5.9,2.8-5.9,7.4c0,4.4,2,7.3,5.7,7.3c2.4,0,4.8-1.3,4.8-4.5v-1.3h-4.5
			v-1.4H164.6z"/>
		<path fill="#344967" d="M178.9,31.1c-0.4-0.5-0.6-0.9-0.8-1.7l-0.7-3c-0.5-2-1.6-2.7-3.8-2.7h-3.2v7.4h-1.5V14.3h5.2
			c3.8,0,5.5,1.6,5.5,4.6c0,2.6-1.8,4.1-3.9,4.2v0.1c1.7,0.2,2.6,0.9,3.1,2.8l0.8,3.2c0.2,0.8,0.5,1.4,0.9,1.8H178.9z M170.5,22.4
			h3.6c2.6,0,4-1.2,4-3.4c0-2.2-1.3-3.4-4-3.4h-3.6V22.4z"/>
		<path fill="#344967" d="M192.9,25.7h-7.5l-2,5.3h-1.6l6.4-16.8h2l6.3,16.8h-1.6L192.9,25.7z M185.8,24.5h6.6l-1.8-5
			c-1-2.6-1.4-4.2-1.4-4.2h-0.1c0,0-0.4,1.6-1.4,4.2L185.8,24.5z"/>
		<path fill="#344967" d="M208.8,26c1.1,1.6,1.9,3.1,1.9,3.1h0.1c0,0-0.1-1.7-0.1-3.5V14.3h1.5v16.8h-1.6l-8-11.7
			c-1.1-1.5-1.9-3.1-1.9-3.1h-0.1c0,0,0.1,1.7,0.1,3.5v11.2h-1.5V14.3h1.6L208.8,26z"/>
		<path fill="#344967" d="M217.1,31.1V14.3h4.6c4.7,0,8.1,2.3,8.1,8.2c0,6.2-3.7,8.6-8.1,8.6H217.1z M221.6,29.8
			c4.1,0,6.7-2.4,6.7-7.2c0-4.9-2.5-7-6.5-7h-3.1v14.2H221.6z"/>
		<path fill="#344967" d="M249.1,31.1h-9.5V14.3h9.5v1.3h-8V22h7.1v1.3h-7.1v6.4h8V31.1z"/>
		<path fill="#344967" d="M252.9,26.6c0.4,2.4,1.9,3.6,4.2,3.6c2.4,0,3.9-1.1,3.9-3.2c0-2-1.1-2.8-4.1-3.8c-2.5-0.8-4.9-1.6-4.9-4.7
			c0-3.3,2.5-4.4,5-4.4c2.9,0,5,1.2,5.3,4.4l-1.5,0.2c-0.3-2.3-1.7-3.4-3.9-3.4c-2,0-3.5,1-3.5,3.1c0,2.1,1.6,2.7,4.3,3.6
			c2.6,0.9,4.7,1.9,4.7,4.9c0,3-2.3,4.5-5.4,4.5c-3.2,0-5.1-1.5-5.6-4.5L252.9,26.6z"/>
		<path fill="#344967" d="M269.4,31.1V15.6h-5.5v-1.3h12.4v1.3h-5.5v15.4H269.4z"/>
	</g>
</g>
<g>
	<path fill="#B90541" d="M47.3,39.5c0.4,0,0.6,0,1.1,0c0.6,0,1.5,0,1.9,0c0.3,0,0.4,0.1,0.4,0.2c0,0.1-0.1,0.2-0.3,0.2
		c-0.8,0.2-0.9,0.3-1,0.6c-0.1,0.6-0.1,2.1-0.1,4.2c0,1.1,0,2.5,0.1,2.9c0,0.2,0.4,0.5,0.5,0.5c0.4,0.1,0.9,0.1,1.4,0.1
		c0.4,0,0.8,0,1,0c0.1,0,0.3,0,0.6-0.3c0.2-0.2,0.4-0.4,0.8-1c0.2-0.3,0.3-0.3,0.4-0.3c0.1,0,0.1,0.2,0.1,0.4
		c-0.2,0.7-0.3,1-0.4,1.5c0,0.2-0.3,0.2-0.3,0.2c-0.2,0-1.5-0.1-4.3-0.1c-1,0-1.6,0.1-1.8,0.1c-0.3,0-0.4,0-0.4-0.2
		c0-0.1,0.1-0.2,0.3-0.3c0.8-0.2,1-0.4,1.1-1c0-0.4,0.1-2.6,0.1-4.7c0-0.6,0-1.5,0-2c0-0.3-0.1-0.6-0.8-0.7
		c-0.3-0.1-0.4-0.2-0.4-0.3C46.8,39.6,46.9,39.5,47.3,39.5z"/>
	<path fill="#B90541" d="M59,43.5c0.3,0.3,0.5,0.7,0.5,1.2c0,0.1-0.1,0.2-0.3,0.2c-0.2,0-2.6,0-3.2,0c0,0-0.1,0.1-0.1,0.1
		c0,0.1-0.1,0.4-0.1,0.5c0,0.6,0.2,1.2,0.5,1.6c0.3,0.4,0.9,0.8,1.6,0.8c0.6,0,1.1-0.2,1.3-0.5c0.1-0.1,0.1-0.2,0.2-0.2
		c0.1,0,0.1,0.1,0.1,0.2c0,0.1-0.1,0.3-0.1,0.3c-0.5,0.7-1.2,1.1-2.1,1.1c-1.5,0-2.6-1.2-2.6-2.8c0-1.1,0.6-2.3,1.7-2.8
		c0.4-0.2,0.8-0.3,1.1-0.3C58.1,43,58.6,43.1,59,43.5z M56,44.4c0,0.1,0,0.2,0.1,0.2c0.4,0,1.1,0,1.8,0c0.3,0,0.5-0.1,0.5-0.4
		c0-0.4-0.4-0.9-0.9-0.9C56.8,43.3,56.2,43.7,56,44.4z"/>
	<path fill="#B90541" d="M68.6,43.8c0.3,0.4,0.7,1.1,0.7,1.9c0,0.7-0.3,1.8-1.2,2.4c-0.8,0.6-1.6,0.7-2.3,0.7c-0.3,0-0.6,0-0.8-0.1
		c0,0-0.1,0.1-0.1,0.2c0,1.4,0,2,0.1,2.4c0,0.4,0.1,0.5,0.7,0.7c0.3,0.1,0.4,0.2,0.4,0.3c0,0.1-0.2,0.2-0.4,0.2
		c-0.3,0-1.1-0.1-1.7-0.1c-0.3,0-0.5,0-0.9,0c-0.2,0-0.4-0.1-0.4-0.2c0-0.1,0.1-0.2,0.3-0.2c0.8-0.2,0.8-0.3,0.9-1.3
		c0-0.5,0-1.6,0-3.1c0-1,0-2,0-2.9c0-0.6-0.1-0.7-0.1-0.7c-0.4-0.3-0.5-0.4-0.5-0.5c0-0.1,0.1-0.2,0.2-0.3c0.2-0.1,0.8-0.4,1.1-0.5
		c0.1-0.1,0.3-0.1,0.3-0.1c0,0,0.2,0.1,0.2,0.2c0,0.2,0,0.5,0,0.7c0,0.1,0.1,0.1,0.1,0.1c0.3-0.2,0.7-0.4,0.9-0.5
		C66.2,43,66.6,43,67,43C67.6,43,68.2,43.3,68.6,43.8z M65.2,43.9C65.1,44,65,44.1,65,44.4c-0.1,0.4-0.1,2,0,2.6
		c0,0.3,0.1,0.5,0.2,0.6c0.4,0.5,1.1,0.8,1.4,0.8c0.2,0,0.5-0.1,0.7-0.2c0.7-0.6,1-1.7,1-2.1c0-0.3,0-1.1-0.6-1.7
		c-0.4-0.4-1-0.6-1.3-0.6C65.7,43.7,65.3,43.8,65.2,43.9z"/>
	<path fill="#B90541" d="M74,43.6c0.2,0.3,0.3,0.6,0.3,1.2c0,0.6-0.1,2.3-0.1,2.5c0,0.7,0.5,0.7,0.6,0.7c0.1,0,0.4-0.1,0.5-0.2
		c0,0,0.1,0,0.1,0c0,0,0,0.1,0,0.1c0,0.3-0.6,0.9-1.3,0.9c-0.3,0-0.7-0.2-0.9-0.7c0,0-0.1-0.1-0.1-0.1c-0.5,0.4-1.1,0.6-1.3,0.7
		c-0.2,0.1-0.5,0.1-0.6,0.1c-0.5,0-1-0.6-1-1.3c0-0.3,0.1-0.5,0.3-0.7c0.1-0.2,0.4-0.3,0.6-0.4c0.2-0.1,1.3-0.4,1.7-0.5
		c0.3-0.1,0.4-0.2,0.4-0.3c0-0.1,0-1,0-1.2c0-0.4-0.4-1-1.1-1c-0.3,0-0.5,0.1-0.6,0.2c-0.1,0-0.1,0.3-0.1,0.6c0,0-0.1,0.1-0.1,0.2
		c-0.1,0.1-0.9,0.5-0.9,0.5c-0.1,0-0.2-0.1-0.2-0.2c0-0.4,0.4-0.8,1.1-1.2c0.4-0.3,1.1-0.5,1.3-0.5C73.5,42.9,73.8,43.3,74,43.6z
		 M73.1,47.8c0.1-0.1,0.2-0.3,0.2-0.4c0-0.3,0-0.8,0-1.1c0,0-0.1-0.1-0.1-0.1c-0.4,0-1.1,0.2-1.5,0.4c-0.1,0.1-0.3,0.2-0.3,0.5
		c0,0.6,0.6,0.9,0.9,0.9C72.5,48.1,72.8,48,73.1,47.8z"/>
	<path fill="#B90541" d="M76.3,43.4c0.5-0.2,0.9-0.4,1.1-0.5c0.2-0.1,0.2-0.2,0.3-0.2c0.1,0,0.1,0.1,0.1,0.2c0,0.3,0,0.5,0,0.8
		c0,0.1,0.1,0.1,0.1,0.1c0.6-0.5,1.2-0.9,1.6-0.9c0.6,0,0.7,0.4,0.7,0.5c0,0,0,0.1-0.1,0.2c-0.2,0.2-0.5,0.6-0.6,0.7
		c0,0-0.2,0-0.2,0c-0.2-0.1-0.5-0.3-0.8-0.3c-0.2,0-0.5,0-0.6,0.2c-0.1,0.1-0.1,0.2-0.1,0.3c0,0.3,0.1,2.9,0.1,3.1
		c0,0.4,0.1,0.7,0.4,0.7c0.2,0,0.4,0.1,0.7,0.2c0.2,0.1,0.3,0.2,0.3,0.2c0,0.1-0.1,0.1-0.3,0.1c-0.4,0-0.9-0.1-1.7-0.1
		c-0.4,0-0.6,0.1-0.9,0.1c-0.2,0-0.3-0.1-0.3-0.2c0-0.1,0.2-0.1,0.3-0.2c0.6-0.2,0.6-0.3,0.6-1.2c0-0.4,0-1.8,0-2.7
		c0-0.1,0-0.3-0.2-0.4c-0.3-0.3-0.5-0.3-0.5-0.4C76.1,43.6,76.1,43.5,76.3,43.4z"/>
	<path fill="#B90541" d="M84.4,43.1c0,0,0.2,0.1,0.2,0.1c0,0,0,0.4,0,0.5c0,0.1-0.3,0.2-0.4,0.2c-0.1,0-1.4,0-1.5,0
		c-0.1,0-0.1,0.1-0.1,0.1c0,0.3,0,2.4,0,3.1c0,0.4,0.1,0.5,0.2,0.7c0.3,0.2,0.6,0.3,0.9,0.3c0.2,0,0.5-0.1,0.7-0.2
		c0.1-0.1,0.2-0.1,0.2-0.1c0,0,0.1,0,0.1,0.2c0,0.1-0.1,0.3-0.2,0.4c-0.4,0.4-0.9,0.6-1.5,0.6c-0.6,0-1.1-0.4-1.2-0.7
		c-0.2-0.2-0.2-0.5-0.2-0.9c0-0.5,0.1-2.7,0.1-3.2c0-0.1-0.3-0.2-0.5-0.3c-0.1,0-0.2-0.1-0.2-0.2c0-0.1,0-0.1,0.1-0.2
		c0.5-0.4,0.9-0.7,1.1-1c0.2-0.2,0.3-0.3,0.3-0.3c0.1,0,0.2,0.1,0.2,0.2c0,0.1,0,0.3,0,0.7c0,0,0.1,0.1,0.1,0.1
		C83,43.1,84.4,43.1,84.4,43.1z"/>
	<path fill="#B90541" d="M89.5,43.5c0.3,0.3,0.5,0.7,0.5,1.2c0,0.1-0.1,0.2-0.3,0.2c-0.2,0-2.6,0-3.2,0c0,0-0.1,0.1-0.1,0.1
		c0,0.1-0.1,0.4-0.1,0.5c0,0.6,0.2,1.2,0.5,1.6c0.3,0.4,0.9,0.8,1.6,0.8c0.6,0,1.1-0.2,1.3-0.5c0.1-0.1,0.1-0.2,0.2-0.2
		c0.1,0,0.1,0.1,0.1,0.2c0,0.1-0.1,0.3-0.1,0.3c-0.5,0.7-1.2,1.1-2.1,1.1c-1.5,0-2.6-1.2-2.6-2.8c0-1.1,0.6-2.3,1.7-2.8
		c0.4-0.2,0.8-0.3,1.1-0.3C88.6,43,89.2,43.1,89.5,43.5z M86.5,44.4c0,0.1,0,0.2,0.1,0.2c0.4,0,1.1,0,1.8,0c0.3,0,0.5-0.1,0.5-0.4
		c0-0.4-0.4-0.9-0.9-0.9C87.3,43.3,86.8,43.7,86.5,44.4z"/>
	<path fill="#B90541" d="M91.3,43.3c0.2-0.1,0.8-0.3,1-0.4c0.1-0.1,0.3-0.2,0.3-0.2s0.1,0.2,0.1,0.2c0,0.2-0.1,0.6-0.1,0.7
		c0,0.1,0.1,0,0.1,0c0.6-0.4,1.3-0.8,1.9-0.8c0.7,0,1.1,0.3,1.3,0.5c0.3,0.4,0.5,1,0.5,1.7c0,0.3,0,2.4,0,2.6c0,0.2,0.2,0.4,0.5,0.5
		c0.3,0.1,0.4,0.1,0.4,0.2c0,0.1-0.2,0.2-0.4,0.2c-0.3,0-0.7,0-1,0c-0.4,0-0.8,0-1,0c-0.1,0-0.3-0.1-0.3-0.2c0-0.1,0.2-0.2,0.3-0.2
		c0.3-0.1,0.4-0.2,0.4-0.7c0-0.5,0-2.2,0-2.6c0-0.5-0.3-0.9-0.4-1.1c-0.2-0.1-0.6-0.3-0.9-0.3c-0.6,0-1,0.2-1.3,0.5
		c0,0-0.1,0.2-0.1,0.3c0,0.2,0,3.2,0,3.4c0,0.2,0.1,0.3,0.5,0.4c0.1,0,0.3,0.1,0.3,0.2c0,0.1-0.2,0.2-0.4,0.2c-0.2,0-0.6,0-0.9,0
		c-0.5,0-0.9,0-1.2,0c-0.2,0-0.4-0.1-0.4-0.2c0-0.1,0.1-0.2,0.3-0.2c0.5-0.1,0.6-0.3,0.6-0.8c0-0.4,0.1-1.7,0.1-3.1
		c0-0.2,0-0.3-0.3-0.6c-0.2-0.1-0.3-0.2-0.3-0.2C91,43.5,91.2,43.4,91.3,43.3z"/>
	<path fill="#B90541" d="M101.8,43.6c0.2,0.3,0.3,0.6,0.3,1.2c0,0.6-0.1,2.3-0.1,2.5c0,0.7,0.5,0.7,0.6,0.7c0.1,0,0.4-0.1,0.5-0.2
		c0,0,0.1,0,0.1,0c0,0,0,0.1,0,0.1c0,0.3-0.6,0.9-1.3,0.9c-0.3,0-0.7-0.2-0.9-0.7c0,0-0.1-0.1-0.1-0.1c-0.5,0.4-1.1,0.6-1.3,0.7
		c-0.2,0.1-0.5,0.1-0.6,0.1c-0.5,0-1-0.6-1-1.3c0-0.3,0.1-0.5,0.3-0.7c0.1-0.2,0.4-0.3,0.6-0.4c0.2-0.1,1.3-0.4,1.7-0.5
		c0.3-0.1,0.4-0.2,0.4-0.3c0-0.1,0-1,0-1.2c0-0.4-0.4-1-1.1-1c-0.3,0-0.5,0.1-0.6,0.2c-0.1,0-0.1,0.3-0.1,0.6c0,0-0.1,0.1-0.1,0.2
		c-0.1,0.1-0.9,0.5-0.9,0.5c-0.1,0-0.2-0.1-0.2-0.2c0-0.4,0.4-0.8,1.1-1.2c0.4-0.3,1-0.5,1.3-0.5C101.2,42.9,101.5,43.3,101.8,43.6z
		 M100.8,47.8c0.1-0.1,0.2-0.3,0.2-0.4c0-0.3,0-0.8,0-1.1c0,0-0.1-0.1-0.1-0.1c-0.4,0-1.1,0.2-1.5,0.4c-0.1,0.1-0.3,0.2-0.3,0.5
		c0,0.6,0.6,0.9,0.9,0.9C100.3,48.1,100.6,48,100.8,47.8z"/>
	<path fill="#B90541" d="M104.2,43.4c0.5-0.1,1.2-0.4,1.4-0.5c0.1,0,0.1,0.1,0.1,0.2c0,0.2-0.1,2-0.1,2.8c0,0.8,0,1.4,0,1.9
		c0,0.5,0.3,0.5,0.7,0.6c0.2,0.1,0.3,0.1,0.3,0.2c0,0.1-0.2,0.1-0.3,0.1c-0.1,0-0.8,0-1.1,0c-0.5,0-1,0.1-1.2,0.1
		c-0.2,0-0.4-0.1-0.4-0.2c0-0.1,0.1-0.2,0.3-0.2c0.3-0.1,0.5-0.3,0.6-0.4c0-0.2,0.1-1.1,0.1-1.5c0,0,0-2,0-2.2
		c0-0.1-0.2-0.2-0.6-0.5c-0.1-0.1-0.1-0.1-0.1-0.2C104,43.5,104.1,43.4,104.2,43.4z M105.9,40.8c0,0.4-0.4,0.7-0.7,0.7
		c-0.1,0-0.3-0.1-0.5-0.2c-0.1-0.1-0.2-0.3-0.2-0.5c0-0.1,0.1-0.4,0.2-0.5c0.1-0.1,0.4-0.2,0.6-0.2
		C105.6,40.1,105.9,40.5,105.9,40.8z"/>
	<path fill="#B90541" d="M107.8,43.4c0.5-0.2,0.9-0.4,1.1-0.5c0.2-0.1,0.2-0.2,0.3-0.2c0.1,0,0.1,0.1,0.1,0.2c0,0.3,0,0.5,0,0.8
		c0,0.1,0.1,0.1,0.1,0.1c0.6-0.5,1.2-0.9,1.6-0.9c0.6,0,0.7,0.4,0.7,0.5c0,0,0,0.1-0.1,0.2c-0.2,0.2-0.5,0.6-0.6,0.7
		c0,0-0.2,0-0.2,0c-0.2-0.1-0.5-0.3-0.8-0.3c-0.2,0-0.5,0-0.6,0.2c-0.1,0.1-0.1,0.2-0.1,0.3c0,0.3,0.1,2.9,0.1,3.1
		c0,0.4,0.1,0.7,0.4,0.7c0.2,0,0.4,0.1,0.7,0.2c0.2,0.1,0.3,0.2,0.3,0.2c0,0.1-0.1,0.1-0.3,0.1c-0.4,0-0.9-0.1-1.7-0.1
		c-0.4,0-0.6,0.1-0.9,0.1c-0.2,0-0.3-0.1-0.3-0.2c0-0.1,0.2-0.1,0.3-0.2c0.6-0.2,0.6-0.3,0.6-1.2c0-0.4,0-1.8,0-2.7
		c0-0.1,0-0.3-0.2-0.4c-0.3-0.3-0.5-0.3-0.5-0.4C107.6,43.6,107.6,43.5,107.8,43.4z"/>
	<path fill="#B90541" d="M116.2,43.5c0.3,0.3,0.5,0.7,0.5,1.2c0,0.1-0.1,0.2-0.3,0.2c-0.2,0-2.6,0-3.2,0c0,0-0.1,0.1-0.1,0.1
		c0,0.1-0.1,0.4-0.1,0.5c0,0.6,0.2,1.2,0.5,1.6c0.3,0.4,0.9,0.8,1.6,0.8c0.6,0,1.1-0.2,1.3-0.5c0.1-0.1,0.1-0.2,0.2-0.2
		c0.1,0,0.1,0.1,0.1,0.2c0,0.1-0.1,0.3-0.1,0.3c-0.5,0.7-1.2,1.1-2.1,1.1c-1.5,0-2.6-1.2-2.6-2.8c0-1.1,0.6-2.3,1.7-2.8
		c0.4-0.2,0.8-0.3,1.1-0.3C115.3,43,115.9,43.1,116.2,43.5z M113.2,44.4c0,0.1,0,0.2,0.1,0.2c0.4,0,1.1,0,1.8,0
		c0.3,0,0.5-0.1,0.5-0.4c0-0.4-0.4-0.9-0.9-0.9C114,43.3,113.5,43.7,113.2,44.4z"/>
	<path fill="#B90541" d="M124.6,43.5c0.3,0.3,0.5,0.7,0.5,1.2c0,0.1-0.1,0.2-0.3,0.2c-0.2,0-2.6,0-3.2,0c0,0-0.1,0.1-0.1,0.1
		c0,0.1-0.1,0.4-0.1,0.5c0,0.6,0.2,1.2,0.5,1.6c0.3,0.4,0.9,0.8,1.6,0.8c0.6,0,1.1-0.2,1.3-0.5c0.1-0.1,0.1-0.2,0.2-0.2
		c0.1,0,0.1,0.1,0.1,0.2c0,0.1-0.1,0.3-0.1,0.3c-0.5,0.7-1.2,1.1-2.1,1.1c-1.5,0-2.6-1.2-2.6-2.8c0-1.1,0.6-2.3,1.7-2.8
		c0.4-0.2,0.8-0.3,1.1-0.3C123.7,43,124.3,43.1,124.6,43.5z M121.6,44.4c0,0.1,0,0.2,0.1,0.2c0.4,0,1.1,0,1.8,0
		c0.3,0,0.5-0.1,0.5-0.4c0-0.4-0.4-0.9-0.9-0.9C122.4,43.3,121.9,43.7,121.6,44.4z"/>
	<path fill="#B90541" d="M126.1,43.1c0.2,0,0.9,0.1,1.2,0.1c0.3,0,0.6,0,0.8,0c0.2,0,0.3,0,0.3,0.1c0,0.1-0.1,0.2-0.3,0.2
		c-0.3,0.1-0.3,0.2-0.3,0.3c0,0.1,0.6,1,0.8,1.3c0,0,0.1,0,0.1,0c0.2-0.3,0.6-0.9,0.8-1.2c0.1-0.2,0.1-0.3-0.1-0.4
		c-0.3-0.1-0.4-0.2-0.4-0.3c0-0.1,0.1-0.2,0.3-0.2c0.1,0,0.4,0,0.6,0c0.3,0,1-0.1,1.2-0.1c0.2,0,0.3,0,0.3,0.2
		c0,0.1-0.2,0.2-0.3,0.2c-0.6,0.2-0.9,0.3-1.2,0.7c-0.4,0.4-0.6,0.8-1,1.3c0,0.1,0,0.1,0,0.2c0.1,0.3,0.7,1.4,1.2,2
		c0.4,0.6,0.8,0.7,1.1,0.8c0.2,0.1,0.3,0.1,0.3,0.2c0,0.1-0.1,0.2-0.3,0.2c-0.5,0-1-0.1-1.5-0.1c-0.3,0-0.4,0-0.7,0
		c-0.2,0-0.3-0.1-0.3-0.2c0-0.1,0.1-0.1,0.3-0.2c0.2-0.1,0.4-0.1,0.1-0.6c-0.1-0.3-0.6-1.1-0.7-1.2c0,0-0.1,0-0.1,0
		c-0.2,0.2-0.9,1.2-0.9,1.4c0,0.2,0.1,0.3,0.4,0.4c0.1,0,0.2,0.1,0.2,0.2c0,0.1-0.2,0.1-0.3,0.1c-0.3,0-0.4,0-0.6,0
		c-0.5,0-0.9,0.1-1.2,0.1c-0.2,0-0.4,0-0.4-0.2c0-0.1,0.2-0.2,0.4-0.2c0.5-0.1,0.8-0.3,1.1-0.7c0.3-0.3,0.8-1,1.2-1.6
		c0,0,0-0.1,0-0.1c-0.1-0.1-0.6-1.1-1-1.7c-0.4-0.5-0.6-0.7-1-0.9c-0.3-0.1-0.4-0.2-0.4-0.3C125.7,43.1,125.9,43.1,126.1,43.1z"/>
	<path fill="#B90541" d="M137.4,43.8c0.3,0.4,0.7,1.1,0.7,1.9c0,0.7-0.3,1.8-1.2,2.4c-0.8,0.6-1.6,0.7-2.3,0.7c-0.3,0-0.6,0-0.8-0.1
		c0,0-0.1,0.1-0.1,0.2c0,1.4,0,2,0.1,2.4c0,0.4,0.1,0.5,0.7,0.7c0.3,0.1,0.4,0.2,0.4,0.3c0,0.1-0.2,0.2-0.4,0.2
		c-0.3,0-1.1-0.1-1.7-0.1c-0.3,0-0.5,0-0.9,0c-0.2,0-0.4-0.1-0.4-0.2c0-0.1,0.1-0.2,0.3-0.2c0.8-0.2,0.8-0.3,0.9-1.3
		c0-0.5,0-1.6,0-3.1c0-1,0-2,0-2.9c0-0.6-0.1-0.7-0.1-0.7c-0.4-0.3-0.5-0.4-0.5-0.5c0-0.1,0.1-0.2,0.2-0.3c0.2-0.1,0.8-0.4,1.1-0.5
		c0.1-0.1,0.3-0.1,0.3-0.1c0,0,0.2,0.1,0.2,0.2c0,0.2,0,0.5,0,0.7c0,0.1,0.1,0.1,0.1,0.1c0.3-0.2,0.7-0.4,0.9-0.5
		c0.2-0.1,0.7-0.2,1.1-0.2C136.4,43,137,43.3,137.4,43.8z M134,43.9c-0.1,0.1-0.1,0.2-0.2,0.4c-0.1,0.4-0.1,2,0,2.6
		c0,0.3,0.1,0.5,0.2,0.6c0.4,0.5,1.1,0.8,1.4,0.8c0.2,0,0.5-0.1,0.7-0.2c0.7-0.6,1-1.7,1-2.1c0-0.3,0-1.1-0.6-1.7
		c-0.4-0.4-1-0.6-1.3-0.6C134.5,43.7,134.1,43.8,134,43.9z"/>
	<path fill="#B90541" d="M143.3,43.5c0.3,0.3,0.5,0.7,0.5,1.2c0,0.1-0.1,0.2-0.3,0.2c-0.2,0-2.6,0-3.2,0c0,0-0.1,0.1-0.1,0.1
		c0,0.1-0.1,0.4-0.1,0.5c0,0.6,0.2,1.2,0.5,1.6c0.3,0.4,0.9,0.8,1.6,0.8c0.6,0,1.1-0.2,1.3-0.5c0.1-0.1,0.1-0.2,0.2-0.2
		c0.1,0,0.1,0.1,0.1,0.2c0,0.1-0.1,0.3-0.1,0.3c-0.5,0.7-1.2,1.1-2.1,1.1c-1.5,0-2.6-1.2-2.6-2.8c0-1.1,0.6-2.3,1.7-2.8
		c0.4-0.2,0.8-0.3,1.1-0.3C142.4,43,143,43.1,143.3,43.5z M140.3,44.4c0,0.1,0,0.2,0.1,0.2c0.4,0,1.1,0,1.8,0c0.3,0,0.5-0.1,0.5-0.4
		c0-0.4-0.4-0.9-0.9-0.9C141.1,43.3,140.6,43.7,140.3,44.4z"/>
	<path fill="#B90541" d="M145,43.4c0.5-0.2,0.9-0.4,1.1-0.5c0.2-0.1,0.2-0.2,0.3-0.2c0.1,0,0.1,0.1,0.1,0.2c0,0.3,0,0.5,0,0.8
		c0,0.1,0.1,0.1,0.1,0.1c0.6-0.5,1.2-0.9,1.6-0.9c0.6,0,0.7,0.4,0.7,0.5c0,0,0,0.1-0.1,0.2c-0.2,0.2-0.5,0.6-0.6,0.7
		c0,0-0.2,0-0.2,0c-0.2-0.1-0.5-0.3-0.8-0.3c-0.2,0-0.5,0-0.6,0.2c-0.1,0.1-0.1,0.2-0.1,0.3c0,0.3,0.1,2.9,0.1,3.1
		c0,0.4,0.1,0.7,0.4,0.7c0.2,0,0.4,0.1,0.7,0.2c0.2,0.1,0.3,0.2,0.3,0.2c0,0.1-0.1,0.1-0.3,0.1c-0.4,0-0.9-0.1-1.7-0.1
		c-0.4,0-0.6,0.1-0.9,0.1c-0.2,0-0.3-0.1-0.3-0.2c0-0.1,0.2-0.1,0.3-0.2c0.6-0.2,0.6-0.3,0.6-1.2c0-0.4,0-1.8,0-2.7
		c0-0.1,0-0.3-0.2-0.4c-0.3-0.3-0.5-0.3-0.5-0.4C144.8,43.6,144.9,43.5,145,43.4z"/>
	<path fill="#B90541" d="M153.1,43.1c0,0,0.2,0.1,0.2,0.1c0,0,0,0.4,0,0.5c0,0.1-0.3,0.2-0.4,0.2c-0.1,0-1.4,0-1.5,0
		c-0.1,0-0.1,0.1-0.1,0.1c0,0.3,0,2.4,0,3.1c0,0.4,0.1,0.5,0.2,0.7c0.3,0.2,0.6,0.3,0.9,0.3c0.2,0,0.5-0.1,0.7-0.2
		c0.1-0.1,0.2-0.1,0.2-0.1c0,0,0.1,0,0.1,0.2c0,0.1-0.1,0.3-0.2,0.4c-0.4,0.4-0.9,0.6-1.5,0.6c-0.6,0-1.1-0.4-1.2-0.7
		c-0.2-0.2-0.2-0.5-0.2-0.9c0-0.5,0.1-2.7,0.1-3.2c0-0.1-0.3-0.2-0.5-0.3c-0.1,0-0.2-0.1-0.2-0.2c0-0.1,0-0.1,0.1-0.2
		c0.5-0.4,0.9-0.7,1.1-1c0.2-0.2,0.3-0.3,0.3-0.3c0.1,0,0.2,0.1,0.2,0.2c0,0.1,0,0.3,0,0.7c0,0,0.1,0.1,0.1,0.1
		C151.7,43.1,153.1,43.1,153.1,43.1z"/>
	<path fill="#B90541" d="M161.2,43c0.1,0,0.1-0.1,0.1-0.2c0.1-0.4,0-2.6,0-2.9c0-0.1,0-0.2-0.7-0.6c-0.1-0.1-0.1-0.1-0.1-0.1
		c0-0.1,0.2-0.2,0.2-0.2c0.3,0,1.1-0.3,1.4-0.4c0.1,0,0.1,0,0.2,0c0,0,0.1,0.1,0.1,0.2c-0.1,0.8-0.1,1.3-0.1,5.6c0,2.9,0,3,0,3.2
		c0,0.5,0.1,0.6,0.2,0.6c0.2,0,0.6-0.1,0.8-0.1c0.1,0,0.1,0.1,0.1,0.1c0,0.1-0.2,0.3-0.2,0.4c-0.3,0-1,0.2-1.3,0.3
		c-0.3,0.1-0.4,0.1-0.5,0.1c-0.1,0-0.2-0.1-0.2-0.2c0-0.1,0-0.4,0-0.6c0-0.1-0.1-0.1-0.1-0.1c-0.7,0.6-1.4,0.7-1.8,0.7
		c-0.7,0-1.3-0.3-1.8-0.8c-0.5-0.5-0.7-1.2-0.7-1.9c0-1.4,0.8-2.2,1.5-2.6c0.7-0.4,1.5-0.5,1.9-0.5C160.8,42.9,161,43,161.2,43z
		 M158.7,43.9c-0.3,0.3-0.6,1-0.6,1.8c0,1.1,0.8,2.4,2,2.4c0.5,0,0.8-0.2,1-0.3c0,0,0.2-0.5,0.2-0.9c0-0.9,0-1.7,0-2.4
		c0-0.1-0.1-0.4-0.3-0.5c-0.4-0.4-0.9-0.6-1.2-0.6C159.3,43.4,158.9,43.7,158.7,43.9z"/>
	<path fill="#B90541" d="M168.1,47.6c0.1-0.1,0.2-0.3,0.2-0.3l0-3.3c0-0.1-0.2-0.3-0.2-0.3c-0.2-0.1-0.5-0.1-0.7-0.2
		c-0.1,0-0.3-0.1-0.3-0.2c0-0.1,0.2-0.1,0.3-0.1c0.6,0,1.2-0.1,1.5-0.2c0.1,0,0.2-0.1,0.3-0.1c0.1,0,0.1,0.2,0.1,0.2
		c0,0.4-0.1,3.6-0.1,4.7c0,0,0.1,0.2,0.2,0.2c0.1,0,0.5-0.1,0.7-0.1c0.1,0,0.2,0.2,0.2,0.3c0,0-0.1,0.1-0.2,0.1
		c-0.4,0-1,0.2-1.3,0.3c-0.2,0.1-0.5,0.1-0.5,0.1c-0.1,0-0.1-0.1-0.1-0.2c0-0.1,0-0.4,0.1-0.6c0-0.1,0-0.1-0.1-0.1
		c-0.4,0.3-1,0.7-1.2,0.7c-0.2,0.1-0.6,0.2-1,0.2c-0.5,0-1-0.2-1.2-0.7c-0.1-0.2-0.2-0.4-0.2-0.7c0-1,0-2.6,0-3.4
		c0-0.4-0.3-0.5-0.5-0.6c-0.1-0.1-0.3-0.1-0.3-0.3c0,0,0.1-0.1,0.2-0.1c0.4,0,1.4-0.2,1.5-0.2c0.1,0,0.1,0.1,0.1,0.2
		c0,0.5,0,3.2,0,3.8c0,0.3,0.2,0.7,0.4,0.8c0.4,0.3,0.6,0.3,1,0.3C167.3,48.1,167.7,48,168.1,47.6z"/>
	<path fill="#B90541" d="M174.4,43.3c0.2-0.1,0.8-0.3,1-0.4c0.1-0.1,0.3-0.2,0.3-0.2c0.1,0,0.1,0.2,0.1,0.2c0,0.2-0.1,0.6-0.1,0.7
		c0,0.1,0.1,0,0.1,0c0.6-0.4,1.3-0.8,1.9-0.8c0.7,0,1.1,0.3,1.3,0.5c0.3,0.4,0.5,1,0.5,1.7c0,0.3,0,2.4,0,2.6c0,0.2,0.2,0.4,0.5,0.5
		c0.3,0.1,0.4,0.1,0.4,0.2c0,0.1-0.2,0.2-0.4,0.2c-0.3,0-0.7,0-1.1,0c-0.4,0-0.8,0-1,0c-0.1,0-0.3-0.1-0.3-0.2
		c0-0.1,0.2-0.2,0.3-0.2c0.3-0.1,0.4-0.2,0.4-0.7c0-0.5,0-2.2,0-2.6c0-0.5-0.3-0.9-0.4-1.1c-0.2-0.1-0.6-0.3-0.9-0.3
		c-0.6,0-1,0.2-1.3,0.5c0,0-0.1,0.2-0.1,0.3c0,0.2,0,3.2,0,3.4c0,0.2,0.1,0.3,0.5,0.4c0.1,0,0.3,0.1,0.3,0.2c0,0.1-0.2,0.2-0.4,0.2
		c-0.2,0-0.6,0-0.9,0c-0.5,0-0.9,0-1.2,0c-0.2,0-0.4-0.1-0.4-0.2c0-0.1,0.1-0.2,0.3-0.2c0.5-0.1,0.6-0.3,0.6-0.8
		c0-0.4,0.1-1.7,0.1-3.1c0-0.2,0-0.3-0.3-0.6c-0.2-0.1-0.3-0.2-0.3-0.2C174.2,43.5,174.3,43.4,174.4,43.3z"/>
	<path fill="#B90541" d="M187.2,45.8c0,1.2-0.7,2.1-1.2,2.4c-0.6,0.4-1.1,0.6-1.8,0.6c-0.7,0-1.4-0.3-1.9-0.7
		c-0.6-0.5-1.1-1.5-1.1-2.2c0-1.1,0.5-1.8,1-2.2c0.4-0.4,1.1-0.8,2.1-0.8C185.8,42.9,187.2,44,187.2,45.8z M183.2,43.8
		c-0.4,0.3-0.7,1.1-0.7,1.8c0,0.5,0.1,0.9,0.2,1.3c0.4,1.1,1.2,1.6,1.8,1.6c0.2,0,0.5-0.1,0.9-0.5c0.4-0.4,0.6-1.3,0.6-1.9
		c0-0.7-0.2-1.5-0.7-2.2c-0.3-0.3-0.8-0.6-1.2-0.6C183.8,43.4,183.5,43.5,183.2,43.8z"/>
	<path fill="#B90541" d="M191.7,43.1c0,0,0.2,0.1,0.2,0.1c0,0,0,0.4,0,0.5c0,0.1-0.3,0.2-0.4,0.2c-0.1,0-1.4,0-1.5,0
		c-0.1,0-0.1,0.1-0.1,0.1c0,0.3,0,2.4,0,3.1c0,0.4,0.1,0.5,0.2,0.7c0.3,0.2,0.6,0.3,0.9,0.3c0.2,0,0.5-0.1,0.7-0.2
		c0.1-0.1,0.2-0.1,0.2-0.1c0,0,0.1,0,0.1,0.2c0,0.1-0.1,0.3-0.2,0.4c-0.4,0.4-0.9,0.6-1.5,0.6c-0.6,0-1.1-0.4-1.2-0.7
		c-0.2-0.2-0.2-0.5-0.2-0.9c0-0.5,0.1-2.7,0.1-3.2c0-0.1-0.3-0.2-0.5-0.3c-0.1,0-0.2-0.1-0.2-0.2c0-0.1,0-0.1,0.1-0.2
		c0.5-0.4,0.9-0.7,1.1-1c0.2-0.2,0.3-0.3,0.3-0.3c0.1,0,0.2,0.1,0.2,0.2c0,0.1,0,0.3,0,0.7c0,0,0.1,0.1,0.1,0.1
		C190.3,43.1,191.7,43.1,191.7,43.1z"/>
	<path fill="#B90541" d="M196.3,43.6c0.2,0.3,0.3,0.6,0.3,1.2c0,0.6-0.1,2.3-0.1,2.5c0,0.7,0.5,0.7,0.6,0.7c0.1,0,0.4-0.1,0.5-0.2
		c0,0,0.1,0,0.1,0c0,0,0,0.1,0,0.1c0,0.3-0.6,0.9-1.3,0.9c-0.3,0-0.7-0.2-0.9-0.7c0,0-0.1-0.1-0.1-0.1c-0.5,0.4-1.1,0.6-1.3,0.7
		c-0.2,0.1-0.5,0.1-0.6,0.1c-0.5,0-1-0.6-1-1.3c0-0.3,0.1-0.5,0.3-0.7c0.1-0.2,0.4-0.3,0.6-0.4c0.2-0.1,1.3-0.4,1.7-0.5
		c0.3-0.1,0.4-0.2,0.4-0.3c0-0.1,0-1,0-1.2c0-0.4-0.4-1-1.1-1c-0.3,0-0.5,0.1-0.6,0.2c-0.1,0-0.1,0.3-0.1,0.6c0,0-0.1,0.1-0.1,0.2
		c-0.1,0.1-0.9,0.5-0.9,0.5c-0.1,0-0.2-0.1-0.2-0.2c0-0.4,0.4-0.8,1.1-1.2c0.4-0.3,1.1-0.5,1.3-0.5
		C195.8,42.9,196.1,43.3,196.3,43.6z M195.4,47.8c0.1-0.1,0.2-0.3,0.2-0.4c0-0.3,0-0.8,0-1.1c0,0-0.1-0.1-0.1-0.1
		c-0.4,0-1.1,0.2-1.5,0.4c-0.1,0.1-0.3,0.2-0.3,0.5c0,0.6,0.6,0.9,0.9,0.9C194.8,48.1,195.1,48,195.4,47.8z"/>
	<path fill="#B90541" d="M198.8,43.4c0.5-0.1,1.2-0.4,1.4-0.5c0.1,0,0.1,0.1,0.1,0.2c0,0.2-0.1,2-0.1,2.8c0,0.8,0,1.4,0,1.9
		c0,0.5,0.3,0.5,0.7,0.6c0.2,0.1,0.3,0.1,0.3,0.2c0,0.1-0.2,0.1-0.3,0.1c-0.1,0-0.8,0-1.1,0c-0.5,0-1,0.1-1.2,0.1
		c-0.2,0-0.4-0.1-0.4-0.2c0-0.1,0.1-0.2,0.3-0.2c0.3-0.1,0.5-0.3,0.6-0.4c0-0.2,0.1-1.1,0.1-1.5c0,0,0-2,0-2.2
		c0-0.1-0.2-0.2-0.6-0.5c-0.1-0.1-0.1-0.1-0.1-0.2C198.5,43.5,198.7,43.4,198.8,43.4z M200.5,40.8c0,0.4-0.4,0.7-0.7,0.7
		c-0.1,0-0.3-0.1-0.5-0.2c-0.1-0.1-0.2-0.3-0.2-0.5c0-0.1,0.1-0.4,0.2-0.5c0.1-0.1,0.4-0.2,0.6-0.2
		C200.2,40.1,200.5,40.5,200.5,40.8z"/>
	<path fill="#B90541" d="M202.3,43.4c0.5-0.2,0.9-0.4,1.1-0.5c0.2-0.1,0.2-0.2,0.3-0.2c0.1,0,0.1,0.1,0.1,0.2c0,0.3,0,0.5,0,0.8
		c0,0.1,0.1,0.1,0.1,0.1c0.6-0.5,1.2-0.9,1.6-0.9c0.6,0,0.7,0.4,0.7,0.5c0,0,0,0.1-0.1,0.2c-0.2,0.2-0.5,0.6-0.6,0.7
		c0,0-0.2,0-0.2,0c-0.2-0.1-0.5-0.3-0.8-0.3c-0.2,0-0.5,0-0.6,0.2c-0.1,0.1-0.1,0.2-0.1,0.3c0,0.3,0.1,2.9,0.1,3.1
		c0,0.4,0.1,0.7,0.4,0.7c0.2,0,0.4,0.1,0.7,0.2c0.2,0.1,0.3,0.2,0.3,0.2c0,0.1-0.1,0.1-0.3,0.1c-0.4,0-0.9-0.1-1.7-0.1
		c-0.4,0-0.6,0.1-0.9,0.1c-0.2,0-0.3-0.1-0.3-0.2c0-0.1,0.2-0.1,0.3-0.2c0.6-0.2,0.6-0.3,0.6-1.2c0-0.4,0-1.8,0-2.7
		c0-0.1,0-0.3-0.2-0.4c-0.3-0.3-0.5-0.3-0.5-0.4C202.2,43.6,202.2,43.5,202.3,43.4z"/>
	<path fill="#B90541" d="M210.8,43.5c0.3,0.3,0.5,0.7,0.5,1.2c0,0.1-0.1,0.2-0.3,0.2c-0.2,0-2.6,0-3.2,0c0,0-0.1,0.1-0.1,0.1
		c0,0.1-0.1,0.4-0.1,0.5c0,0.6,0.2,1.2,0.5,1.6c0.3,0.4,0.9,0.8,1.6,0.8c0.6,0,1.1-0.2,1.3-0.5c0.1-0.1,0.1-0.2,0.2-0.2
		c0.1,0,0.1,0.1,0.1,0.2c0,0.1-0.1,0.3-0.1,0.3c-0.5,0.7-1.2,1.1-2.1,1.1c-1.5,0-2.6-1.2-2.6-2.8c0-1.1,0.6-2.3,1.7-2.8
		c0.4-0.2,0.8-0.3,1.1-0.3C209.9,43,210.4,43.1,210.8,43.5z M207.8,44.4c0,0.1,0,0.2,0.1,0.2c0.4,0,1.1,0,1.8,0
		c0.3,0,0.5-0.1,0.5-0.4c0-0.4-0.4-0.9-0.9-0.9C208.6,43.3,208.1,43.7,207.8,44.4z"/>
</g>
</svg>
