<?xml version="1.0" encoding="utf-8"?>
<!-- Generator: Adobe Illustrator 19.0.0, SVG Export Plug-In . SVG Version: 6.00 Build 0)  -->
<svg version="1.1" id="Calque_1" xmlns="http://www.w3.org/2000/svg" xmlns:xlink="http://www.w3.org/1999/xlink" x="0px" y="0px"
	 width="856.1px" height="223px" viewBox="0 0 856.1 223" style="enable-background:new 0 0 856.1 223;" xml:space="preserve">
<style type="text/css">
	.st0{fill:url(#SVGID_10_);}
	.st1{fill:url(#SVGID_11_);}
	.st2{fill:#B90041;}
	.st3{fill:#274963;}
</style>
<g>
	<g>
		<g>
			<defs>
				<path id="SVGID_1_" d="M44.6,144.9c-2.4,3.3-5.4,5-8.7,7.3c-1.7,1.1-1.7,1.1-2,2.9c-2,12.4-2.1,26.5,0,38.9
					c1.4,8.1,4.8,17.2,9.5,24c1.4,2,1.2,1.7,3.9,1.7c2.7,0,5.4,0,8.1,0c1,0,0.6-4.9,0.2-5.4c-3.8-4.6-6.8-10.1-9.1-15.6
					c-1.7-4.2-3.8-10.5-2.8-15.5c-0.7,1.4-1.1,3-1.4,4.7c0.3,3.9,1.1,7.7,1.9,10.5c1.6,5.5,4.1,10.9,7.2,15.8c-0.7,0-1.3,0-2,0
					c-1,0-3.9,0.5-4.8,0c-1.9-1.1-3.4-6.3-4.3-8.2c-1.9-4-3.8-8.2-4.8-12.6c-2.8-11.2-1.9-23.8-0.6-35.2c4.3-2.2,7.6-5.1,9.9-8.5
					c2.7-4.3,3.5-9.1,3.5-13.6C47.8,139.2,46.6,142.1,44.6,144.9"/>
			</defs>
			<linearGradient id="SVGID_2_" gradientUnits="userSpaceOnUse" x1="26.5959" y1="213.67" x2="163.6365" y2="12.4829">
				<stop  offset="0" style="stop-color:#274963"/>
				<stop  offset="2.148350e-002" style="stop-color:#274963"/>
				<stop  offset="0.5007" style="stop-color:#009897"/>
				<stop  offset="1" style="stop-color:#36AC9A"/>
			</linearGradient>
			<use xlink:href="#SVGID_1_"  style="overflow:visible;fill:url(#SVGID_2_);"/>
			<clipPath id="SVGID_3_">
				<use xlink:href="#SVGID_1_"  style="overflow:visible;"/>
			</clipPath>
		</g>
		<g>
			<g>
				<defs>
					<path id="SVGID_4_" d="M71.6,49.8c1.3,6.8,6,11.4,12.5,13.5c0.5,0.2,1.1,0.3,1.8,0.4c0.5,0.1,1,0.1,1.6,0.2
						c2.2,0.2,3.9,1,4.9,2.4c-0.2-0.9-0.4-1.9-0.8-2.7c-1.9-4.5-3.7-4.5-7.5-5.7c-5.7-1.8-11-7.1-11.8-12.7
						c-0.6-2.1-0.8-4.2-0.8-6.1C70.8,42.5,71,46.5,71.6,49.8"/>
				</defs>
				<linearGradient id="SVGID_5_" gradientUnits="userSpaceOnUse" x1="-10.564" y1="188.3582" x2="126.4765" y2="-12.829">
					<stop  offset="0" style="stop-color:#274963"/>
					<stop  offset="2.148350e-002" style="stop-color:#274963"/>
					<stop  offset="0.5007" style="stop-color:#009897"/>
					<stop  offset="1" style="stop-color:#36AC9A"/>
				</linearGradient>
				<use xlink:href="#SVGID_4_"  style="overflow:visible;fill:url(#SVGID_5_);"/>
				<clipPath id="SVGID_6_">
					<use xlink:href="#SVGID_4_"  style="overflow:visible;"/>
				</clipPath>
			</g>
			<g>
				<defs>
					<path id="SVGID_7_" d="M91,68.3c-0.1,2.5-4.5,4-5.8,5.9c-3.2,5-1.9,12.5-0.4,17.8c0.8,2.8,1.7,5.7,2.5,8.5
						c-0.6-0.1-1.1-0.3-1.7-0.4c-11.4-2.4-22.7-0.9-33.1,4.3c-2.4,1.2-4.8,2.9-7.3,4.6c-0.4-0.9-0.7-1.8-1.1-2.7
						c-7.4-17.2-22.9-29.6-40-36.6c-0.3-0.1-0.6,1.8-0.6,3.4v0.1c0,0.9,0.1,1.8,0.4,2c4.4,3.5,8,8.5,10.3,13.5
						c2.3,5,2.7,9.6,3.1,14.7c0.6,1.5,1.4,3,2.2,4.2c-0.5-2-0.7-4.1-0.8-6.2c-0.1-5.4-1.1-10.7-3.1-15.7c-0.9-2.3-2-4.5-3.4-6.7
						c13.4,7.2,24.4,17.8,30.8,31.3c-4.9,3.3-10,6.2-15.3,5.4c-0.2,0-0.3-0.1-0.4-0.1c-3.6-0.3-6.8-2.5-9.5-6.6c0.4,3,1.4,6,3.2,8.3
						c5.8,7.3,14.8,2.9,21-1.3c0.9-0.6,1.8-1.2,2.7-1.8c0.4,1,0.7,1.9,1.1,2.9c0.6,1.3,2.8,6.2,3.9,12.4c-0.2-5.5-1.4-11.1-3.2-16.4
						c7.3-4.4,15-7.8,23.7-8.7c6.2-0.6,12.4,0,18.5,1.6c3,11.5,4.5,23.3-1.1,34.7c-5.4,11.2-14.7,19.5-25.9,24.7
						c-4.8,2.2-12.5,3.4-16.2,7.4c-1.8,1.9-2.8,4.7-3.2,7.8c1.2-2.1,3-3.8,5.3-4.6c1.9-0.6,6.5-2.3,9.4-3.3
						c14.3-6.5,26.5-14.8,32.6-30.6c3.6-9.4,3.8-19.7,2.2-29.6c-0.3-2-0.7-4-1.2-6c14,4.1,27,12.9,37.3,22.8c0,2.7-0.2,5.5-0.6,8.3
						c-0.3,1.7-0.6,3.4-1.1,5.1c-0.2-0.1-0.3-0.3-0.5-0.4c-3.8-3.4-9.8-9.4-15.7-10.1c-1.6,0.3-4.3,1.1-6,3.7
						c-0.9,1.4-1.5,3.3-1.7,5.4c1.7-2.8,5-4.2,8.8-3.4c4.9,1.1,9.6,4.7,13.9,8.7c-3.6,10.9-9.6,20.9-10.6,32.7
						c-1.1,12.2,1.6,23.9,6.9,34.7h-10.2c-0.9-7-2-13.9-3.1-20.9c-1.4-9.1-2.9-18.2-4.4-27.3c-0.7-4.4-2-9.4-2.5-14.3
						c-0.8-3.5-1.2-6.6-1.2-9.4c-0.5,4.2,0,8.6,0.5,12.8c1.2,9.3,2.9,18.5,4.4,27.7c1.9,11.8,3.8,23.6,5.3,35.4
						c0,0.2,0.1,1.4,0.5,1.4h13.5c1.1,0,0.5-4.8,0.2-5.4c-8.4-14.6-12-30.5-5.6-46.6c2.4-6,5.5-11.6,7.3-17.8c0.1-0.5,0.3-1,0.4-1.5
						c2.4,2.3,4.6,4.6,6.6,6.6c4.4,4.2,14.7,13.4,13,20.4c-1.4,5.8-9.4,9.1-13.7,12.2c-2.5,1.8-4,2.5-3.9,5.8
						c0.2,3.7,2.1,7.4,3.2,10.8c0.1,0.2,0.2,0.5,0.5,0.3c5-4.1,10.5-7.6,15.7-11.4c3.2-2.3,5.6-5.4,7-9.1c1.2-3.4,1.7-6.8,1.6-10.3
						c-0.7,2.8-1.8,5.8-3.6,8.5c-0.1,0.2-0.3,0.5-0.4,0.7c-0.6,0.9-1.3,1.7-2.1,2.4c0,0,0,0,0,0c-0.2,0.2-0.3,0.3-0.5,0.5
						c-1.3,1.3-2.9,2.5-4.7,3.6c-0.1,0.1-0.2,0.1-0.3,0.1c-1.2,0.8-2.4,1.6-3.6,2.4c-1.2,0.9-9,7.4-8.9,7.4
						c-0.6-0.2-1.3-2.6-1.9-4.9c6.2-6.2,16.1-7.6,17.1-18c1.4-13.6-10.5-24-20-32.2c0.8-3.8,1.2-7.7,1.4-11.6c0-0.6,0-1.2,0-1.8
						c1.1,1.1,2.3,2.3,3.3,3.5c8.2,8.9,16,19.3,20.4,30.6c0.9,2.3,1.6,4.5,2,6.8c0.4-2.2,0.5-4.3,0.5-6.1c-2.2-8.3-7-16.3-11.6-22.8
						c-4.3-6.2-9.3-12.1-14.7-17.5c-0.4-7.3-4.9-26.2-7.2-33.2c-1.4-4.2,4.7,22.6,5.7,31.8c-10.9-10.4-23.8-18.7-38.3-22.6
						c-0.4-1.3-0.7-2.7-1.1-4c-1.2-4.2-3.4-8.6-3.8-12.9c-0.5-5.6,4-6.6,6.4-10c0.6-2.3,0.8-4.5-0.1-6.1c0-0.1-0.1-0.1-0.1-0.2
						C91,68.1,91,68.2,91,68.3"/>
				</defs>
				<linearGradient id="SVGID_8_" gradientUnits="userSpaceOnUse" x1="22.7217" y1="211.0311" x2="159.7622" y2="9.8439">
					<stop  offset="0" style="stop-color:#274963"/>
					<stop  offset="2.148350e-002" style="stop-color:#274963"/>
					<stop  offset="0.5007" style="stop-color:#009897"/>
					<stop  offset="1" style="stop-color:#36AC9A"/>
				</linearGradient>
				<use xlink:href="#SVGID_7_"  style="overflow:visible;fill:url(#SVGID_8_);"/>
				<clipPath id="SVGID_9_">
					<use xlink:href="#SVGID_7_"  style="overflow:visible;"/>
				</clipPath>
			</g>
		</g>
	</g>
	<g>
		<linearGradient id="SVGID_10_" gradientUnits="userSpaceOnUse" x1="31.4282" y1="224.7458" x2="163.0538" y2="13.5618">
			<stop  offset="0" style="stop-color:#274963"/>
			<stop  offset="2.148350e-002" style="stop-color:#274963"/>
			<stop  offset="0.5007" style="stop-color:#009897"/>
			<stop  offset="1" style="stop-color:#36AC9A"/>
		</linearGradient>
		<path class="st0" d="M160.3,20.7c0.8-1.3-0.4-5.3-0.3-5.3c-2.3,3.9-4.6,7.9-7.1,11.8c0.7,0.8,1.5,1.5,2.2,2.3
			C156.8,26.6,158.6,23.6,160.3,20.7z"/>
		
			<linearGradient id="SVGID_11_" gradientUnits="userSpaceOnUse" x1="27.8248" y1="552.6855" x2="27.9901" y2="552.4428" gradientTransform="matrix(178.9071 -181.4227 -181.4227 -178.9071 95364.2891 103970.7188)">
			<stop  offset="0" style="stop-color:#274963"/>
			<stop  offset="2.148350e-002" style="stop-color:#274963"/>
			<stop  offset="0.5007" style="stop-color:#009897"/>
			<stop  offset="1" style="stop-color:#36AC9A"/>
		</linearGradient>
		<path class="st1" d="M147.3,35.8c-5,7.3-10.6,14.2-17,20.2c-5.2,4.8-11.9,10-19.3,9.9c-5.3-0.1-9.9-3.5-12.6-8
			c4-8.4,3.2-18.8-5.3-23.2c0.4-0.8,0.8-1.6,1.2-2.4c0.3-0.7,0.8-5-0.3-5.2c-5.3-1-11.8-0.9-16.4,2.1c-0.7,0.5-1.4,1-1.9,1.6
			c-0.7,1.6-1.7,4.4-1.8,7.9c0.6-1,1.4-2,2.5-2.9c3.8-3.4,9.8-4,15-3.5c-0.3,0.6-0.6,1.2-0.9,1.8c-0.4,0.8-0.8,4.8,0.3,5.2
			c3.3,1.1,7.4,3,8.5,6.8c0.8,2.7-0.7,5.5-1.7,7.9c-0.9,2.1-1.6,3.9-0.8,6.3c0.6,2,2,4,3.3,5.5c7.9,9.6,19.6,5,27.8-1.8
			c8.7-7.1,15.8-16.2,22-25.8C148.9,37.4,148.1,36.6,147.3,35.8z"/>
	</g>
	<path class="st2" d="M111.6,3.3c-0.4,1.7-0.7,4.6-0.4,5.5c29.8,11.7,52.8,34.5,65.5,64.6c0.1-1,0.1-1.8,0-2.1
		C164.7,39.6,141.6,15.5,111.6,3.3z"/>
</g>
<g>
	<g>
		<path class="st3" d="M276.3,98.3c-6.1,10.5-14,15.5-29.1,15.5c-18.4,0-31.1-12.8-31.1-35.3s12.4-35.2,33.1-35.2
			c13.9,0,22.7,6.3,27.6,17.1l-15.1,7.4c-2.1-6.7-5.8-10.7-13.1-10.7c-10.2,0-16.5,8.2-16.5,21.8c0,13.4,5.5,21.2,16.7,21.2
			c6.2,0,11.2-3.1,14.2-9.7L276.3,98.3z"/>
		<path class="st3" d="M325.4,112.4c-2.1-1.6-2.9-4.1-3.6-7l-2.5-10.1c-1.4-5.8-4-6.8-9.2-6.8h-6.7v23.9h-15.7V44.7h26.7
			c15.2,0,24.6,5.5,24.6,20.7c0,10.5-6.1,16.1-14.8,17v0.2c6.2,1,9.6,3.7,11.3,9.9l3.5,12.7c0.7,2.6,1.6,4.9,3.8,7.2H325.4z
			 M303.4,75.6h10c6.2,0,9.7-2.4,9.7-8.9c0-5.8-3.2-8.9-9.7-8.9h-10V75.6z"/>
		<path class="st3" d="M370.4,44.7v67.8h-15.7V44.7H370.4z"/>
		<path class="st3" d="M388.1,112.4V44.7h25c18.8,0,33,9.3,33,33.1c0,25.1-14.6,34.6-34.1,34.6H388.1z M410.5,99.2
			c12.1,0,19.2-5.1,19.2-20.5c0-16.1-7.1-20.8-18.3-20.8h-7.7v41.3H410.5z"/>
		<path class="st3" d="M455.5,78.6c0-22.8,12.1-35.3,32.1-35.3s32.2,12.5,32.2,35.3c0,22.7-12.2,35.2-32.2,35.2
			S455.5,101.3,455.5,78.6z M471.8,78.8c0,13.4,5.2,21.5,15.9,21.5s16-8.2,16-21.5c0-13.5-5.3-21.6-16-21.6
			C477.1,57.2,471.8,65.4,471.8,78.8z"/>
		<path class="st3" d="M572.1,77.4c3.8,5.2,5.6,9.1,5.6,9.1h0.5c0,0-0.3-5.8-0.3-14.4V44.7h15.7v67.8h-14.3l-23.9-32.2
			c-4.4-5.8-6.4-10-6.4-10h-0.5c0,0,0.7,5.5,0.7,15.3v26.9h-15.7V44.7h14.7L572.1,77.4z"/>
		<path class="st3" d="M642.3,44.7v62.5h31.5v5.3h-37.6V44.7H642.3z"/>
		<path class="st3" d="M691.7,69.5c4.1,7.6,5.3,10.7,5.3,10.7h0.3c0,0,1-3.1,5.1-10.7l13.1-24.9h6.3L700,85.3v27.2h-6V85.3
			l-22.8-40.6h6.9L691.7,69.5z"/>
		<path class="st3" d="M726,78.6c0-22.4,11.5-35,29.5-35s29.5,12.5,29.5,35s-11.5,34.9-29.5,34.9S726,101,726,78.6z M732.3,78.6
			c0,18.4,8.1,29.6,23.1,29.6c15.1,0,23.2-11.2,23.2-29.6s-8.2-29.7-23.2-29.7C740.4,48.9,732.3,60.2,732.3,78.6z"/>
		<path class="st3" d="M839.3,91.8c4.4,6.3,7.6,12.5,7.6,12.5h0.3c0,0-0.3-6.7-0.3-14.3V44.7h6v67.8h-6.4l-32.3-47.2
			c-4.3-6.1-7.6-12.5-7.6-12.5H806c0,0,0.5,6.7,0.5,14.3v45.5h-6V44.7h6.6L839.3,91.8z"/>
	</g>
	<g>
		<path class="st2" d="M225.2,166.4c0,4.5,0.1,5.1,2.8,5.4l1.2,0.1c0.3,0.2,0.2,0.9-0.1,1.1c-2.4-0.1-3.9-0.1-5.6-0.1
			c-1.8,0-3.3,0-5.2,0.1c-0.3-0.1-0.3-0.8-0.1-1.1l0.9-0.1c2.5-0.3,2.6-0.9,2.6-5.4v-15.8c0-3.6-0.1-4.4-2-4.6l-1.5-0.2
			c-0.3-0.3-0.3-0.9,0.1-1.1c2.3-0.3,4.9-0.3,8.5-0.3c3.6,0,6.2,0.5,8.2,1.7c2,1.2,3.4,3.5,3.4,6.4c0,3.9-2.4,5.9-4.3,6.8
			c-1.9,0.9-4.2,1.3-5.9,1.3c-0.3-0.1-0.3-0.8,0-0.9c4.6-0.9,6.3-3.5,6.3-7.2c0-4.2-2.4-6.9-6.9-6.9c-2.3,0-2.3,0.2-2.3,1.5V166.4z"
			/>
		<path class="st2" d="M248,164c0.6-0.2,0.7-0.6,0.7-1.2l0-2c0-1.6-0.5-3.7-3.1-3.7c-1.2,0-2.7,0.6-2.7,1.9c0,0.7-0.1,1.2-0.4,1.5
			c-0.6,0.5-1.8,0.8-2.4,0.8c-0.4,0-0.6-0.2-0.6-0.6c0-2.2,4.8-5.3,8-5.3c3.1,0,4.6,1.8,4.5,5l-0.3,7.5c-0.1,2,0.3,3.7,2,3.7
			c0.4,0,0.8-0.1,1.1-0.3c0.2-0.1,0.4-0.3,0.6-0.3c0.2,0,0.3,0.3,0.3,0.6c0,0.2-1.5,1.9-3.6,1.9c-1,0-2.1-0.4-2.8-1.3
			c-0.2-0.3-0.4-0.6-0.7-0.6c-0.3,0-0.8,0.4-1.7,0.9c-0.9,0.5-1.9,1.1-3.1,1.1c-1.2,0-2.3-0.3-3-1c-0.8-0.7-1.3-1.8-1.3-3
			c0-1.7,0.8-2.7,3.6-3.6L248,164z M245.4,171.5c0.9,0,2.2-0.6,2.6-1.1c0.5-0.5,0.5-1.1,0.6-2l0.1-2.5c0-0.5-0.2-0.6-0.4-0.6
			s-1,0.2-1.8,0.4c-2.5,0.9-3.8,1.5-3.8,3.2C242.7,169.7,243.2,171.5,245.4,171.5z"/>
		<path class="st2" d="M259.4,160.5c0-1.7,0-1.9-1.2-2.7l-0.4-0.3c-0.2-0.2-0.2-0.6,0-0.8c1-0.3,3.3-1.5,4.3-2.1
			c0.2,0,0.3,0.1,0.3,0.3v2.5c0,0.2,0,0.3,0.1,0.4c1.5-1.2,3.1-2.6,4.7-2.6c1.1,0,1.9,0.7,1.9,1.7c0,1.4-1.2,2-1.8,2
			c-0.4,0-0.6-0.1-0.9-0.3c-0.6-0.4-1.3-0.7-1.9-0.7c-0.7,0-1.2,0.4-1.5,0.9c-0.4,0.6-0.6,1.8-0.6,3.3v5.8c0,3.1,0.1,3.6,1.7,3.7
			l1.5,0.1c0.3,0.2,0.2,0.9-0.1,1.1c-2-0.1-3.3-0.1-4.8-0.1c-1.5,0-2.8,0-3.9,0.1c-0.3-0.1-0.4-0.9-0.1-1.1l0.8-0.1
			c1.6-0.3,1.6-0.6,1.6-3.7V160.5z"/>
		<path class="st2" d="M277.5,157.8c-0.7,0-0.8,0.1-0.8,1v8c0,2.5,0.3,4.8,3.1,4.8c0.4,0,0.8-0.1,1.2-0.2c0.4-0.1,0.9-0.6,1.1-0.6
			c0.3,0,0.5,0.5,0.4,0.7c-0.8,0.9-2.3,2-4.5,2c-3.7,0-4.5-2.1-4.5-4.6V159c0-1.2,0-1.2-0.9-1.2h-1.2c-0.3-0.2-0.3-0.6-0.1-0.9
			c1.2-0.4,2.3-0.9,2.7-1.3c0.6-0.5,1.4-1.7,1.8-2.5c0.2-0.1,0.7-0.1,0.9,0.2v1.9c0,0.8,0,0.8,0.8,0.8h4.8c0.5,0.4,0.4,1.5,0,1.8
			H277.5z"/>
		<path class="st2" d="M288.5,161.9c-1.1,0-1.2,0.1-1.2,1.2c0,4.3,2.5,8,7.1,8c1.4,0,2.6-0.4,3.9-2.1c0.4-0.1,0.7,0.1,0.8,0.5
			c-1.4,2.9-4.5,4-6.7,4c-2.8,0-5-1.2-6.2-2.8c-1.3-1.7-1.8-3.7-1.8-5.6c0-5.3,3.5-9.7,8.6-9.7c3.7,0,6.1,2.5,6.1,5.1
			c0,0.6-0.1,0.9-0.2,1.1c-0.1,0.3-0.7,0.3-2.5,0.3H288.5z M291.1,160.6c3.2,0,4.1-0.2,4.5-0.4c0.1-0.1,0.3-0.3,0.3-0.8
			c0-1.2-0.8-2.7-3.3-2.7c-2.5,0-4.7,2.3-4.8,3.7c0,0.1,0,0.2,0.3,0.2H291.1z"/>
		<path class="st2" d="M304.1,160.5c0-1.7,0-1.9-1.2-2.7l-0.4-0.3c-0.2-0.2-0.2-0.6,0-0.8c1-0.3,3.4-1.5,4.3-2.1
			c0.2,0,0.4,0.1,0.5,0.3c-0.1,1-0.1,1.6-0.1,2c0,0.3,0.2,0.5,0.5,0.5c1.8-1.1,3.8-2.2,6-2.2c3.6,0,5,2.4,5,5.3v7.4
			c0,3.1,0.1,3.5,1.6,3.7l0.9,0.1c0.3,0.2,0.2,0.9-0.1,1.1c-1.3-0.1-2.5-0.1-4-0.1c-1.5,0-2.8,0-4,0.1c-0.3-0.1-0.4-0.9-0.1-1.1
			l0.8-0.1c1.6-0.3,1.6-0.6,1.6-3.7v-6.4c0-2.4-1.1-4.2-4-4.2c-1.6,0-3,0.7-3.6,1.5c-0.6,0.7-0.6,1.3-0.6,2.6v6.6
			c0,3.1,0.1,3.5,1.6,3.7l0.8,0.1c0.3,0.2,0.2,0.9-0.1,1.1c-1.2-0.1-2.4-0.1-3.9-0.1c-1.5,0-2.8,0-4,0.1c-0.3-0.1-0.4-0.9-0.1-1.1
			l0.9-0.1c1.6-0.2,1.6-0.6,1.6-3.7V160.5z"/>
		<path class="st2" d="M332.5,164c0.6-0.2,0.7-0.6,0.7-1.2l0-2c0-1.6-0.5-3.7-3.1-3.7c-1.2,0-2.7,0.6-2.7,1.9c0,0.7-0.1,1.2-0.4,1.5
			c-0.6,0.5-1.8,0.8-2.4,0.8c-0.4,0-0.6-0.2-0.6-0.6c0-2.2,4.8-5.3,8-5.3c3.1,0,4.6,1.8,4.5,5l-0.3,7.5c-0.1,2,0.3,3.7,2,3.7
			c0.4,0,0.8-0.1,1.1-0.3c0.2-0.1,0.4-0.3,0.6-0.3c0.2,0,0.3,0.3,0.3,0.6c0,0.2-1.5,1.9-3.6,1.9c-1,0-2.1-0.4-2.8-1.3
			c-0.2-0.3-0.4-0.6-0.7-0.6c-0.3,0-0.8,0.4-1.7,0.9c-0.9,0.5-1.9,1.1-3.1,1.1c-1.2,0-2.3-0.3-3-1c-0.8-0.7-1.3-1.8-1.3-3
			c0-1.7,0.8-2.7,3.6-3.6L332.5,164z M329.8,171.5c0.9,0,2.2-0.6,2.6-1.1c0.5-0.5,0.5-1.1,0.6-2l0.1-2.5c0-0.5-0.2-0.6-0.4-0.6
			s-1,0.2-1.8,0.4c-2.5,0.9-3.8,1.5-3.8,3.2C327.1,169.7,327.7,171.5,329.8,171.5z"/>
		<path class="st2" d="M343.8,160.5c0-1.7,0-1.9-1.2-2.7l-0.4-0.3c-0.2-0.2-0.2-0.6,0-0.8c1-0.3,3.4-1.5,4.4-2.1
			c0.2,0,0.4,0.1,0.4,0.3c-0.1,1.5-0.2,3.6-0.2,5.3v7.7c0,3.1,0.1,3.5,1.6,3.7l0.9,0.1c0.3,0.2,0.2,0.9-0.1,1.1
			c-1.3-0.1-2.5-0.1-4-0.1c-1.5,0-2.8,0-4,0.1c-0.3-0.1-0.4-0.9-0.1-1.1l0.9-0.1c1.6-0.2,1.6-0.6,1.6-3.7V160.5z M347.4,148.3
			c0,1.5-1.1,2.2-2.3,2.2c-1.3,0-2.2-1-2.2-2.1c0-1.4,1-2.3,2.3-2.3S347.4,147.1,347.4,148.3z"/>
		<path class="st2" d="M354.8,160.5c0-1.7,0-1.9-1.2-2.7l-0.4-0.3c-0.2-0.2-0.2-0.6,0-0.8c1-0.3,3.3-1.5,4.3-2.1
			c0.2,0,0.3,0.1,0.3,0.3v2.5c0,0.2,0,0.3,0.1,0.4c1.5-1.2,3.1-2.6,4.7-2.6c1.1,0,1.9,0.7,1.9,1.7c0,1.4-1.2,2-1.8,2
			c-0.4,0-0.6-0.1-0.9-0.3c-0.6-0.4-1.3-0.7-1.9-0.7c-0.7,0-1.2,0.4-1.5,0.9c-0.4,0.6-0.6,1.8-0.6,3.3v5.8c0,3.1,0.1,3.6,1.7,3.7
			l1.5,0.1c0.3,0.2,0.2,0.9-0.1,1.1c-2-0.1-3.3-0.1-4.8-0.1c-1.5,0-2.8,0-3.9,0.1c-0.3-0.1-0.4-0.9-0.1-1.1l0.8-0.1
			c1.6-0.3,1.6-0.6,1.6-3.7V160.5z"/>
		<path class="st2" d="M370,161.9c-1.1,0-1.2,0.1-1.2,1.2c0,4.3,2.5,8,7.1,8c1.4,0,2.6-0.4,3.9-2.1c0.4-0.1,0.7,0.1,0.8,0.5
			c-1.4,2.9-4.5,4-6.7,4c-2.8,0-5-1.2-6.2-2.8c-1.3-1.7-1.8-3.7-1.8-5.6c0-5.3,3.5-9.7,8.6-9.7c3.7,0,6.1,2.5,6.1,5.1
			c0,0.6-0.1,0.9-0.2,1.1c-0.1,0.3-0.7,0.3-2.5,0.3H370z M372.7,160.6c3.2,0,4.1-0.2,4.5-0.4c0.1-0.1,0.3-0.3,0.3-0.8
			c0-1.2-0.8-2.7-3.3-2.7c-2.5,0-4.7,2.3-4.8,3.7c0,0.1,0,0.2,0.3,0.2H372.7z"/>
		<path class="st2" d="M397.7,161.9c-1.1,0-1.2,0.1-1.2,1.2c0,4.3,2.5,8,7.1,8c1.4,0,2.6-0.4,3.9-2.1c0.4-0.1,0.7,0.1,0.8,0.5
			c-1.4,2.9-4.5,4-6.7,4c-2.8,0-5-1.2-6.2-2.8c-1.3-1.7-1.8-3.7-1.8-5.6c0-5.3,3.5-9.7,8.6-9.7c3.7,0,6.1,2.5,6.1,5.1
			c0,0.6-0.1,0.9-0.2,1.1c-0.1,0.3-0.7,0.3-2.5,0.3H397.7z M400.3,160.6c3.2,0,4.1-0.2,4.5-0.4c0.1-0.1,0.3-0.3,0.3-0.8
			c0-1.2-0.8-2.7-3.3-2.7c-2.5,0-4.7,2.3-4.8,3.7c0,0.1,0,0.2,0.3,0.2H400.3z"/>
		<path class="st2" d="M412.8,158.9c-0.6-0.9-1.4-1.6-2.6-1.8l-0.7-0.1c-0.3-0.2-0.2-0.9,0.1-1.1c1.7,0.1,2.7,0.1,3.7,0.1
			c1,0,2,0,3.6-0.1c0.3,0.2,0.3,0.9,0,1.1l-0.6,0.1c-1.2,0.2-1.1,0.5-0.4,1.5l2.1,3c0.2,0.3,0.4,0.6,0.6,0.7
			c0.2-0.1,1.6-2.3,2.5-3.6c0.7-1.1,0.6-1.3-0.3-1.6l-0.5-0.1c-0.3-0.3-0.2-0.9,0.2-1.1c1,0.1,2.1,0.1,3.1,0.1c1,0,2.3,0,3.1-0.1
			c0.3,0.2,0.3,0.9,0.1,1.1l-0.6,0.1c-1,0.2-1.7,0.3-2.1,0.7c-0.7,0.6-2.3,2.6-4,4.9c-0.5,0.7-0.5,0.8,0,1.6l4,5.6
			c1,1.4,1.7,1.9,2.8,2l0.7,0c0.3,0.3,0.2,0.9-0.1,1.1c-1.6-0.1-3-0.1-4.2-0.1c-1.6,0-2.7,0-4.1,0.1c-0.3-0.1-0.4-0.9-0.1-1.1
			l1.2-0.1c1.2-0.1,1.3-0.5,0.7-1.3l-2.2-3.2c-0.5-0.8-0.8-1.1-0.9-1.2c-0.1,0.1-0.5,0.6-0.8,1l-1.8,2.8c-0.9,1.4-0.9,1.7,0.1,1.9
			l0.7,0.1c0.3,0.2,0.2,0.9-0.1,1.1c-1.1-0.1-2.1-0.1-3.2-0.1c-1.1,0-2,0-3.1,0.1c-0.3-0.2-0.4-0.9-0.1-1.1l1-0.2
			c0.8-0.1,1.4-0.5,2.1-1.3c0.9-0.9,2.8-3.8,3.8-5c0.4-0.5,0.5-0.6,0.1-1.1L412.8,158.9z"/>
		<path class="st2" d="M431.2,160.5c0-1.7,0-1.9-1.2-2.7l-0.4-0.3c-0.2-0.2-0.2-0.6,0-0.8c1.1-0.5,3.1-1.5,4.2-2.3
			c0.3,0,0.4,0.1,0.5,0.3c-0.1,0.8-0.2,1.4-0.2,2c0,0.3,0.1,0.6,0.4,0.6c0.6-0.3,3.3-2,6-2c4.3,0,7.1,3.5,7.1,7.8
			c0,6-4.4,10.2-10.5,10.2c-0.8,0-2-0.1-2.4-0.2c-0.4,0.1-0.6,0.3-0.6,1.2v4.5c0,3,0.1,3.4,1.6,3.6l1.7,0.2c0.3,0.2,0.2,0.9-0.1,1.1
			c-2.1-0.1-3.3-0.1-4.8-0.1c-1.5,0-2.8,0-4,0.1c-0.3-0.1-0.4-0.9-0.1-1.1l0.9-0.1c1.6-0.2,1.6-0.6,1.6-3.7V160.5z M434.4,168.5
			c0,1.4,0.4,1.9,1.3,2.6c0.9,0.6,2.2,0.9,3.1,0.9c3.5,0,5.6-3.3,5.6-7.7c0-3.4-1.9-6.9-5.8-6.9c-1.8,0-3.2,0.7-3.6,1.2
			c-0.4,0.5-0.5,1.1-0.5,2.5V168.5z"/>
		<path class="st2" d="M454.8,161.9c-1.1,0-1.2,0.1-1.2,1.2c0,4.3,2.5,8,7.1,8c1.4,0,2.6-0.4,3.9-2.1c0.4-0.1,0.7,0.1,0.8,0.5
			c-1.4,2.9-4.5,4-6.7,4c-2.8,0-5-1.2-6.2-2.8c-1.3-1.7-1.8-3.7-1.8-5.6c0-5.3,3.5-9.7,8.6-9.7c3.7,0,6.1,2.5,6.1,5.1
			c0,0.6-0.1,0.9-0.2,1.1c-0.1,0.3-0.7,0.3-2.5,0.3H454.8z M457.5,160.6c3.2,0,4.1-0.2,4.5-0.4c0.1-0.1,0.3-0.3,0.3-0.8
			c0-1.2-0.8-2.7-3.3-2.7c-2.5,0-4.7,2.3-4.8,3.7c0,0.1,0,0.2,0.3,0.2H457.5z"/>
		<path class="st2" d="M470.4,160.5c0-1.7,0-1.9-1.2-2.7l-0.4-0.3c-0.2-0.2-0.2-0.6,0-0.8c1-0.3,3.3-1.5,4.3-2.1
			c0.2,0,0.3,0.1,0.3,0.3v2.5c0,0.2,0,0.3,0.1,0.4c1.5-1.2,3.1-2.6,4.7-2.6c1.1,0,1.9,0.7,1.9,1.7c0,1.4-1.2,2-1.8,2
			c-0.4,0-0.6-0.1-0.9-0.3c-0.6-0.4-1.3-0.7-1.9-0.7c-0.7,0-1.2,0.4-1.5,0.9c-0.4,0.6-0.6,1.8-0.6,3.3v5.8c0,3.1,0.1,3.6,1.7,3.7
			l1.5,0.1c0.3,0.2,0.2,0.9-0.1,1.1c-2-0.1-3.3-0.1-4.8-0.1c-1.5,0-2.8,0-3.9,0.1c-0.3-0.1-0.4-0.9-0.1-1.1l0.8-0.1
			c1.6-0.3,1.6-0.6,1.6-3.7V160.5z"/>
		<path class="st2" d="M488.5,157.8c-0.7,0-0.8,0.1-0.8,1v8c0,2.5,0.3,4.8,3.1,4.8c0.4,0,0.8-0.1,1.2-0.2c0.4-0.1,0.9-0.6,1.1-0.6
			c0.3,0,0.5,0.5,0.4,0.7c-0.8,0.9-2.3,2-4.5,2c-3.7,0-4.5-2.1-4.5-4.6V159c0-1.2,0-1.2-0.9-1.2h-1.2c-0.3-0.2-0.3-0.6-0.1-0.9
			c1.2-0.4,2.3-0.9,2.7-1.3c0.6-0.5,1.4-1.7,1.8-2.5c0.2-0.1,0.7-0.1,0.9,0.2v1.9c0,0.8,0,0.8,0.8,0.8h4.8c0.5,0.4,0.4,1.5,0,1.8
			H488.5z"/>
		<path class="st2" d="M522.8,166.6c0,3.4,0,5,1.2,5c0.5,0,1.2-0.2,1.8-0.4c0.3,0.1,0.3,1.2,0,1.4c-1.8,0.3-4.5,0.9-5.7,1.4
			c-0.3,0-0.5-0.1-0.5-0.3v-0.7c0-0.6,0-1.2-0.1-1.3h-0.2c-1.9,1.3-3.3,2-5.4,2c-4.8,0-7.9-3.7-7.9-8.2c0-6,4.5-9.9,10.4-9.9
			c1.5,0,2.4,0.2,2.9,0.4c0.2,0,0.3-0.3,0.3-0.6v-6.5c0-2.5,0-2.8-1.3-3.6l-0.4-0.3c-0.2-0.1-0.2-0.7,0-0.9c1.1-0.3,3.1-1,4.6-1.8
			c0.2,0,0.3,0.1,0.4,0.3c0,1.3-0.1,3.4-0.1,5.3V166.6z M519.6,160.2c0-0.9-0.2-1.2-0.5-1.7c-0.6-0.9-1.9-1.8-3.6-1.8
			c-3.9,0-5.9,3.4-5.9,7.1c0,3.9,2.2,7.6,6.4,7.6c1.2,0,2.6-0.5,3.3-1.2c0.3-0.3,0.3-0.9,0.3-1.6V160.2z"/>
		<path class="st2" d="M533.3,166.5c0,3,0.7,4.9,4,4.9c1.2,0,2.5-0.5,3.5-1.3c0.6-0.5,0.9-1.2,0.9-2.5v-7c0-2.8-0.3-2.9-1.6-3.4
			l-0.6-0.2c-0.3-0.2-0.3-0.8,0-0.9c1.7,0,4.1-0.3,5-0.8c0.2,0,0.3,0.1,0.4,0.3c-0.1,0.8-0.1,2.1-0.1,3.7v7.2c0,3.4,0.1,4.7,1.3,4.7
			c0.5,0,1.1-0.1,1.7-0.2c0.3,0.2,0.3,1.1,0,1.2c-1.7,0.3-4.2,0.8-5.6,1.6c-0.2,0-0.4-0.1-0.5-0.3v-1.8c0-0.4-0.1-0.6-0.4-0.6
			c-1.3,0.8-3.4,2.2-5.9,2.2c-3.8,0-5.2-1.9-5.2-5.4v-7.2c0-2.7,0-3.1-1.3-3.6l-0.5-0.2c-0.3-0.2-0.2-0.8,0.1-0.9
			c2,0,3.6-0.4,4.6-0.8c0.3,0,0.4,0.1,0.4,0.3c-0.1,0.7-0.1,1.6-0.1,3.7V166.5z"/>
		<path class="st2" d="M563.3,160.5c0-1.7,0-1.9-1.2-2.7l-0.4-0.3c-0.2-0.2-0.2-0.6,0-0.8c1-0.3,3.4-1.5,4.3-2.1
			c0.2,0,0.4,0.1,0.5,0.3c-0.1,1-0.1,1.6-0.1,2c0,0.3,0.2,0.5,0.5,0.5c1.8-1.1,3.8-2.2,6-2.2c3.6,0,5,2.4,5,5.3v7.4
			c0,3.1,0.1,3.5,1.6,3.7l0.9,0.1c0.3,0.2,0.2,0.9-0.1,1.1c-1.3-0.1-2.5-0.1-4-0.1c-1.5,0-2.8,0-4,0.1c-0.3-0.1-0.4-0.9-0.1-1.1
			l0.8-0.1c1.6-0.3,1.6-0.6,1.6-3.7v-6.4c0-2.4-1.1-4.2-4-4.2c-1.6,0-3,0.7-3.6,1.5c-0.6,0.7-0.6,1.3-0.6,2.6v6.6
			c0,3.1,0.1,3.5,1.6,3.7l0.8,0.1c0.3,0.2,0.2,0.9-0.1,1.1c-1.2-0.1-2.4-0.1-3.9-0.1c-1.5,0-2.8,0-4,0.1c-0.3-0.1-0.4-0.9-0.1-1.1
			l0.9-0.1c1.6-0.2,1.6-0.6,1.6-3.7V160.5z"/>
		<path class="st2" d="M600.9,164.2c0,5.4-3.7,9.2-9,9.2c-4.9,0-8.8-3.5-8.8-8.8c0-5.4,4.1-9.3,9.1-9.3
			C597,155.4,600.9,159,600.9,164.2z M591.7,156.7c-2.8,0-4.9,2.7-4.9,7.4c0,3.9,1.8,8.1,5.5,8.1c3.8,0,4.9-3.9,4.9-7.2
			C597.2,161.3,595.8,156.7,591.7,156.7z"/>
		<path class="st2" d="M610.1,157.8c-0.7,0-0.8,0.1-0.8,1v8c0,2.5,0.3,4.8,3.1,4.8c0.4,0,0.8-0.1,1.2-0.2c0.4-0.1,0.9-0.6,1.1-0.6
			c0.3,0,0.5,0.5,0.4,0.7c-0.8,0.9-2.3,2-4.5,2c-3.7,0-4.5-2.1-4.5-4.6V159c0-1.2,0-1.2-0.9-1.2h-1.2c-0.3-0.2-0.3-0.6-0.1-0.9
			c1.2-0.4,2.3-0.9,2.7-1.3c0.6-0.5,1.4-1.7,1.8-2.5c0.2-0.1,0.7-0.1,0.9,0.2v1.9c0,0.8,0,0.8,0.8,0.8h4.8c0.5,0.4,0.4,1.5,0,1.8
			H610.1z"/>
		<path class="st2" d="M625.7,164c0.6-0.2,0.7-0.6,0.7-1.2l0-2c0-1.6-0.5-3.7-3.1-3.7c-1.2,0-2.7,0.6-2.7,1.9c0,0.7-0.1,1.2-0.4,1.5
			c-0.6,0.5-1.8,0.8-2.4,0.8c-0.4,0-0.6-0.2-0.6-0.6c0-2.2,4.8-5.3,8-5.3c3.1,0,4.6,1.8,4.5,5l-0.3,7.5c-0.1,2,0.3,3.7,2,3.7
			c0.4,0,0.8-0.1,1.1-0.3c0.2-0.1,0.4-0.3,0.6-0.3c0.2,0,0.3,0.3,0.3,0.6c0,0.2-1.5,1.9-3.6,1.9c-1,0-2.1-0.4-2.8-1.3
			c-0.2-0.3-0.4-0.6-0.7-0.6c-0.3,0-0.8,0.4-1.7,0.9c-0.9,0.5-1.9,1.1-3.1,1.1c-1.2,0-2.3-0.3-3-1c-0.8-0.7-1.3-1.8-1.3-3
			c0-1.7,0.8-2.7,3.6-3.6L625.7,164z M623,171.5c0.9,0,2.2-0.6,2.6-1.1c0.5-0.5,0.5-1.1,0.6-2l0.1-2.5c0-0.5-0.2-0.6-0.4-0.6
			s-1,0.2-1.8,0.4c-2.5,0.9-3.8,1.5-3.8,3.2C620.3,169.7,620.8,171.5,623,171.5z"/>
		<path class="st2" d="M637,160.5c0-1.7,0-1.9-1.2-2.7l-0.4-0.3c-0.2-0.2-0.2-0.6,0-0.8c1-0.3,3.4-1.5,4.4-2.1
			c0.2,0,0.4,0.1,0.4,0.3c-0.1,1.5-0.2,3.6-0.2,5.3v7.7c0,3.1,0.1,3.5,1.6,3.7l0.9,0.1c0.3,0.2,0.2,0.9-0.1,1.1
			c-1.3-0.1-2.5-0.1-4-0.1c-1.5,0-2.8,0-4,0.1c-0.3-0.1-0.4-0.9-0.1-1.1l0.9-0.1c1.6-0.2,1.6-0.6,1.6-3.7V160.5z M640.6,148.3
			c0,1.5-1.1,2.2-2.3,2.2c-1.3,0-2.2-1-2.2-2.1c0-1.4,1-2.3,2.3-2.3S640.6,147.1,640.6,148.3z"/>
		<path class="st2" d="M648,160.5c0-1.7,0-1.9-1.2-2.7l-0.4-0.3c-0.2-0.2-0.2-0.6,0-0.8c1-0.3,3.3-1.5,4.3-2.1
			c0.2,0,0.3,0.1,0.3,0.3v2.5c0,0.2,0,0.3,0.1,0.4c1.5-1.2,3.1-2.6,4.7-2.6c1.1,0,1.9,0.7,1.9,1.7c0,1.4-1.2,2-1.8,2
			c-0.4,0-0.6-0.1-0.9-0.3c-0.6-0.4-1.3-0.7-1.9-0.7c-0.7,0-1.2,0.4-1.5,0.9c-0.4,0.6-0.6,1.8-0.6,3.3v5.8c0,3.1,0.1,3.6,1.7,3.7
			l1.5,0.1c0.3,0.2,0.2,0.9-0.1,1.1c-2-0.1-3.3-0.1-4.8-0.1c-1.5,0-2.8,0-3.9,0.1c-0.3-0.1-0.4-0.9-0.1-1.1l0.8-0.1
			c1.6-0.3,1.6-0.6,1.6-3.7V160.5z"/>
		<path class="st2" d="M663.2,161.9c-1.1,0-1.2,0.1-1.2,1.2c0,4.3,2.5,8,7.1,8c1.4,0,2.6-0.4,3.9-2.1c0.4-0.1,0.7,0.1,0.8,0.5
			c-1.4,2.9-4.5,4-6.7,4c-2.8,0-5-1.2-6.2-2.8c-1.3-1.7-1.8-3.7-1.8-5.6c0-5.3,3.5-9.7,8.6-9.7c3.7,0,6.1,2.5,6.1,5.1
			c0,0.6-0.1,0.9-0.2,1.1c-0.1,0.3-0.7,0.3-2.5,0.3H663.2z M665.9,160.6c3.2,0,4.1-0.2,4.5-0.4c0.1-0.1,0.3-0.3,0.3-0.8
			c0-1.2-0.8-2.7-3.3-2.7c-2.5,0-4.7,2.3-4.8,3.7c0,0.1,0,0.2,0.3,0.2H665.9z"/>
	</g>
</g>
</svg>
