<?xml version="1.0" encoding="utf-8"?>
<!-- Generator: Adobe Illustrator 19.0.0, SVG Export Plug-In . SVG Version: 6.00 Build 0)  -->
<svg version="1.1" id="Calque_1" xmlns="http://www.w3.org/2000/svg" xmlns:xlink="http://www.w3.org/1999/xlink" x="0px" y="0px"
	 width="100px" height="100px" viewBox="0 0 100 100" enable-background="new 0 0 100 100" xml:space="preserve">
<g id="XMLID_568_">
	<g id="XMLID_700_">
		<g id="XMLID_131_">
			<path id="XMLID_146_" fill="#00999D" d="M17,20.7c0.5-1.4,1.8-2.4,3.3-2.4c1.9,0,3.1,1.3,3.1,3.8c0,3.4-1.8,5.9-4.6,5.9
				c-1.5,0-2.6-0.9-2.7-2.2L15,32h-1l2.4-13.5h0.9L17,20.7z M16.4,24.1c-0.3,1.5,0.5,3.1,2.4,3.1c2.2,0,3.6-2.3,3.6-5.1
				c0-1.8-0.8-2.9-2.3-2.9c-1.6,0-3,1.4-3.4,3.4L16.4,24.1z"/>
			<path id="XMLID_144_" fill="#00999D" d="M31.2,19.6c-0.2-0.1-0.4-0.1-0.7-0.1c-1.4,0-2.7,1.2-3,3.1l-0.9,5.3h-1l1.6-9.4h0.9
				l-0.3,2.3c0.5-1.3,1.5-2.5,3-2.5c0.2,0,0.5,0.1,0.7,0.1L31.2,19.6z"/>
			<path id="XMLID_141_" fill="#00999D" d="M39.4,25.6c-0.6,1.7-1.8,2.5-3.6,2.5c-2.3,0-3.6-1.4-3.6-3.9c0-3.4,1.9-5.8,4.5-5.8
				c2.2,0,3.1,1.5,3.1,3.2c0,0.6-0.1,1.2-0.4,1.7h-6.2c0,0.3-0.1,0.5-0.1,0.8c0,1.9,0.8,3.2,2.6,3.2c1.5,0,2.3-0.7,2.6-1.9
				L39.4,25.6z M33.4,22.4h5.3c0.1-0.2,0.1-0.6,0.1-0.9c0-1.3-0.6-2.3-2.2-2.3C34.9,19.1,33.8,20.6,33.4,22.4z"/>
			<path id="XMLID_139_" fill="#00999D" d="M52.8,18.3c1.3,0,2.2,0.7,2.2,2.2c0,0.3,0,0.7-0.1,1.2L54.1,26c0,0.2-0.1,0.3-0.1,0.5
				c0,0.4,0.1,0.6,0.6,0.6c0.2,0,0.4,0,0.6-0.1l-0.1,0.8c-0.2,0.1-0.5,0.2-0.8,0.2c-0.9,0-1.3-0.5-1.3-1.2c0-0.2,0-0.3,0.1-0.6
				l0.8-4.5c0.1-0.4,0.1-0.7,0.1-0.9c0-0.9-0.4-1.5-1.5-1.5c-1.3,0-2.7,1.1-3.1,3.5l-0.9,5.2h-1l1.1-6.2c0.1-0.4,0.1-0.7,0.1-0.9
				c0-0.9-0.4-1.5-1.5-1.5c-1.3,0-2.7,1.1-3.1,3.5L43,27.8h-1l1.6-9.4h0.9l-0.2,2.2c0.6-1.4,1.5-2.4,3.1-2.4c1.3,0,2.1,0.7,2.2,2.1
				c0,0.1,0,0.2,0,0.4C50.1,19.3,51.1,18.3,52.8,18.3z"/>
			<path id="XMLID_136_" fill="#00999D" d="M58.8,26c0,0.2-0.1,0.3-0.1,0.5c0,0.4,0.2,0.6,0.6,0.6c0.2,0,0.4,0,0.6-0.1l-0.2,0.8
				c-0.2,0.1-0.5,0.2-0.8,0.2c-0.9,0-1.3-0.5-1.3-1.2c0-0.2,0-0.3,0.1-0.6l1.3-7.7h1L58.8,26z M60,14.8c0.4,0,0.8,0.3,0.8,0.8
				c0,0.4-0.3,0.8-0.8,0.8s-0.8-0.3-0.8-0.8C59.3,15.1,59.6,14.8,60,14.8z"/>
			<path id="XMLID_134_" fill="#00999D" d="M69.1,26c0,0.2-0.1,0.3-0.1,0.5c0,0.4,0.2,0.6,0.6,0.6c0.2,0,0.4,0,0.6-0.1l-0.2,0.8
				c-0.2,0.1-0.5,0.2-0.8,0.2c-0.9,0-1.2-0.4-1.2-1.2c0-0.2,0-0.5,0.1-1.1C67.7,27.1,66.6,28,65,28c-1.5,0-2.4-0.8-2.4-2.4
				c0-0.3,0.1-0.8,0.1-1.1l1.1-6.1h1l-1.1,6.3c-0.1,0.3-0.1,0.6-0.1,0.9c0,1,0.6,1.6,1.6,1.6c1.5,0,2.8-1.2,3.2-3.3l0.9-5.5h1
				L69.1,26z"/>
			<path id="XMLID_132_" fill="#00999D" d="M83.7,18.3c1.3,0,2.2,0.7,2.2,2.2c0,0.3,0,0.7-0.1,1.2L85,26c0,0.2-0.1,0.3-0.1,0.5
				c0,0.4,0.1,0.6,0.6,0.6c0.2,0,0.4,0,0.6-0.1L86,27.8c-0.2,0.1-0.5,0.2-0.8,0.2c-0.9,0-1.3-0.5-1.3-1.2c0-0.2,0-0.3,0.1-0.6
				l0.8-4.5c0.1-0.4,0.1-0.7,0.1-0.9c0-0.9-0.4-1.5-1.5-1.5c-1.3,0-2.7,1.1-3.1,3.5l-0.9,5.2h-1l1.1-6.2c0.1-0.4,0.1-0.7,0.1-0.9
				c0-0.9-0.4-1.5-1.5-1.5c-1.3,0-2.7,1.1-3.1,3.5l-0.9,5.2h-1l1.6-9.4h0.9l-0.2,2.2c0.6-1.4,1.5-2.4,3.1-2.4c1.3,0,2.1,0.7,2.2,2.1
				c0,0.1,0,0.2,0,0.4C81,19.3,82,18.3,83.7,18.3z"/>
		</g>
	</g>
	<g id="XMLID_569_">
		<g id="XMLID_665_">
			<g id="XMLID_697_">
				<path id="XMLID_698_" fill="#344968" d="M21.3,83.1c-0.7,1.2-1.6,1.7-3.2,1.7c-2,0-3.4-1.4-3.4-3.9c0-2.5,1.4-3.9,3.7-3.9
					c1.5,0,2.5,0.7,3.1,1.9l-1.7,0.8c-0.2-0.7-0.6-1.2-1.4-1.2c-1.1,0-1.8,0.9-1.8,2.4c0,1.5,0.6,2.3,1.8,2.3c0.7,0,1.2-0.3,1.6-1.1
					L21.3,83.1z"/>
			</g>
			<g id="XMLID_693_">
				<path id="XMLID_694_" fill="#344968" d="M26.8,84.6c-0.2-0.2-0.3-0.5-0.4-0.8l-0.3-1.1c-0.2-0.6-0.4-0.8-1-0.8h-0.7v2.6h-1.7
					v-7.5h3c1.7,0,2.7,0.6,2.7,2.3c0,1.2-0.7,1.8-1.6,1.9v0c0.7,0.1,1.1,0.4,1.2,1.1l0.4,1.4c0.1,0.3,0.2,0.5,0.4,0.8H26.8z
					 M24.3,80.6h1.1c0.7,0,1.1-0.3,1.1-1c0-0.6-0.4-1-1.1-1h-1.1V80.6z"/>
			</g>
			<g id="XMLID_690_">
				<path id="XMLID_691_" fill="#344968" d="M31.7,77.1v7.5H30v-7.5H31.7z"/>
			</g>
			<g id="XMLID_686_">
				<path id="XMLID_687_" fill="#344968" d="M33.7,84.6v-7.5h2.8c2.1,0,3.6,1,3.6,3.7c0,2.8-1.6,3.8-3.8,3.8H33.7z M36.2,83.2
					c1.3,0,2.1-0.6,2.1-2.3c0-1.8-0.8-2.3-2-2.3h-0.9v4.6H36.2z"/>
			</g>
			<g id="XMLID_682_">
				<path id="XMLID_683_" fill="#344968" d="M41.1,80.9c0-2.5,1.3-3.9,3.5-3.9s3.6,1.4,3.6,3.9c0,2.5-1.3,3.9-3.6,3.9
					S41.1,83.4,41.1,80.9z M42.9,80.9c0,1.5,0.6,2.4,1.8,2.4c1.2,0,1.8-0.9,1.8-2.4c0-1.5-0.6-2.4-1.8-2.4
					C43.5,78.5,42.9,79.4,42.9,80.9z"/>
			</g>
			<g id="XMLID_679_">
				<path id="XMLID_680_" fill="#344968" d="M54,80.8c0.4,0.6,0.6,1,0.6,1h0.1c0,0,0-0.6,0-1.6v-3h1.7v7.5h-1.6l-2.6-3.6
					c-0.5-0.6-0.7-1.1-0.7-1.1h-0.1c0,0,0.1,0.6,0.1,1.7v3h-1.7v-7.5h1.6L54,80.8z"/>
			</g>
			<g id="XMLID_676_">
				<path id="XMLID_677_" fill="#344968" d="M61.8,77.1v6.9h3.5v0.6h-4.2v-7.5H61.8z"/>
			</g>
			<g id="XMLID_673_">
				<path id="XMLID_674_" fill="#344968" d="M67.2,79.9c0.5,0.8,0.6,1.2,0.6,1.2h0c0,0,0.1-0.3,0.6-1.2l1.4-2.7h0.7l-2.4,4.5v3h-0.7
					v-3L65,77.1h0.8L67.2,79.9z"/>
			</g>
			<g id="XMLID_669_">
				<path id="XMLID_670_" fill="#344968" d="M71,80.9c0-2.5,1.3-3.9,3.3-3.9c2,0,3.3,1.4,3.3,3.9s-1.3,3.9-3.3,3.9
					C72.3,84.8,71,83.4,71,80.9z M71.7,80.9c0,2,0.9,3.3,2.6,3.3c1.7,0,2.6-1.2,2.6-3.3c0-2-0.9-3.3-2.6-3.3
					C72.6,77.6,71.7,78.9,71.7,80.9z"/>
			</g>
			<g id="XMLID_666_">
				<path id="XMLID_667_" fill="#344968" d="M83.5,82.4c0.5,0.7,0.8,1.4,0.8,1.4h0c0,0,0-0.7,0-1.6v-5H85v7.5h-0.7l-3.6-5.2
					c-0.5-0.7-0.8-1.4-0.8-1.4h-0.1c0,0,0.1,0.7,0.1,1.6v5h-0.7v-7.5H80L83.5,82.4z"/>
			</g>
		</g>
		<g id="XMLID_640_">
			<g id="XMLID_660_">
				<g id="XMLID_661_">
					<path id="XMLID_662_" fill="#009999" d="M23.3,52.9c-5.3,0-8.6-3.7-8.6-9.7c0-6,3.4-9.6,9.1-9.6c3.6,0,6.2,1.6,7.6,4.7l0.2,0.4
						L26.9,41l-0.1-0.5c-0.5-1.8-1.5-2.5-3-2.5c-2.4,0-3.9,2-3.9,5.3c0,2.3,0.7,5.1,4,5.1c1.5,0,2.6-0.8,3.3-2.3l0.2-0.4l4.2,2.5
						l-0.2,0.4C29.5,51.7,27.2,52.9,23.3,52.9z M23.8,34.4c-5.3,0-8.3,3.2-8.3,8.8c0,5.5,3,8.9,7.7,8.9c3.5,0,5.5-1,7.1-3.5
						l-2.7-1.6c-0.8,1.5-2.2,2.4-3.9,2.4c-3.1,0-4.8-2.1-4.8-6c0-3.8,1.8-6.1,4.7-6.1c1.8,0,3,0.8,3.7,2.6l3.2-1.5
						C29.2,35.7,27,34.4,23.8,34.4z"/>
				</g>
			</g>
			<g id="XMLID_653_">
				<g id="XMLID_654_">
					<path id="XMLID_655_" fill="#009999" d="M50.1,52.5h-5.7l-0.1-0.1c-0.7-0.5-0.9-1.3-1.1-2.1l-0.7-2.7c-0.3-1.3-0.8-1.5-2-1.5
						h-1.3v6.3h-4.9V33.9h7.4c4.6,0,6.9,1.9,6.9,5.8c0,2.2-1,3.8-2.8,4.5c1,0.5,1.5,1.2,1.9,2.5l0.9,3.3c0.2,0.6,0.4,1.2,0.9,1.7
						L50.1,52.5z M44.7,51.7h3.6c-0.3-0.5-0.4-0.9-0.6-1.4L46.8,47c-0.4-1.4-1.1-2-2.6-2.3l-0.3-0.1v-0.7l0.4-0.1
						c2.3-0.2,3.5-1.7,3.5-4.1c0-3.4-1.9-5-6-5h-6.6v17h3.3v-6.3h2.2c1.5,0,2.4,0.3,2.8,2.1l0.7,2.7C44.2,50.9,44.3,51.4,44.7,51.7z
						 M41.4,42.9h-3v-5.5h3c1.9,0,2.9,1,2.9,2.7C44.3,42,43.4,42.9,41.4,42.9z M39.2,42.1h2.2c1.5,0,2.1-0.6,2.1-1.9
						c0-1.3-0.7-1.9-2.1-1.9h-2.2V42.1z"/>
				</g>
			</g>
			<g id="XMLID_648_">
				<g id="XMLID_649_">
					<path id="XMLID_650_" fill="#009999" d="M57.5,52.5h-4.9V33.9h4.9V52.5z M53.4,51.7h3.3v-17h-3.3V51.7z"/>
				</g>
			</g>
			<g id="XMLID_641_">
				<g id="XMLID_642_">
					<path id="XMLID_643_" fill="#009999" d="M68.8,52.5h-6.7V33.9h7c5.9,0,9.1,3.2,9.1,9.1C78.1,49.2,74.8,52.5,68.8,52.5z
						 M62.9,51.7h5.9c3.9,0,8.5-1.5,8.5-8.7c0-6.8-4.5-8.3-8.2-8.3h-6.1V51.7z M68.4,49.1h-2.2V37.4h2.4c3.6,0,5.2,1.9,5.2,5.9
						C73.8,47.2,72.1,49.1,68.4,49.1z M67,48.2h1.4c3.2,0,4.6-1.5,4.6-5c0-3.6-1.3-5-4.4-5H67V48.2z"/>
				</g>
			</g>
		</g>
		<g id="XMLID_575_">
			<g id="XMLID_631_">
				<path id="XMLID_637_" fill="#009999" d="M15.1,65c0-4.9,2.3-7.6,5.9-7.6c3.6,0,5.9,2.7,5.9,7.6s-2.3,7.6-5.9,7.6
					C17.4,72.6,15.1,69.9,15.1,65z M16.4,65c0,4,1.6,6.4,4.6,6.4s4.7-2.4,4.7-6.4c0-4-1.6-6.4-4.7-6.4S16.4,61,16.4,65z"/>
				<path id="XMLID_632_" fill="#009999" d="M21,73c-4,0-6.3-3-6.3-8c0-5,2.4-8,6.3-8c4,0,6.3,3,6.3,8C27.3,70,25,73,21,73z
					 M21,57.8c-3.4,0-5.5,2.7-5.5,7.2c0,4.5,2.1,7.2,5.5,7.2c3.4,0,5.5-2.7,5.5-7.2C26.5,60.5,24.4,57.8,21,57.8z M21,71.8
					c-3.2,0-5-2.5-5-6.8c0-4.4,1.8-6.9,5-6.9c3.2,0,5.1,2.6,5.1,6.9C26.1,69.3,24.2,71.8,21,71.8z M21,59c-3.7,0-4.2,3.8-4.2,6
					c0,2.2,0.5,6,4.2,6c3.7,0,4.2-3.8,4.2-6C25.3,61.2,23.7,59,21,59z"/>
			</g>
			<g id="XMLID_625_">
				<path id="XMLID_629_" fill="#009999" d="M38.4,67.9c0.9,1.4,1.5,2.7,1.5,2.7H40c0,0-0.1-1.5-0.1-3.1v-9.9h1.2v14.7h-1.3
					l-6.5-10.2c-0.9-1.3-1.5-2.7-1.5-2.7h-0.1c0,0,0.1,1.4,0.1,3.1v9.9h-1.2V57.6h1.3L38.4,67.9z"/>
				<path id="XMLID_626_" fill="#009999" d="M41.5,72.8h-1.9L33,62.3c-0.3-0.4-0.6-0.9-0.8-1.3c0,0.4,0,0.9,0,1.5v10.3h-2V57.2h2
					l6.6,10.4c0.3,0.5,0.6,0.9,0.8,1.3c0-0.4,0-0.9,0-1.5V57.2h2V72.8z M40,71.9h0.7V58h-0.4v9.5c0,1.6,0.1,3.1,0.1,3.1l0,0.4h-0.7
					l-0.2-0.2c0,0-0.6-1.3-1.5-2.7l0,0L31.7,58H31v13.9h0.4v-9.5c0-1.6-0.1-3.1-0.1-3.1l0-0.4h0.8l0.1,0.2c0,0,0.7,1.4,1.5,2.7
					L40,71.9z"/>
			</g>
			<g id="XMLID_619_">
				<path id="XMLID_623_" fill="#009999" d="M46.9,57.6v13.6h6.3v1.2h-7.5V57.6H46.9z"/>
				<path id="XMLID_620_" fill="#009999" d="M53.6,72.8h-8.4V57.2h2v13.6h6.3V72.8z M46.1,71.9h6.7v-0.3h-6.3V58h-0.4V71.9z"/>
			</g>
			<g id="XMLID_613_">
				<path id="XMLID_617_" fill="#009999" d="M57.5,57.6v14.7h-1.2V57.6H57.5z"/>
				<path id="XMLID_614_" fill="#009999" d="M57.9,72.8h-2V57.2h2V72.8z M56.7,71.9h0.4V58h-0.4V71.9z"/>
			</g>
			<g id="XMLID_582_">
				<path id="XMLID_586_" fill="#009999" d="M69.9,67.9c0.9,1.4,1.5,2.7,1.5,2.7h0.1c0,0-0.1-1.5-0.1-3.1v-9.9h1.2v14.7h-1.3
					l-6.5-10.2c-0.9-1.3-1.5-2.7-1.5-2.7h-0.1c0,0,0.1,1.4,0.1,3.1v9.9h-1.2V57.6h1.3L69.9,67.9z"/>
				<path id="XMLID_583_" fill="#009999" d="M73,72.8h-1.9l-6.6-10.4c-0.3-0.4-0.6-0.9-0.8-1.3c0,0.4,0,0.9,0,1.5v10.3h-2V57.2h2
					l6.6,10.4c0.3,0.5,0.6,0.9,0.8,1.3c0-0.4,0-0.9,0-1.5V57.2h2V72.8z M71.5,71.9h0.6V58h-0.4v9.5c0,1.6,0.1,3.1,0.1,3.1l0,0.4
					h-0.7L71,70.8c0,0-0.6-1.3-1.5-2.7l0,0L63.2,58h-0.7v13.9h0.4v-9.5c0-1.6-0.1-3.1-0.1-3.1l0-0.4h0.8l0.1,0.2
					c0,0,0.7,1.4,1.5,2.7L71.5,71.9z"/>
			</g>
			<g id="XMLID_576_">
				<path id="XMLID_580_" fill="#009999" d="M84.9,72.3h-7.7V57.6h7.7v1.2h-6.5v5.6h5.8v1.2h-5.8v5.6h6.5V72.3z"/>
				<path id="XMLID_577_" fill="#009999" d="M85.3,72.8h-8.5V57.2h8.5v2h-6.5V64h5.8v2h-5.8v4.8h6.5V72.8z M77.6,71.9h6.9v-0.3H78
					v-6.5h5.8v-0.3H78v-6.5h6.5V58h-6.9V71.9z"/>
			</g>
		</g>
		<g id="XMLID_570_">
			<g id="XMLID_571_">
				<path id="XMLID_572_" fill="#009999" d="M79.4,41.9v-2.2l0.4,0c1.4-0.1,1.8-0.6,2-1c-0.6,0-1.1-0.2-1.5-0.6
					c-0.5-0.4-0.7-1-0.7-1.7c0-1.4,1-2.4,2.6-2.4c1.7,0,2.8,1.3,2.8,3.2c0,3-1.8,4.7-5.1,4.8L79.4,41.9z M80.2,40.4V41
					c2.6-0.1,3.9-1.5,3.9-3.9c0-1.4-0.8-2.3-2-2.3c-0.4,0-1.7,0.1-1.7,1.6c0,0.5,0.2,0.9,0.5,1.1c0.3,0.3,0.8,0.4,1.3,0.3l0.5-0.1
					v0.5C82.6,39.1,82.2,40.1,80.2,40.4z"/>
			</g>
		</g>
	</g>
</g>
<rect id="XMLID_1_" x="0.1" y="-0.2" fill="none" stroke="#E6E6E6" stroke-miterlimit="10" width="100" height="100"/>
</svg>
