<?xml version="1.0" encoding="utf-8"?>
<!-- Generator: Adobe Illustrator 19.0.0, SVG Export Plug-In . SVG Version: 6.00 Build 0)  -->
<svg version="1.1" id="Mode_Isolation" xmlns="http://www.w3.org/2000/svg" xmlns:xlink="http://www.w3.org/1999/xlink" x="0px"
	 y="0px" width="50.4px" height="12px" viewBox="0 0 50.4 12" enable-background="new 0 0 50.4 12" xml:space="preserve">
<g id="XMLID_14_">
	<path id="XMLID_31_" fill="#00999D" d="M4.4,2.4c-1.1,0-1.9,0.7-2.3,1.7l0.2-1.5H1.6L0,12h0.7l0.7-4.3c0.1,0.9,0.9,1.5,1.9,1.5
		c2,0,3.2-1.8,3.2-4.1C6.6,3.4,5.8,2.4,4.4,2.4z M3.3,8.6C2,8.6,1.5,7.5,1.7,6.5l0.2-1.1C2.1,4,3.1,3,4.2,3c1,0,1.6,0.8,1.6,2.1
		C5.8,7,4.9,8.6,3.3,8.6z"/>
	<path id="XMLID_35_" fill="#00999D" d="M9.7,4.2l0.2-1.6H9.2L8.1,9.1h0.7l0.6-3.7c0.2-1.3,1.1-2.2,2.1-2.2c0.2,0,0.4,0,0.5,0.1
		l0.2-0.8c-0.1,0-0.3-0.1-0.5-0.1C10.7,2.4,10,3.3,9.7,4.2z"/>
	<path id="XMLID_38_" fill="#00999D" d="M15.9,2.4c-1.8,0-3.1,1.7-3.1,4.1c0,1.7,0.9,2.7,2.5,2.7c1.2,0,2.1-0.5,2.5-1.7l-0.7-0.2
		c-0.3,0.8-0.8,1.3-1.8,1.3c-1.2,0-1.8-0.9-1.8-2.2c0-0.2,0-0.4,0-0.6h4.3c0.2-0.3,0.3-0.8,0.3-1.2C18.1,3.5,17.4,2.4,15.9,2.4z
		 M17.3,5.3h-3.7c0.3-1.2,1-2.3,2.3-2.3c1.1,0,1.5,0.7,1.5,1.6C17.4,4.9,17.3,5.1,17.3,5.3z"/>
	<path id="XMLID_39_" fill="#00999D" d="M28,8.2c0-0.1,0-0.2,0-0.4l0.5-3.1c0.1-0.3,0.1-0.6,0.1-0.8c0-1-0.6-1.5-1.5-1.5
		c-1.1,0-1.8,0.7-2.2,1.7c0-0.1,0-0.2,0-0.3c0-1-0.6-1.5-1.5-1.5c-1.1,0-1.8,0.7-2.2,1.7l0.2-1.5h-0.6l-1.1,6.6h0.7l0.6-3.6
		c0.3-1.7,1.3-2.5,2.2-2.5c0.8,0,1.1,0.4,1.1,1.1c0,0.2,0,0.4-0.1,0.7l-0.8,4.3H24l0.6-3.6c0.3-1.7,1.3-2.5,2.2-2.5
		c0.8,0,1.1,0.4,1.1,1.1c0,0.2,0,0.4-0.1,0.7l-0.6,3.1c0,0.2,0,0.3,0,0.4c0,0.5,0.3,0.9,0.9,0.9c0.2,0,0.4,0,0.6-0.1l0.1-0.6
		c-0.2,0.1-0.3,0.1-0.4,0.1C28.1,8.6,28,8.5,28,8.2z"/>
	<path id="XMLID_40_" fill="#00999D" d="M32.2,0c-0.3,0-0.5,0.2-0.5,0.6c0,0.3,0.2,0.5,0.5,0.5c0.3,0,0.5-0.2,0.5-0.5
		C32.7,0.2,32.5,0,32.2,0z"/>
	<path id="XMLID_41_" fill="#00999D" d="M32.2,2.6h-0.7l-0.9,5.4c0,0.2,0,0.3,0,0.4c0,0.5,0.3,0.9,0.9,0.9c0.2,0,0.4,0,0.6-0.1
		l0.1-0.6c-0.2,0.1-0.3,0.1-0.4,0.1c-0.3,0-0.4-0.2-0.4-0.4c0-0.1,0-0.2,0-0.4L32.2,2.6z"/>
	<path id="XMLID_42_" fill="#00999D" d="M39.5,2.6h-0.7l-0.7,3.8c-0.3,1.4-1.2,2.3-2.2,2.3c-0.8,0-1.1-0.4-1.1-1.1
		c0-0.2,0-0.4,0.1-0.6l0.8-4.4h-0.7l-0.7,4.3C34,7.1,34,7.4,34,7.6c0,1.1,0.6,1.6,1.7,1.6c1.1,0,1.9-0.6,2.2-1.6
		c-0.1,0.4-0.1,0.6-0.1,0.7c0,0.5,0.2,0.8,0.9,0.8c0.2,0,0.4,0,0.6-0.1l0.1-0.6c-0.2,0.1-0.3,0.1-0.4,0.1c-0.3,0-0.4-0.2-0.4-0.4
		c0-0.1,0-0.2,0-0.4L39.5,2.6z"/>
	<path id="XMLID_43_" fill="#00999D" d="M50,8.6c-0.3,0-0.4-0.2-0.4-0.4c0-0.1,0-0.2,0-0.4l0.5-3.1c0.1-0.3,0.1-0.6,0.1-0.8
		c0-1-0.6-1.5-1.5-1.5c-1.1,0-1.8,0.7-2.2,1.7c0-0.1,0-0.2,0-0.3c0-1-0.6-1.5-1.5-1.5c-1.1,0-1.8,0.7-2.2,1.7l0.2-1.5h-0.6l-1.1,6.6
		h0.7l0.6-3.6c0.3-1.7,1.3-2.5,2.2-2.5c0.8,0,1.1,0.4,1.1,1.1c0,0.2,0,0.4-0.1,0.7l-0.8,4.3h0.7l0.6-3.6c0.3-1.7,1.3-2.5,2.2-2.5
		c0.8,0,1.1,0.4,1.1,1.1c0,0.2,0,0.4-0.1,0.7l-0.6,3.1c0,0.2,0,0.3,0,0.4c0,0.5,0.3,0.9,0.9,0.9c0.2,0,0.4,0,0.6-0.1l0.1-0.6
		C50.2,8.6,50.1,8.6,50,8.6z"/>
</g>
</svg>
