<?xml version="1.0" encoding="utf-8"?>
<!-- Generator: Adobe Illustrator 19.0.0, SVG Export Plug-In . SVG Version: 6.00 Build 0)  -->
<svg version="1.1" id="Calque_1" xmlns="http://www.w3.org/2000/svg" xmlns:xlink="http://www.w3.org/1999/xlink" x="0px" y="0px"
	 width="51px" height="51px" viewBox="0 0 51 51" enable-background="new 0 0 51 51" xml:space="preserve">
<rect id="XMLID_1_" x="0.5" y="0.5" fill="#FFFFFF" stroke="#E6E6E6" stroke-miterlimit="10" width="50" height="50"/>
<g id="XMLID_2_">
	<g id="XMLID_109_">
		<g id="XMLID_256_">
			<path id="XMLID_271_" fill="#00999D" d="M9,11c0.3-0.7,0.9-1.2,1.7-1.2c1,0,1.5,0.7,1.5,1.9c0,1.7-0.9,2.9-2.3,2.9
				c-0.8,0-1.3-0.5-1.4-1.1l-0.5,3H7.6l1.2-6.7h0.4L9,11z M8.7,12.7c-0.1,0.7,0.3,1.5,1.2,1.5c1.1,0,1.8-1.1,1.8-2.5
				c0-0.9-0.4-1.5-1.2-1.5c-0.8,0-1.5,0.7-1.7,1.7L8.7,12.7z"/>
			<path id="XMLID_269_" fill="#00999D" d="M16.1,10.5c-0.1,0-0.2-0.1-0.4-0.1c-0.7,0-1.3,0.6-1.5,1.5l-0.5,2.6h-0.5l0.8-4.7h0.4
				l-0.1,1.2c0.2-0.6,0.8-1.2,1.5-1.2c0.1,0,0.3,0,0.3,0.1L16.1,10.5z"/>
			<path id="XMLID_266_" fill="#00999D" d="M20.2,13.4c-0.3,0.9-0.9,1.2-1.8,1.2c-1.1,0-1.8-0.7-1.8-1.9c0-1.7,1-2.9,2.2-2.9
				c1.1,0,1.5,0.7,1.5,1.6c0,0.3-0.1,0.6-0.2,0.9h-3.1c0,0.1,0,0.3,0,0.4c0,0.9,0.4,1.6,1.3,1.6c0.8,0,1.1-0.3,1.3-0.9L20.2,13.4z
				 M17.2,11.9h2.6c0.1-0.1,0.1-0.3,0.1-0.4c0-0.6-0.3-1.2-1.1-1.2C17.9,10.3,17.4,11,17.2,11.9z"/>
			<path id="XMLID_264_" fill="#00999D" d="M26.8,9.8c0.7,0,1.1,0.4,1.1,1.1c0,0.1,0,0.3-0.1,0.6l-0.4,2.2c0,0.1,0,0.2,0,0.3
				c0,0.2,0.1,0.3,0.3,0.3c0.1,0,0.2,0,0.3-0.1L28,14.6c-0.1,0.1-0.2,0.1-0.4,0.1c-0.4,0-0.6-0.2-0.6-0.6c0-0.1,0-0.2,0-0.3l0.4-2.2
				c0-0.2,0.1-0.3,0.1-0.5c0-0.5-0.2-0.8-0.8-0.8c-0.6,0-1.4,0.6-1.6,1.7l-0.4,2.6h-0.5l0.5-3.1c0-0.2,0.1-0.3,0.1-0.5
				c0-0.5-0.2-0.8-0.8-0.8c-0.6,0-1.4,0.6-1.6,1.7L22,14.6h-0.5l0.8-4.7h0.4L22.6,11c0.3-0.7,0.7-1.2,1.6-1.2c0.6,0,1.1,0.4,1.1,1
				c0,0.1,0,0.1,0,0.2C25.5,10.3,26,9.8,26.8,9.8z"/>
			<path id="XMLID_261_" fill="#00999D" d="M29.9,13.7c0,0.1,0,0.2,0,0.3c0,0.2,0.1,0.3,0.3,0.3c0.1,0,0.2,0,0.3-0.1l-0.1,0.4
				c-0.1,0.1-0.2,0.1-0.4,0.1c-0.4,0-0.6-0.2-0.6-0.6c0-0.1,0-0.2,0-0.3L30,9.9h0.5L29.9,13.7z M30.5,8.1c0.2,0,0.4,0.2,0.4,0.4
				c0,0.2-0.2,0.4-0.4,0.4c-0.2,0-0.4-0.2-0.4-0.4C30.1,8.3,30.3,8.1,30.5,8.1z"/>
			<path id="XMLID_259_" fill="#00999D" d="M35,13.7c0,0.1,0,0.2,0,0.3c0,0.2,0.1,0.3,0.3,0.3c0.1,0,0.2,0,0.3-0.1l-0.1,0.4
				c-0.1,0.1-0.2,0.1-0.4,0.1c-0.4,0-0.6-0.2-0.6-0.6c0-0.1,0-0.2,0.1-0.5c-0.3,0.7-0.8,1.2-1.6,1.2c-0.8,0-1.2-0.4-1.2-1.2
				c0-0.2,0-0.4,0.1-0.6l0.5-3h0.5L32.3,13c0,0.1,0,0.3,0,0.4c0,0.5,0.3,0.8,0.8,0.8c0.7,0,1.4-0.6,1.6-1.6l0.5-2.7h0.5L35,13.7z"/>
			<path id="XMLID_257_" fill="#00999D" d="M42.2,9.8c0.7,0,1.1,0.4,1.1,1.1c0,0.1,0,0.3-0.1,0.6l-0.4,2.2c0,0.1,0,0.2,0,0.3
				c0,0.2,0.1,0.3,0.3,0.3c0.1,0,0.2,0,0.3-0.1l-0.1,0.4c-0.1,0.1-0.2,0.1-0.4,0.1c-0.4,0-0.6-0.2-0.6-0.6c0-0.1,0-0.2,0-0.3
				l0.4-2.2c0-0.2,0.1-0.3,0.1-0.5c0-0.5-0.2-0.8-0.8-0.8c-0.6,0-1.4,0.6-1.6,1.7L40,14.6h-0.5l0.5-3.1c0-0.2,0.1-0.3,0.1-0.5
				c0-0.5-0.2-0.8-0.8-0.8c-0.6,0-1.4,0.6-1.6,1.7l-0.4,2.6h-0.5l0.8-4.7h0.4L38,11c0.3-0.7,0.7-1.2,1.6-1.2c0.6,0,1.1,0.4,1.1,1
				c0,0.1,0,0.1,0,0.2C40.9,10.3,41.4,9.8,42.2,9.8z"/>
		</g>
	</g>
	<g id="XMLID_3_">
		<g id="XMLID_74_">
			<g id="XMLID_106_">
				<path id="XMLID_107_" fill="#344968" d="M11.2,42.1c-0.3,0.6-0.8,0.9-1.6,0.9c-1,0-1.7-0.7-1.7-1.9S8.6,39,9.7,39
					c0.8,0,1.2,0.3,1.5,0.9l-0.8,0.4c-0.1-0.4-0.3-0.6-0.7-0.6c-0.6,0-0.9,0.4-0.9,1.2c0,0.7,0.3,1.2,0.9,1.2c0.3,0,0.6-0.2,0.8-0.5
					L11.2,42.1z"/>
			</g>
			<g id="XMLID_102_">
				<path id="XMLID_103_" fill="#344968" d="M13.9,42.8c-0.1-0.1-0.2-0.2-0.2-0.4l-0.1-0.6c-0.1-0.3-0.2-0.4-0.5-0.4h-0.4v1.3h-0.9
					v-3.7h1.5c0.8,0,1.4,0.3,1.4,1.1c0,0.6-0.3,0.9-0.8,0.9v0c0.3,0.1,0.5,0.2,0.6,0.5l0.2,0.7c0,0.1,0.1,0.3,0.2,0.4H13.9z
					 M12.7,40.8h0.6c0.3,0,0.5-0.1,0.5-0.5c0-0.3-0.2-0.5-0.5-0.5h-0.6V40.8z"/>
			</g>
			<g id="XMLID_99_">
				<path id="XMLID_100_" fill="#344968" d="M16.4,39.1v3.7h-0.9v-3.7H16.4z"/>
			</g>
			<g id="XMLID_95_">
				<path id="XMLID_96_" fill="#344968" d="M17.4,42.8v-3.7h1.4c1,0,1.8,0.5,1.8,1.8c0,1.4-0.8,1.9-1.9,1.9H17.4z M18.6,42.1
					c0.7,0,1.1-0.3,1.1-1.1c0-0.9-0.4-1.1-1-1.1h-0.4v2.3H18.6z"/>
			</g>
			<g id="XMLID_91_">
				<path id="XMLID_92_" fill="#344968" d="M21.1,41c0-1.3,0.7-1.9,1.8-1.9s1.8,0.7,1.8,1.9c0,1.2-0.7,1.9-1.8,1.9
					S21.1,42.2,21.1,41z M22,41c0,0.7,0.3,1.2,0.9,1.2c0.6,0,0.9-0.4,0.9-1.2c0-0.7-0.3-1.2-0.9-1.2C22.2,39.8,22,40.2,22,41z"/>
			</g>
			<g id="XMLID_88_">
				<path id="XMLID_89_" fill="#344968" d="M27.5,40.9c0.2,0.3,0.3,0.5,0.3,0.5h0c0,0,0-0.3,0-0.8v-1.5h0.9v3.7h-0.8l-1.3-1.8
					c-0.2-0.3-0.4-0.6-0.4-0.6h0c0,0,0,0.3,0,0.8v1.5h-0.9v-3.7h0.8L27.5,40.9z"/>
			</g>
			<g id="XMLID_85_">
				<path id="XMLID_86_" fill="#344968" d="M31.3,39.1v3.4h1.7v0.3H31v-3.7H31.3z"/>
			</g>
			<g id="XMLID_82_">
				<path id="XMLID_83_" fill="#344968" d="M34,40.5c0.2,0.4,0.3,0.6,0.3,0.6h0c0,0,0.1-0.2,0.3-0.6l0.7-1.4h0.3l-1.2,2.2v1.5h-0.3
					v-1.5l-1.3-2.2h0.4L34,40.5z"/>
			</g>
			<g id="XMLID_78_">
				<path id="XMLID_79_" fill="#344968" d="M35.9,41c0-1.2,0.6-1.9,1.6-1.9c1,0,1.6,0.7,1.6,1.9s-0.6,1.9-1.6,1.9
					C36.6,42.9,35.9,42.2,35.9,41z M36.3,41c0,1,0.4,1.6,1.3,1.6c0.8,0,1.3-0.6,1.3-1.6c0-1-0.4-1.6-1.3-1.6
					C36.7,39.3,36.3,40,36.3,41z"/>
			</g>
			<g id="XMLID_75_">
				<path id="XMLID_76_" fill="#344968" d="M42.2,41.7c0.2,0.3,0.4,0.7,0.4,0.7h0c0,0,0-0.4,0-0.8v-2.5h0.3v3.7h-0.4l-1.8-2.6
					c-0.2-0.3-0.4-0.7-0.4-0.7h0c0,0,0,0.4,0,0.8v2.5H40v-3.7h0.4L42.2,41.7z"/>
			</g>
		</g>
		<g id="XMLID_49_">
			<g id="XMLID_69_">
				<g id="XMLID_70_">
					<path id="XMLID_71_" fill="#009999" d="M12.2,27c-2.6,0-4.3-1.8-4.3-4.8c0-3,1.7-4.8,4.5-4.8c1.8,0,3.1,0.8,3.8,2.4l0.1,0.2
						L14,21.1l-0.1-0.2c-0.3-0.9-0.7-1.3-1.5-1.3c-1.2,0-1.9,1-1.9,2.6c0,1.2,0.3,2.6,2,2.6c0.8,0,1.3-0.4,1.7-1.1l0.1-0.2l2.1,1.3
						l-0.1,0.2C15.3,26.4,14.1,27,12.2,27z M12.5,17.8c-2.6,0-4.1,1.6-4.1,4.4c0,2.7,1.5,4.4,3.8,4.4c1.7,0,2.7-0.5,3.5-1.8
						l-1.4-0.8c-0.4,0.8-1.1,1.2-1.9,1.2c-1.5,0-2.4-1.1-2.4-3c0-1.9,0.9-3,2.4-3c0.9,0,1.5,0.4,1.8,1.3l1.6-0.8
						C15.1,18.5,14,17.8,12.5,17.8z"/>
				</g>
			</g>
			<g id="XMLID_62_">
				<g id="XMLID_63_">
					<path id="XMLID_64_" fill="#009999" d="M25.5,26.9h-2.8l-0.1,0c-0.3-0.3-0.4-0.6-0.5-1l-0.3-1.3c-0.2-0.6-0.4-0.7-1-0.7h-0.7
						v3.1h-2.5v-9.3h3.7c2.3,0,3.4,1,3.4,2.9c0,1.1-0.5,1.9-1.4,2.3c0.5,0.2,0.8,0.6,0.9,1.2l0.5,1.7c0.1,0.3,0.2,0.6,0.4,0.9
						L25.5,26.9z M22.8,26.5h1.8c-0.1-0.2-0.2-0.5-0.3-0.7l-0.4-1.6c-0.2-0.7-0.6-1-1.3-1.1l-0.2,0v-0.4l0.2,0
						c1.1-0.1,1.8-0.8,1.8-2c0-1.7-1-2.5-3-2.5h-3.3v8.4h1.6v-3.1h1.1c0.7,0,1.2,0.2,1.4,1l0.3,1.3C22.6,26,22.7,26.3,22.8,26.5z
						 M21.2,22.1h-1.5v-2.7h1.5c0.9,0,1.5,0.5,1.5,1.4C22.7,21.6,22.2,22.1,21.2,22.1z M20.1,21.7h1.1c0.7,0,1.1-0.3,1.1-1
						c0-0.6-0.3-0.9-1.1-0.9h-1.1V21.7z"/>
				</g>
			</g>
			<g id="XMLID_57_">
				<g id="XMLID_58_">
					<path id="XMLID_59_" fill="#009999" d="M29.2,26.9h-2.5v-9.3h2.5V26.9z M27.2,26.5h1.6V18h-1.6V26.5z"/>
				</g>
			</g>
			<g id="XMLID_50_">
				<g id="XMLID_51_">
					<path id="XMLID_52_" fill="#009999" d="M34.8,26.9h-3.3v-9.3h3.5c2.9,0,4.5,1.6,4.5,4.5C39.5,25.2,37.8,26.9,34.8,26.9z
						 M31.9,26.5h2.9c1.9,0,4.2-0.7,4.2-4.3c0-3.4-2.2-4.1-4.1-4.1h-3.1V26.5z M34.6,25.1h-1.1v-5.8h1.2c1.8,0,2.6,0.9,2.6,2.9
						C37.3,24.2,36.5,25.1,34.6,25.1z M33.9,24.7h0.7c1.6,0,2.3-0.7,2.3-2.5c0-1.8-0.6-2.5-2.2-2.5h-0.8V24.7z"/>
				</g>
			</g>
		</g>
		<g id="XMLID_9_">
			<g id="XMLID_40_">
				<path id="XMLID_46_" fill="#009999" d="M8.1,33.1c0-2.4,1.1-3.8,2.9-3.8c1.8,0,2.9,1.4,2.9,3.8c0,2.4-1.1,3.8-2.9,3.8
					C9.3,36.8,8.1,35.5,8.1,33.1z M8.8,33.1c0,2,0.8,3.2,2.3,3.2s2.3-1.2,2.3-3.2c0-2-0.8-3.2-2.3-3.2S8.8,31.1,8.8,33.1z"/>
				<path id="XMLID_41_" fill="#009999" d="M11.1,37c-2,0-3.1-1.5-3.1-4c0-2.5,1.2-4,3.1-4c2,0,3.1,1.5,3.1,4
					C14.2,35.5,13,37,11.1,37z M11.1,29.5c-1.7,0-2.7,1.3-2.7,3.6c0,2.2,1,3.6,2.7,3.6c1.7,0,2.7-1.3,2.7-3.6
					C13.8,30.8,12.8,29.5,11.1,29.5z M11.1,36.5c-1.6,0-2.5-1.2-2.5-3.4c0-2.2,0.9-3.4,2.5-3.4c1.6,0,2.5,1.3,2.5,3.4
					C13.6,35.2,12.7,36.5,11.1,36.5z M11.1,30.1c-1.8,0-2.1,1.9-2.1,3c0,1.1,0.3,3,2.1,3c1.8,0,2.1-1.9,2.1-3
					C13.2,31.2,12.4,30.1,11.1,30.1z"/>
			</g>
			<g id="XMLID_34_">
				<path id="XMLID_38_" fill="#009999" d="M19.7,34.5c0.4,0.7,0.8,1.4,0.8,1.4h0c0,0,0-0.7,0-1.5v-4.9H21v7.3h-0.6l-3.2-5.1
					c-0.4-0.7-0.8-1.4-0.8-1.4h0c0,0,0,0.7,0,1.5v4.9h-0.6v-7.3h0.7L19.7,34.5z"/>
				<path id="XMLID_35_" fill="#009999" d="M21.2,36.9h-1L17,31.7c-0.1-0.2-0.3-0.4-0.4-0.6c0,0.2,0,0.5,0,0.7v5.1h-1v-7.7h1
					l3.3,5.2c0.1,0.2,0.3,0.4,0.4,0.6c0-0.2,0-0.5,0-0.7v-5.1h1V36.9z M20.5,36.5h0.3v-6.9h-0.2v4.7c0,0.8,0,1.5,0,1.5l0,0.2h-0.3
					l-0.1-0.1c0,0-0.3-0.7-0.7-1.3l0,0l-3.1-5H16v6.9h0.2v-4.7c0-0.8,0-1.5,0-1.5l0-0.2h0.4l0.1,0.1c0,0,0.3,0.7,0.7,1.3L20.5,36.5z
					"/>
			</g>
			<g id="XMLID_28_">
				<path id="XMLID_32_" fill="#009999" d="M23.9,29.4v6.8h3.1v0.6h-3.7v-7.3H23.9z"/>
				<path id="XMLID_29_" fill="#009999" d="M27.3,36.9h-4.2v-7.7h1v6.8h3.1V36.9z M23.5,36.5h3.3v-0.2h-3.1v-6.8h-0.2V36.5z"/>
			</g>
			<g id="XMLID_22_">
				<path id="XMLID_26_" fill="#009999" d="M29.2,29.4v7.3h-0.6v-7.3H29.2z"/>
				<path id="XMLID_23_" fill="#009999" d="M29.4,36.9h-1v-7.7h1V36.9z M28.8,36.5H29v-6.9h-0.2V36.5z"/>
			</g>
			<g id="XMLID_16_">
				<path id="XMLID_20_" fill="#009999" d="M35.4,34.5c0.4,0.7,0.8,1.4,0.8,1.4h0c0,0,0-0.7,0-1.5v-4.9h0.6v7.3h-0.6l-3.2-5.1
					c-0.4-0.7-0.8-1.4-0.8-1.4h0c0,0,0,0.7,0,1.5v4.9h-0.6v-7.3h0.7L35.4,34.5z"/>
				<path id="XMLID_17_" fill="#009999" d="M36.9,36.9h-1l-3.3-5.2c-0.1-0.2-0.3-0.4-0.4-0.6c0,0.2,0,0.5,0,0.7v5.1h-1v-7.7h1
					l3.3,5.2c0.1,0.2,0.3,0.4,0.4,0.6c0-0.2,0-0.5,0-0.7v-5.1h1V36.9z M36.2,36.5h0.3v-6.9h-0.2v4.7c0,0.8,0,1.5,0,1.5l0,0.2H36
					l-0.1-0.1c0,0-0.3-0.7-0.7-1.3l0,0l-3.1-5h-0.3v6.9h0.2v-4.7c0-0.8,0-1.5,0-1.5l0-0.2h0.4l0.1,0.1c0,0,0.3,0.7,0.7,1.3
					L36.2,36.5z"/>
			</g>
			<g id="XMLID_10_">
				<path id="XMLID_14_" fill="#009999" d="M42.8,36.7H39v-7.3h3.8V30h-3.2v2.8h2.9v0.6h-2.9v2.8h3.2V36.7z"/>
				<path id="XMLID_11_" fill="#009999" d="M43,36.9h-4.3v-7.7H43v1h-3.2v2.4h2.9v1h-2.9v2.4H43V36.9z M39.2,36.5h3.4v-0.2h-3.2
					v-3.2h2.9V33h-2.9v-3.2h3.2v-0.2h-3.4V36.5z"/>
			</g>
		</g>
		<g id="XMLID_4_">
			<g id="XMLID_5_">
				<path id="XMLID_6_" fill="#009999" d="M40.1,21.6v-1.1l0.2,0c0.7-0.1,0.9-0.3,1-0.5c-0.3,0-0.5-0.1-0.7-0.3
					c-0.2-0.2-0.4-0.5-0.4-0.9c0-0.7,0.5-1.2,1.3-1.2c0.8,0,1.4,0.6,1.4,1.6c0,1.5-0.9,2.4-2.5,2.4L40.1,21.6z M40.5,20.8v0.3
					c1.3-0.1,1.9-0.7,1.9-2c0-0.7-0.4-1.2-1-1.2c-0.2,0-0.9,0.1-0.9,0.8c0,0.2,0.1,0.4,0.2,0.6c0.2,0.1,0.4,0.2,0.7,0.2l0.2,0v0.2
					C41.7,20.2,41.5,20.7,40.5,20.8z"/>
			</g>
		</g>
	</g>
</g>
</svg>
