<?xml version="1.0" encoding="utf-8"?>
<!-- Generator: Adobe Illustrator 19.0.0, SVG Export Plug-In . SVG Version: 6.00 Build 0)  -->
<svg version="1.1" id="Calque_1" xmlns="http://www.w3.org/2000/svg" xmlns:xlink="http://www.w3.org/1999/xlink" x="0px" y="0px"
	 width="51px" height="51px" viewBox="0 0 51 51" enable-background="new 0 0 51 51" xml:space="preserve">
<rect id="XMLID_1_" x="0.5" y="0.5" fill="#FFFFFF" stroke="#E6E6E6" stroke-miterlimit="10" width="50" height="50"/>
<g id="XMLID_2_" display="none">
	<g id="XMLID_109_" display="inline">
		<g id="XMLID_256_">
			<path id="XMLID_271_" fill="#00999D" d="M9,11c0.3-0.7,0.9-1.2,1.7-1.2c1,0,1.5,0.7,1.5,1.9c0,1.7-0.9,2.9-2.3,2.9
				c-0.8,0-1.3-0.5-1.4-1.1l-0.5,3H7.6l1.2-6.7h0.4L9,11z M8.7,12.7c-0.1,0.7,0.3,1.5,1.2,1.5c1.1,0,1.8-1.1,1.8-2.5
				c0-0.9-0.4-1.5-1.2-1.5c-0.8,0-1.5,0.7-1.7,1.7L8.7,12.7z"/>
			<path id="XMLID_269_" fill="#00999D" d="M16.1,10.5c-0.1,0-0.2-0.1-0.4-0.1c-0.7,0-1.3,0.6-1.5,1.5l-0.5,2.6h-0.5l0.8-4.7h0.4
				l-0.1,1.2c0.2-0.6,0.8-1.2,1.5-1.2c0.1,0,0.3,0,0.3,0.1L16.1,10.5z"/>
			<path id="XMLID_266_" fill="#00999D" d="M20.2,13.4c-0.3,0.9-0.9,1.2-1.8,1.2c-1.1,0-1.8-0.7-1.8-1.9c0-1.7,1-2.9,2.2-2.9
				c1.1,0,1.5,0.7,1.5,1.6c0,0.3-0.1,0.6-0.2,0.9h-3.1c0,0.1,0,0.3,0,0.4c0,0.9,0.4,1.6,1.3,1.6c0.8,0,1.1-0.3,1.3-0.9L20.2,13.4z
				 M17.2,11.9h2.6c0.1-0.1,0.1-0.3,0.1-0.4c0-0.6-0.3-1.2-1.1-1.2C17.9,10.3,17.4,11,17.2,11.9z"/>
			<path id="XMLID_264_" fill="#00999D" d="M26.8,9.8c0.7,0,1.1,0.4,1.1,1.1c0,0.1,0,0.3-0.1,0.6l-0.4,2.2c0,0.1,0,0.2,0,0.3
				c0,0.2,0.1,0.3,0.3,0.3c0.1,0,0.2,0,0.3-0.1L28,14.6c-0.1,0.1-0.2,0.1-0.4,0.1c-0.4,0-0.6-0.2-0.6-0.6c0-0.1,0-0.2,0-0.3l0.4-2.2
				c0-0.2,0.1-0.3,0.1-0.5c0-0.5-0.2-0.8-0.8-0.8c-0.6,0-1.4,0.6-1.6,1.7l-0.4,2.6h-0.5l0.5-3.1c0-0.2,0.1-0.3,0.1-0.5
				c0-0.5-0.2-0.8-0.8-0.8c-0.6,0-1.4,0.6-1.6,1.7L22,14.6h-0.5l0.8-4.7h0.4L22.6,11c0.3-0.7,0.7-1.2,1.6-1.2c0.6,0,1.1,0.4,1.1,1
				c0,0.1,0,0.1,0,0.2C25.5,10.3,26,9.8,26.8,9.8z"/>
			<path id="XMLID_261_" fill="#00999D" d="M29.9,13.7c0,0.1,0,0.2,0,0.3c0,0.2,0.1,0.3,0.3,0.3c0.1,0,0.2,0,0.3-0.1l-0.1,0.4
				c-0.1,0.1-0.2,0.1-0.4,0.1c-0.4,0-0.6-0.2-0.6-0.6c0-0.1,0-0.2,0-0.3L30,9.9h0.5L29.9,13.7z M30.5,8.1c0.2,0,0.4,0.2,0.4,0.4
				c0,0.2-0.2,0.4-0.4,0.4c-0.2,0-0.4-0.2-0.4-0.4C30.1,8.3,30.3,8.1,30.5,8.1z"/>
			<path id="XMLID_259_" fill="#00999D" d="M35,13.7c0,0.1,0,0.2,0,0.3c0,0.2,0.1,0.3,0.3,0.3c0.1,0,0.2,0,0.3-0.1l-0.1,0.4
				c-0.1,0.1-0.2,0.1-0.4,0.1c-0.4,0-0.6-0.2-0.6-0.6c0-0.1,0-0.2,0.1-0.5c-0.3,0.7-0.8,1.2-1.6,1.2c-0.8,0-1.2-0.4-1.2-1.2
				c0-0.2,0-0.4,0.1-0.6l0.5-3h0.5L32.3,13c0,0.1,0,0.3,0,0.4c0,0.5,0.3,0.8,0.8,0.8c0.7,0,1.4-0.6,1.6-1.6l0.5-2.7h0.5L35,13.7z"/>
			<path id="XMLID_257_" fill="#00999D" d="M42.2,9.8c0.7,0,1.1,0.4,1.1,1.1c0,0.1,0,0.3-0.1,0.6l-0.4,2.2c0,0.1,0,0.2,0,0.3
				c0,0.2,0.1,0.3,0.3,0.3c0.1,0,0.2,0,0.3-0.1l-0.1,0.4c-0.1,0.1-0.2,0.1-0.4,0.1c-0.4,0-0.6-0.2-0.6-0.6c0-0.1,0-0.2,0-0.3
				l0.4-2.2c0-0.2,0.1-0.3,0.1-0.5c0-0.5-0.2-0.8-0.8-0.8c-0.6,0-1.4,0.6-1.6,1.7L40,14.6h-0.5l0.5-3.1c0-0.2,0.1-0.3,0.1-0.5
				c0-0.5-0.2-0.8-0.8-0.8c-0.6,0-1.4,0.6-1.6,1.7l-0.4,2.6h-0.5l0.8-4.7h0.4L38,11c0.3-0.7,0.7-1.2,1.6-1.2c0.6,0,1.1,0.4,1.1,1
				c0,0.1,0,0.1,0,0.2C40.9,10.3,41.4,9.8,42.2,9.8z"/>
		</g>
	</g>
	<g id="XMLID_3_" display="inline">
		<g id="XMLID_74_">
			<g id="XMLID_106_">
				<path id="XMLID_107_" fill="#344968" d="M11.2,42.1c-0.3,0.6-0.8,0.9-1.6,0.9c-1,0-1.7-0.7-1.7-1.9S8.6,39,9.7,39
					c0.8,0,1.2,0.3,1.5,0.9l-0.8,0.4c-0.1-0.4-0.3-0.6-0.7-0.6c-0.6,0-0.9,0.4-0.9,1.2c0,0.7,0.3,1.2,0.9,1.2c0.3,0,0.6-0.2,0.8-0.5
					L11.2,42.1z"/>
			</g>
			<g id="XMLID_102_">
				<path id="XMLID_103_" fill="#344968" d="M13.9,42.8c-0.1-0.1-0.2-0.2-0.2-0.4l-0.1-0.6c-0.1-0.3-0.2-0.4-0.5-0.4h-0.4v1.3h-0.9
					v-3.7h1.5c0.8,0,1.4,0.3,1.4,1.1c0,0.6-0.3,0.9-0.8,0.9v0c0.3,0.1,0.5,0.2,0.6,0.5l0.2,0.7c0,0.1,0.1,0.3,0.2,0.4H13.9z
					 M12.7,40.8h0.6c0.3,0,0.5-0.1,0.5-0.5c0-0.3-0.2-0.5-0.5-0.5h-0.6V40.8z"/>
			</g>
			<g id="XMLID_99_">
				<path id="XMLID_100_" fill="#344968" d="M16.4,39.1v3.7h-0.9v-3.7H16.4z"/>
			</g>
			<g id="XMLID_95_">
				<path id="XMLID_96_" fill="#344968" d="M17.4,42.8v-3.7h1.4c1,0,1.8,0.5,1.8,1.8c0,1.4-0.8,1.9-1.9,1.9H17.4z M18.6,42.1
					c0.7,0,1.1-0.3,1.1-1.1c0-0.9-0.4-1.1-1-1.1h-0.4v2.3H18.6z"/>
			</g>
			<g id="XMLID_91_">
				<path id="XMLID_92_" fill="#344968" d="M21.1,41c0-1.3,0.7-1.9,1.8-1.9s1.8,0.7,1.8,1.9c0,1.2-0.7,1.9-1.8,1.9
					S21.1,42.2,21.1,41z M22,41c0,0.7,0.3,1.2,0.9,1.2c0.6,0,0.9-0.4,0.9-1.2c0-0.7-0.3-1.2-0.9-1.2C22.2,39.8,22,40.2,22,41z"/>
			</g>
			<g id="XMLID_88_">
				<path id="XMLID_89_" fill="#344968" d="M27.5,40.9c0.2,0.3,0.3,0.5,0.3,0.5h0c0,0,0-0.3,0-0.8v-1.5h0.9v3.7h-0.8l-1.3-1.8
					c-0.2-0.3-0.4-0.6-0.4-0.6h0c0,0,0,0.3,0,0.8v1.5h-0.9v-3.7h0.8L27.5,40.9z"/>
			</g>
			<g id="XMLID_85_">
				<path id="XMLID_86_" fill="#344968" d="M31.3,39.1v3.4h1.7v0.3H31v-3.7H31.3z"/>
			</g>
			<g id="XMLID_82_">
				<path id="XMLID_83_" fill="#344968" d="M34,40.5c0.2,0.4,0.3,0.6,0.3,0.6h0c0,0,0.1-0.2,0.3-0.6l0.7-1.4h0.3l-1.2,2.2v1.5h-0.3
					v-1.5l-1.3-2.2h0.4L34,40.5z"/>
			</g>
			<g id="XMLID_78_">
				<path id="XMLID_79_" fill="#344968" d="M35.9,41c0-1.2,0.6-1.9,1.6-1.9c1,0,1.6,0.7,1.6,1.9s-0.6,1.9-1.6,1.9
					C36.6,42.9,35.9,42.2,35.9,41z M36.3,41c0,1,0.4,1.6,1.3,1.6c0.8,0,1.3-0.6,1.3-1.6c0-1-0.4-1.6-1.3-1.6
					C36.7,39.3,36.3,40,36.3,41z"/>
			</g>
			<g id="XMLID_75_">
				<path id="XMLID_76_" fill="#344968" d="M42.2,41.7c0.2,0.3,0.4,0.7,0.4,0.7h0c0,0,0-0.4,0-0.8v-2.5h0.3v3.7h-0.4l-1.8-2.6
					c-0.2-0.3-0.4-0.7-0.4-0.7h0c0,0,0,0.4,0,0.8v2.5H40v-3.7h0.4L42.2,41.7z"/>
			</g>
		</g>
		<g id="XMLID_49_">
			<g id="XMLID_69_">
				<g id="XMLID_70_">
					<path id="XMLID_71_" fill="#009999" d="M12.2,27c-2.6,0-4.3-1.8-4.3-4.8c0-3,1.7-4.8,4.5-4.8c1.8,0,3.1,0.8,3.8,2.4l0.1,0.2
						L14,21.1l-0.1-0.2c-0.3-0.9-0.7-1.3-1.5-1.3c-1.2,0-1.9,1-1.9,2.6c0,1.2,0.3,2.6,2,2.6c0.8,0,1.3-0.4,1.7-1.1l0.1-0.2l2.1,1.3
						l-0.1,0.2C15.3,26.4,14.1,27,12.2,27z M12.5,17.8c-2.6,0-4.1,1.6-4.1,4.4c0,2.7,1.5,4.4,3.8,4.4c1.7,0,2.7-0.5,3.5-1.8
						l-1.4-0.8c-0.4,0.8-1.1,1.2-1.9,1.2c-1.5,0-2.4-1.1-2.4-3c0-1.9,0.9-3,2.4-3c0.9,0,1.5,0.4,1.8,1.3l1.6-0.8
						C15.1,18.5,14,17.8,12.5,17.8z"/>
				</g>
			</g>
			<g id="XMLID_62_">
				<g id="XMLID_63_">
					<path id="XMLID_64_" fill="#009999" d="M25.5,26.9h-2.8l-0.1,0c-0.3-0.3-0.4-0.6-0.5-1l-0.3-1.3c-0.2-0.6-0.4-0.7-1-0.7h-0.7
						v3.1h-2.5v-9.3h3.7c2.3,0,3.4,1,3.4,2.9c0,1.1-0.5,1.9-1.4,2.3c0.5,0.2,0.8,0.6,0.9,1.2l0.5,1.7c0.1,0.3,0.2,0.6,0.4,0.9
						L25.5,26.9z M22.8,26.5h1.8c-0.1-0.2-0.2-0.5-0.3-0.7l-0.4-1.6c-0.2-0.7-0.6-1-1.3-1.1l-0.2,0v-0.4l0.2,0
						c1.1-0.1,1.8-0.8,1.8-2c0-1.7-1-2.5-3-2.5h-3.3v8.4h1.6v-3.1h1.1c0.7,0,1.2,0.2,1.4,1l0.3,1.3C22.6,26,22.7,26.3,22.8,26.5z
						 M21.2,22.1h-1.5v-2.7h1.5c0.9,0,1.5,0.5,1.5,1.4C22.7,21.6,22.2,22.1,21.2,22.1z M20.1,21.7h1.1c0.7,0,1.1-0.3,1.1-1
						c0-0.6-0.3-0.9-1.1-0.9h-1.1V21.7z"/>
				</g>
			</g>
			<g id="XMLID_57_">
				<g id="XMLID_58_">
					<path id="XMLID_59_" fill="#009999" d="M29.2,26.9h-2.5v-9.3h2.5V26.9z M27.2,26.5h1.6V18h-1.6V26.5z"/>
				</g>
			</g>
			<g id="XMLID_50_">
				<g id="XMLID_51_">
					<path id="XMLID_52_" fill="#009999" d="M34.8,26.9h-3.3v-9.3h3.5c2.9,0,4.5,1.6,4.5,4.5C39.5,25.2,37.8,26.9,34.8,26.9z
						 M31.9,26.5h2.9c1.9,0,4.2-0.7,4.2-4.3c0-3.4-2.2-4.1-4.1-4.1h-3.1V26.5z M34.6,25.1h-1.1v-5.8h1.2c1.8,0,2.6,0.9,2.6,2.9
						C37.3,24.2,36.5,25.1,34.6,25.1z M33.9,24.7h0.7c1.6,0,2.3-0.7,2.3-2.5c0-1.8-0.6-2.5-2.2-2.5h-0.8V24.7z"/>
				</g>
			</g>
		</g>
		<g id="XMLID_9_">
			<g id="XMLID_40_">
				<path id="XMLID_46_" fill="#009999" d="M8.1,33.1c0-2.4,1.1-3.8,2.9-3.8c1.8,0,2.9,1.4,2.9,3.8c0,2.4-1.1,3.8-2.9,3.8
					C9.3,36.8,8.1,35.5,8.1,33.1z M8.8,33.1c0,2,0.8,3.2,2.3,3.2s2.3-1.2,2.3-3.2c0-2-0.8-3.2-2.3-3.2S8.8,31.1,8.8,33.1z"/>
				<path id="XMLID_41_" fill="#009999" d="M11.1,37c-2,0-3.1-1.5-3.1-4c0-2.5,1.2-4,3.1-4c2,0,3.1,1.5,3.1,4
					C14.2,35.5,13,37,11.1,37z M11.1,29.5c-1.7,0-2.7,1.3-2.7,3.6c0,2.2,1,3.6,2.7,3.6c1.7,0,2.7-1.3,2.7-3.6
					C13.8,30.8,12.8,29.5,11.1,29.5z M11.1,36.5c-1.6,0-2.5-1.2-2.5-3.4c0-2.2,0.9-3.4,2.5-3.4c1.6,0,2.5,1.3,2.5,3.4
					C13.6,35.2,12.7,36.5,11.1,36.5z M11.1,30.1c-1.8,0-2.1,1.9-2.1,3c0,1.1,0.3,3,2.1,3c1.8,0,2.1-1.9,2.1-3
					C13.2,31.2,12.4,30.1,11.1,30.1z"/>
			</g>
			<g id="XMLID_34_">
				<path id="XMLID_38_" fill="#009999" d="M19.7,34.5c0.4,0.7,0.8,1.4,0.8,1.4h0c0,0,0-0.7,0-1.5v-4.9H21v7.3h-0.6l-3.2-5.1
					c-0.4-0.7-0.8-1.4-0.8-1.4h0c0,0,0,0.7,0,1.5v4.9h-0.6v-7.3h0.7L19.7,34.5z"/>
				<path id="XMLID_35_" fill="#009999" d="M21.2,36.9h-1L17,31.7c-0.1-0.2-0.3-0.4-0.4-0.6c0,0.2,0,0.5,0,0.7v5.1h-1v-7.7h1
					l3.3,5.2c0.1,0.2,0.3,0.4,0.4,0.6c0-0.2,0-0.5,0-0.7v-5.1h1V36.9z M20.5,36.5h0.3v-6.9h-0.2v4.7c0,0.8,0,1.5,0,1.5l0,0.2h-0.3
					l-0.1-0.1c0,0-0.3-0.7-0.7-1.3l0,0l-3.1-5H16v6.9h0.2v-4.7c0-0.8,0-1.5,0-1.5l0-0.2h0.4l0.1,0.1c0,0,0.3,0.7,0.7,1.3L20.5,36.5z
					"/>
			</g>
			<g id="XMLID_28_">
				<path id="XMLID_32_" fill="#009999" d="M23.9,29.4v6.8h3.1v0.6h-3.7v-7.3H23.9z"/>
				<path id="XMLID_29_" fill="#009999" d="M27.3,36.9h-4.2v-7.7h1v6.8h3.1V36.9z M23.5,36.5h3.3v-0.2h-3.1v-6.8h-0.2V36.5z"/>
			</g>
			<g id="XMLID_22_">
				<path id="XMLID_26_" fill="#009999" d="M29.2,29.4v7.3h-0.6v-7.3H29.2z"/>
				<path id="XMLID_23_" fill="#009999" d="M29.4,36.9h-1v-7.7h1V36.9z M28.8,36.5H29v-6.9h-0.2V36.5z"/>
			</g>
			<g id="XMLID_16_">
				<path id="XMLID_20_" fill="#009999" d="M35.4,34.5c0.4,0.7,0.8,1.4,0.8,1.4h0c0,0,0-0.7,0-1.5v-4.9h0.6v7.3h-0.6l-3.2-5.1
					c-0.4-0.7-0.8-1.4-0.8-1.4h0c0,0,0,0.7,0,1.5v4.9h-0.6v-7.3h0.7L35.4,34.5z"/>
				<path id="XMLID_17_" fill="#009999" d="M36.9,36.9h-1l-3.3-5.2c-0.1-0.2-0.3-0.4-0.4-0.6c0,0.2,0,0.5,0,0.7v5.1h-1v-7.7h1
					l3.3,5.2c0.1,0.2,0.3,0.4,0.4,0.6c0-0.2,0-0.5,0-0.7v-5.1h1V36.9z M36.2,36.5h0.3v-6.9h-0.2v4.7c0,0.8,0,1.5,0,1.5l0,0.2H36
					l-0.1-0.1c0,0-0.3-0.7-0.7-1.3l0,0l-3.1-5h-0.3v6.9h0.2v-4.7c0-0.8,0-1.5,0-1.5l0-0.2h0.4l0.1,0.1c0,0,0.3,0.7,0.7,1.3
					L36.2,36.5z"/>
			</g>
			<g id="XMLID_10_">
				<path id="XMLID_14_" fill="#009999" d="M42.8,36.7H39v-7.3h3.8V30h-3.2v2.8h2.9v0.6h-2.9v2.8h3.2V36.7z"/>
				<path id="XMLID_11_" fill="#009999" d="M43,36.9h-4.3v-7.7H43v1h-3.2v2.4h2.9v1h-2.9v2.4H43V36.9z M39.2,36.5h3.4v-0.2h-3.2
					v-3.2h2.9V33h-2.9v-3.2h3.2v-0.2h-3.4V36.5z"/>
			</g>
		</g>
		<g id="XMLID_4_">
			<g id="XMLID_5_">
				<path id="XMLID_6_" fill="#009999" d="M40.1,21.6v-1.1l0.2,0c0.7-0.1,0.9-0.3,1-0.5c-0.3,0-0.5-0.1-0.7-0.3
					c-0.2-0.2-0.4-0.5-0.4-0.9c0-0.7,0.5-1.2,1.3-1.2c0.8,0,1.4,0.6,1.4,1.6c0,1.5-0.9,2.4-2.5,2.4L40.1,21.6z M40.5,20.8v0.3
					c1.3-0.1,1.9-0.7,1.9-2c0-0.7-0.4-1.2-1-1.2c-0.2,0-0.9,0.1-0.9,0.8c0,0.2,0.1,0.4,0.2,0.6c0.2,0.1,0.4,0.2,0.7,0.2l0.2,0v0.2
					C41.7,20.2,41.5,20.7,40.5,20.8z"/>
			</g>
		</g>
	</g>
</g>
<g id="XMLID_737_" display="none">
	<g id="XMLID_763_" display="inline">
		<g id="XMLID_834_">
			<g id="XMLID_866_">
				<path id="XMLID_867_" fill="#344968" d="M7.8,42.9c-0.3,0.6-0.8,0.9-1.6,0.9c-1,0-1.7-0.7-1.7-2s0.7-2,1.8-2
					c0.8,0,1.3,0.4,1.5,1L7,41.2c-0.1-0.4-0.3-0.6-0.7-0.6c-0.6,0-0.9,0.5-0.9,1.2c0,0.7,0.3,1.2,0.9,1.2c0.3,0,0.6-0.2,0.8-0.5
					L7.8,42.9z"/>
			</g>
			<g id="XMLID_862_">
				<path id="XMLID_863_" fill="#344968" d="M10.5,43.6c-0.1-0.1-0.2-0.2-0.2-0.4l-0.1-0.6c-0.1-0.3-0.2-0.4-0.5-0.4H9.3v1.3H8.4
					v-3.8h1.5c0.8,0,1.4,0.3,1.4,1.1c0,0.6-0.3,0.9-0.8,0.9v0c0.3,0.1,0.5,0.2,0.6,0.5l0.2,0.7c0,0.1,0.1,0.3,0.2,0.4H10.5z
					 M9.3,41.6h0.6c0.3,0,0.5-0.1,0.5-0.5c0-0.3-0.2-0.5-0.5-0.5H9.3V41.6z"/>
			</g>
			<g id="XMLID_859_">
				<path id="XMLID_860_" fill="#344968" d="M13,39.9v3.8h-0.9v-3.8H13z"/>
			</g>
			<g id="XMLID_855_">
				<path id="XMLID_856_" fill="#344968" d="M14,43.6v-3.8h1.4c1,0,1.8,0.5,1.8,1.8c0,1.4-0.8,1.9-1.9,1.9H14z M15.3,42.9
					c0.7,0,1.1-0.3,1.1-1.1c0-0.9-0.4-1.2-1-1.2h-0.4v2.3H15.3z"/>
			</g>
			<g id="XMLID_851_">
				<path id="XMLID_852_" fill="#344968" d="M17.7,41.8c0-1.3,0.7-2,1.8-2s1.8,0.7,1.8,2c0,1.3-0.7,2-1.8,2S17.7,43,17.7,41.8z
					 M18.7,41.8c0,0.7,0.3,1.2,0.9,1.2s0.9-0.5,0.9-1.2c0-0.7-0.3-1.2-0.9-1.2C18.9,40.6,18.7,41,18.7,41.8z"/>
			</g>
			<g id="XMLID_848_">
				<path id="XMLID_849_" fill="#344968" d="M24.2,41.7c0.2,0.3,0.3,0.5,0.3,0.5h0c0,0,0-0.3,0-0.8v-1.5h0.9v3.8h-0.8l-1.3-1.8
					c-0.2-0.3-0.4-0.6-0.4-0.6h0c0,0,0,0.3,0,0.8v1.5h-0.9v-3.8h0.8L24.2,41.7z"/>
			</g>
			<g id="XMLID_845_">
				<path id="XMLID_846_" fill="#344968" d="M28.1,39.9v3.5h1.8v0.3h-2.1v-3.8H28.1z"/>
			</g>
			<g id="XMLID_842_">
				<path id="XMLID_843_" fill="#344968" d="M30.9,41.3c0.2,0.4,0.3,0.6,0.3,0.6h0c0,0,0.1-0.2,0.3-0.6l0.7-1.4h0.4l-1.2,2.3v1.5H31
					v-1.5l-1.3-2.3h0.4L30.9,41.3z"/>
			</g>
			<g id="XMLID_838_">
				<path id="XMLID_839_" fill="#344968" d="M32.8,41.8c0-1.2,0.6-1.9,1.6-1.9s1.6,0.7,1.6,1.9s-0.6,1.9-1.6,1.9S32.8,43,32.8,41.8z
					 M33.1,41.8c0,1,0.4,1.6,1.3,1.6c0.8,0,1.3-0.6,1.3-1.6s-0.5-1.6-1.3-1.6C33.6,40.1,33.1,40.7,33.1,41.8z"/>
			</g>
			<g id="XMLID_835_">
				<path id="XMLID_836_" fill="#344968" d="M39,42.5c0.2,0.4,0.4,0.7,0.4,0.7h0c0,0,0-0.4,0-0.8v-2.5h0.3v3.8h-0.4L37.6,41
					c-0.2-0.3-0.4-0.7-0.4-0.7h0c0,0,0,0.4,0,0.8v2.5h-0.3v-3.8h0.4L39,42.5z"/>
			</g>
		</g>
		<g id="XMLID_809_">
			<g id="XMLID_829_">
				<g id="XMLID_830_">
					<path id="XMLID_831_" fill="#009999" d="M8.8,27.7c-2.7,0-4.3-1.9-4.3-4.9c0-3,1.7-4.8,4.6-4.8c1.8,0,3.1,0.8,3.8,2.4l0.1,0.2
						l-2.4,1.2l-0.1-0.2c-0.3-0.9-0.7-1.3-1.5-1.3c-1.2,0-2,1-2,2.7c0,1.2,0.3,2.6,2,2.6c0.8,0,1.3-0.4,1.7-1.2l0.1-0.2l2.1,1.3
						l-0.1,0.2C11.9,27.1,10.7,27.7,8.8,27.7z M9.1,18.4c-2.6,0-4.2,1.6-4.2,4.4c0,2.7,1.5,4.4,3.9,4.4c1.7,0,2.8-0.5,3.5-1.8
						L11,24.7c-0.4,0.8-1.1,1.2-1.9,1.2c-1.6,0-2.4-1.1-2.4-3c0-1.9,0.9-3.1,2.4-3.1c0.9,0,1.5,0.4,1.8,1.3l1.6-0.8
						C11.7,19,10.6,18.4,9.1,18.4z"/>
				</g>
			</g>
			<g id="XMLID_822_">
				<g id="XMLID_823_">
					<path id="XMLID_824_" fill="#009999" d="M22.2,27.5h-2.8l-0.1,0c-0.3-0.3-0.5-0.7-0.5-1l-0.3-1.3c-0.2-0.6-0.4-0.7-1-0.7h-0.7
						v3.2h-2.5v-9.3H18c2.3,0,3.5,1,3.5,2.9c0,1.1-0.5,1.9-1.4,2.3c0.5,0.2,0.8,0.6,0.9,1.2l0.5,1.7c0.1,0.3,0.2,0.6,0.5,0.9
						L22.2,27.5z M19.5,27.1h1.8c-0.1-0.2-0.2-0.5-0.3-0.7l-0.5-1.7c-0.2-0.7-0.6-1-1.3-1.2l-0.2,0v-0.4l0.2,0
						c1.1-0.1,1.8-0.8,1.8-2c0-1.7-1-2.5-3-2.5h-3.3v8.5h1.6v-3.2h1.1c0.7,0,1.2,0.2,1.4,1.1l0.3,1.3C19.3,26.7,19.4,26.9,19.5,27.1
						z M17.9,22.7h-1.5v-2.7h1.5c1,0,1.5,0.5,1.5,1.4C19.4,22.2,18.9,22.7,17.9,22.7z M16.8,22.3h1.1c0.8,0,1.1-0.3,1.1-1
						c0-0.7-0.3-1-1.1-1h-1.1V22.3z"/>
				</g>
			</g>
			<g id="XMLID_817_">
				<g id="XMLID_818_">
					<path id="XMLID_819_" fill="#009999" d="M26,27.5h-2.5v-9.3H26V27.5z M23.9,27.1h1.6v-8.5h-1.6V27.1z"/>
				</g>
			</g>
			<g id="XMLID_810_">
				<g id="XMLID_811_">
					<path id="XMLID_812_" fill="#009999" d="M31.6,27.5h-3.4v-9.3h3.5c2.9,0,4.6,1.6,4.6,4.6C36.3,25.8,34.7,27.5,31.6,27.5z
						 M28.7,27.1h2.9c2,0,4.3-0.8,4.3-4.4c0-3.4-2.3-4.2-4.1-4.2h-3.1V27.1z M31.4,25.8h-1.1v-5.9h1.2c1.8,0,2.6,0.9,2.6,3
						C34.2,24.8,33.3,25.8,31.4,25.8z M30.7,25.4h0.7c1.6,0,2.3-0.7,2.3-2.5c0-1.8-0.6-2.5-2.2-2.5h-0.8V25.4z"/>
				</g>
			</g>
		</g>
		<g id="XMLID_769_">
			<g id="XMLID_800_">
				<path id="XMLID_806_" fill="#009999" d="M4.7,33.8c0-2.4,1.2-3.8,3-3.8c1.8,0,3,1.4,3,3.8c0,2.4-1.2,3.8-3,3.8
					C5.8,37.6,4.7,36.2,4.7,33.8z M5.3,33.8c0,2,0.8,3.2,2.3,3.2s2.3-1.2,2.3-3.2c0-2-0.8-3.2-2.3-3.2S5.3,31.8,5.3,33.8z"/>
				<path id="XMLID_801_" fill="#009999" d="M7.6,37.8c-2,0-3.2-1.5-3.2-4c0-2.5,1.2-4,3.2-4c2,0,3.2,1.5,3.2,4
					C10.8,36.3,9.6,37.8,7.6,37.8z M7.6,30.2c-1.7,0-2.8,1.3-2.8,3.6c0,2.3,1,3.6,2.8,3.6c1.7,0,2.8-1.3,2.8-3.6
					C10.4,31.5,9.4,30.2,7.6,30.2z M7.6,37.2c-1.6,0-2.5-1.3-2.5-3.4c0-2.2,0.9-3.4,2.5-3.4c1.6,0,2.5,1.3,2.5,3.4
					C10.2,36,9.3,37.2,7.6,37.2z M7.6,30.7c-1.8,0-2.1,1.9-2.1,3c0,1.1,0.3,3,2.1,3c1.9,0,2.1-1.9,2.1-3C9.8,31.8,9,30.7,7.6,30.7z"
					/>
			</g>
			<g id="XMLID_794_">
				<path id="XMLID_798_" fill="#009999" d="M16.4,35.2c0.4,0.7,0.8,1.4,0.8,1.4h0c0,0,0-0.7,0-1.6v-5h0.6v7.4h-0.6l-3.3-5.1
					c-0.4-0.7-0.8-1.4-0.8-1.4h0c0,0,0,0.7,0,1.6v5h-0.6v-7.4h0.7L16.4,35.2z"/>
				<path id="XMLID_795_" fill="#009999" d="M17.9,37.7h-1l-3.3-5.2c-0.1-0.2-0.3-0.5-0.4-0.7c0,0.2,0,0.5,0,0.7v5.2h-1v-7.8h1
					l3.3,5.2c0.1,0.2,0.3,0.5,0.4,0.7c0-0.2,0-0.5,0-0.7v-5.2h1V37.7z M17.2,37.3h0.3v-7h-0.2V35c0,0.8,0,1.5,0,1.5l0,0.2H17
					l-0.1-0.1c0,0-0.3-0.7-0.8-1.3l0,0L13,30.3h-0.3v7h0.2v-4.8c0-0.8,0-1.5,0-1.5l0-0.2h0.4l0.1,0.1c0,0,0.3,0.7,0.8,1.3L17.2,37.3
					z"/>
			</g>
			<g id="XMLID_788_">
				<path id="XMLID_792_" fill="#009999" d="M20.6,30.1v6.8h3.2v0.6H20v-7.4H20.6z"/>
				<path id="XMLID_789_" fill="#009999" d="M24,37.7h-4.2v-7.8h1v6.8H24V37.7z M20.2,37.3h3.4v-0.2h-3.2v-6.8h-0.2V37.3z"/>
			</g>
			<g id="XMLID_782_">
				<path id="XMLID_786_" fill="#009999" d="M26,30.1v7.4h-0.6v-7.4H26z"/>
				<path id="XMLID_783_" fill="#009999" d="M26.2,37.7h-1v-7.8h1V37.7z M25.6,37.3h0.2v-7h-0.2V37.3z"/>
			</g>
			<g id="XMLID_776_">
				<path id="XMLID_780_" fill="#009999" d="M32.2,35.2c0.4,0.7,0.8,1.4,0.8,1.4h0c0,0,0-0.7,0-1.6v-5h0.6v7.4h-0.6l-3.3-5.1
					c-0.4-0.7-0.8-1.4-0.8-1.4h0c0,0,0,0.7,0,1.6v5h-0.6v-7.4h0.7L32.2,35.2z"/>
				<path id="XMLID_777_" fill="#009999" d="M33.8,37.7h-1l-3.3-5.2c-0.1-0.2-0.3-0.5-0.4-0.7c0,0.2,0,0.5,0,0.7v5.2h-1v-7.8h1
					l3.3,5.2c0.1,0.2,0.3,0.5,0.4,0.7c0-0.2,0-0.5,0-0.7v-5.2h1V37.7z M33,37.3h0.3v-7h-0.2V35c0,0.8,0,1.5,0,1.5l0,0.2h-0.3
					l-0.1-0.1c0,0-0.3-0.7-0.8-1.3l0,0l-3.2-5.1h-0.3v7h0.2v-4.8c0-0.8,0-1.5,0-1.5l0-0.2H29l0.1,0.1c0,0,0.3,0.7,0.8,1.3L33,37.3z"
					/>
			</g>
			<g id="XMLID_770_">
				<path id="XMLID_774_" fill="#009999" d="M39.7,37.5h-3.9v-7.4h3.9v0.6h-3.3v2.8h2.9v0.6h-2.9v2.8h3.3V37.5z"/>
				<path id="XMLID_771_" fill="#009999" d="M39.9,37.7h-4.3v-7.8h4.3v1h-3.3v2.4h2.9v1h-2.9v2.4h3.3V37.7z M36.1,37.3h3.5v-0.2
					h-3.3v-3.3h2.9v-0.2h-2.9v-3.2h3.3v-0.2h-3.5V37.3z"/>
			</g>
		</g>
		<g id="XMLID_764_">
			<g id="XMLID_765_">
				<path id="XMLID_766_" fill="#009999" d="M37,22.2v-1.1l0.2,0c0.7-0.1,0.9-0.3,1-0.5c-0.3,0-0.5-0.1-0.7-0.3
					C37.2,20,37,19.7,37,19.4c0-0.7,0.5-1.2,1.3-1.2c0.8,0,1.4,0.7,1.4,1.6c0,1.5-0.9,2.4-2.6,2.4L37,22.2z M37.4,21.4v0.3
					c1.3-0.1,2-0.7,2-2c0-0.7-0.4-1.2-1-1.2c-0.2,0-0.9,0.1-0.9,0.8c0,0.2,0.1,0.4,0.2,0.6c0.2,0.1,0.4,0.2,0.7,0.2l0.2,0v0.2
					C38.6,20.7,38.4,21.3,37.4,21.4z"/>
			</g>
		</g>
	</g>
	<g id="XMLID_738_" display="inline">
		<path id="XMLID_760_" fill="#FAB612" d="M8.4,13.9c-0.3,0.9-0.9,1.2-1.8,1.2c-1.2,0-1.8-0.7-1.8-2c0-1.7,1-2.9,2.3-2.9
			c1.1,0,1.6,0.7,1.6,1.6c0,0.3-0.1,0.6-0.2,0.9H5.3c0,0.1,0,0.3,0,0.4c0,0.9,0.4,1.6,1.3,1.6c0.8,0,1.1-0.3,1.3-0.9L8.4,13.9z
			 M5.3,12.3H8c0.1-0.1,0.1-0.3,0.1-0.4c0-0.7-0.3-1.2-1.1-1.2C6.1,10.7,5.5,11.5,5.3,12.3z"/>
		<path id="XMLID_758_" fill="#FAB612" d="M11.6,13.7c-0.2-0.5-0.2-0.7-0.2-0.7h0c0,0-0.1,0.1-0.5,0.7l-1.2,1.4H9l2.1-2.4L10,10.4
			h0.6l0.6,1.3c0.3,0.6,0.3,0.7,0.3,0.7h0c0,0,0.1-0.1,0.5-0.7l1.1-1.3h0.6l-2,2.3l1.2,2.4h-0.5L11.6,13.7z"/>
		<path id="XMLID_756_" fill="#FAB612" d="M15.8,14.8c0.8,0,1.2-0.4,1.3-1l0.5,0.1c-0.3,0.8-0.8,1.3-1.9,1.3c-1.1,0-1.7-0.7-1.7-2
			c0-1.5,0.8-2.9,2.3-2.9c1,0,1.5,0.6,1.5,1.5l-0.5,0.1c0-0.7-0.3-1.2-1.1-1.2c-1.2,0-1.7,1.2-1.7,2.4C14.5,14.2,15,14.8,15.8,14.8z
			"/>
		<path id="XMLID_753_" fill="#FAB612" d="M22.3,13.9c-0.3,0.9-0.9,1.2-1.8,1.2c-1.2,0-1.8-0.7-1.8-2c0-1.7,1-2.9,2.3-2.9
			c1.1,0,1.6,0.7,1.6,1.6c0,0.3-0.1,0.6-0.2,0.9h-3.1c0,0.1,0,0.3,0,0.4c0,0.9,0.4,1.6,1.3,1.6c0.8,0,1.1-0.3,1.3-0.9L22.3,13.9z
			 M19.3,12.3h2.7C22,12.2,22,12,22,11.9c0-0.7-0.3-1.2-1.1-1.2C20,10.7,19.5,11.5,19.3,12.3z"/>
		<path id="XMLID_751_" fill="#FAB612" d="M24.2,14.2c0,0.1,0,0.2,0,0.3c0,0.2,0.1,0.3,0.3,0.3c0.1,0,0.2,0,0.3-0.1l-0.1,0.4
			c-0.1,0.1-0.2,0.1-0.4,0.1c-0.4,0-0.6-0.2-0.6-0.6c0-0.1,0-0.2,0-0.3l1-6h0.5L24.2,14.2z"/>
		<path id="XMLID_749_" fill="#FAB612" d="M26.7,14.2c0,0.1,0,0.2,0,0.3c0,0.2,0.1,0.3,0.3,0.3c0.1,0,0.2,0,0.3-0.1l-0.1,0.4
			c-0.1,0.1-0.2,0.1-0.4,0.1c-0.4,0-0.6-0.2-0.6-0.6c0-0.1,0-0.2,0-0.3l1-6h0.5L26.7,14.2z"/>
		<path id="XMLID_746_" fill="#FAB612" d="M32.1,13.9c-0.3,0.9-0.9,1.2-1.8,1.2c-1.2,0-1.8-0.7-1.8-2c0-1.7,1-2.9,2.3-2.9
			c1.1,0,1.6,0.7,1.6,1.6c0,0.3-0.1,0.6-0.2,0.9H29c0,0.1,0,0.3,0,0.4c0,0.9,0.4,1.6,1.3,1.6c0.8,0,1.1-0.3,1.3-0.9L32.1,13.9z
			 M29,12.3h2.7c0.1-0.1,0.1-0.3,0.1-0.4c0-0.7-0.3-1.2-1.1-1.2C29.8,10.7,29.3,11.5,29,12.3z"/>
		<path id="XMLID_744_" fill="#FAB612" d="M36.8,12c0-0.2,0.1-0.3,0.1-0.5c0-0.5-0.3-0.8-0.8-0.8c-0.7,0-1.5,0.6-1.7,1.8l-0.4,2.6
			h-0.5l0.8-4.7h0.4l-0.1,1.1c0.3-0.7,0.8-1.2,1.6-1.2c0.7,0,1.2,0.4,1.2,1.1c0,0.1,0,0.3-0.1,0.6l-0.4,2.2c0,0.1,0,0.2,0,0.3
			c0,0.2,0.1,0.3,0.3,0.3c0.1,0,0.2,0,0.3-0.1l-0.1,0.4c-0.1,0.1-0.2,0.1-0.4,0.1c-0.4,0-0.6-0.2-0.6-0.6c0-0.1,0-0.2,0-0.3L36.8,12
			z"/>
		<path id="XMLID_742_" fill="#FAB612" d="M40.4,14.8c0.8,0,1.2-0.4,1.3-1l0.5,0.1c-0.3,0.8-0.8,1.3-1.9,1.3c-1.1,0-1.7-0.7-1.7-2
			c0-1.5,0.8-2.9,2.3-2.9c1,0,1.5,0.6,1.5,1.5L42,11.9c0-0.7-0.3-1.2-1.1-1.2c-1.2,0-1.7,1.2-1.7,2.4C39.1,14.2,39.6,14.8,40.4,14.8
			z"/>
		<path id="XMLID_739_" fill="#FAB612" d="M47,13.9c-0.3,0.9-0.9,1.2-1.8,1.2c-1.2,0-1.8-0.7-1.8-2c0-1.7,1-2.9,2.3-2.9
			c1.1,0,1.6,0.7,1.6,1.6c0,0.3-0.1,0.6-0.2,0.9h-3.1c0,0.1,0,0.3,0,0.4c0,0.9,0.4,1.6,1.3,1.6c0.8,0,1.1-0.3,1.3-0.9L47,13.9z
			 M43.9,12.3h2.7c0.1-0.1,0.1-0.3,0.1-0.4c0-0.7-0.3-1.2-1.1-1.2C44.7,10.7,44.1,11.5,43.9,12.3z"/>
	</g>
</g>
<g id="XMLID_366_">
	<g id="XMLID_497_">
		<g id="XMLID_337_">
			<path id="XMLID_360_" fill="#37486B" d="M9.5,10.5c-0.1,0-0.2-0.1-0.4-0.1c-0.7,0-1.3,0.6-1.5,1.5l-0.5,2.7H6.7L7.5,10h0.4
				l-0.1,1.2C8,10.5,8.5,9.9,9.3,9.9c0.1,0,0.3,0,0.3,0.1L9.5,10.5z"/>
			<path id="XMLID_356_" fill="#37486B" d="M13.5,13.5c-0.3,0.9-0.9,1.2-1.8,1.2c-1.1,0-1.8-0.7-1.8-2c0-1.7,1-2.9,2.2-2.9
				c1.1,0,1.6,0.7,1.6,1.6c0,0.3-0.1,0.6-0.2,0.9h-3.1c0,0.1,0,0.3,0,0.4c0,0.9,0.4,1.6,1.3,1.6c0.8,0,1.1-0.3,1.3-0.9L13.5,13.5z
				 M10.5,11.9h2.7c0.1-0.1,0.1-0.3,0.1-0.4c0-0.6-0.3-1.2-1.1-1.2C11.3,10.3,10.7,11.1,10.5,11.9z M12,9.3l0.8-1.4h0.7l-1.1,1.4H12
				z"/>
			<path id="XMLID_354_" fill="#37486B" d="M15.6,10.4h-0.7L15,10h0.7l0.1-0.7c0.2-1.1,0.7-1.4,1.4-1.4c0.4,0,0.7,0.1,1,0.3L18,8.6
				c-0.2-0.2-0.4-0.3-0.7-0.3c-0.5,0-0.8,0.2-1,1L16.2,10h1.2l-0.1,0.4h-1.2l-0.9,5.3c-0.1,0.8-0.5,1.1-1.1,1.1
				c-0.3,0-0.6-0.1-0.8-0.3l0.1-0.4c0.2,0.2,0.4,0.3,0.6,0.3c0.4,0,0.5-0.2,0.6-0.7L15.6,10.4z"/>
			<path id="XMLID_350_" fill="#37486B" d="M21.3,13.5c-0.3,0.9-0.9,1.2-1.8,1.2c-1.1,0-1.8-0.7-1.8-2c0-1.7,1-2.9,2.2-2.9
				c1.1,0,1.6,0.7,1.6,1.6c0,0.3-0.1,0.6-0.2,0.9h-3.1c0,0.1,0,0.3,0,0.4c0,0.9,0.4,1.6,1.3,1.6c0.8,0,1.1-0.3,1.3-0.9L21.3,13.5z
				 M18.3,11.9h2.7c0.1-0.1,0.1-0.3,0.1-0.4c0-0.6-0.3-1.2-1.1-1.2C19,10.3,18.5,11.1,18.3,11.9z M19.8,9.3l0.8-1.4h0.7l-1.1,1.4
				H19.8z"/>
			<path id="XMLID_348_" fill="#37486B" d="M25.4,10.5c-0.1,0-0.2-0.1-0.4-0.1c-0.7,0-1.3,0.6-1.5,1.5l-0.5,2.7h-0.5l0.8-4.7h0.4
				l-0.1,1.2c0.2-0.6,0.8-1.2,1.5-1.2c0.1,0,0.3,0,0.3,0.1L25.4,10.5z"/>
			<path id="XMLID_345_" fill="#37486B" d="M29.4,13.5c-0.3,0.9-0.9,1.2-1.8,1.2c-1.1,0-1.8-0.7-1.8-2c0-1.7,1-2.9,2.2-2.9
				c1.1,0,1.6,0.7,1.6,1.6c0,0.3-0.1,0.6-0.2,0.9h-3.1c0,0.1,0,0.3,0,0.4c0,0.9,0.4,1.6,1.3,1.6c0.8,0,1.1-0.3,1.3-0.9L29.4,13.5z
				 M26.4,11.9h2.7c0.1-0.1,0.1-0.3,0.1-0.4c0-0.6-0.3-1.2-1.1-1.2C27.2,10.3,26.6,11.1,26.4,11.9z"/>
			<path id="XMLID_343_" fill="#37486B" d="M34.1,11.6c0-0.2,0.1-0.3,0.1-0.5c0-0.5-0.3-0.8-0.8-0.8c-0.7,0-1.5,0.5-1.7,1.8
				l-0.4,2.6h-0.5l0.8-4.7H32l-0.1,1.1c0.3-0.7,0.8-1.2,1.6-1.2c0.7,0,1.2,0.4,1.2,1.1c0,0.1,0,0.3-0.1,0.6l-0.4,2.2
				c0,0.1,0,0.2,0,0.3c0,0.2,0.1,0.3,0.3,0.3c0.1,0,0.2,0,0.3-0.1l-0.1,0.4c-0.1,0.1-0.2,0.1-0.4,0.1c-0.4,0-0.6-0.2-0.6-0.6
				c0-0.1,0-0.2,0-0.3L34.1,11.6z"/>
			<path id="XMLID_341_" fill="#37486B" d="M37.8,14.3c0.8,0,1.1-0.4,1.3-1l0.5,0.1c-0.3,0.8-0.8,1.3-1.9,1.3
				c-1.1,0-1.7-0.7-1.7-1.9c0-1.5,0.8-2.9,2.3-2.9c1,0,1.5,0.6,1.5,1.5l-0.5,0.1c0-0.7-0.3-1.1-1.1-1.1c-1.1,0-1.7,1.2-1.7,2.4
				C36.5,13.8,36.9,14.3,37.8,14.3z"/>
			<path id="XMLID_338_" fill="#37486B" d="M44.2,13.5c-0.3,0.9-0.9,1.2-1.8,1.2c-1.1,0-1.8-0.7-1.8-2c0-1.7,1-2.9,2.2-2.9
				c1.1,0,1.6,0.7,1.6,1.6c0,0.3-0.1,0.6-0.2,0.9h-3.1c0,0.1,0,0.3,0,0.4c0,0.9,0.4,1.6,1.3,1.6c0.8,0,1.1-0.3,1.3-0.9L44.2,13.5z
				 M41.2,11.9h2.7c0.1-0.1,0.1-0.3,0.1-0.4c0-0.6-0.3-1.2-1.1-1.2C42,10.3,41.4,11.1,41.2,11.9z"/>
		</g>
	</g>
	<g id="XMLID_367_">
		<g id="XMLID_462_">
			<g id="XMLID_494_">
				<path id="XMLID_495_" fill="#344968" d="M10,42.3c-0.3,0.6-0.8,0.9-1.6,0.9c-1,0-1.7-0.7-1.7-2s0.7-1.9,1.8-1.9
					c0.8,0,1.3,0.3,1.5,0.9l-0.8,0.4C9,40.2,8.8,40,8.4,40c-0.6,0-0.9,0.5-0.9,1.2c0,0.7,0.3,1.2,0.9,1.2c0.3,0,0.6-0.2,0.8-0.5
					L10,42.3z"/>
			</g>
			<g id="XMLID_490_">
				<path id="XMLID_491_" fill="#344968" d="M12.7,43.1c-0.1-0.1-0.2-0.2-0.2-0.4l-0.1-0.6c-0.1-0.3-0.2-0.4-0.5-0.4h-0.4v1.3h-0.9
					v-3.7h1.5c0.8,0,1.4,0.3,1.4,1.1c0,0.6-0.3,0.9-0.8,0.9v0c0.3,0.1,0.5,0.2,0.6,0.5l0.2,0.7c0,0.1,0.1,0.3,0.2,0.4H12.7z
					 M11.4,41H12c0.3,0,0.5-0.1,0.5-0.5c0-0.3-0.2-0.5-0.5-0.5h-0.6V41z"/>
			</g>
			<g id="XMLID_487_">
				<path id="XMLID_488_" fill="#344968" d="M15.1,39.3v3.7h-0.9v-3.7H15.1z"/>
			</g>
			<g id="XMLID_483_">
				<path id="XMLID_484_" fill="#344968" d="M16.1,43.1v-3.7h1.4c1,0,1.8,0.5,1.8,1.8c0,1.4-0.8,1.9-1.9,1.9H16.1z M17.4,42.3
					c0.7,0,1.1-0.3,1.1-1.1c0-0.9-0.4-1.1-1-1.1H17v2.3H17.4z"/>
			</g>
			<g id="XMLID_479_">
				<path id="XMLID_480_" fill="#344968" d="M19.8,41.2c0-1.3,0.7-2,1.8-2c1.1,0,1.8,0.7,1.8,2c0,1.3-0.7,1.9-1.8,1.9
					C20.5,43.1,19.8,42.4,19.8,41.2z M20.7,41.2c0,0.7,0.3,1.2,0.9,1.2c0.6,0,0.9-0.5,0.9-1.2c0-0.7-0.3-1.2-0.9-1.2
					C21,40,20.7,40.5,20.7,41.2z"/>
			</g>
			<g id="XMLID_476_">
				<path id="XMLID_477_" fill="#344968" d="M26.3,41.1c0.2,0.3,0.3,0.5,0.3,0.5h0c0,0,0-0.3,0-0.8v-1.5h0.9v3.7h-0.8l-1.3-1.8
					C25.1,41,25,40.7,25,40.7h0c0,0,0,0.3,0,0.8v1.5h-0.9v-3.7H25L26.3,41.1z"/>
			</g>
			<g id="XMLID_473_">
				<path id="XMLID_474_" fill="#344968" d="M30.2,39.3v3.4h1.7v0.3h-2.1v-3.7H30.2z"/>
			</g>
			<g id="XMLID_470_">
				<path id="XMLID_471_" fill="#344968" d="M32.9,40.7c0.2,0.4,0.3,0.6,0.3,0.6h0c0,0,0.1-0.2,0.3-0.6l0.7-1.4h0.3l-1.2,2.2v1.5H33
					v-1.5l-1.3-2.2h0.4L32.9,40.7z"/>
			</g>
			<g id="XMLID_466_">
				<path id="XMLID_467_" fill="#344968" d="M34.8,41.2c0-1.2,0.6-1.9,1.6-1.9S38,40,38,41.2c0,1.2-0.6,1.9-1.6,1.9
					S34.8,42.4,34.8,41.2z M35.1,41.2c0,1,0.4,1.6,1.3,1.6c0.8,0,1.3-0.6,1.3-1.6c0-1-0.5-1.6-1.3-1.6
					C35.6,39.6,35.1,40.2,35.1,41.2z"/>
			</g>
			<g id="XMLID_463_">
				<path id="XMLID_464_" fill="#344968" d="M41,41.9c0.2,0.3,0.4,0.7,0.4,0.7h0c0,0,0-0.4,0-0.8v-2.5h0.3v3.7h-0.4l-1.8-2.6
					c-0.2-0.3-0.4-0.7-0.4-0.7h0c0,0,0,0.4,0,0.8v2.5h-0.3v-3.7h0.4L41,41.9z"/>
			</g>
		</g>
		<g id="XMLID_437_">
			<g id="XMLID_457_">
				<g id="XMLID_458_">
					<path id="XMLID_459_" fill="#009999" d="M10.9,27.2c-2.6,0-4.3-1.9-4.3-4.8c0-3,1.7-4.8,4.5-4.8c1.8,0,3.1,0.8,3.8,2.4l0.1,0.2
						l-2.4,1.2L12.6,21c-0.3-0.9-0.7-1.3-1.5-1.3c-1.2,0-1.9,1-1.9,2.6c0,1.2,0.3,2.6,2,2.6c0.8,0,1.3-0.4,1.7-1.1l0.1-0.2l2.1,1.3
						l-0.1,0.2C14,26.6,12.9,27.2,10.9,27.2z M11.2,18c-2.6,0-4.1,1.6-4.1,4.4c0,2.7,1.5,4.4,3.9,4.4c1.7,0,2.7-0.5,3.5-1.8
						l-1.4-0.8c-0.4,0.8-1.1,1.2-1.9,1.2c-1.5,0-2.4-1.1-2.4-3c0-1.9,0.9-3.1,2.4-3.1c0.9,0,1.5,0.4,1.8,1.3l1.6-0.8
						C13.9,18.6,12.8,18,11.2,18z"/>
				</g>
			</g>
			<g id="XMLID_450_">
				<g id="XMLID_451_">
					<path id="XMLID_452_" fill="#009999" d="M24.3,27h-2.8l-0.1,0c-0.3-0.3-0.5-0.7-0.5-1l-0.3-1.3c-0.2-0.6-0.4-0.7-1-0.7h-0.7V27
						h-2.5v-9.3h3.7c2.3,0,3.4,1,3.4,2.9c0,1.1-0.5,1.9-1.4,2.3c0.5,0.2,0.8,0.6,0.9,1.2l0.5,1.7c0.1,0.3,0.2,0.6,0.4,0.9L24.3,27z
						 M21.6,26.6h1.8c-0.1-0.2-0.2-0.5-0.3-0.7l-0.5-1.7c-0.2-0.7-0.6-1-1.3-1.1l-0.2,0v-0.4l0.2,0c1.1-0.1,1.8-0.8,1.8-2
						c0-1.7-1-2.5-3-2.5h-3.3v8.5h1.6v-3.1h1.1c0.7,0,1.2,0.2,1.4,1l0.3,1.3C21.4,26.2,21.4,26.4,21.6,26.6z M20,22.2h-1.5v-2.7H20
						c0.9,0,1.5,0.5,1.5,1.4C21.4,21.7,21,22.2,20,22.2z M18.9,21.8H20c0.8,0,1.1-0.3,1.1-1c0-0.7-0.3-1-1.1-1h-1.1V21.8z"/>
				</g>
			</g>
			<g id="XMLID_445_">
				<g id="XMLID_446_">
					<path id="XMLID_447_" fill="#009999" d="M28,27h-2.5v-9.3H28V27z M26,26.6h1.6v-8.5H26V26.6z"/>
				</g>
			</g>
			<g id="XMLID_438_">
				<g id="XMLID_439_">
					<path id="XMLID_440_" fill="#009999" d="M33.6,27h-3.3v-9.3h3.5c2.9,0,4.5,1.6,4.5,4.5C38.3,25.3,36.7,27,33.6,27z M30.7,26.6
						h2.9c1.9,0,4.3-0.8,4.3-4.3c0-3.4-2.2-4.1-4.1-4.1h-3.1V26.6z M33.5,25.3h-1.1v-5.8h1.2c1.8,0,2.6,0.9,2.6,2.9
						C36.2,24.4,35.3,25.3,33.5,25.3z M32.8,24.9h0.7c1.6,0,2.3-0.7,2.3-2.5c0-1.8-0.6-2.5-2.2-2.5h-0.8V24.9z"/>
				</g>
			</g>
		</g>
		<g id="XMLID_373_">
			<g id="XMLID_404_">
				<path id="XMLID_434_" fill="#009999" d="M6.8,33.2c0-2.4,1.2-3.8,2.9-3.8c1.8,0,2.9,1.4,2.9,3.8c0,2.4-1.2,3.8-2.9,3.8
					C8,37,6.8,35.7,6.8,33.2z M7.5,33.2c0,2,0.8,3.2,2.3,3.2s2.3-1.2,2.3-3.2c0-2-0.8-3.2-2.3-3.2S7.5,31.2,7.5,33.2z"/>
				<path id="XMLID_405_" fill="#009999" d="M9.8,37.2c-2,0-3.2-1.5-3.2-4c0-2.5,1.2-4,3.2-4c2,0,3.2,1.5,3.2,4
					C12.9,35.7,11.8,37.2,9.8,37.2z M9.8,29.7C8.1,29.7,7,31,7,33.2c0,2.2,1,3.6,2.7,3.6c1.7,0,2.7-1.3,2.7-3.6
					C12.5,31,11.5,29.7,9.8,29.7z M9.8,36.7c-1.6,0-2.5-1.2-2.5-3.4c0-2.2,0.9-3.4,2.5-3.4c1.6,0,2.5,1.3,2.5,3.4
					C12.3,35.4,11.4,36.7,9.8,36.7z M9.8,30.2c-1.8,0-2.1,1.9-2.1,3c0,1.1,0.3,3,2.1,3c1.8,0,2.1-1.9,2.1-3
					C11.9,31.3,11.1,30.2,9.8,30.2z"/>
			</g>
			<g id="XMLID_398_">
				<path id="XMLID_402_" fill="#009999" d="M18.5,34.7c0.4,0.7,0.8,1.4,0.8,1.4h0c0,0,0-0.7,0-1.5v-4.9h0.6v7.4h-0.6l-3.2-5.1
					c-0.4-0.7-0.8-1.4-0.8-1.4h0c0,0,0,0.7,0,1.5v4.9h-0.6v-7.4h0.7L18.5,34.7z"/>
				<path id="XMLID_399_" fill="#009999" d="M20,37.1h-1l-3.3-5.2c-0.1-0.2-0.3-0.4-0.4-0.7c0,0.2,0,0.5,0,0.7v5.1h-1v-7.8h1
					l3.3,5.2c0.1,0.2,0.3,0.5,0.4,0.6c0-0.2,0-0.5,0-0.7v-5.1h1V37.1z M19.3,36.7h0.3v-6.9h-0.2v4.7c0,0.8,0,1.5,0,1.5l0,0.2h-0.3
					L19,36.1c0,0-0.3-0.7-0.7-1.3l0,0l-3.2-5h-0.3v6.9H15V32c0-0.8,0-1.5,0-1.5l0-0.2h0.4l0.1,0.1c0,0,0.3,0.7,0.7,1.3L19.3,36.7z"
					/>
			</g>
			<g id="XMLID_392_">
				<path id="XMLID_396_" fill="#009999" d="M22.7,29.6v6.8h3.2v0.6h-3.8v-7.4H22.7z"/>
				<path id="XMLID_393_" fill="#009999" d="M26.1,37.1h-4.2v-7.8h1v6.8h3.2V37.1z M22.3,36.7h3.4v-0.2h-3.2v-6.8h-0.2V36.7z"/>
			</g>
			<g id="XMLID_386_">
				<path id="XMLID_390_" fill="#009999" d="M28,29.6v7.4h-0.6v-7.4H28z"/>
				<path id="XMLID_387_" fill="#009999" d="M28.2,37.1h-1v-7.8h1V37.1z M27.6,36.7h0.2v-6.9h-0.2V36.7z"/>
			</g>
			<g id="XMLID_380_">
				<path id="XMLID_384_" fill="#009999" d="M34.2,34.7C34.6,35.4,35,36,35,36h0c0,0,0-0.7,0-1.5v-4.9h0.6v7.4h-0.6l-3.2-5.1
					c-0.4-0.7-0.8-1.4-0.8-1.4h0c0,0,0,0.7,0,1.5v4.9h-0.6v-7.4H31L34.2,34.7z"/>
				<path id="XMLID_381_" fill="#009999" d="M35.8,37.1h-1l-3.3-5.2c-0.1-0.2-0.3-0.4-0.4-0.7c0,0.2,0,0.5,0,0.7v5.1h-1v-7.8h1
					l3.3,5.2c0.1,0.2,0.3,0.5,0.4,0.6c0-0.2,0-0.5,0-0.7v-5.1h1V37.1z M35,36.7h0.3v-6.9h-0.2v4.7c0,0.8,0,1.5,0,1.5l0,0.2h-0.3
					l-0.1-0.1c0,0-0.3-0.7-0.7-1.3l0,0l-3.2-5h-0.3v6.9h0.2V32c0-0.8,0-1.5,0-1.5l0-0.2H31l0.1,0.1c0,0,0.3,0.7,0.7,1.3L35,36.7z"/>
			</g>
			<g id="XMLID_374_">
				<path id="XMLID_378_" fill="#009999" d="M41.7,36.9h-3.9v-7.4h3.9v0.6h-3.2v2.8h2.9v0.6h-2.9v2.8h3.2V36.9z"/>
				<path id="XMLID_375_" fill="#009999" d="M41.9,37.1h-4.3v-7.8h4.3v1h-3.2v2.4h2.9v1h-2.9v2.4h3.2V37.1z M38.1,36.7h3.4v-0.2
					h-3.2v-3.2h2.9v-0.2h-2.9v-3.2h3.2v-0.2h-3.4V36.7z"/>
			</g>
		</g>
		<g id="XMLID_368_">
			<g id="XMLID_369_">
				<path id="XMLID_370_" fill="#009999" d="M39,21.7v-1.1l0.2,0c0.7-0.1,0.9-0.3,1-0.5c-0.3,0-0.5-0.1-0.7-0.3
					c-0.2-0.2-0.4-0.5-0.4-0.9c0-0.7,0.5-1.2,1.3-1.2c0.8,0,1.4,0.7,1.4,1.6c0,1.5-0.9,2.4-2.6,2.4L39,21.7z M39.4,21v0.3
					c1.3-0.1,1.9-0.7,1.9-2c0-0.7-0.4-1.2-1-1.2c-0.2,0-0.9,0.1-0.9,0.8c0,0.2,0.1,0.4,0.2,0.6c0.2,0.1,0.4,0.2,0.7,0.2l0.2,0v0.2
					C40.6,20.3,40.4,20.8,39.4,21z"/>
			</g>
		</g>
	</g>
</g>
</svg>
