<?xml version="1.0" encoding="utf-8"?>
<!-- Generator: Adobe Illustrator 19.0.0, SVG Export Plug-In . SVG Version: 6.00 Build 0)  -->
<svg version="1.1" id="Calque_1" xmlns="http://www.w3.org/2000/svg" xmlns:xlink="http://www.w3.org/1999/xlink" x="0px" y="0px"
	 width="101px" height="101px" viewBox="0 0 101 101" enable-background="new 0 0 101 101" xml:space="preserve">
<g id="XMLID_568_" display="none">
	<g id="XMLID_700_" display="inline">
		<g id="XMLID_131_">
			<path id="XMLID_146_" fill="#00999D" d="M17.6,20.8c0.5-1.4,1.8-2.4,3.3-2.4c1.9,0,3.1,1.3,3.1,3.8c0,3.4-1.8,5.9-4.6,5.9
				c-1.5,0-2.6-0.9-2.7-2.2l-1.1,6.1h-1l2.4-13.5h0.9L17.6,20.8z M17,24.2c-0.3,1.5,0.5,3.1,2.4,3.1c2.2,0,3.6-2.3,3.6-5.1
				c0-1.8-0.8-2.9-2.3-2.9c-1.6,0-3,1.4-3.4,3.4L17,24.2z"/>
			<path id="XMLID_144_" fill="#00999D" d="M31.8,19.7c-0.2-0.1-0.4-0.1-0.7-0.1c-1.4,0-2.7,1.2-3,3.1L27.2,28h-1l1.6-9.4h0.9
				l-0.3,2.3c0.5-1.3,1.5-2.5,3-2.5c0.2,0,0.5,0.1,0.7,0.1L31.8,19.7z"/>
			<path id="XMLID_141_" fill="#00999D" d="M40,25.7c-0.6,1.7-1.8,2.5-3.6,2.5c-2.3,0-3.6-1.4-3.6-3.9c0-3.4,1.9-5.8,4.5-5.8
				c2.2,0,3.1,1.5,3.1,3.2c0,0.6-0.1,1.2-0.4,1.7h-6.2c0,0.3-0.1,0.5-0.1,0.8c0,1.9,0.8,3.2,2.6,3.2c1.5,0,2.3-0.7,2.6-1.9L40,25.7z
				 M34,22.5h5.3c0.1-0.2,0.1-0.6,0.1-0.9c0-1.3-0.6-2.3-2.2-2.3C35.5,19.3,34.4,20.7,34,22.5z"/>
			<path id="XMLID_139_" fill="#00999D" d="M53.4,18.4c1.3,0,2.2,0.7,2.2,2.2c0,0.3,0,0.7-0.1,1.2l-0.8,4.4c0,0.2-0.1,0.3-0.1,0.5
				c0,0.4,0.1,0.6,0.6,0.6c0.2,0,0.4,0,0.6-0.1l-0.1,0.8c-0.2,0.1-0.5,0.2-0.8,0.2c-0.9,0-1.3-0.5-1.3-1.2c0-0.2,0-0.3,0.1-0.6
				l0.8-4.5c0.1-0.4,0.1-0.7,0.1-0.9c0-0.9-0.4-1.5-1.5-1.5c-1.3,0-2.7,1.1-3.1,3.5L49,28h-1l1.1-6.2c0.1-0.4,0.1-0.7,0.1-0.9
				c0-0.9-0.4-1.5-1.5-1.5c-1.3,0-2.7,1.1-3.1,3.5L43.6,28h-1l1.6-9.4h0.9l-0.2,2.2c0.6-1.4,1.5-2.4,3.1-2.4c1.3,0,2.1,0.7,2.2,2.1
				c0,0.1,0,0.2,0,0.4C50.7,19.4,51.7,18.4,53.4,18.4z"/>
			<path id="XMLID_136_" fill="#00999D" d="M59.4,26.2c0,0.2-0.1,0.3-0.1,0.5c0,0.4,0.2,0.6,0.6,0.6c0.2,0,0.4,0,0.6-0.1l-0.2,0.8
				c-0.2,0.1-0.5,0.2-0.8,0.2c-0.9,0-1.3-0.5-1.3-1.2c0-0.2,0-0.3,0.1-0.6l1.3-7.7h1L59.4,26.2z M60.6,14.9c0.4,0,0.8,0.3,0.8,0.8
				c0,0.4-0.3,0.8-0.8,0.8s-0.8-0.3-0.8-0.8C59.9,15.3,60.2,14.9,60.6,14.9z"/>
			<path id="XMLID_134_" fill="#00999D" d="M69.7,26.2c0,0.2-0.1,0.3-0.1,0.5c0,0.4,0.2,0.6,0.6,0.6c0.2,0,0.4,0,0.6-0.1l-0.2,0.8
				c-0.2,0.1-0.5,0.2-0.8,0.2c-0.9,0-1.2-0.4-1.2-1.2c0-0.2,0-0.5,0.1-1.1c-0.5,1.4-1.6,2.3-3.2,2.3c-1.5,0-2.4-0.8-2.4-2.4
				c0-0.3,0.1-0.8,0.1-1.1l1.1-6.1h1l-1.1,6.3c-0.1,0.3-0.1,0.6-0.1,0.9c0,1,0.6,1.6,1.6,1.6c1.5,0,2.8-1.2,3.2-3.3l0.9-5.5h1
				L69.7,26.2z"/>
			<path id="XMLID_132_" fill="#00999D" d="M84.3,18.4c1.3,0,2.2,0.7,2.2,2.2c0,0.3,0,0.7-0.1,1.2l-0.8,4.4c0,0.2-0.1,0.3-0.1,0.5
				c0,0.4,0.1,0.6,0.6,0.6c0.2,0,0.4,0,0.6-0.1l-0.1,0.8c-0.2,0.1-0.5,0.2-0.8,0.2c-0.9,0-1.3-0.5-1.3-1.2c0-0.2,0-0.3,0.1-0.6
				l0.8-4.5c0.1-0.4,0.1-0.7,0.1-0.9c0-0.9-0.4-1.5-1.5-1.5c-1.3,0-2.7,1.1-3.1,3.5L79.9,28h-1l1.1-6.2c0.1-0.4,0.1-0.7,0.1-0.9
				c0-0.9-0.4-1.5-1.5-1.5c-1.3,0-2.7,1.1-3.1,3.5L74.5,28h-1l1.6-9.4H76l-0.2,2.2c0.6-1.4,1.5-2.4,3.1-2.4c1.3,0,2.1,0.7,2.2,2.1
				c0,0.1,0,0.2,0,0.4C81.6,19.4,82.6,18.4,84.3,18.4z"/>
		</g>
	</g>
	<g id="XMLID_569_" display="inline">
		<g id="XMLID_665_">
			<g id="XMLID_697_">
				<path id="XMLID_698_" fill="#344968" d="M21.9,83.2c-0.7,1.2-1.6,1.7-3.2,1.7c-2,0-3.4-1.4-3.4-3.9c0-2.5,1.4-3.9,3.7-3.9
					c1.5,0,2.5,0.7,3.1,1.9l-1.7,0.8c-0.2-0.7-0.6-1.2-1.4-1.2c-1.1,0-1.8,0.9-1.8,2.4c0,1.5,0.6,2.3,1.8,2.3c0.7,0,1.2-0.3,1.6-1.1
					L21.9,83.2z"/>
			</g>
			<g id="XMLID_693_">
				<path id="XMLID_694_" fill="#344968" d="M27.4,84.8C27.1,84.6,27,84.3,27,84l-0.3-1.1c-0.2-0.6-0.4-0.8-1-0.8h-0.7v2.6h-1.7
					v-7.5h3c1.7,0,2.7,0.6,2.7,2.3c0,1.2-0.7,1.8-1.6,1.9v0c0.7,0.1,1.1,0.4,1.2,1.1l0.4,1.4c0.1,0.3,0.2,0.5,0.4,0.8H27.4z
					 M24.9,80.7H26c0.7,0,1.1-0.3,1.1-1c0-0.6-0.4-1-1.1-1h-1.1V80.7z"/>
			</g>
			<g id="XMLID_690_">
				<path id="XMLID_691_" fill="#344968" d="M32.3,77.3v7.5h-1.7v-7.5H32.3z"/>
			</g>
			<g id="XMLID_686_">
				<path id="XMLID_687_" fill="#344968" d="M34.3,84.8v-7.5H37c2.1,0,3.6,1,3.6,3.7c0,2.8-1.6,3.8-3.8,3.8H34.3z M36.8,83.3
					c1.3,0,2.1-0.6,2.1-2.3c0-1.8-0.8-2.3-2-2.3H36v4.6H36.8z"/>
			</g>
			<g id="XMLID_682_">
				<path id="XMLID_683_" fill="#344968" d="M41.7,81c0-2.5,1.3-3.9,3.5-3.9s3.6,1.4,3.6,3.9c0,2.5-1.3,3.9-3.6,3.9
					S41.7,83.5,41.7,81z M43.5,81.1c0,1.5,0.6,2.4,1.8,2.4c1.2,0,1.8-0.9,1.8-2.4c0-1.5-0.6-2.4-1.8-2.4
					C44.1,78.7,43.5,79.6,43.5,81.1z"/>
			</g>
			<g id="XMLID_679_">
				<path id="XMLID_680_" fill="#344968" d="M54.6,80.9c0.4,0.6,0.6,1,0.6,1h0.1c0,0,0-0.6,0-1.6v-3H57v7.5h-1.6l-2.6-3.6
					c-0.5-0.6-0.7-1.1-0.7-1.1H52c0,0,0.1,0.6,0.1,1.7v3h-1.7v-7.5H52L54.6,80.9z"/>
			</g>
			<g id="XMLID_676_">
				<path id="XMLID_677_" fill="#344968" d="M62.4,77.3v6.9h3.5v0.6h-4.2v-7.5H62.4z"/>
			</g>
			<g id="XMLID_673_">
				<path id="XMLID_674_" fill="#344968" d="M67.8,80c0.5,0.8,0.6,1.2,0.6,1.2h0c0,0,0.1-0.3,0.6-1.2l1.4-2.7h0.7l-2.4,4.5v3h-0.7
					v-3l-2.5-4.5h0.8L67.8,80z"/>
			</g>
			<g id="XMLID_669_">
				<path id="XMLID_670_" fill="#344968" d="M71.6,81c0-2.5,1.3-3.9,3.3-3.9c2,0,3.3,1.4,3.3,3.9c0,2.5-1.3,3.9-3.3,3.9
					C72.9,84.9,71.6,83.5,71.6,81z M72.3,81c0,2,0.9,3.3,2.6,3.3c1.7,0,2.6-1.2,2.6-3.3c0-2-0.9-3.3-2.6-3.3
					C73.2,77.7,72.3,79,72.3,81z"/>
			</g>
			<g id="XMLID_666_">
				<path id="XMLID_667_" fill="#344968" d="M84.1,82.5c0.5,0.7,0.8,1.4,0.8,1.4h0c0,0,0-0.7,0-1.6v-5h0.7v7.5h-0.7l-3.6-5.2
					c-0.5-0.7-0.8-1.4-0.8-1.4h-0.1c0,0,0.1,0.7,0.1,1.6v5h-0.7v-7.5h0.7L84.1,82.5z"/>
			</g>
		</g>
		<g id="XMLID_640_">
			<g id="XMLID_660_">
				<g id="XMLID_661_">
					<path id="XMLID_662_" fill="#009999" d="M23.9,53c-5.3,0-8.6-3.7-8.6-9.7c0-6,3.4-9.6,9.1-9.6c3.6,0,6.2,1.6,7.6,4.7l0.2,0.4
						l-4.7,2.3l-0.1-0.5c-0.5-1.8-1.5-2.5-3-2.5c-2.4,0-3.9,2-3.9,5.3c0,2.3,0.7,5.1,4,5.1c1.5,0,2.6-0.8,3.3-2.3l0.2-0.4l4.2,2.5
						l-0.2,0.4C30.1,51.8,27.8,53,23.9,53z M24.4,34.5c-5.3,0-8.3,3.2-8.3,8.8c0,5.5,3,8.9,7.7,8.9c3.5,0,5.5-1,7.1-3.5L28.2,47
						c-0.8,1.5-2.2,2.4-3.9,2.4c-3.1,0-4.8-2.1-4.8-6c0-3.8,1.8-6.1,4.7-6.1c1.8,0,3,0.8,3.7,2.6l3.2-1.5
						C29.8,35.8,27.6,34.5,24.4,34.5z"/>
				</g>
			</g>
			<g id="XMLID_653_">
				<g id="XMLID_654_">
					<path id="XMLID_655_" fill="#009999" d="M50.7,52.7H45l-0.1-0.1c-0.7-0.5-0.9-1.3-1.1-2.1l-0.7-2.7c-0.3-1.3-0.8-1.5-2-1.5
						h-1.3v6.3h-4.9V34.1h7.4c4.6,0,6.9,1.9,6.9,5.8c0,2.2-1,3.8-2.8,4.5c1,0.5,1.5,1.2,1.9,2.5l0.9,3.3c0.2,0.6,0.4,1.2,0.9,1.7
						L50.7,52.7z M45.3,51.8h3.6c-0.3-0.5-0.4-0.9-0.6-1.4l-0.9-3.3c-0.4-1.4-1.1-2-2.6-2.3l-0.3-0.1v-0.7l0.4-0.1
						c2.3-0.2,3.5-1.7,3.5-4.1c0-3.4-1.9-5-6-5h-6.6v17H39v-6.3h2.2c1.5,0,2.4,0.3,2.8,2.1l0.7,2.7C44.8,51,44.9,51.5,45.3,51.8z
						 M42,43h-3v-5.5h3c1.9,0,2.9,1,2.9,2.7C44.9,42.1,44,43,42,43z M39.8,42.2H42c1.5,0,2.1-0.6,2.1-1.9c0-1.3-0.7-1.9-2.1-1.9
						h-2.2V42.2z"/>
				</g>
			</g>
			<g id="XMLID_648_">
				<g id="XMLID_649_">
					<path id="XMLID_650_" fill="#009999" d="M58.1,52.7h-4.9V34.1h4.9V52.7z M54,51.8h3.3v-17H54V51.8z"/>
				</g>
			</g>
			<g id="XMLID_641_">
				<g id="XMLID_642_">
					<path id="XMLID_643_" fill="#009999" d="M69.4,52.7h-6.7V34.1h7c5.9,0,9.1,3.2,9.1,9.1C78.7,49.3,75.4,52.7,69.4,52.7z
						 M63.5,51.8h5.9c3.9,0,8.5-1.5,8.5-8.7c0-6.8-4.5-8.3-8.2-8.3h-6.1V51.8z M69,49.2h-2.2V37.5h2.4c3.6,0,5.2,1.9,5.2,5.9
						C74.4,47.4,72.7,49.2,69,49.2z M67.6,48.4H69c3.2,0,4.6-1.5,4.6-5c0-3.6-1.3-5-4.4-5h-1.6V48.4z"/>
				</g>
			</g>
		</g>
		<g id="XMLID_575_">
			<g id="XMLID_631_">
				<path id="XMLID_637_" fill="#009999" d="M15.7,65.1c0-4.9,2.3-7.6,5.9-7.6c3.6,0,5.9,2.7,5.9,7.6s-2.3,7.6-5.9,7.6
					C18,72.7,15.7,70,15.7,65.1z M17,65.1c0,4,1.6,6.4,4.6,6.4s4.7-2.4,4.7-6.4c0-4-1.6-6.4-4.7-6.4S17,61.1,17,65.1z"/>
				<path id="XMLID_632_" fill="#009999" d="M21.6,73.1c-4,0-6.3-3-6.3-8c0-5,2.4-8,6.3-8c4,0,6.3,3,6.3,8
					C27.9,70.1,25.6,73.1,21.6,73.1z M21.6,57.9c-3.4,0-5.5,2.7-5.5,7.2c0,4.5,2.1,7.2,5.5,7.2c3.4,0,5.5-2.7,5.5-7.2
					C27.1,60.6,25,57.9,21.6,57.9z M21.6,72c-3.2,0-5-2.5-5-6.8c0-4.4,1.8-6.9,5-6.9c3.2,0,5.1,2.6,5.1,6.9
					C26.7,69.5,24.8,72,21.6,72z M21.6,59.1c-3.7,0-4.2,3.8-4.2,6c0,2.2,0.5,6,4.2,6c3.7,0,4.2-3.8,4.2-6
					C25.9,61.3,24.3,59.1,21.6,59.1z"/>
			</g>
			<g id="XMLID_625_">
				<path id="XMLID_629_" fill="#009999" d="M39,68c0.9,1.4,1.5,2.7,1.5,2.7h0.1c0,0-0.1-1.5-0.1-3.1v-9.9h1.2v14.7h-1.3l-6.5-10.2
					c-0.9-1.3-1.5-2.7-1.5-2.7h-0.1c0,0,0.1,1.4,0.1,3.1v9.9h-1.2V57.7h1.3L39,68z"/>
				<path id="XMLID_626_" fill="#009999" d="M42.1,72.9h-1.9l-6.6-10.4c-0.3-0.4-0.6-0.9-0.8-1.3c0,0.4,0,0.9,0,1.5v10.3h-2V57.3h2
					l6.6,10.4c0.3,0.5,0.6,0.9,0.8,1.3c0-0.4,0-0.9,0-1.5V57.3h2V72.9z M40.6,72.1h0.7V58.2h-0.4v9.5c0,1.6,0.1,3.1,0.1,3.1l0,0.4
					h-0.7l-0.2-0.2c0,0-0.6-1.3-1.5-2.7l0,0l-6.3-10.1h-0.7v13.9H32v-9.5c0-1.6-0.1-3.1-0.1-3.1l0-0.4h0.8l0.1,0.2
					c0,0,0.7,1.4,1.5,2.7L40.6,72.1z"/>
			</g>
			<g id="XMLID_619_">
				<path id="XMLID_623_" fill="#009999" d="M47.5,57.7v13.6h6.3v1.2h-7.5V57.7H47.5z"/>
				<path id="XMLID_620_" fill="#009999" d="M54.2,72.9h-8.4V57.3h2v13.6h6.3V72.9z M46.7,72.1h6.7v-0.3h-6.3V58.2h-0.4V72.1z"/>
			</g>
			<g id="XMLID_613_">
				<path id="XMLID_617_" fill="#009999" d="M58.1,57.7v14.7h-1.2V57.7H58.1z"/>
				<path id="XMLID_614_" fill="#009999" d="M58.5,72.9h-2V57.3h2V72.9z M57.3,72.1h0.4V58.2h-0.4V72.1z"/>
			</g>
			<g id="XMLID_582_">
				<path id="XMLID_586_" fill="#009999" d="M70.5,68c0.9,1.4,1.5,2.7,1.5,2.7h0.1c0,0-0.1-1.5-0.1-3.1v-9.9h1.2v14.7h-1.3
					l-6.5-10.2c-0.9-1.3-1.5-2.7-1.5-2.7h-0.1c0,0,0.1,1.4,0.1,3.1v9.9h-1.2V57.7H64L70.5,68z"/>
				<path id="XMLID_583_" fill="#009999" d="M73.6,72.9h-1.9l-6.6-10.4c-0.3-0.4-0.6-0.9-0.8-1.3c0,0.4,0,0.9,0,1.5v10.3h-2V57.3h2
					l6.6,10.4c0.3,0.5,0.6,0.9,0.8,1.3c0-0.4,0-0.9,0-1.5V57.3h2V72.9z M72.1,72.1h0.6V58.2h-0.4v9.5c0,1.6,0.1,3.1,0.1,3.1l0,0.4
					h-0.7l-0.2-0.2c0,0-0.6-1.3-1.5-2.7l0,0l-6.3-10.1h-0.7v13.9h0.4v-9.5c0-1.6-0.1-3.1-0.1-3.1l0-0.4h0.8l0.1,0.2
					c0,0,0.7,1.4,1.5,2.7L72.1,72.1z"/>
			</g>
			<g id="XMLID_576_">
				<path id="XMLID_580_" fill="#009999" d="M85.5,72.5h-7.7V57.7h7.7v1.2H79v5.6h5.8v1.2H79v5.6h6.5V72.5z"/>
				<path id="XMLID_577_" fill="#009999" d="M85.9,72.9h-8.5V57.3h8.5v2h-6.5v4.8h5.8v2h-5.8v4.8h6.5V72.9z M78.2,72.1h6.9v-0.3
					h-6.5v-6.5h5.8v-0.3h-5.8v-6.5h6.5v-0.3h-6.9V72.1z"/>
			</g>
		</g>
		<g id="XMLID_570_">
			<g id="XMLID_571_">
				<path id="XMLID_572_" fill="#009999" d="M80,42v-2.2l0.4,0c1.4-0.1,1.8-0.6,2-1c-0.6,0-1.1-0.2-1.5-0.6c-0.5-0.4-0.7-1-0.7-1.7
					c0-1.4,1-2.4,2.6-2.4c1.7,0,2.8,1.3,2.8,3.2c0,3-1.8,4.7-5.1,4.8L80,42z M80.8,40.6v0.6c2.6-0.1,3.9-1.5,3.9-3.9
					c0-1.4-0.8-2.3-2-2.3c-0.4,0-1.7,0.1-1.7,1.6c0,0.5,0.2,0.9,0.5,1.1c0.3,0.3,0.8,0.4,1.3,0.3l0.5-0.1v0.5
					C83.2,39.2,82.8,40.3,80.8,40.6z"/>
			</g>
		</g>
	</g>
</g>
<rect id="XMLID_1_" x="0.5" y="0.5" fill="none" stroke="#E6E6E6" stroke-miterlimit="10" width="100" height="100"/>
<g id="XMLID_737_" display="none">
	<g id="XMLID_763_" display="inline">
		<g id="XMLID_834_">
			<g id="XMLID_866_">
				<path id="XMLID_867_" fill="#344968" d="M15,84.1c-0.7,1.1-1.5,1.7-3.2,1.7c-2,0-3.4-1.4-3.4-3.9c0-2.5,1.4-3.9,3.6-3.9
					c1.5,0,2.5,0.7,3,1.9l-1.7,0.8c-0.2-0.7-0.6-1.2-1.4-1.2c-1.1,0-1.8,0.9-1.8,2.4c0,1.5,0.6,2.3,1.8,2.3c0.7,0,1.2-0.3,1.6-1.1
					L15,84.1z"/>
			</g>
			<g id="XMLID_862_">
				<path id="XMLID_863_" fill="#344968" d="M20.4,85.6c-0.2-0.2-0.3-0.5-0.4-0.8l-0.3-1.1c-0.2-0.6-0.4-0.7-1-0.7H18v2.6h-1.7v-7.4
					h2.9c1.7,0,2.7,0.6,2.7,2.3c0,1.1-0.7,1.8-1.6,1.9v0c0.7,0.1,1,0.4,1.2,1.1l0.4,1.4c0.1,0.3,0.2,0.5,0.4,0.8H20.4z M18,81.6h1.1
					c0.7,0,1.1-0.3,1.1-1c0-0.6-0.4-1-1.1-1H18V81.6z"/>
			</g>
			<g id="XMLID_859_">
				<path id="XMLID_860_" fill="#344968" d="M25.3,78.2v7.4h-1.7v-7.4H25.3z"/>
			</g>
			<g id="XMLID_855_">
				<path id="XMLID_856_" fill="#344968" d="M27.3,85.6v-7.4H30c2.1,0,3.6,1,3.6,3.6c0,2.8-1.6,3.8-3.7,3.8H27.3z M29.7,84.2
					c1.3,0,2.1-0.6,2.1-2.2c0-1.8-0.8-2.3-2-2.3H29v4.5H29.7z"/>
			</g>
			<g id="XMLID_851_">
				<path id="XMLID_852_" fill="#344968" d="M34.7,81.9c0-2.5,1.3-3.9,3.5-3.9c2.2,0,3.5,1.4,3.5,3.9c0,2.5-1.3,3.9-3.5,3.9
					C36,85.8,34.7,84.4,34.7,81.9z M36.4,81.9c0,1.5,0.6,2.4,1.7,2.4s1.8-0.9,1.8-2.4c0-1.5-0.6-2.4-1.8-2.4
					C37,79.6,36.4,80.5,36.4,81.9z"/>
			</g>
			<g id="XMLID_848_">
				<path id="XMLID_849_" fill="#344968" d="M47.4,81.8c0.4,0.6,0.6,1,0.6,1h0.1c0,0,0-0.6,0-1.6v-3h1.7v7.4h-1.6l-2.6-3.5
					c-0.5-0.6-0.7-1.1-0.7-1.1h-0.1c0,0,0.1,0.6,0.1,1.7v3h-1.7v-7.4h1.6L47.4,81.8z"/>
			</g>
			<g id="XMLID_845_">
				<path id="XMLID_846_" fill="#344968" d="M55.1,78.2V85h3.5v0.6h-4.1v-7.4H55.1z"/>
			</g>
			<g id="XMLID_842_">
				<path id="XMLID_843_" fill="#344968" d="M60.6,80.9c0.5,0.8,0.6,1.2,0.6,1.2h0c0,0,0.1-0.3,0.6-1.2l1.4-2.7h0.7l-2.4,4.5v3h-0.7
					v-3l-2.5-4.5h0.8L60.6,80.9z"/>
			</g>
			<g id="XMLID_838_">
				<path id="XMLID_839_" fill="#344968" d="M64.3,81.9c0-2.5,1.3-3.8,3.2-3.8c2,0,3.2,1.4,3.2,3.8s-1.3,3.8-3.2,3.8
					C65.6,85.7,64.3,84.4,64.3,81.9z M65,81.9c0,2,0.9,3.2,2.5,3.2c1.7,0,2.5-1.2,2.5-3.2s-0.9-3.3-2.5-3.3
					C65.9,78.7,65,79.9,65,81.9z"/>
			</g>
			<g id="XMLID_835_">
				<path id="XMLID_836_" fill="#344968" d="M76.7,83.4c0.5,0.7,0.8,1.4,0.8,1.4h0c0,0,0-0.7,0-1.6v-5h0.7v7.4h-0.7L74,80.5
					c-0.5-0.7-0.8-1.4-0.8-1.4h-0.1c0,0,0.1,0.7,0.1,1.6v5h-0.7v-7.4h0.7L76.7,83.4z"/>
			</g>
		</g>
		<g id="XMLID_809_">
			<g id="XMLID_829_">
				<g id="XMLID_830_">
					<path id="XMLID_831_" fill="#009999" d="M17,54.1c-5.2,0-8.5-3.7-8.5-9.6c0-6,3.4-9.6,9-9.6c3.6,0,6.1,1.6,7.6,4.7l0.2,0.4
						l-4.7,2.3l-0.1-0.5c-0.5-1.7-1.4-2.5-3-2.5c-2.4,0-3.9,2-3.9,5.2c0,2.3,0.7,5.1,3.9,5.1c1.5,0,2.6-0.8,3.3-2.3l0.2-0.4l4.2,2.5
						l-0.2,0.3C23.1,52.9,20.8,54.1,17,54.1z M17.5,35.8c-5.2,0-8.2,3.2-8.2,8.8c0,5.4,2.9,8.8,7.7,8.8c3.4,0,5.4-1,7-3.5l-2.7-1.6
						c-0.8,1.5-2.2,2.3-3.9,2.3c-3.1,0-4.8-2.1-4.8-5.9c0-3.7,1.8-6.1,4.7-6.1c1.8,0,3,0.8,3.7,2.6l3.1-1.5
						C22.8,37,20.6,35.8,17.5,35.8z"/>
				</g>
			</g>
			<g id="XMLID_822_">
				<g id="XMLID_823_">
					<path id="XMLID_824_" fill="#009999" d="M43.5,53.8h-5.6l-0.1-0.1c-0.7-0.5-0.9-1.3-1.1-2.1L36,49c-0.3-1.2-0.8-1.5-2-1.5h-1.3
						v6.2h-4.9V35.3h7.4c4.6,0,6.8,1.9,6.8,5.8c0,2.2-1,3.8-2.8,4.5c0.9,0.5,1.5,1.2,1.9,2.5l0.9,3.3c0.2,0.6,0.4,1.2,0.9,1.7
						L43.5,53.8z M38.2,53h3.5c-0.3-0.5-0.4-0.9-0.6-1.4l-0.9-3.3c-0.4-1.4-1.1-2-2.6-2.3L37.3,46v-0.7l0.4-0.1
						c2.3-0.2,3.5-1.7,3.5-4c0-3.4-1.9-5-6-5h-6.5V53h3.3v-6.2h2.1c1.5,0,2.4,0.3,2.8,2.1l0.7,2.6C37.7,52.1,37.8,52.6,38.2,53z
						 M34.9,44.2h-3v-5.4h3c1.9,0,2.9,1,2.9,2.7C37.8,43.3,36.9,44.2,34.9,44.2z M32.7,43.4h2.2c1.5,0,2.1-0.5,2.1-1.9
						c0-1.3-0.7-1.9-2.1-1.9h-2.2V43.4z"/>
				</g>
			</g>
			<g id="XMLID_817_">
				<g id="XMLID_818_">
					<path id="XMLID_819_" fill="#009999" d="M50.9,53.8H46V35.3h4.9V53.8z M46.8,53h3.3V36.1h-3.3V53z"/>
				</g>
			</g>
			<g id="XMLID_810_">
				<g id="XMLID_811_">
					<path id="XMLID_812_" fill="#009999" d="M62.1,53.8h-6.6V35.3h6.9c5.8,0,9,3.2,9,9C71.4,50.4,68.1,53.8,62.1,53.8z M56.3,53
						h5.8c3.9,0,8.5-1.5,8.5-8.6c0-6.8-4.5-8.2-8.2-8.2h-6.1V53z M61.7,50.3h-2.2V38.8h2.4c3.5,0,5.2,1.9,5.2,5.8
						C67.1,48.5,65.4,50.3,61.7,50.3z M60.3,49.5h1.4c3.2,0,4.6-1.5,4.6-4.9c0-3.6-1.3-5-4.4-5h-1.6V49.5z"/>
				</g>
			</g>
		</g>
		<g id="XMLID_769_">
			<g id="XMLID_800_">
				<path id="XMLID_806_" fill="#009999" d="M8.8,66.1c0-4.8,2.3-7.5,5.9-7.5c3.6,0,5.9,2.7,5.9,7.5c0,4.8-2.3,7.5-5.9,7.5
					C11.1,73.7,8.8,71,8.8,66.1z M10.1,66.1c0,4,1.6,6.4,4.6,6.4s4.6-2.4,4.6-6.4c0-4-1.6-6.4-4.6-6.4S10.1,62.2,10.1,66.1z"/>
				<path id="XMLID_801_" fill="#009999" d="M14.7,74.1c-3.9,0-6.3-3-6.3-7.9c0-5,2.3-7.9,6.3-7.9c3.9,0,6.3,3,6.3,7.9
					C21,71.1,18.6,74.1,14.7,74.1z M14.7,59c-3.4,0-5.4,2.7-5.4,7.1c0,4.4,2,7.1,5.4,7.1c3.4,0,5.4-2.7,5.4-7.1
					C20.1,61.7,18.1,59,14.7,59z M14.7,72.9c-3.2,0-5-2.5-5-6.8c0-4.3,1.8-6.8,5-6.8c3.1,0,5,2.5,5,6.8
					C19.7,70.4,17.9,72.9,14.7,72.9z M14.7,60.1c-3.6,0-4.2,3.8-4.2,6c0,2.2,0.5,6,4.2,6c3.7,0,4.2-3.7,4.2-6
					C18.9,62.3,17.4,60.1,14.7,60.1z"/>
			</g>
			<g id="XMLID_794_">
				<path id="XMLID_798_" fill="#009999" d="M31.9,69c0.9,1.4,1.5,2.7,1.5,2.7h0.1c0,0-0.1-1.4-0.1-3.1v-9.8h1.2v14.6h-1.3
					l-6.4-10.2c-0.8-1.3-1.5-2.7-1.5-2.7h-0.1c0,0,0.1,1.4,0.1,3.1v9.8h-1.2V58.8h1.3L31.9,69z"/>
				<path id="XMLID_795_" fill="#009999" d="M35,73.8h-1.9l-6.5-10.4c-0.3-0.4-0.5-0.9-0.8-1.3c0,0.4,0,0.9,0,1.4v10.2h-2V58.4h1.9
					l6.5,10.4c0.3,0.4,0.5,0.9,0.8,1.3c0-0.4,0-0.9,0-1.4V58.4h2V73.8z M33.6,73h0.6V59.2h-0.4v9.4c0,1.6,0.1,3,0.1,3.1l0,0.4h-0.7
					L33,71.9c0,0-0.6-1.3-1.5-2.7l0,0l-6.3-10h-0.7V73H25v-9.4c0-1.6-0.1-3-0.1-3l0-0.4h0.8l0.1,0.2c0,0,0.7,1.4,1.5,2.7L33.6,73z"
					/>
			</g>
			<g id="XMLID_788_">
				<path id="XMLID_792_" fill="#009999" d="M40.4,58.8v13.5h6.3v1.1h-7.5V58.8H40.4z"/>
				<path id="XMLID_789_" fill="#009999" d="M47,73.8h-8.3V58.4h2v13.5H47V73.8z M39.6,73h6.7v-0.3H40V59.2h-0.4V73z"/>
			</g>
			<g id="XMLID_782_">
				<path id="XMLID_786_" fill="#009999" d="M50.9,58.8v14.6h-1.2V58.8H50.9z"/>
				<path id="XMLID_783_" fill="#009999" d="M51.3,73.8h-2V58.4h2V73.8z M50.1,73h0.4V59.2h-0.4V73z"/>
			</g>
			<g id="XMLID_776_">
				<path id="XMLID_780_" fill="#009999" d="M63.2,69c0.9,1.4,1.5,2.7,1.5,2.7h0.1c0,0-0.1-1.4-0.1-3.1v-9.8h1.2v14.6h-1.3
					l-6.4-10.2c-0.8-1.3-1.5-2.7-1.5-2.7h-0.1c0,0,0.1,1.4,0.1,3.1v9.8h-1.2V58.8h1.3L63.2,69z"/>
				<path id="XMLID_777_" fill="#009999" d="M66.3,73.8h-1.9l-6.5-10.4c-0.3-0.4-0.5-0.9-0.8-1.3c0,0.4,0,0.9,0,1.4v10.2h-2V58.4H57
					l6.5,10.4c0.3,0.4,0.5,0.9,0.8,1.3c0-0.4,0-0.9,0-1.4V58.4h2V73.8z M64.8,73h0.6V59.2h-0.4v9.4c0,1.6,0.1,3,0.1,3.1l0,0.4h-0.7
					l-0.2-0.2c0,0-0.6-1.3-1.5-2.7l0,0l-6.3-10h-0.7V73h0.4v-9.4c0-1.6-0.1-3-0.1-3l0-0.4h0.8l0.1,0.2c0,0,0.7,1.4,1.5,2.7L64.8,73z
					"/>
			</g>
			<g id="XMLID_770_">
				<path id="XMLID_774_" fill="#009999" d="M78.1,73.4h-7.7V58.8h7.7V60h-6.4v5.6h5.7v1.1h-5.7v5.6h6.4V73.4z"/>
				<path id="XMLID_771_" fill="#009999" d="M78.5,73.8H70V58.4h8.5v2H72v4.8h5.7v2H72v4.8h6.4V73.8z M70.8,73h6.8v-0.3h-6.4v-6.4
					H77v-0.3h-5.7v-6.4h6.4v-0.3h-6.8V73z"/>
			</g>
		</g>
		<g id="XMLID_764_">
			<g id="XMLID_765_">
				<path id="XMLID_766_" fill="#009999" d="M72.6,43.2V41l0.4,0c1.4-0.1,1.8-0.6,2-1c-0.6,0-1.1-0.2-1.5-0.5
					c-0.5-0.4-0.7-1-0.7-1.7c0-1.4,1-2.4,2.5-2.4c1.7,0,2.8,1.3,2.8,3.1c0,3-1.8,4.7-5.1,4.7L72.6,43.2z M73.4,41.8v0.6
					c2.6-0.1,3.9-1.5,3.9-3.9c0-1.4-0.8-2.3-2-2.3c-0.4,0-1.7,0.1-1.7,1.5c0,0.5,0.2,0.8,0.5,1.1c0.3,0.3,0.8,0.4,1.3,0.3l0.5-0.1
					v0.5C75.8,40.4,75.4,41.5,73.4,41.8z"/>
			</g>
		</g>
	</g>
	<g id="XMLID_738_" display="inline">
		<path id="XMLID_760_" fill="#FAB612" d="M16.1,27c-0.6,1.7-1.8,2.5-3.5,2.5C10.3,29.4,9,28,9,25.5c0-3.4,1.9-5.8,4.5-5.8
			c2.2,0,3.1,1.5,3.1,3.2c0,0.6-0.1,1.2-0.4,1.7H10c0,0.3-0.1,0.5-0.1,0.8c0,1.9,0.8,3.1,2.6,3.1c1.5,0,2.2-0.7,2.6-1.9L16.1,27z
			 M10.1,23.8h5.3c0.1-0.2,0.1-0.6,0.1-0.9c0-1.3-0.6-2.3-2.1-2.3C11.6,20.6,10.5,22.1,10.1,23.8z"/>
		<path id="XMLID_758_" fill="#FAB612" d="M22.5,26.5c-0.5-1-0.5-1.3-0.5-1.3h-0.1c0,0-0.1,0.2-1,1.3l-2.4,2.7h-1.2l4.1-4.7
			l-2.2-4.6h1.1l1.2,2.5c0.5,1.1,0.5,1.3,0.5,1.3h0.1c0,0,0.1-0.2,1-1.3l2.2-2.6h1.2l-3.9,4.6l2.3,4.7h-1.1L22.5,26.5z"/>
		<path id="XMLID_756_" fill="#FAB612" d="M30.8,28.6c1.6,0,2.3-0.9,2.6-2l0.9,0.2c-0.5,1.6-1.7,2.6-3.7,2.6c-2.1,0-3.4-1.4-3.4-3.9
			c0-2.9,1.5-5.8,4.5-5.8c2.1,0,2.9,1.2,2.9,3l-0.9,0.2c0-1.3-0.6-2.3-2.1-2.3c-2.3,0-3.4,2.5-3.4,4.8
			C28.2,27.5,29.1,28.6,30.8,28.6z"/>
		<path id="XMLID_753_" fill="#FAB612" d="M43.6,27c-0.6,1.7-1.8,2.5-3.5,2.5c-2.3,0-3.5-1.4-3.5-3.9c0-3.4,1.9-5.8,4.5-5.8
			c2.2,0,3.1,1.5,3.1,3.2c0,0.6-0.1,1.2-0.4,1.7h-6.1c0,0.3-0.1,0.5-0.1,0.8c0,1.9,0.8,3.1,2.6,3.1c1.5,0,2.2-0.7,2.6-1.9L43.6,27z
			 M37.7,23.8H43c0.1-0.2,0.1-0.6,0.1-0.9c0-1.3-0.6-2.3-2.1-2.3C39.2,20.6,38.1,22.1,37.7,23.8z"/>
		<path id="XMLID_751_" fill="#FAB612" d="M47.4,27.4c0,0.2-0.1,0.3-0.1,0.5c0,0.4,0.2,0.6,0.6,0.6c0.2,0,0.4,0,0.6-0.1l-0.2,0.8
			c-0.2,0.1-0.5,0.2-0.8,0.2c-0.9,0-1.2-0.5-1.2-1.2c0-0.2,0-0.3,0.1-0.6l2-11.8h1L47.4,27.4z"/>
		<path id="XMLID_749_" fill="#FAB612" d="M52.2,27.4c0,0.2-0.1,0.3-0.1,0.5c0,0.4,0.2,0.6,0.6,0.6c0.2,0,0.4,0,0.6-0.1l-0.2,0.8
			c-0.2,0.1-0.5,0.2-0.8,0.2c-0.9,0-1.2-0.5-1.2-1.2c0-0.2,0-0.3,0.1-0.6l2-11.8h1L52.2,27.4z"/>
		<path id="XMLID_746_" fill="#FAB612" d="M62.9,27c-0.6,1.7-1.8,2.5-3.5,2.5c-2.3,0-3.5-1.4-3.5-3.9c0-3.4,1.9-5.8,4.5-5.8
			c2.2,0,3.1,1.5,3.1,3.2c0,0.6-0.1,1.2-0.4,1.7h-6.1c0,0.3-0.1,0.5-0.1,0.8c0,1.9,0.8,3.1,2.6,3.1c1.5,0,2.2-0.7,2.6-1.9L62.9,27z
			 M57,23.8h5.3c0.1-0.2,0.1-0.6,0.1-0.9c0-1.3-0.6-2.3-2.1-2.3C58.5,20.6,57.4,22.1,57,23.8z"/>
		<path id="XMLID_744_" fill="#FAB612" d="M72.2,23.1c0.1-0.4,0.1-0.7,0.1-0.9c0-0.9-0.5-1.5-1.6-1.5c-1.4,0-2.9,1.1-3.3,3.5
			l-0.9,5.1h-1l1.6-9.3H68l-0.2,2.2c0.6-1.4,1.7-2.4,3.2-2.4c1.4,0,2.4,0.7,2.4,2.2c0,0.3,0,0.7-0.1,1.1l-0.8,4.4
			c0,0.2-0.1,0.3-0.1,0.5c0,0.4,0.2,0.6,0.6,0.6c0.2,0,0.4,0,0.6-0.1l-0.1,0.8c-0.2,0.1-0.5,0.2-0.8,0.2c-0.9,0-1.2-0.5-1.2-1.2
			c0-0.2,0-0.3,0.1-0.6L72.2,23.1z"/>
		<path id="XMLID_742_" fill="#FAB612" d="M79.5,28.6c1.6,0,2.3-0.9,2.6-2l0.9,0.2c-0.5,1.6-1.7,2.6-3.7,2.6c-2.1,0-3.4-1.4-3.4-3.9
			c0-2.9,1.5-5.8,4.5-5.8c2.1,0,2.9,1.2,2.9,3l-0.9,0.2c0-1.3-0.6-2.3-2.1-2.3c-2.3,0-3.4,2.5-3.4,4.8
			C76.9,27.5,77.8,28.6,79.5,28.6z"/>
		<path id="XMLID_739_" fill="#FAB612" d="M92.3,27c-0.6,1.7-1.8,2.5-3.5,2.5c-2.3,0-3.5-1.4-3.5-3.9c0-3.4,1.9-5.8,4.5-5.8
			c2.2,0,3.1,1.5,3.1,3.2c0,0.6-0.1,1.2-0.4,1.7h-6.1c0,0.3-0.1,0.5-0.1,0.8c0,1.9,0.8,3.1,2.6,3.1c1.5,0,2.2-0.7,2.6-1.9L92.3,27z
			 M86.4,23.8h5.3c0.1-0.2,0.1-0.6,0.1-0.9c0-1.3-0.6-2.3-2.1-2.3C87.9,20.6,86.8,22.1,86.4,23.8z"/>
	</g>
</g>
<g id="XMLID_366_">
	<g id="XMLID_497_">
		<g id="XMLID_199_">
			<path id="XMLID_222_" fill="#37486B" d="M18.6,20.9c-0.2-0.1-0.4-0.1-0.7-0.1c-1.4,0-2.6,1.2-3,3.1l-0.9,5.3h-1l1.6-9.3h0.9
				l-0.3,2.3c0.5-1.3,1.5-2.5,3-2.5c0.2,0,0.5,0.1,0.7,0.1L18.6,20.9z"/>
			<path id="XMLID_218_" fill="#37486B" d="M26.7,26.8c-0.6,1.7-1.8,2.5-3.5,2.5c-2.3,0-3.5-1.4-3.5-3.9c0-3.4,1.9-5.8,4.4-5.8
				c2.2,0,3.1,1.5,3.1,3.2c0,0.6-0.1,1.2-0.4,1.7h-6.1c0,0.3-0.1,0.5-0.1,0.8c0,1.9,0.8,3.1,2.6,3.1c1.5,0,2.2-0.7,2.6-1.9
				L26.7,26.8z M20.8,23.6H26c0.1-0.2,0.1-0.6,0.1-0.9c0-1.3-0.6-2.3-2.1-2.3C22.2,20.4,21.2,21.9,20.8,23.6z M23.7,18.4l1.6-2.7
				h1.4l-2.2,2.7H23.7z"/>
			<path id="XMLID_216_" fill="#37486B" d="M30.8,20.6h-1.4l0.2-0.8H31l0.3-1.4c0.4-2.2,1.4-2.9,2.8-2.9c0.8,0,1.4,0.2,1.9,0.7
				L35.5,17c-0.4-0.4-0.8-0.6-1.4-0.6c-0.9,0-1.6,0.4-1.9,2L32,19.8h2.3l-0.1,0.8h-2.4L30,31.2c-0.3,1.5-0.9,2.2-2.1,2.2
				c-0.7,0-1.2-0.2-1.5-0.6l0.3-0.8c0.4,0.3,0.7,0.5,1.1,0.5c0.7,0,1-0.4,1.2-1.3L30.8,20.6z"/>
			<path id="XMLID_212_" fill="#37486B" d="M42.1,26.8c-0.6,1.7-1.8,2.5-3.5,2.5c-2.3,0-3.5-1.4-3.5-3.9c0-3.4,1.9-5.8,4.4-5.8
				c2.2,0,3.1,1.5,3.1,3.2c0,0.6-0.1,1.2-0.4,1.7H36c0,0.3-0.1,0.5-0.1,0.8c0,1.9,0.8,3.1,2.6,3.1c1.5,0,2.2-0.7,2.6-1.9L42.1,26.8z
				 M36.1,23.6h5.3c0.1-0.2,0.1-0.6,0.1-0.9c0-1.3-0.6-2.3-2.1-2.3C37.6,20.4,36.5,21.9,36.1,23.6z M39,18.4l1.6-2.7h1.4l-2.2,2.7
				H39z"/>
			<path id="XMLID_210_" fill="#37486B" d="M50.1,20.9c-0.2-0.1-0.4-0.1-0.7-0.1c-1.4,0-2.6,1.2-3,3.1l-0.9,5.3h-1l1.6-9.3H47
				l-0.3,2.3c0.5-1.3,1.5-2.5,3-2.5c0.2,0,0.5,0.1,0.7,0.1L50.1,20.9z"/>
			<path id="XMLID_207_" fill="#37486B" d="M58.2,26.8c-0.6,1.7-1.8,2.5-3.5,2.5c-2.3,0-3.5-1.4-3.5-3.9c0-3.4,1.9-5.8,4.4-5.8
				c2.2,0,3.1,1.5,3.1,3.2c0,0.6-0.1,1.2-0.4,1.7h-6.1c0,0.3-0.1,0.5-0.1,0.8c0,1.9,0.8,3.1,2.6,3.1c1.5,0,2.2-0.7,2.6-1.9
				L58.2,26.8z M52.3,23.6h5.3c0.1-0.2,0.1-0.6,0.1-0.9c0-1.3-0.6-2.3-2.1-2.3C53.7,20.4,52.7,21.9,52.3,23.6z"/>
			<path id="XMLID_205_" fill="#37486B" d="M67.5,22.9c0.1-0.4,0.1-0.7,0.1-0.9c0-0.9-0.5-1.5-1.6-1.5c-1.4,0-2.9,1.1-3.3,3.5
				l-0.9,5.1h-1l1.6-9.3h0.9L63,22c0.6-1.4,1.7-2.4,3.2-2.4c1.4,0,2.4,0.7,2.4,2.2c0,0.3,0,0.7-0.1,1.1l-0.8,4.3
				c0,0.2-0.1,0.3-0.1,0.5c0,0.4,0.2,0.6,0.6,0.6c0.2,0,0.4,0,0.6-0.1L68.7,29c-0.2,0.1-0.5,0.2-0.8,0.2c-0.9,0-1.2-0.5-1.2-1.2
				c0-0.2,0-0.3,0.1-0.6L67.5,22.9z"/>
			<path id="XMLID_203_" fill="#37486B" d="M74.7,28.4c1.5,0,2.3-0.9,2.6-2l0.9,0.2c-0.5,1.6-1.7,2.6-3.7,2.6
				c-2.1,0-3.4-1.3-3.4-3.9c0-2.9,1.5-5.8,4.5-5.8c2.1,0,2.9,1.2,2.9,3l-0.9,0.2c0-1.3-0.6-2.3-2.1-2.3c-2.3,0-3.4,2.5-3.4,4.8
				C72.2,27.4,73.1,28.4,74.7,28.4z"/>
			<path id="XMLID_200_" fill="#37486B" d="M87.6,26.8c-0.6,1.7-1.8,2.5-3.5,2.5c-2.3,0-3.5-1.4-3.5-3.9c0-3.4,1.9-5.8,4.4-5.8
				c2.2,0,3.1,1.5,3.1,3.2c0,0.6-0.1,1.2-0.4,1.7h-6.1c0,0.3-0.1,0.5-0.1,0.8c0,1.9,0.8,3.1,2.6,3.1c1.5,0,2.2-0.7,2.6-1.9
				L87.6,26.8z M81.6,23.6h5.3c0.1-0.2,0.1-0.6,0.1-0.9c0-1.3-0.6-2.3-2.1-2.3C83.1,20.4,82,21.9,81.6,23.6z"/>
		</g>
	</g>
	<g id="XMLID_367_">
		<g id="XMLID_462_">
			<g id="XMLID_494_">
				<path id="XMLID_495_" fill="#344968" d="M19.6,83.8c-0.7,1.1-1.5,1.7-3.2,1.7c-2,0-3.4-1.4-3.4-3.9c0-2.5,1.4-3.9,3.6-3.9
					c1.5,0,2.5,0.7,3,1.9L18,80.5c-0.2-0.7-0.6-1.2-1.4-1.2c-1.1,0-1.8,0.9-1.8,2.4c0,1.5,0.6,2.3,1.8,2.3c0.7,0,1.2-0.3,1.5-1.1
					L19.6,83.8z"/>
			</g>
			<g id="XMLID_490_">
				<path id="XMLID_491_" fill="#344968" d="M25,85.3c-0.2-0.2-0.3-0.5-0.4-0.8l-0.3-1.1c-0.2-0.6-0.4-0.7-1-0.7h-0.7v2.6h-1.7v-7.4
					h2.9c1.7,0,2.7,0.6,2.7,2.3c0,1.1-0.7,1.8-1.6,1.9v0c0.7,0.1,1,0.4,1.2,1.1l0.4,1.4c0.1,0.3,0.2,0.5,0.4,0.8H25z M22.5,81.3h1.1
					c0.7,0,1.1-0.3,1.1-1c0-0.6-0.4-1-1.1-1h-1.1V81.3z"/>
			</g>
			<g id="XMLID_487_">
				<path id="XMLID_488_" fill="#344968" d="M29.9,77.9v7.4h-1.7v-7.4H29.9z"/>
			</g>
			<g id="XMLID_483_">
				<path id="XMLID_484_" fill="#344968" d="M31.8,85.3v-7.4h2.7c2.1,0,3.6,1,3.6,3.6c0,2.7-1.6,3.8-3.7,3.8H31.8z M34.3,83.9
					c1.3,0,2.1-0.6,2.1-2.2c0-1.8-0.8-2.3-2-2.3h-0.8v4.5H34.3z"/>
			</g>
			<g id="XMLID_479_">
				<path id="XMLID_480_" fill="#344968" d="M39.2,81.6c0-2.5,1.3-3.9,3.5-3.9c2.2,0,3.5,1.4,3.5,3.9c0,2.5-1.3,3.9-3.5,3.9
					C40.5,85.5,39.2,84.1,39.2,81.6z M41,81.7c0,1.5,0.6,2.4,1.7,2.4s1.8-0.9,1.8-2.4c0-1.5-0.6-2.4-1.8-2.4
					C41.6,79.3,41,80.2,41,81.7z"/>
			</g>
			<g id="XMLID_476_">
				<path id="XMLID_477_" fill="#344968" d="M52,81.5c0.4,0.6,0.6,1,0.6,1h0.1c0,0,0-0.6,0-1.6v-3h1.7v7.4h-1.6l-2.6-3.5
					c-0.5-0.6-0.7-1.1-0.7-1.1h-0.1c0,0,0.1,0.6,0.1,1.7v2.9h-1.7v-7.4h1.6L52,81.5z"/>
			</g>
			<g id="XMLID_473_">
				<path id="XMLID_474_" fill="#344968" d="M59.6,77.9v6.8h3.5v0.6H59v-7.4H59.6z"/>
			</g>
			<g id="XMLID_470_">
				<path id="XMLID_471_" fill="#344968" d="M65,80.7c0.5,0.8,0.6,1.2,0.6,1.2h0c0,0,0.1-0.3,0.6-1.2l1.4-2.7h0.7L66,82.4v3h-0.7v-3
					l-2.5-4.4h0.8L65,80.7z"/>
			</g>
			<g id="XMLID_466_">
				<path id="XMLID_467_" fill="#344968" d="M68.8,81.6c0-2.5,1.3-3.8,3.2-3.8s3.2,1.4,3.2,3.8c0,2.5-1.3,3.8-3.2,3.8
					S68.8,84.1,68.8,81.6z M69.5,81.6c0,2,0.9,3.2,2.5,3.2c1.7,0,2.5-1.2,2.5-3.2s-0.9-3.2-2.5-3.2C70.4,78.4,69.5,79.6,69.5,81.6z"
					/>
			</g>
			<g id="XMLID_463_">
				<path id="XMLID_464_" fill="#344968" d="M81.2,83.1c0.5,0.7,0.8,1.4,0.8,1.4h0c0,0,0-0.7,0-1.6v-5h0.7v7.4H82l-3.5-5.2
					c-0.5-0.7-0.8-1.4-0.8-1.4h-0.1c0,0,0.1,0.7,0.1,1.6v5h-0.7v-7.4h0.7L81.2,83.1z"/>
			</g>
		</g>
		<g id="XMLID_437_">
			<g id="XMLID_457_">
				<g id="XMLID_458_">
					<path id="XMLID_459_" fill="#009999" d="M21.5,53.9c-5.2,0-8.5-3.7-8.5-9.6c0-6,3.4-9.6,9-9.6c3.6,0,6.1,1.6,7.5,4.7l0.2,0.4
						l-4.7,2.3l-0.1-0.5c-0.5-1.7-1.4-2.5-3-2.5c-2.4,0-3.9,2-3.9,5.2c0,2.3,0.7,5.1,3.9,5.1c1.5,0,2.6-0.8,3.3-2.3l0.2-0.4l4.2,2.5
						l-0.2,0.3C27.7,52.7,25.4,53.9,21.5,53.9z M22.1,35.6c-5.2,0-8.2,3.2-8.2,8.7c0,5.4,2.9,8.8,7.7,8.8c3.4,0,5.4-1,7-3.5L25.8,48
						c-0.8,1.5-2.2,2.3-3.8,2.3c-3.1,0-4.7-2.1-4.7-5.9c0-3.7,1.8-6.1,4.7-6.1c1.8,0,3,0.8,3.6,2.6l3.1-1.5
						C27.4,36.9,25.2,35.6,22.1,35.6z"/>
				</g>
			</g>
			<g id="XMLID_450_">
				<g id="XMLID_451_">
					<path id="XMLID_452_" fill="#009999" d="M48,53.6h-5.6l-0.1-0.1c-0.7-0.5-0.9-1.3-1.1-2.1l-0.7-2.6c-0.3-1.2-0.8-1.5-2-1.5
						h-1.3v6.2h-4.9V35.1h7.3c4.6,0,6.8,1.9,6.8,5.8c0,2.2-1,3.8-2.8,4.5c0.9,0.5,1.5,1.2,1.9,2.4l0.9,3.3c0.2,0.6,0.4,1.2,0.9,1.7
						L48,53.6z M42.7,52.7h3.5c-0.3-0.5-0.4-0.9-0.6-1.4l-0.9-3.3c-0.4-1.4-1.1-2-2.6-2.3l-0.3-0.1V45l0.4-0.1
						c2.3-0.2,3.5-1.7,3.5-4c0-3.4-1.9-5-6-5h-6.5v16.8h3.2v-6.2h2.1c1.4,0,2.4,0.3,2.8,2.1l0.7,2.6C42.2,51.9,42.4,52.4,42.7,52.7z
						 M39.5,44h-3v-5.4h3c1.9,0,2.9,1,2.9,2.7C42.4,43.1,41.4,44,39.5,44z M37.3,43.2h2.2c1.5,0,2.1-0.5,2.1-1.9
						c0-1.3-0.7-1.9-2.1-1.9h-2.2V43.2z"/>
				</g>
			</g>
			<g id="XMLID_445_">
				<g id="XMLID_446_">
					<path id="XMLID_447_" fill="#009999" d="M55.4,53.6h-4.9V35.1h4.9V53.6z M51.3,52.7h3.2V35.9h-3.2V52.7z"/>
				</g>
			</g>
			<g id="XMLID_438_">
				<g id="XMLID_439_">
					<path id="XMLID_440_" fill="#009999" d="M66.6,53.6h-6.6V35.1h6.9c5.8,0,9,3.2,9,9C75.8,50.2,72.5,53.6,66.6,53.6z M60.8,52.7
						h5.8c3.8,0,8.4-1.5,8.4-8.6c0-6.8-4.4-8.2-8.2-8.2h-6.1V52.7z M66.2,50.1H64V38.6h2.4c3.5,0,5.2,1.8,5.2,5.8
						C71.6,48.3,69.9,50.1,66.2,50.1z M64.8,49.3h1.4c3.2,0,4.6-1.5,4.6-4.9c0-3.6-1.3-5-4.3-5h-1.6V49.3z"/>
				</g>
			</g>
		</g>
		<g id="XMLID_373_">
			<g id="XMLID_404_">
				<path id="XMLID_434_" fill="#009999" d="M13.4,65.9c0-4.8,2.3-7.5,5.8-7.5c3.6,0,5.8,2.7,5.8,7.5s-2.3,7.5-5.8,7.5
					C15.7,73.4,13.4,70.7,13.4,65.9z M14.7,65.9c0,4,1.6,6.4,4.6,6.4s4.6-2.4,4.6-6.4c0-4-1.6-6.4-4.6-6.4S14.7,61.9,14.7,65.9z"/>
				<path id="XMLID_405_" fill="#009999" d="M19.3,73.8c-3.9,0-6.3-3-6.3-7.9c0-5,2.3-7.9,6.3-7.9c3.9,0,6.3,3,6.3,7.9
					C25.5,70.9,23.2,73.8,19.3,73.8z M19.3,58.8c-3.4,0-5.4,2.7-5.4,7.1c0,4.4,2,7.1,5.4,7.1c3.4,0,5.4-2.7,5.4-7.1
					C24.7,61.4,22.7,58.8,19.3,58.8z M19.3,72.7c-3.2,0-5-2.5-5-6.8c0-4.3,1.8-6.8,5-6.8c3.1,0,5,2.5,5,6.8
					C24.3,70.2,22.5,72.7,19.3,72.7z M19.3,59.9c-3.6,0-4.2,3.7-4.2,6c0,2.2,0.5,6,4.2,6c3.7,0,4.2-3.7,4.2-6
					C23.5,62.1,21.9,59.9,19.3,59.9z"/>
			</g>
			<g id="XMLID_398_">
				<path id="XMLID_402_" fill="#009999" d="M36.4,68.7c0.9,1.4,1.5,2.7,1.5,2.7H38c0,0-0.1-1.4-0.1-3.1v-9.8h1.2v14.6h-1.3L31.5,63
					c-0.8-1.3-1.5-2.7-1.5-2.7h-0.1c0,0,0.1,1.4,0.1,3.1v9.8h-1.2V58.6h1.3L36.4,68.7z"/>
				<path id="XMLID_399_" fill="#009999" d="M39.6,73.6h-1.9l-6.5-10.3c-0.3-0.4-0.5-0.9-0.8-1.3c0,0.4,0,0.9,0,1.4v10.2h-2V58.2
					h1.9l6.5,10.3c0.3,0.4,0.5,0.9,0.8,1.3c0-0.4,0-0.9,0-1.4V58.2h2V73.6z M38.1,72.8h0.6V59h-0.4v9.4c0,1.6,0.1,3,0.1,3.1l0,0.4
					h-0.7l-0.2-0.2c0,0-0.6-1.3-1.5-2.7l0,0l-6.3-10h-0.7v13.8h0.4v-9.4c0-1.6-0.1-3-0.1-3l0-0.4h0.8l0.1,0.2c0,0,0.7,1.4,1.5,2.7
					L38.1,72.8z"/>
			</g>
			<g id="XMLID_392_">
				<path id="XMLID_396_" fill="#009999" d="M44.9,58.6V72h6.3v1.1h-7.5V58.6H44.9z"/>
				<path id="XMLID_393_" fill="#009999" d="M51.6,73.6h-8.3V58.2h2v13.4h6.3V73.6z M44.1,72.8h6.6v-0.3h-6.3V59h-0.4V72.8z"/>
			</g>
			<g id="XMLID_386_">
				<path id="XMLID_390_" fill="#009999" d="M55.4,58.6v14.6h-1.2V58.6H55.4z"/>
				<path id="XMLID_387_" fill="#009999" d="M55.8,73.6h-2V58.2h2V73.6z M54.6,72.8H55V59h-0.4V72.8z"/>
			</g>
			<g id="XMLID_380_">
				<path id="XMLID_384_" fill="#009999" d="M67.6,68.7c0.9,1.4,1.5,2.7,1.5,2.7h0.1c0,0-0.1-1.4-0.1-3.1v-9.8h1.2v14.6h-1.3
					L62.6,63c-0.8-1.3-1.5-2.7-1.5-2.7h-0.1c0,0,0.1,1.4,0.1,3.1v9.8H60V58.6h1.3L67.6,68.7z"/>
				<path id="XMLID_381_" fill="#009999" d="M70.7,73.6h-1.9l-6.5-10.3c-0.3-0.4-0.5-0.9-0.8-1.3c0,0.4,0,0.9,0,1.4v10.2h-2V58.2
					h1.9L68,68.5c0.3,0.4,0.5,0.9,0.8,1.3c0-0.4,0-0.9,0-1.4V58.2h2V73.6z M69.3,72.8h0.6V59h-0.4v9.4c0,1.6,0.1,3,0.1,3.1l0,0.4H69
					l-0.2-0.2c0,0-0.6-1.3-1.5-2.7l0,0L61,59h-0.7v13.8h0.4v-9.4c0-1.6-0.1-3-0.1-3l0-0.4h0.8l0.1,0.2c0,0,0.7,1.4,1.5,2.7
					L69.3,72.8z"/>
			</g>
			<g id="XMLID_374_">
				<path id="XMLID_378_" fill="#009999" d="M82.5,73.2h-7.6V58.6h7.6v1.1h-6.4v5.6h5.7v1.1h-5.7V72h6.4V73.2z"/>
				<path id="XMLID_375_" fill="#009999" d="M82.9,73.6h-8.5V58.2h8.5v2h-6.4v4.8h5.7v2h-5.7v4.8h6.4V73.6z M75.3,72.8h6.8v-0.3
					h-6.4V66h5.7v-0.3h-5.7v-6.4h6.4V59h-6.8V72.8z"/>
			</g>
		</g>
		<g id="XMLID_368_">
			<g id="XMLID_369_">
				<path id="XMLID_370_" fill="#009999" d="M77.1,43v-2.2l0.4,0c1.4-0.1,1.8-0.6,2-1c-0.6,0-1.1-0.2-1.5-0.5
					c-0.5-0.4-0.7-1-0.7-1.7c0-1.4,1-2.4,2.5-2.4c1.7,0,2.8,1.3,2.8,3.1c0,3-1.8,4.7-5.1,4.7L77.1,43z M77.9,41.6v0.6
					c2.6-0.1,3.8-1.5,3.8-3.9c0-1.4-0.8-2.3-2-2.3c-0.4,0-1.7,0.1-1.7,1.5c0,0.5,0.2,0.8,0.5,1.1c0.3,0.3,0.8,0.4,1.3,0.3l0.5-0.1
					v0.5C80.3,40.2,79.8,41.3,77.9,41.6z"/>
			</g>
		</g>
	</g>
</g>
</svg>
