<?xml version="1.0" encoding="utf-8"?>
<!-- Generator: Adobe Illustrator 19.0.0, SVG Export Plug-In . SVG Version: 6.00 Build 0)  -->
<svg version="1.1" id="Mode_Isolation" xmlns="http://www.w3.org/2000/svg" xmlns:xlink="http://www.w3.org/1999/xlink" x="0px"
	 y="0px" width="50.5px" height="12px" viewBox="0 0 50.5 12" enable-background="new 0 0 50.5 12" xml:space="preserve">
<g id="XMLID_497_">
	<g id="XMLID_192_">
		<path id="XMLID_215_" fill="#37486B" d="M3.8,3.6C3.6,3.6,3.5,3.5,3.3,3.5c-0.9,0-1.8,0.8-2,2.1L0.7,9.1H0l1.1-6.3h0.6L1.5,4.4
			c0.3-0.9,1-1.7,2-1.7c0.2,0,0.3,0,0.4,0.1L3.8,3.6z"/>
		<path id="XMLID_211_" fill="#37486B" d="M9.2,7.6C8.8,8.8,8,9.3,6.8,9.3c-1.5,0-2.4-1-2.4-2.6c0-2.3,1.3-3.9,3-3.9
			c1.5,0,2.1,1,2.1,2.1c0,0.4-0.1,0.8-0.3,1.2H5.1c0,0.2,0,0.4,0,0.5c0,1.2,0.6,2.1,1.7,2.1c1,0,1.5-0.5,1.8-1.3L9.2,7.6z M5.2,5.5
			h3.5c0.1-0.2,0.1-0.4,0.1-0.6c0-0.9-0.4-1.6-1.4-1.6C6.2,3.3,5.5,4.3,5.2,5.5z M7.2,1.9l1.1-1.8h1L7.7,1.9H7.2z"/>
		<path id="XMLID_209_" fill="#37486B" d="M12,3.5H11l0.1-0.6h0.9l0.2-1c0.3-1.5,1-1.9,1.9-1.9c0.5,0,1,0.2,1.3,0.5L15.1,1
			c-0.3-0.3-0.5-0.4-0.9-0.4c-0.6,0-1.1,0.3-1.3,1.3l-0.2,1h1.6l-0.1,0.6h-1.6l-1.2,7.1c-0.2,1-0.6,1.4-1.4,1.4
			c-0.4,0-0.8-0.2-1-0.4l0.2-0.5c0.2,0.2,0.5,0.4,0.8,0.4c0.5,0,0.7-0.3,0.8-0.9L12,3.5z"/>
		<path id="XMLID_205_" fill="#37486B" d="M19.5,7.6c-0.4,1.2-1.2,1.7-2.4,1.7c-1.5,0-2.4-1-2.4-2.6c0-2.3,1.3-3.9,3-3.9
			c1.5,0,2.1,1,2.1,2.1c0,0.4-0.1,0.8-0.3,1.2h-4.1c0,0.2,0,0.4,0,0.5c0,1.2,0.6,2.1,1.7,2.1c1,0,1.5-0.5,1.8-1.3L19.5,7.6z
			 M15.5,5.5h3.5c0.1-0.2,0.1-0.4,0.1-0.6c0-0.9-0.4-1.6-1.4-1.6C16.5,3.3,15.8,4.3,15.5,5.5z M17.5,1.9l1.1-1.8h1l-1.5,1.8H17.5z"
			/>
		<path id="XMLID_203_" fill="#37486B" d="M25,3.6c-0.1-0.1-0.3-0.1-0.5-0.1c-0.9,0-1.8,0.8-2,2.1l-0.6,3.5h-0.7l1.1-6.3h0.6
			l-0.2,1.5c0.3-0.9,1-1.7,2-1.7c0.2,0,0.3,0,0.4,0.1L25,3.6z"/>
		<path id="XMLID_200_" fill="#37486B" d="M30.4,7.6C30,8.8,29.2,9.3,28,9.3c-1.5,0-2.4-1-2.4-2.6c0-2.3,1.3-3.9,3-3.9
			c1.5,0,2.1,1,2.1,2.1c0,0.4-0.1,0.8-0.3,1.2h-4.1c0,0.2,0,0.4,0,0.5c0,1.2,0.6,2.1,1.7,2.1c1,0,1.5-0.5,1.8-1.3L30.4,7.6z
			 M26.4,5.5H30c0.1-0.2,0.1-0.4,0.1-0.6c0-0.9-0.4-1.6-1.4-1.6C27.4,3.3,26.7,4.3,26.4,5.5z"/>
		<path id="XMLID_198_" fill="#37486B" d="M36.7,5c0-0.3,0.1-0.4,0.1-0.6c0-0.6-0.4-1-1.1-1c-0.9,0-2,0.7-2.2,2.3l-0.6,3.4h-0.7
			l1.1-6.3h0.6l-0.2,1.5c0.4-0.9,1.1-1.6,2.2-1.6c1,0,1.6,0.5,1.6,1.5c0,0.2,0,0.5-0.1,0.8l-0.5,2.9c0,0.1,0,0.2,0,0.3
			c0,0.2,0.1,0.4,0.4,0.4c0.1,0,0.2,0,0.4-0.1l-0.1,0.5c-0.2,0.1-0.3,0.1-0.6,0.1c-0.6,0-0.8-0.3-0.8-0.8c0-0.1,0-0.2,0-0.4L36.7,5z
			"/>
		<path id="XMLID_196_" fill="#37486B" d="M41.5,8.7c1,0,1.5-0.6,1.8-1.4l0.6,0.1c-0.4,1.1-1.1,1.8-2.5,1.8c-1.4,0-2.3-0.9-2.3-2.6
			c0-1.9,1-3.9,3-3.9c1.4,0,2,0.8,2,2l-0.6,0.1c0-0.9-0.4-1.5-1.4-1.5c-1.5,0-2.3,1.7-2.3,3.2C39.8,8,40.4,8.7,41.5,8.7z"/>
		<path id="XMLID_193_" fill="#37486B" d="M50.2,7.6c-0.4,1.2-1.2,1.7-2.4,1.7c-1.5,0-2.4-1-2.4-2.6c0-2.3,1.3-3.9,3-3.9
			c1.5,0,2.1,1,2.1,2.1c0,0.4-0.1,0.8-0.3,1.2h-4.1c0,0.2,0,0.4,0,0.5c0,1.2,0.6,2.1,1.7,2.1c1,0,1.5-0.5,1.8-1.3L50.2,7.6z
			 M46.2,5.5h3.5c0.1-0.2,0.1-0.4,0.1-0.6c0-0.9-0.4-1.6-1.4-1.6C47.2,3.3,46.5,4.3,46.2,5.5z"/>
	</g>
</g>
</svg>
