<?xml version="1.0" encoding="utf-8"?>
<!-- Generator: Adobe Illustrator 19.0.0, SVG Export Plug-In . SVG Version: 6.00 Build 0)  -->
<svg version="1.1" id="Calque_1" xmlns="http://www.w3.org/2000/svg" xmlns:xlink="http://www.w3.org/1999/xlink" x="0px" y="0px"
	 width="141.7px" height="141.8px" viewBox="-195.2 350 141.7 141.8" style="enable-background:new -195.2 350 141.7 141.8;"
	 xml:space="preserve">
<style type="text/css">
	.st0{fill:#010202;}
</style>
<path class="st0" d="M-57.7,360.9l-6.7-6.7c-5.3-5.2-13.5-5.6-18.4-0.7l-87.5,87.5l0.3,0.3h-0.4l-24.8,50.6l50.6-24.8h-0.1v-0.4
	l0.2,0.2l87.5-87.5C-52.1,374.5-52.4,366.3-57.7,360.9z M-148.7,464.5l-27.1,13.3l-5.5-5.5l13.3-27.1h7.2v12h12.1V464.5z
	 M-144.7,461.5v-8.2h-12.1v-12h-8.2l71.9-71.8l0,0c3.4-3.4,9.1-3,12.8,0.7l1.9,1.9l-72,72l2.8,2.8l72-72l1.9,1.9
	c3.7,3.8,4,9.5,0.7,12.8h0L-144.7,461.5z M-59.8,376.6l-6.8,6.8c-0.1-3.3-1.5-6.7-4.2-9.3l-6.7-6.7c-2.7-2.6-6-4-9.4-4.1l6.9-6.9
	c3.3-3.3,9-3,12.8,0.7l6.7,6.7C-56.8,367.6-56.5,373.3-59.8,376.6z"/>
</svg>
