<?xml version="1.0" encoding="utf-8"?>
<!-- Generator: Adobe Illustrator 19.0.0, SVG Export Plug-In . SVG Version: 6.00 Build 0)  -->
<svg version="1.1" id="Calque_1" xmlns="http://www.w3.org/2000/svg" xmlns:xlink="http://www.w3.org/1999/xlink" x="0px" y="0px"
	 width="142.8px" height="142.8px" viewBox="0 0 142.8 142.8" enable-background="new 0 0 142.8 142.8" xml:space="preserve">
<g id="XMLID_13_" display="none">
	<path id="XMLID_31_" display="inline" fill="#FAB612" d="M71.4,57.9c-7.5,0-13.5,6.1-13.5,13.5s6.1,13.5,13.5,13.5
		s13.5-6.1,13.5-13.5S78.8,57.9,71.4,57.9z M71.4,79.8c-4.7,0-8.4-3.8-8.4-8.4s3.8-8.4,8.4-8.4c4.7,0,8.4,3.8,8.4,8.4
		S76,79.8,71.4,79.8z"/>
	<path id="XMLID_36_" display="inline" fill="#FAB612" d="M71.4,50.4c-19.7,0-36.3,17.4-39.5,21c3.2,3.6,19.9,21,39.5,21
		c19.7,0,36.3-17.4,39.5-21C107.7,67.8,91.1,50.4,71.4,50.4z M71.4,86.9c-8.6,0-15.5-7-15.5-15.5s7-15.5,15.5-15.5
		c8.6,0,15.5,7,15.5,15.5S79.9,86.9,71.4,86.9z"/>
	<path id="XMLID_38_" display="inline" fill="#FAB612" d="M71.4,64.9c-3.5,0-6.4,2.9-6.4,6.4s2.9,6.4,6.4,6.4s6.4-2.9,6.4-6.4
		S74.9,64.9,71.4,64.9z"/>
	<path id="XMLID_41_" display="inline" fill="#FAB612" d="M71.3,0C31.9,0,0,31.9,0,71.4c0,39.4,31.9,71.3,71.3,71.3
		c5.9,0,11.6-0.7,17.1-2.1c25.6-6.3,45.7-26.3,52.1-51.8c1.4-5.6,2.2-11.5,2.2-17.5C142.8,31.9,110.8,0,71.3,0z M113,72
		c-0.8,0.9-18.9,22.3-41.6,22.3S30.5,72.9,29.7,72l-0.5-0.6l0.5-0.6c0.8-0.9,18.9-22.3,41.6-22.3s40.9,21.4,41.6,22.3l0.5,0.6
		L113,72z"/>
</g>
<g id="XMLID_45_">
	<path id="XMLID_47_" fill="#00999D" d="M105,97.6H103c0-0.1,0.1-0.2,0.1-0.4v-2.2l2.7,0l-8-20.4V52.6h-7.2V42.2
		c0-0.2,0-0.5-0.1-0.7h1.7c1.5,0,2.7-1.2,2.7-2.7c0-0.2,0-0.3,0-0.5c-0.2-1.1-1-1.9-2.1-2.1c-0.2,0-0.4-0.1-0.6-0.1H79.5
		c-1.5,0-2.6,1.1-2.6,2.6c0,1.5,1.1,2.7,2.6,2.7h1.7c-0.1,0.2-0.1,0.5-0.1,0.7v10.4H81l0,0.3l-0.2,2.2c-0.1,0-0.2,0-0.3,0h-5.8v-0.8
		h0.2c1.1,0,1.8-0.8,1.8-1.8c0-1-0.8-1.8-1.8-1.8h-7.3c-1,0-1.8,0.8-1.8,1.8c0,1,0.8,1.8,1.8,1.8h0.2v0.8h-5.4c-0.1,0-0.2,0-0.3,0
		l-0.2-2.5h-0.1V42.2c0-0.2,0-0.5-0.1-0.7h1.7c1.5,0,2.7-1.2,2.7-2.7c0-0.4-0.1-0.7-0.2-1c-0.3-0.6-0.7-1.1-1.4-1.4
		c-0.3-0.2-0.7-0.2-1.1-0.2H50.6c-1.5,0-2.6,1.1-2.6,2.6c0,0.4,0.1,0.7,0.2,1.1v0c0.3,0.7,0.8,1.2,1.5,1.5c0.3,0.1,0.6,0.2,0.9,0.2
		h1.7v0h0c-0.1,0.2-0.1,0.5-0.1,0.7v1.6l0,0v8.8H45v22.1l-7.8,20.2l-0.1,0.2l0.2,0l2.5,0v2.2c0,0.1,0,0.2,0,0.3l0,0v0c0,0,0,0,0,0
		h-2c-1,0-1.8,0.8-1.8,1.7v5.5c0,0.1,0,0.2,0,0.3c0.1,0.7,0.7,1.3,1.4,1.4c0.1,0,0.3,0,0.4,0h27c1,0,1.8-0.8,1.8-1.7v-5.5
		c0-1-0.8-1.7-1.8-1.7h-2c0,0,0,0,0,0c0,0,0,0,0-0.1c0-0.1,0-0.2,0-0.3v-2l3,0l-2.3-25L63,65.6h4.8v0.8h-0.2c-1,0-1.8,0.8-1.8,1.8
		c0,1,0.8,1.8,1.8,1.8h7.3c1.1,0,1.8-0.8,1.8-1.8c0-1-0.8-1.8-1.8-1.8h-0.2v-0.8h5.1L78,84.8l-1,10.5l3.1,0h0v2c0,0.1,0,0.2,0.1,0.4
		h-2.1c-1.1,0-1.8,0.8-1.8,1.8v5.5c0,1,0.8,1.7,1.8,1.7h27c1,0,1.8-0.8,1.8-1.7v-5.5C106.8,98.4,106,97.6,105,97.6z"/>
	<path id="XMLID_76_" fill="#00999D" d="M71.4,0C31.9,0,0,31.9,0,71.4c0,39.4,31.9,71.3,71.4,71.3c0.7,0,1.4,0,2.2,0
		c33.8-1,61.7-25.5,67.9-57.8c0.8-4.4,1.3-8.9,1.3-13.5C142.8,31.9,110.8,0,71.4,0z M108.8,104.9c0,2.1-1.7,3.7-3.8,3.7h-27
		c-2.2,0-3.8-1.6-3.8-3.7v-5.5c0-0.8,0.2-1.5,0.6-2l0.2-2.2l1-10.5l1.2-13.5c-0.7,0.5-1.5,0.8-2.4,0.8h-7.3c-0.8,0-1.5-0.2-2-0.6
		l2.2,23.8l0.2,2.2c0.4,0.6,0.6,1.3,0.6,2v5.5c0,2.1-1.7,3.7-3.8,3.7h-27c-0.3,0-0.5,0-0.8-0.1c-1.6-0.3-2.8-1.5-3-3
		c0-0.2-0.1-0.4-0.1-0.6v-5.5c0-0.9,0.3-1.7,0.8-2.3l-0.6,0l1.1-2.7l0.1-0.1L43,74.3V52.6v-2h2h5.2v-7.1c-0.4,0-0.8-0.1-1.2-0.3
		c-1.2-0.5-2.1-1.4-2.6-2.6l-0.1-0.4v-0.1C46,39.7,46,39.2,46,38.8c0-2.6,2-4.6,4.6-4.6h12.7c0.7,0,1.4,0.1,2,0.4
		c1.1,0.5,1.9,1.3,2.4,2.4c0.2,0.6,0.4,1.2,0.4,1.8c0,2.5-1.9,4.5-4.3,4.7v8.1l0,0.5c0.2-1.9,1.8-3.4,3.8-3.4h7.3
		c2.2,0,3.8,1.6,3.8,3.8c0,0.2,0,0.4,0,0.6h0.3l0-0.3l0-0.3l0.1-0.9v-8.1c-2.4-0.2-4.2-2.2-4.2-4.7c0-2.6,2-4.6,4.6-4.6h12.7
		c0.3,0,0.7,0,1,0.1c1.9,0.4,3.3,1.8,3.6,3.7c0.1,0.3,0.1,0.6,0.1,0.9c0,2.5-1.9,4.5-4.3,4.7v7.1h5.2h2v2v21.7l7.8,20l1.1,2.7
		l-0.7,0c0.5,0.6,0.8,1.4,0.8,2.3V104.9z"/>
</g>
<g id="XMLID_33_" display="none">
	<path id="XMLID_42_" display="inline" fill="#37486B" d="M109.5,30l-3.3-5.7l0,0c-0.2-0.4-0.5-0.7-0.9-0.9
		c-0.3-0.2-0.6-0.2-0.9-0.2c-0.1,0-0.2,0-0.3,0c-0.4,0-0.8,0.1-1.1,0.3l-0.3,0.3c-0.8,0.4-1.2,1.2-1.2,2l-14.9,8.6l-10.4,6l0,0l0,0
		l-4.1,2.4l0,0l0,0l-2-3.4l-0.3-0.5l0.2-0.1l0.9-0.5c0.6-0.3,0.9-0.9,0.9-1.4c0-0.3,0-0.5-0.1-0.8l0,0v0c0-0.1-0.1-0.3-0.2-0.4
		l-0.1-0.2l-0.1-0.1c-0.3-0.5-0.8-0.8-1.3-0.9c-0.1,0-0.2,0-0.4,0c-0.3,0-0.6,0.1-0.9,0.2L60.7,39c-0.3-0.4-0.7-0.6-1.1-0.6
		c-0.3,0-0.5,0.1-0.8,0.2l-0.4,0.3c-0.7,0.4-1,1.3-0.5,2l1.5,2.8l0.3,0.5c0.2,0.3,0.6,0.6,0.9,0.7c0.1,0,0.2,0,0.4,0
		c0,0,0.1,0,0.1,0c0.1,0,0.2,0,0.3,0c0,0,0.1,0,0.1,0c0.1,0,0.2-0.1,0.3-0.1l0.4-0.3c0.6-0.4,0.9-1.2,0.6-1.9l2.6-1.5l0,0l0,0
		l0.8,1.3l1.5,2.6v0l-2,1.2l0,0l3.9,6.7l0,0l-1.1-1.8l-1.6-2.8l0,0v0l-0.4,0.2l-1.4,0.8l0,0l0,0l-14.7,8.5l-4.7,2.7l1.2,2.1L32.5,71
		l-0.3-0.6c-0.3-0.5-0.8-0.7-1.3-0.7c-0.2,0.1-0.3,0.1-0.4,0.2l-0.3,0.2c-0.6,0.3-0.8,1.1-0.4,1.8l3.2,5.6l0.3,0.5
		c0.2,0.4,0.5,0.6,0.9,0.7c0.1,0,0.2,0,0.2,0c0.2,0,0.4-0.1,0.6-0.2l0.3-0.1c0.6-0.4,0.8-1.1,0.4-1.8l-0.3-0.6l0,0l14.3-8.3l0,0
		l1.2,2.1l14.4-8.3v4.9L50.4,94.8l-11.6,22.1c-0.3,0.5-0.5,1-0.5,1.5c-0.1,0.7,0.1,1.2,0.5,1.2c0.1,0,0.3-0.1,0.5-0.2c0,0,0,0,0,0
		c0,0,0,0,0.1,0c0.2-0.2,0.4-0.4,0.6-0.7l13.2-20.9l17.2-27.1h1.4L73,98.4c0.1,1.1,0.4,1.5,0.8,1.5c0.5,0,1.1-1.1,1.1-2.4l1.1-27
		h1.3l30.5,48.1c0.5,0.7,1,1,1.3,1c0.7,0,0.7-1.4,0-2.7L82.4,66.2v-5.8c0-0.3-0.2-0.4-0.4-0.4h-4.5v-2c0-0.3-0.2-0.5-0.5-0.5l0,0h0
		l10.2-5.9L99,44.7l9.9-5.7c0.4,0.3,0.9,0.5,1.4,0.5c0.4,0,0.8-0.1,1.2-0.3l0.3-0.2c1.1-0.7,1.6-2.1,0.9-3.2L109.5,30z"/>
	<path id="XMLID_74_" display="inline" fill="#37486B" d="M141.9,60c-5.4-34-35-60-70.5-60C31.9,0-0.1,31.9-0.1,71.3
		c0,36.3,27,66.3,62.1,70.8c3,0.4,6.2,0.6,9.3,0.6c39.4,0,71.4-31.9,71.4-71.4C142.8,67.5,142.5,63.7,141.9,60z M112.9,40.7
		L112.9,40.7l-0.2,0.1l-0.3,0.1c-0.7,0.4-1.4,0.6-2.2,0.6c-0.4,0-0.9-0.1-1.3-0.2l-9,5.2l-11.8,6.8L80.1,58h1.9
		c1.4,0,2.4,1.1,2.4,2.4v5.3l26.4,50.3c0.7,1.2,1.2,3,0.4,4.4c-0.4,0.8-1.2,1.2-2.1,1.2c-1.5,0-2.5-1.3-2.9-1.8l-0.1-0.1l0-0.1
		L77.7,75.1l-0.9,22.4c0,2.1-1.1,4.3-3.1,4.3c-0.7,0-2.4-0.3-2.7-3.3l0-0.1l0-0.1L70,75L54.9,98.8l-13.2,20.9l0,0.1l-0.1,0.1
		c-0.3,0.4-0.6,0.7-0.9,1c0,0-0.1,0.1-0.1,0.1c0,0-0.1,0-0.1,0.1c-0.5,0.4-1.1,0.6-1.7,0.6c-0.7,0-1.4-0.3-1.8-0.8
		c-0.6-0.7-0.8-1.6-0.6-2.6c0.1-0.7,0.4-1.5,0.7-2.1l11.6-22.1l14.7-28V65l-11.4,6.5l-1.7,1l-1-1.7L49,70.4l-11.1,6.4
		c0.2,1.3-0.4,2.6-1.6,3.3l-0.2,0.1l-0.2,0.1l-0.1,0c-0.4,0.2-0.9,0.3-1.4,0.3c-0.2,0-0.4,0-0.6-0.1c-1-0.2-1.8-0.8-2.3-1.7
		l-0.2-0.4L28,72.9c-0.9-1.6-0.4-3.5,1.1-4.4l0.1-0.1c0.3-0.2,0.6-0.3,0.8-0.4l0.3-0.2h0.5c0.8,0,1.6,0.2,2.1,0.7L44.2,62L44,61.7
		l-1-1.7l1.7-1l4.7-2.7L63.6,48l-1.2-1.2C62,46.9,61.5,47,61,47c-0.3,0-0.6,0-0.9-0.1c-0.9-0.2-1.6-0.8-2.1-1.5l0,0l0,0l-0.3-0.5
		L56.1,42c-0.5-0.8-0.6-1.8-0.4-2.7c0.2-0.9,0.8-1.6,1.6-2.1l0.3-0.2c0.5-0.3,1.2-0.5,1.8-0.5c0.4,0,0.8,0.1,1.2,0.2l6.9-4
		c0.6-0.3,1.2-0.5,1.9-0.5c0.3,0,0.5,0,0.7,0.1c1.1,0.2,2.1,0.9,2.7,1.8l0,0.1l0,0.1l0.1,0.1l0.1,0.2c0.1,0.2,0.3,0.5,0.3,0.8
		c0.3,0.8,0.2,1.7-0.1,2.5l1.1,1.1l0.5-0.3l10.4-6l14.1-8.2c0.3-1,1-1.9,1.9-2.4l0.2-0.2l0.2-0.2l0.2-0.1c0.5-0.2,1.1-0.4,1.9-0.4
		c0.1,0,0.3,0,0.4,0c0.6,0,1.1,0.2,1.7,0.4c0.8,0.4,1.4,1,1.8,1.7l0,0l3.3,5.7l3.3,5.6C115.7,36.7,115,39.4,112.9,40.7z"/>
</g>
</svg>
