<?xml version="1.0" encoding="utf-8"?>
<!-- Generator: Adobe Illustrator 19.0.0, SVG Export Plug-In . SVG Version: 6.00 Build 0)  -->
<svg version="1.1" id="Calque_1" xmlns="http://www.w3.org/2000/svg" xmlns:xlink="http://www.w3.org/1999/xlink" x="0px" y="0px"
	 width="25px" height="22.1px" viewBox="0 0 25 22.1" enable-background="new 0 0 25 22.1" xml:space="preserve">
<path d="M25,19.5c-0.1-0.5-0.2-0.9-0.4-1.3c-0.2-0.4-0.4-0.7-0.7-1.1c-0.3-0.4-0.7-0.7-1.3-0.9c-0.2-0.1-0.5-0.2-0.8-0.3l-5.9-2.5
	V12c0,0,0-0.1,0.1-0.3c0-0.2,0.1-0.4,0.2-0.6l0.2-0.6c0.3-0.6,0.6-1.3,0.7-2c0.2-0.7,0.3-1.5,0.3-2.3c0-1.1-0.1-2-0.4-2.8
	c-0.2-0.8-0.6-1.4-1-1.9c-0.4-0.5-1-0.9-1.5-1.1c-1.1-0.4-2.5-0.4-3.6,0C10.2,0.6,9.7,1,9.3,1.5C8.8,2,8.5,2.6,8.3,3.4
	C8,4.2,7.9,5.1,7.9,6.2C7.9,7,8,7.8,8.2,8.6c0.2,0.7,0.4,1.4,0.7,1.9c0.1,0.2,0.2,0.4,0.2,0.6L9.4,12v1.4l-3.6,1.6
	c-0.5,0.2-0.9,0.4-1.4,0.6c-0.4,0.2-0.8,0.3-1.2,0.5c-0.3,0.1-0.6,0.2-0.8,0.3c-0.5,0.2-0.9,0.5-1.2,0.8c-0.3,0.4-0.5,0.7-0.7,1.1
	C0.3,18.6,0.1,19,0,19.5l0,2.6h25L25,19.5z M24,21.1H1v-1.4c0.1-0.4,0.2-0.7,0.4-1c0.1-0.3,0.3-0.6,0.6-0.9c0.2-0.3,0.5-0.4,0.8-0.6
	C3,17.1,3.3,17,3.6,16.9c0.4-0.1,0.7-0.3,1.2-0.5c0.4-0.2,0.9-0.4,1.4-0.6l4.2-1.8v-2.1l-0.3-1c-0.1-0.2-0.1-0.4-0.3-0.8
	C9.6,9.6,9.3,9,9.2,8.3C9,7.7,8.9,6.9,8.9,6.2c0-1,0.1-1.8,0.3-2.5C9.4,3,9.7,2.5,10,2.1c0.3-0.4,0.7-0.7,1.1-0.8
	c0.9-0.4,2-0.4,2.9,0c0.4,0.2,0.8,0.4,1.1,0.8C15.6,2.5,15.8,3,16,3.7c0.2,0.7,0.3,1.5,0.3,2.5c0,0.7-0.1,1.4-0.2,2.1
	c-0.2,0.6-0.4,1.2-0.7,1.8l-0.3,0.8c-0.1,0.2-0.1,0.4-0.2,0.6c-0.1,0.2-0.1,0.4-0.1,0.5v2.1l6.5,2.8c0.3,0.1,0.6,0.2,0.8,0.3
	c0.4,0.1,0.6,0.3,0.8,0.6c0.2,0.3,0.4,0.6,0.6,0.9l0,0c0.2,0.3,0.3,0.7,0.4,1V21.1z"/>
</svg>
