<?xml version="1.0" encoding="utf-8"?>
<!-- Generator: Adobe Illustrator 19.0.0, SVG Export Plug-In . SVG Version: 6.00 Build 0)  -->
<svg version="1.1" id="Calque_1" xmlns="http://www.w3.org/2000/svg" xmlns:xlink="http://www.w3.org/1999/xlink" x="0px" y="0px"
	 width="86.9px" height="120.9px" viewBox="0 0 86.9 120.9" enable-background="new 0 0 86.9 120.9" xml:space="preserve">
<g>
	<g>
		<path fill="#010202" d="M35.7,120.9V34.3l51.3-17.4v86.2L35.7,120.9z M39.7,37.2v78l43.3-15V22.5L39.7,37.2z"/>
	</g>
</g>
<g>
	<polygon fill="#010202" points="38.9,37.3 36.5,34.1 70.2,8.7 70.2,25.2 66.2,25.2 66.2,16.7 	"/>
</g>
<g>
	<g>
		<polygon fill="#010202" points="0,112.2 0,25.7 51.3,8.3 51.3,27.5 47.3,27.5 47.3,13.8 4,28.5 4,106.6 37.2,95.1 38.5,98.9 		"/>
	</g>
</g>
<g>
	<polygon fill="#010202" points="3.2,28.6 0.8,25.4 34.5,0 34.5,16.5 30.5,16.5 30.5,8 	"/>
</g>
</svg>
