<?xml version="1.0" encoding="utf-8"?>
<!-- Generator: Adobe Illustrator 19.0.0, SVG Export Plug-In . SVG Version: 6.00 Build 0)  -->
<svg version="1.1" id="Calque_1" xmlns="http://www.w3.org/2000/svg" xmlns:xlink="http://www.w3.org/1999/xlink" x="0px" y="0px"
	 width="26px" height="18px" viewBox="-292 388 26 18" enable-background="new -292 388 26 18" xml:space="preserve">
<g>
	<rect x="-277.7" y="394" fill="#010202" width="11.7" height="2.5"/>
	<rect x="-274.4" y="398.7" fill="#010202" width="8.4" height="2.5"/>
	<rect x="-271.2" y="403.5" fill="#010202" width="5.2" height="2.5"/>
	<path fill="#010202" d="M-279.3,397.8v1.5c0.3,0.1,0.6,0.3,1,0.4c0.4,0.2,0.7,0.3,1.1,0.5c0.4,0.2,0.8,0.3,1.2,0.5
		c0.4,0.2,0.8,0.3,1.1,0.5c0.4,0.1,0.7,0.3,0.9,0.4c0.3,0.1,0.5,0.2,0.7,0.3c0.4,0.1,0.7,0.3,0.9,0.6c0.2,0.3,0.4,0.5,0.5,0.8
		c0.2,0.3,0.3,0.7,0.3,1v1.7H-292v-1.7c0.1-0.4,0.2-0.7,0.4-1c0.1-0.3,0.3-0.6,0.5-0.8c0.2-0.3,0.5-0.5,0.9-0.6
		c0.2-0.1,0.4-0.2,0.7-0.3s0.6-0.3,1-0.4c0.4-0.2,0.8-0.3,1.2-0.5c0.4-0.2,0.8-0.4,1.2-0.5c0.4-0.2,0.8-0.4,1.1-0.6
		c0.4-0.2,0.7-0.3,0.9-0.4v-1.5c0-0.1,0-0.2-0.1-0.3c0-0.1-0.1-0.3-0.1-0.4c0-0.2,0-0.4-0.1-0.6c-0.3-0.5-0.5-1-0.6-1.6
		c-0.2-0.6-0.2-1.3-0.2-1.9c0-0.9,0.1-1.7,0.2-2.3c0.2-0.6,0.5-1.1,0.8-1.5c0.3-0.4,0.7-0.7,1.1-0.8c0.5-0.2,1-0.3,1.5-0.3
		s1,0.1,1.4,0.3c0.4,0.2,0.8,0.4,1.1,0.8c0.3,0.4,0.6,0.9,0.8,1.5c0.2,0.6,0.3,1.4,0.3,2.3c0,0.7-0.1,1.3-0.2,1.9
		c-0.1,0.6-0.3,1.1-0.6,1.6c-0.1,0.2-0.2,0.4-0.3,0.6s-0.1,0.3-0.1,0.5C-279.3,397.6-279.3,397.7-279.3,397.8"/>
</g>
</svg>
