<?xml version="1.0" encoding="utf-8"?>
<!-- Generator: Adobe Illustrator 19.0.0, SVG Export Plug-In . SVG Version: 6.00 Build 0)  -->
<svg version="1.1" id="Calque_1" xmlns="http://www.w3.org/2000/svg" xmlns:xlink="http://www.w3.org/1999/xlink" x="0px" y="0px"
	 width="535.1px" height="220.4px" viewBox="0 0 535.1 220.4" enable-background="new 0 0 535.1 220.4" xml:space="preserve">
<g>
	<path fill="#333333" d="M256.3,190.7c3.4,0,5.1,1.9,6,4.9l6.9-3.4c-2.3-5-6.3-7.9-12.7-7.9c-9.5,0-15.2,5.8-15.2,16.2
		s5.8,16.2,14.3,16.2c6.9,0,10.6-2.3,13.4-7.1l-6.1-3.7c-1.4,3-3.6,4.4-6.5,4.4c-5.1,0-7.7-3.6-7.7-9.7
		C248.8,194.4,251.6,190.7,256.3,190.7z"/>
	<path fill="#333333" d="M296.2,207c-0.8-2.9-2.3-4.1-5.2-4.5v-0.1c4-0.4,6.8-3,6.8-7.8c0-7-4.3-9.5-11.3-9.5h-12.3v31.2h7.2v-11
		h3.1c2.4,0,3.6,0.5,4.2,3.1l1.2,4.7c0.3,1.3,0.7,2.5,1.6,3.2h8c-1-1.1-1.4-2.1-1.7-3.3L296.2,207z M286.1,199.2h-4.6V191h4.6
		c3,0,4.4,1.4,4.4,4.1C290.5,198.1,288.9,199.2,286.1,199.2z"/>
	<rect x="305" y="184.9" fill="#333333" width="7.2" height="31.2"/>
	<path fill="#333333" d="M331.9,184.9h-11.5v31.2h11c8.9,0,15.7-4.4,15.7-15.9C347,189.2,340.5,184.9,331.9,184.9z M330.7,210h-3.1
		v-19h3.5c5.1,0,8.4,2.2,8.4,9.6C339.5,207.7,336.3,210,330.7,210z"/>
	<path fill="#333333" d="M366.1,184.3c-9.2,0-14.8,5.8-14.8,16.2c0,10.4,5.6,16.2,14.8,16.2c9.2,0,14.8-5.8,14.8-16.2
		C381,190.1,375.4,184.3,366.1,184.3z M366.1,210.6c-4.9,0-7.3-3.8-7.3-9.9c0-6.2,2.4-9.9,7.3-9.9c4.9,0,7.4,3.8,7.4,9.9
		C373.5,206.8,371.1,210.6,366.1,210.6z"/>
	<path fill="#333333" d="M407.6,197.6c0,4,0.2,6.6,0.2,6.6h-0.2c0,0-0.8-1.8-2.6-4.2l-11-15.1h-6.8v31.2h7.2v-12.4
		c0-4.5-0.3-7-0.3-7h0.2c0,0,1,2,3,4.6l11,14.8h6.6v-31.2h-7.2V197.6z"/>
	<polygon fill="#333333" points="437.3,184.9 434.4,184.9 434.4,216.1 451.7,216.1 451.7,213.7 437.3,213.7 	"/>
	<path fill="#333333" d="M464.9,196.4c-1.9,3.5-2.3,4.9-2.3,4.9h-0.2c0,0-0.5-1.4-2.4-4.9l-6.2-11.4h-3.2l10.5,18.7v12.5h2.8v-12.5
		l10.1-18.7h-2.9L464.9,196.4z"/>
	<path fill="#333333" d="M489.3,184.5c-8.3,0-13.5,5.8-13.5,16.1c0,10.3,5.3,16,13.5,16c8.3,0,13.5-5.7,13.5-16
		C502.8,190.2,497.5,184.5,489.3,184.5z M489.3,214.1c-6.9,0-10.6-5.1-10.6-13.6s3.7-13.6,10.6-13.6c6.9,0,10.7,5.2,10.7,13.6
		S496.2,214.1,489.3,214.1z"/>
	<path fill="#333333" d="M531.3,205.8c0,3.5,0.2,6.6,0.2,6.6h-0.2c0,0-1.5-2.9-3.5-5.8L513,184.9h-3v31.2h2.7v-20.9
		c0-3.5-0.2-6.6-0.2-6.6h0.2c0,0,1.5,3,3.5,5.8l14.9,21.7h3v-31.2h-2.8V205.8z"/>
	<path fill="#333333" d="M311.2,64.8l-17.5-10.5l-0.8,1.8c-2.9,6.3-7.6,9.5-13.9,9.5c-13.6,0-16.5-11.6-16.5-21.4
		c0-13.8,6.1-22,16.2-22c6.6,0,10.4,3.1,12.7,10.5l0.6,1.9l19.7-9.6l-0.7-1.5c-6-13.1-16.7-19.7-31.7-19.7
		c-23.7,0-37.9,15-37.9,40.1c0,24.8,13.6,40.3,35.6,40.3c16.2,0,25.9-5.2,33.2-17.8L311.2,64.8z M277.1,80.6
		c-19.8,0-32.2-14.1-32.2-36.8c0-23.3,12.6-36.7,34.4-36.7c13.2,0,22.3,5.3,27.8,16.2l-13.2,6.4c-2.9-7.5-7.8-11-15.3-11
		c-12.1,0-19.7,9.8-19.7,25.4c0,16,7.1,24.8,19.9,24.8c7.1,0,12.6-3.4,16.1-9.8l11.4,6.8C299.9,76.5,291.5,80.6,277.1,80.6z"/>
	<path fill="#333333" d="M343.2,56.4h5.6c5.2,0,7.1,0.9,8.4,6.1l2.8,11c0.8,3.2,1.7,6.5,4.5,8.6l0.5,0.4h23.5l-2.8-2.9
		c-2.1-2.2-3-4.5-3.7-7.2l-3.8-13.8c-1.4-5.1-3.8-8.4-7.8-10.3c7.5-2.9,11.8-9.6,11.8-18.9c0-16.4-9.4-24.3-28.6-24.3h-30.8v77.4
		h20.5V56.4z M339.8,79.1h-13.6V8.6h27.4c17.2,0,25.1,6.6,25.1,20.9c0,9.9-5.2,15.9-14.7,16.9l-1.5,0.4v3L364,50
		c6.3,1.1,9.3,3.6,10.9,9.6l3.8,13.8c0.5,1.9,1.1,3.8,2.3,5.8h-14.8c-1.4-1.3-2.1-3.4-2.9-6.4l-2.8-11c-1.8-7.3-5.6-8.7-11.7-8.7h-9
		V79.1z"/>
	<path fill="#333333" d="M364.7,31c0-7.3-4.4-11.4-12.3-11.4h-12.6v22.8h12.6C360.6,42.4,364.7,38.6,364.7,31z M343.2,23.1h9.2
		c6,0,8.8,2.5,8.8,7.9c0,5.6-2.6,8-8.8,8h-9.2V23.1z"/>
	<path fill="#333333" d="M419.4,5.2h-20.5v77.4h20.5V5.2z M416,79.1h-13.6V8.6H416V79.1z"/>
	<path fill="#333333" d="M487.4,44.1c0-16.7-6.9-24.4-21.7-24.4h-10.1v48.5h9.1C480.2,68.1,487.4,60.5,487.4,44.1z M464.7,64.7H459
		V23.1h6.7c13,0,18.2,6.1,18.2,21C483.9,58.5,478.2,64.7,464.7,64.7z"/>
	<path fill="#333333" d="M505.2,43.1c0-24.4-13.4-37.9-37.7-37.9h-29v77.4h27.8C491.4,82.6,505.2,68.5,505.2,43.1z M441.9,8.6h25.5
		c15.7,0,34.3,6,34.3,34.4c0,29.8-19.3,36.1-35.4,36.1h-24.4V8.6z"/>
	<path fill="#333333" d="M267.7,167.6c16.4,0,26.3-12.4,26.3-33.2c0-20.9-9.8-33.3-26.3-33.3c-16.4,0-26.3,12.5-26.3,33.3
		C241.4,155.2,251.2,167.6,267.7,167.6z M267.7,109.3c11.2,0,17.6,9.1,17.6,25.1c0,9.3-2.3,25-17.6,25c-15.3,0-17.6-15.7-17.6-25
		C250.1,125,252.4,109.3,267.7,109.3z"/>
	<path fill="#333333" d="M344.8,166.7h8V102h-8.4v42.8c0,2.1,0,4.2,0.1,6.1c-0.9-1.7-2-3.5-3.2-5.4L313.9,102h-8.1v64.7h8.4v-42.8
		c0-2.2,0-4.2-0.1-6.1c0.9,1.7,2,3.6,3.2,5.4L344.8,166.7z"/>
	<polygon fill="#333333" points="368.5,102 368.5,166.7 403.3,166.7 403.3,158.5 377,158.5 377,102 	"/>
	<rect x="412.7" y="102" fill="#333333" width="8.5" height="64.7"/>
	<path fill="#333333" d="M445.3,123.9c0-2.2,0-4.2-0.1-6.1c0.9,1.7,2.1,3.6,3.2,5.4l27.4,43.4h8V102h-8.4v42.8c0,2.1,0,4.2,0.1,6
		c-0.9-1.7-2-3.5-3.2-5.4L445,102h-8.1v64.7h8.4V123.9z"/>
	<polygon fill="#333333" points="535.1,110.2 535.1,102 499.5,102 499.5,166.7 535.1,166.7 535.1,158.5 508.1,158.5 508.1,138.4 
		532.1,138.4 532.1,130.2 508.1,130.2 508.1,110.2 	"/>
	<path fill="#333333" d="M533.5,18.4c0-7.8-4.9-13.2-11.8-13.2c-6.4,0-10.7,4-10.7,9.9c0,3,1.1,5.5,3.1,7.2c1.6,1.4,3.8,2.2,6.1,2.3
		c-0.5,1.7-2.3,3.8-8.2,4.4l-1.6,0.1v9.1l1.7,0C525.9,38.1,533.5,31,533.5,18.4z M513.9,32.2c8.2-1.2,10-5.7,10-9.4v-2l-2,0.3
		c-2.2,0.3-4.2-0.2-5.6-1.4c-1.3-1.1-1.9-2.7-1.9-4.6c0-6,5.5-6.5,7.2-6.5c5,0,8.4,3.9,8.4,9.8c0,10.2-5.4,15.7-16.2,16.3V32.2z"/>
	<path fill="#333333" d="M0,220.4h23.6c18.2,0,28-20.7,32.3-33.5c4.9,12.7,15.9,33.5,35,33.5h128.8V0H0V220.4z M6,6h207.7v208.4
		H90.9c-22.3,0-32.2-38-32.3-38.4l-3.2-12.5l-2.7,12.7c-0.1,0.4-8.3,38.3-29.2,38.3H6V6z"/>
</g>
</svg>
