<?xml version="1.0" encoding="utf-8"?>
<!-- Generator: Adobe Illustrator 19.0.0, SVG Export Plug-In . SVG Version: 6.00 Build 0)  -->
<svg version="1.1" id="Calque_1" xmlns="http://www.w3.org/2000/svg" xmlns:xlink="http://www.w3.org/1999/xlink" x="0px" y="0px"
	 width="135.7px" height="93.4px" viewBox="0 0 135.7 93.4" enable-background="new 0 0 135.7 93.4" xml:space="preserve">
<g id="XMLID_28_">
	<path id="XMLID_38_" fill="#1D1D1B" d="M90.2,45.5L90.2,45.5l2.9-1.4l14.1-7v-0.1l27.2-27c0.8-0.8,1.4-2,1.3-3.2
		c-0.1-1.2-0.5-2.3-1.4-3.2l-2-2.1c-0.9-0.9-2-1.4-3.2-1.4c-1.2-0.1-2.4,0.4-3.2,1.2l-4,4c0,0,0,0,0,0l0-0.1L98.9,28.1h0L90.2,45.5
		L90.2,45.5z M127.5,2.8c0.4-0.4,0.9-0.6,1.5-0.6c0.6,0,1.2,0.3,1.7,0.8l2.1,2.1c0.5,0.5,0.8,1.1,0.8,1.7c0,0.6-0.2,1.1-0.6,1.5
		l-1.4,1.4c-0.2-0.8-0.6-1.6-1.3-2.2l-2.1-2.1c-0.6-0.6-1.4-1-2.2-1.3L127.5,2.8z M123.4,6.8c0.8-0.8,2.3-0.7,3.2,0.3l0.2,0.3
		L105,29.2l1.6,1.6l21.9-21.9l0.2,0.2c0.5,0.5,0.8,0.9,0.8,1.5c0,0.6-0.2,1.3-0.6,1.3h-0.2l-21.5,21.7v-1.7h-3v-4h-2.1L123.4,6.8z
		 M100.2,30.1h0.9v4h4v1.6l-7.1,3.5l-1.4-1.7L100.2,30.1z M95.7,39.8l0.3,0.3l-0.7,0.3L95.7,39.8z"/>
	<path id="XMLID_53_" fill="#1D1D1B" d="M132.3,49.2c-0.9-0.9-2-1.4-3.2-1.4c-1.2-0.1-2.4,0.4-3.2,1.2l-3.9,4c0,0,0.2,0,0.2,0v0.1
		l-23.3,23h0l-8.7,17.2l0,0l2.8-1.5l14.1-7v-0.1l27.2-27c1.7-1.7,1.7-4.6-0.1-6.4L132.3,49.2z M95.3,88.2l0.3-0.7l0.3,0.3L95.3,88.2
		z M105.2,83.3l-7.1,3.5l-1.4-1.6l3.6-7.2h0.9v4h4V83.3z M128.7,60.1l-21.5,21.3v-1.4h-3v-4h-2.1l21.3-21.4c0.4-0.4,0.9-0.6,1.5-0.6
		c0.6,0,1.2,0.3,1.7,0.8l0.2,0.2L105,77l1.6,1.6l21.9-21.9l0.2,0.2c0.5,0.5,0.8,1.1,0.8,1.7C129.5,59.2,129.1,59.7,128.7,60.1z
		 M133,56.1l-1.4,1.4c-0.2-0.8-0.6-1.6-1.3-2.2l-2.1-2.1c-0.6-0.6-1.4-1-2.2-1.3l1.4-1.4c0.4-0.4,0.9-0.6,1.5-0.6
		c0.6,0,1.2,0.3,1.7,0.8l2.1,2.1c0.5,0.5,0.8,1.1,0.8,1.7C133.6,55.2,133.4,55.7,133,56.1z"/>
	<polygon id="XMLID_57_" fill="#1D1D1B" points="90.2,93.3 90.2,93.3 90.2,93.3 	"/>
	<path id="XMLID_60_" fill="#1D1D1B" d="M78.8,59.9l-0.6,0.6l-1.2-8.1l2.7-2.7c1.6-1.6,2.6-3.1,3-4.4c0.5-1.5,0.2-2.9-0.9-4
		c-0.9-0.9-2-1.4-3-1.3c-1,0.1-2,0.6-3,1.6l-0.2,0.2l-1.1-13.3l9.3-9.3c4.3-4.3,7.1-7.8,8.5-10.7c1.6-3.2,1.5-5.8-0.2-7.5
		c-2-2-6.2,0.3-9.1,2.2c-4.1,2.7-7,4.9-8.7,6.5L65,19l-13.3-1.1l0.2-0.2c2-2,2.1-4.2,0.3-6c-1.4-1.4-4.1-2.2-8.4,2.1l-2.7,2.7
		L33,15.3l0.6-0.6c0.9-0.9,1.4-1.9,1.5-2.9c0-1-0.4-2-1.3-2.9c-1.3-1.3-2.6-1.4-3.5-1.3c-1.2,0.2-2.3,0.8-3.6,2.1l-4.1,4.1
		C6.3,11.3,2.9,12.2,1.7,13.4c-0.8,0.8-1.3,2-1.6,3.4c-0.3,1.6,0,2.9,0.9,3.8c0.6,0.6,1.9,1.3,7.5,2.5c4,0.9,10.8,3.1,20.4,6.8
		c11.8,4.5,15.4,6.5,16.2,7.4c0,0,0.2,0.9-2.6,3.9C34.1,49.7,28.2,56.4,25,61c-0.8,0-2.7-0.3-6.8-0.9c-5.8-1-7.6-0.9-8.3-0.8
		c-1.4,0.2-2.9,1.3-4.8,3.1c-1.1,1.1-1.7,2-1.7,2.9l0,0.5l0.4,0.4c0.8,0.8,3.2,2.4,15.7,7.8c3.5,8.8,6.1,13.9,7.9,15.7l0.4,0.4
		l0.5,0c0.8-0.1,1.8-0.6,2.9-1.7c1.9-1.9,2.9-3.4,3.1-4.7c0.1-0.8,0.2-2.5-0.8-8.4c-0.7-4.1-0.9-6-0.9-6.8c4.4-3.1,9.2-7.1,14.1-12
		c6.6-6.4,8.3-7.8,8.8-8c0.5-0.2,0.8-0.3,0.9-0.1c0.9,0.9,2.8,4.4,7.3,16.2c3.7,9.6,5.9,16.4,6.8,20.4c1.2,5.6,1.9,6.9,2.5,7.5
		c0.6,0.6,1.5,1,2.5,1c0.4,0,0.8,0,1.2-0.1c1.5-0.3,2.6-0.8,3.4-1.6c1.2-1.2,2.1-4.6-0.2-20.8l4.1-4.1c1.2-1.2,1.9-2.4,2.1-3.6
		c0.1-0.9,0-2.2-1.3-3.5C82.9,57.9,80.7,58,78.8,59.9z M83.8,62.9c-0.1,0.6-0.6,1.4-1.4,2.3l-4.9,4.9l0.1,0.6
		c2.5,16.9,1.2,19.2,1,19.4c-0.5,0.5-1.2,0.8-2.2,1c-0.6,0.1-1.4,0.2-1.7-0.2c-0.1-0.1-0.7-1-1.9-6.4c-0.9-4.1-3.2-11.1-6.9-20.8
		c-5.1-13.3-6.9-16.1-7.9-17C57.5,46.4,56.9,46,56,46c-0.5,0-1.1,0.1-1.7,0.5c-0.7,0.4-2.4,1.6-9.4,8.4c-5,4.9-9.8,9-14.3,12.1
		l-0.4,0.3l0,0.5c0,0.6,0,2.1,1,7.8c0.9,5.4,0.9,7,0.8,7.6c-0.1,0.6-0.6,1.7-2.5,3.5c-0.5,0.5-0.8,0.7-1,0.9
		c-1.2-1.6-3.4-5.5-7.1-14.8l-0.2-0.4l-0.4-0.2C10.8,67.9,7.2,65.9,5.9,65c0.2-0.2,0.4-0.6,0.9-1c1.9-1.9,3-2.4,3.6-2.5
		c0.7-0.1,2.5-0.1,7.6,0.8c5.7,1,7.2,1,7.8,1l0.6,0l0.3-0.5c3-4.5,8.9-11.3,17.6-20.1c1.3-1.4,4.7-5,2.5-7.1c-1-1-3.8-2.8-17-7.9
		c-9.7-3.7-16.6-6-20.7-6.9c-5.3-1.2-6.2-1.8-6.4-1.9c-0.4-0.4-0.3-1.2-0.2-1.8c0.2-1,0.5-1.8,1-2.2c0.3-0.3,2.5-1.5,19.5,1l0.6,0.1
		l4.9-4.9c2.3-2.3,3.3-1.3,3.8-0.8c0.8,0.8,1,1.5-0.2,2.7l-3.8,3.8l13.7,1.9l3.5-3.5c2.4-2.4,4.2-3.1,5.2-2.1
		c0.6,0.6,1.1,1.4-0.3,2.8l-3.6,3.6l19.3,1.6L76,11.2c1.5-1.5,4.3-3.6,8.3-6.2c5.2-3.4,6.2-2.5,6.3-2.5C90.9,2.9,92,4,90.3,7.4
		c-1.3,2.6-4,6-8.1,10.1L72.2,27.6l1.6,19.3l3.6-3.6c0.6-0.6,1.1-0.9,1.6-0.9c0.1,0,0.6,0,1.3,0.6c0.5,0.5,0.6,1,0.4,1.7
		c-0.3,0.9-1.1,2.1-2.5,3.4l-3.5,3.5l1.9,13.7l3.8-3.8c1.2-1.2,1.9-1,2.7-0.2C83.8,62,83.8,62.6,83.8,62.9z"/>
</g>
</svg>
