<?xml version="1.0" encoding="utf-8"?>
<!-- Generator: Adobe Illustrator 19.0.0, SVG Export Plug-In . SVG Version: 6.00 Build 0)  -->
<svg version="1.1" id="Calque_1" xmlns="http://www.w3.org/2000/svg" xmlns:xlink="http://www.w3.org/1999/xlink" x="0px" y="0px"
	 width="24.8px" height="22px" viewBox="-293 386 24.8 22" enable-background="new -293 386 24.8 22" xml:space="preserve">
<path d="M-268,408.2h-25l0-2.6c0.1-0.4,0.2-0.8,0.4-1.3c0.1-0.4,0.3-0.8,0.7-1.2c0.2-0.3,0.7-0.6,1.1-0.8c0.2-0.1,0.4-0.2,0.8-0.3
	c0.2-0.1,0.4-0.2,0.6-0.2c0.2-0.1,0.4-0.1,0.6-0.2c0.3-0.1,0.5-0.2,0.7-0.3c0.2-0.1,0.5-0.2,0.7-0.3c0.2-0.1,0.5-0.2,0.7-0.3
	c0.2-0.1,0.5-0.2,0.7-0.3c0.2-0.1,0.4-0.2,0.6-0.3c0.2-0.1,0.4-0.2,0.6-0.3c0.3-0.1,0.6-0.3,0.8-0.4v-1.5c0,0-0.1-0.2-0.1-0.4
	c0-0.2,0-0.2,0-0.3l-0.1-0.1V397c0-0.1-0.1-0.3-0.1-0.5c-0.3-0.5-0.5-1.3-0.7-2c-0.2-0.8-0.3-1.5-0.3-2.3c0-1,0.1-2,0.6-2.9
	c0.2-0.9,0.6-1.5,1-1.9c0.3-0.5,0.8-0.9,1.5-1.2c0.6-0.2,1.1-0.3,1.8-0.3c0.6,0,1.3,0.1,1.8,0.3c0.6,0.2,1.1,0.7,1.5,1.1
	c0.5,0.6,0.8,1.3,1,2c0.2,0.9,0.3,1.8,0.3,2.8c0,0.8-0.1,1.6-0.3,2.3c-0.2,0.6-0.4,1.3-0.7,2c0,0,0,0.1-0.1,0.2
	c0,0.1-0.1,0.3-0.1,0.5c0,0,0,0.1-0.1,0.2c0,0.1-0.1,0.3-0.1,0.4c0,0.1,0,0.1,0,0.2v1.4c0.3,0.1,0.5,0.3,0.8,0.4
	c0.2,0.1,0.4,0.2,0.6,0.3c0.2,0.1,0.5,0.2,0.7,0.3c0.2,0.1,0.4,0.2,0.7,0.3c0.2,0.1,0.4,0.2,0.7,0.3c0.5,0.1,0.9,0.3,1.3,0.5
	c0.4,0.2,0.8,0.4,1,0.5c0.3,0.1,0.6,0.2,0.9,0.3c0.5,0.2,0.9,0.4,1.2,0.8c0.2,0.2,0.3,0.4,0.4,0.6c0.1,0.2,0.2,0.3,0.3,0.5l0,0.1
	c0.1,0.3,0.2,0.5,0.3,0.8c0.1,0.2,0.1,0.3,0.2,0.5l0,0.2V408.2z M-292,407.2h23v-1.4c-0.1-0.2-0.1-0.3-0.2-0.5
	c-0.1-0.2-0.2-0.4-0.3-0.7c-0.1-0.2-0.2-0.3-0.3-0.5c-0.1-0.2-0.2-0.3-0.3-0.5c-0.2-0.2-0.5-0.3-0.9-0.5c-0.2-0.1-0.5-0.2-0.8-0.3
	c-0.3-0.1-0.8-0.3-1.2-0.5c-0.4-0.2-0.8-0.4-1.2-0.5c-0.3-0.1-0.6-0.2-0.8-0.3c-0.2-0.1-0.4-0.2-0.7-0.3c-0.2-0.1-0.4-0.2-0.7-0.3
	c-0.2-0.1-0.5-0.2-0.7-0.3c-0.4-0.2-0.8-0.4-1-0.5l-0.3-0.1V398c0-0.2,0-0.3,0.2-0.6c0,0,0-0.1,0.1-0.2c0-0.1,0.1-0.3,0.1-0.4
	c0,0,0-0.1,0.1-0.2c0-0.1,0.1-0.3,0.1-0.5c0.3-0.6,0.5-1.2,0.7-1.8c0.2-0.7,0.3-1.3,0.3-2.1c0-1-0.1-1.8-0.3-2.6
	c-0.2-0.6-0.4-1.2-0.8-1.6c-0.3-0.3-0.7-0.7-1.1-0.8c-0.4-0.2-0.9-0.3-1.4-0.3c-0.5,0-1,0.1-1.4,0.3c-0.5,0.2-0.9,0.5-1.1,0.8
	c-0.4,0.5-0.7,0.9-0.8,1.7l-0.1,0.1c-0.5,0.7-0.5,1.6-0.5,2.4c0,0.7,0.1,1.4,0.3,2.1c0.2,0.7,0.4,1.3,0.6,1.8
	c0.1,0.2,0.2,0.6,0.3,0.8c0.1,0.3,0.1,0.4,0.1,0.6c0.1,0.1,0.1,0.3,0.1,0.4v2.2l-0.3,0.1c-0.3,0.1-0.7,0.3-1,0.5
	c-0.2,0.1-0.4,0.2-0.7,0.3c-0.2,0.1-0.4,0.2-0.6,0.3c-0.3,0.1-0.5,0.2-0.7,0.3c-0.2,0.1-0.5,0.2-0.7,0.3c-0.2,0.1-0.5,0.2-0.7,0.3
	c-0.2,0.1-0.5,0.2-0.7,0.3c-0.2,0.1-0.4,0.2-0.6,0.3c-0.2,0.1-0.4,0.1-0.6,0.2l-0.1,0c-0.3,0.1-0.5,0.2-0.7,0.3
	c-0.3,0.2-0.7,0.3-0.8,0.5c-0.3,0.3-0.5,0.6-0.5,0.8l0,0.1c-0.2,0.3-0.3,0.7-0.3,1V407.2z"/>
</svg>
