<?xml version="1.0" encoding="utf-8"?>
<!-- Generator: Adobe Illustrator 19.0.0, SVG Export Plug-In . SVG Version: 6.00 Build 0)  -->
<svg version="1.1" id="Calque_1" xmlns="http://www.w3.org/2000/svg" xmlns:xlink="http://www.w3.org/1999/xlink" x="0px" y="0px"
	 width="93.8px" height="93.6px" viewBox="0 0 93.8 93.6" style="enable-background:new 0 0 93.8 93.6;" xml:space="preserve">
<style type="text/css">
	.st0{fill:#010202;}
</style>
<path class="st0" d="M78.8,59.8l-0.4,0.4l-1.1-7.8l2.7-2.7c1.6-1.6,2.6-3.1,3.1-4.4c0.5-1.6,0.2-3-1-4.1c-1-1-2-1.4-3.1-1.3
	c-1,0.1-2.1,0.6-3.1,1.6l-1.1-13l9.3-9.3c9-9,11.7-15,8.3-18.4c-2.1-2.1-6,0.1-9.3,2.2c-4.1,2.7-7,4.9-8.7,6.5l-9.3,9.3l-13-1.1
	c2.1-2.1,2.2-4.3,0.3-6.2c-1.5-1.5-4.2-2.3-8.6,2.1l-2.7,2.7l-7.8-1.1l0.5-0.5c2-2,2-4.2,0.2-6c-1.2-1.2-3.7-2.7-7.2,0.8l-4.1,4.1
	C6.4,11.2,3,12.1,1.8,13.3c-0.8,0.8-1.4,2-1.6,3.5c-0.3,1.7,0,3,0.9,3.9c0.6,0.6,1.9,1.3,7.5,2.5c4,0.9,10.8,3.1,20.4,6.8
	c12.4,4.7,15.5,6.6,16.2,7.3c0,0,0.2,0.9-2.5,3.8c-8.4,8.5-14.3,15.2-17.5,19.8c-0.9-0.1-2.7-0.3-6.7-0.9c-5.9-1-7.6-0.9-8.4-0.7
	c-1.4,0.2-3,1.3-4.9,3.2c-1.1,1.1-1.7,2.1-1.8,2.9l-0.1,0.6l0.4,0.4c0.8,0.8,3.2,2.4,15.7,7.9c3.5,8.7,6.1,13.9,7.9,15.7l0.4,0.4
	l0.6-0.1c0.9-0.1,1.8-0.6,2.9-1.8c1.9-1.9,2.9-3.5,3.2-4.8c0.1-0.8,0.2-2.5-0.8-8.4c-0.7-4.1-0.9-5.9-0.9-6.7
	c4.4-3.1,9.1-7.1,14-11.9c6.6-6.4,8.3-7.7,8.8-8c0.1-0.1,0.6-0.3,0.8-0.2c0.7,0.7,2.6,3.7,7.3,16.2c3.7,9.6,5.9,16.4,6.8,20.4
	c1.2,5.6,1.9,6.9,2.5,7.5c0.7,0.7,1.5,1,2.6,1c0.4,0,0.8,0,1.2-0.1c1.5-0.3,2.7-0.8,3.5-1.7c1.2-1.2,2.1-4.7-0.2-20.9l4.1-4.1
	c3.5-3.5,2-6,0.8-7.2C83,57.8,80.8,57.9,78.8,59.8z M82.4,65.1l-5,5l0.1,0.6c2.4,16.7,1.2,19.1,1,19.3c-0.5,0.5-1.2,0.8-2.2,1
	c-0.6,0.1-1.3,0.2-1.6-0.2c-0.1-0.1-0.7-1-1.9-6.3c-0.9-4.1-3.2-11.1-6.9-20.8C60.9,50.5,59,47.7,58,46.7c-0.3-0.3-1-0.8-1.9-0.8
	c-0.5,0-1.1,0.1-1.8,0.5c-0.7,0.4-2.5,1.7-9.4,8.4c-5,4.9-9.8,9-14.3,12l-0.5,0.3l0,0.6c0,0.6,0,2.1,1,7.9c0.9,5.3,0.9,7,0.8,7.5
	c-0.1,0.5-0.5,1.5-2.5,3.5c-0.4,0.4-0.7,0.7-0.9,0.8c-1.2-1.6-3.3-5.5-7-14.7l-0.2-0.5l-0.5-0.2C11,67.8,7.5,65.9,6.1,65
	c0.2-0.2,0.4-0.5,0.8-0.9c1.9-1.9,3-2.4,3.5-2.5c0.7-0.1,2.5-0.1,7.5,0.8c5.7,0.9,7.2,1,7.8,1l0.6,0l0.3-0.5
	c3-4.5,8.9-11.3,17.6-20.1c1.3-1.4,4.7-5,2.5-7.2c-1-1-3.8-2.9-17.1-7.9c-9.7-3.7-16.6-6-20.8-6.9c-5.3-1.1-6.2-1.7-6.3-1.8
	c-0.4-0.4-0.3-1.2-0.2-1.7c0.2-1,0.5-1.7,0.9-2.2c0.3-0.3,2.6-1.5,19.4,1l0.6,0.1l5-5c0.8-0.8,1.6-1.3,2.2-1.4c0.3,0,0.8,0,1.5,0.6
	c0.8,0.8,1,1.4-0.2,2.5l-4,4l14,2l3.5-3.5c2.4-2.4,4-3.1,5-2.1c0.6,0.6,1.1,1.3-0.3,2.7l-3.8,3.8L66,21.5l10.1-10.1
	c1.5-1.5,4.3-3.6,8.3-6.2c5.1-3.4,6.1-2.5,6.1-2.5c2.1,2.1-0.8,7.4-8.3,14.8L72.2,27.6l1.7,19.6l3.8-3.8c0.6-0.6,1.1-0.9,1.5-0.9
	c0.1,0,0.5,0,1.2,0.6c0.4,0.4,0.5,0.9,0.3,1.6c-0.2,0.6-0.8,1.7-2.4,3.4l-3.5,3.5l2,14l4-4c1.1-1.1,1.7-0.9,2.5-0.2
	C83.6,61.9,84.6,62.9,82.4,65.1z"/>
</svg>
