<?xml version="1.0" encoding="utf-8"?>
<!-- Generator: Adobe Illustrator 19.0.0, SVG Export Plug-In . SVG Version: 6.00 Build 0)  -->
<svg version="1.1" id="Calque_1" xmlns="http://www.w3.org/2000/svg" xmlns:xlink="http://www.w3.org/1999/xlink" x="0px" y="0px"
	 width="23.6px" height="23.6px" viewBox="0 0 23.6 23.6" style="enable-background:new 0 0 23.6 23.6;" xml:space="preserve">
<style type="text/css">
	.st0{fill:#010202;}
</style>
<g>
	<path class="st0" d="M11.8,0C5.3,0,0,5.3,0,11.8s5.3,11.8,11.8,11.8s11.8-5.3,11.8-11.8S18.3,0,11.8,0z M11.8,21.6
		c-5.4,0-9.8-4.4-9.8-9.8C2,6.4,6.4,2,11.8,2c5.4,0,9.8,4.4,9.8,9.8C21.6,17.2,17.2,21.6,11.8,21.6z"/>
	<polygon class="st0" points="11.7,11.6 5.6,9.8 5.1,11.5 11.6,13.4 11.6,13.5 11.6,13.7 12.5,13.7 12.7,13.7 12.7,13.7 13.4,13.7 
		13.5,3 13.5,2.8 11.8,2.8 	"/>
</g>
</svg>
