<?xml version="1.0" encoding="utf-8"?>
<!-- Generator: Adobe Illustrator 19.0.0, SVG Export Plug-In . SVG Version: 6.00 Build 0)  -->
<svg version="1.1" id="Calque_1" xmlns="http://www.w3.org/2000/svg" xmlns:xlink="http://www.w3.org/1999/xlink" x="0px" y="0px"
	 width="592.8px" height="593.5px" viewBox="1.2 51.4 592.8 593.5" enable-background="new 1.2 51.4 592.8 593.5"
	 xml:space="preserve">
<path fill="#2E4867" d="M591.8,319.5L311,57c-3.7-3.6-8.4-5.6-13.4-5.6c-5,0-9.7,2-13.4,5.6L95.4,233.5v0l-92,86l9.6,10.2l68.4-63.9
	v366.6c0,6.9,5.6,12.6,12.6,12.6h120.3V435.2h175.3v209.7h110.7c6.9,0,12.6-5.6,12.6-12.6V264.9l69.4,64.9c2.8,2.6,7.3,2.5,9.9-0.3
	C594.8,326.6,594.7,322.1,591.8,319.5z M498.9,630.9h-95.3V421.2H200.3v209.7H95.4V252.7L293.9,67.2L294,67c2.1-2.1,5.1-2.1,7.2,0
	l197.7,184.8V630.9z"/>
</svg>
