<?xml version="1.0" encoding="utf-8"?>
<!-- Generator: Adobe Illustrator 19.0.0, SVG Export Plug-In . SVG Version: 6.00 Build 0)  -->
<svg version="1.1" id="Calque_1" xmlns="http://www.w3.org/2000/svg" xmlns:xlink="http://www.w3.org/1999/xlink" x="0px" y="0px"
	 width="26px" height="18px" viewBox="0 0 26 18" enable-background="new 0 0 26 18" xml:space="preserve">
<g>
	<g>
		<defs>
			<path id="SVGID_1_" d="M-62.5,43.5c-0.6-4.2-1.7-8.4-1.9-12.6c-0.1-1.1-0.1-2.4,1.1-2.9c1.2-0.5,2.5,0.5,3.4,1.2
				c0.5,0.4,0.9,0.8,1.4,1.1c-0.4,1.3-0.9,2.6-1.5,3.9c-2.3,4.8-1.7,9.9,0.7,14.5h-2.5C-62,47-62.3,45.2-62.5,43.5 M-56.6,43.4
				c-0.1-0.2-0.1-0.3-0.2-0.5c0.6-0.3,1.1-0.8,1.7-1.2c0.8-0.5,1.6-1,2.2-1.7c2.3-2.9-1-6.4-3-8.3c-0.4-0.4-1-1-1.7-1.6
				c0.3-1.2,0.4-2.4,0.4-3.7c1.9,2,3.6,4.2,4.9,6.6c0.9,1.7,1.8,3.9,1.5,5.9c-0.2,1.2-0.9,2.2-1.9,2.9c-1.2,0.9-2.5,1.7-3.7,2.7
				C-56.4,44-56.5,43.7-56.6,43.4 M-79.6,48.6c0-0.1-1-2-1.4-2.9c-0.6-1.4-1-2.7-1.2-4.2c-0.3-2.2,0-4.4,0-6.6
				c0-0.8,0.2-1.9,0.2-1.9s1-0.6,1.4-0.9c3.2-2.6,3-7,1.6-10.8c1.1-0.7,2.3-1.4,3.6-1.9c2.3-0.7,4.8-0.7,7.1-0.1
				c0.6,2.4,1,4.9,0.5,7.4c-0.7,3.5-3.2,6.5-6.3,8.3c-1.7,1-3.7,1.3-5.3,2.4c-1.9,1.3-1.3,4.7-0.8,6.5c0.5,1.6,1.3,3.3,2.4,4.7
				H-79.6z M-86.4,18.9c0-1.5-0.3-2.9-0.8-4.2c-0.4-0.9-0.9-1.8-1.4-2.6c2,1.1,3.9,2.4,5.4,4c1.3,1.3,2.3,3,3,4.8
				c-1,0.7-2.1,1.6-3.4,1.6c-0.1,0-0.1,0-0.2,0C-85.8,22.6-86.4,20.6-86.4,18.9 M-57.3,6.8c-1.3,1.2-3.1,2.7-5,2.5
				c-0.8-0.1-1.5-0.4-2-0.9c0,0,0,0,0,0c-0.6-0.4-1-1.5-1-1.5s0,0,0,0c0.6-0.8,0.9-2.2,0.8-3.1c-0.1-1.4-1.1-2.3-2.3-2.8
				c0.2-0.4,0.4-0.9,0.6-1.3c0.1-0.2,0-0.6-0.3-0.6c-1.3-0.3-2.9-0.2-4.2,0.3c-2.1,0.9-2.7,3.5-2,5.5c0.5,1.6,1.8,2.6,3.4,3.1
				c0.3,0.1,0.5,0.2,0.8,0.2c0.1,0,0.1,0,0.2,0c0.2,0.2,0.4,0.5,0.6,0.7c0.6,1.3-0.6,1.6-1.3,2.5c-1.3,1.6-0.3,3.9,0.2,5.6
				c0.1,0.5,0.3,1,0.4,1.5c-0.1,0-0.2,0-0.2-0.1c-2.7-0.6-5.5-0.4-8,0.7c-0.9,0.4-1.8,0.8-2.6,1.3c-0.8-1.7-1.8-3.3-2.8-4.5
				c-2.2-2.4-5.2-4.4-8.2-5.6c-0.4-0.2-0.8,0.5-0.4,0.7c1.1,0.9,2,2.1,2.6,3.4c0.6,1.3,1,2.7,1,4.2c0,1.2,0.1,2.3,0.7,3.3
				c1.1,1.7,3.2,1.8,4.9,0.9c0.6-0.3,1.2-0.7,1.8-1c0.3,0.7,0.5,1.5,0.6,2.2c0.4,1.7,0.5,3.7-0.3,5.3c-0.4,1-1.1,1.8-2,2.4
				c-0.5,0.4-1.1,0.5-1.4,1.1c-0.4,1.2-0.3,3-0.3,4.2c-0.1,2.1,0,4.2,0.4,6.3c0.3,1.2,0.8,2.4,1.3,3.5c0.3,0.7,0.7,1.9,1.3,2.4
				c0.7,0.6,3.3,0.2,3.3,0.2c0.4,0,0.5-0.5,0.3-0.8c-1.1-1.4-2-3-2.6-4.7c-0.6-1.8-1.3-5.1,0.8-6.1c1.8-0.8,3.7-1.4,5.3-2.5
				c2.2-1.4,4-3.4,5.2-5.8c1.7-3.4,1.3-6.8,0.4-10.1c3.4,1,6.6,3.1,9.1,5.4c0.2,0.2,0.3,0.3,0.5,0.5c0,1.3-0.1,2.5-0.4,3.8
				c-2.1-1.9-4.9-3.6-6.5-1.2c-0.7,1-0.6,2.4-0.5,3.5c0.2,2.3,0.7,4.7,1.1,7c0.6,3.5,1.1,7.1,1.6,10.6c0,0.2,0.2,0.4,0.4,0.4h3.6
				c0.3,0,0.5-0.4,0.4-0.7c-1.7-2.9-2.7-6-2.4-9.3c0.2-2.9,1.7-5.2,2.6-7.9c0.1-0.2,0.1-0.5,0.2-0.7c0.3,0.3,0.6,0.6,0.9,0.9
				c1.4,1.4,3.2,3,3.8,5c0.5,2-0.9,3-2.4,4c-0.5,0.3-1.9,0.9-2.2,1.6c-0.3,0.7,0.5,2,0.7,2.7c0.1,0.3,0.5,0.4,0.7,0.2
				c1.3-1.1,2.8-2,4.1-3c0.8-0.6,1.5-1.4,1.9-2.3c1.7-3.9-1.6-8.6-3.8-11.5c-0.9-1.2-2-2.4-3.1-3.5c-0.1-2.7-0.9-5.5-1.9-8.1
				c-0.2-0.5-1.1-0.3-0.9,0.2c0.9,2.3,1.7,4.6,1.9,7c-2.8-2.6-6.1-4.6-9.7-5.6c-0.3-1.3-0.7-2.6-1-3.9c-0.1-0.5-0.2-1.1-0.2-1.7
				c0.1-0.9,0.6-1.3,1.3-1.8c0.7-0.6,1-1.5,0.6-2.4c-0.4-1.1-1-1.4-1.9-1.6c-2.4-0.6-3.9-2.8-3-5.4c0.6-1.9,2.8-2.3,4.6-2.1
				C-67.6,0.2-67.8,0.6-68,1c-0.1,0.3,0,0.6,0.3,0.6c2,0.7,2.6,2.2,1.8,4.1C-66,6.1-66.4,6.5-66.4,7c0.1,0.6,0.7,1.3,1.1,1.7
				c2.3,2.5,5.6,1.1,7.8-0.8c2.8-2.4,5-5.5,7-8.7l-0.6-0.7C-52.8,1.6-54.8,4.4-57.3,6.8 M-49.5-3.9c-0.4,0.6-0.7,1.2-1.1,1.8
				l0.6,0.7c0.4-0.7,0.8-1.4,1.2-2c0.2-0.3-0.1-0.7-0.4-0.7C-49.3-4.1-49.4-4.1-49.5-3.9"/>
		</defs>
		<clipPath id="SVGID_2_">
			<use xlink:href="#SVGID_1_"  overflow="visible"/>
		</clipPath>
		
			<linearGradient id="SVGID_3_" gradientUnits="userSpaceOnUse" x1="-927.4238" y1="510.372" x2="-926.7993" y2="510.372" gradientTransform="matrix(55.7329 -91.6645 -91.6645 -55.7329 98385.3594 -56518.4844)">
			<stop  offset="0" style="stop-color:#344967"/>
			<stop  offset="2.148350e-002" style="stop-color:#344967"/>
			<stop  offset="0.5007" style="stop-color:#009A9A"/>
			<stop  offset="1" style="stop-color:#2DAE9F"/>
		</linearGradient>
		<polygon clip-path="url(#SVGID_2_)" fill="url(#SVGID_3_)" points="-115.2,35.3 -79.7,-23.1 -24.5,10.4 -60,68.9 		"/>
	</g>
	<g>
		<path fill="#B90541" d="M-50.1-0.4c1.6,1.7,2.8,3.8,3.6,6.1c0.2,0.5,1,0.3,0.9-0.2c-0.9-2.6-2.3-4.8-4-6.7c0,0-0.4-0.5-0.6-0.7
			c-1.8-1.8-4-3.2-6.4-4.2c-0.5-0.2-0.8,0.6-0.2,0.9c2.4,1,4.4,2.4,6.2,4.1C-50.7-1-50.3-0.6-50.1-0.4"/>
	</g>
</g>
<g>
	<path fill="#B90541" d="M-37.5,38.8c0.4,0,0.7,0,1.2,0c0.6,0,1.7,0,2.1,0c0.3,0,0.4,0.1,0.4,0.2c0,0.1-0.1,0.2-0.4,0.3
		c-0.9,0.2-1,0.4-1.1,0.6c-0.1,0.7-0.1,2.3-0.1,4.7c0,1.3,0,2.8,0.1,3.3c0,0.2,0.4,0.6,0.5,0.6c0.4,0.1,1,0.1,1.5,0.1
		c0.5,0,0.9,0,1.1,0c0.1,0,0.3,0,0.6-0.3c0.2-0.2,0.5-0.5,0.9-1.1c0.2-0.3,0.3-0.4,0.4-0.4c0.1,0,0.1,0.2,0.1,0.4
		c-0.3,0.8-0.4,1.1-0.5,1.7c0,0.2-0.3,0.3-0.4,0.3c-0.2,0-1.7-0.1-4.9-0.1c-1.1,0-1.9,0.1-2.1,0.1c-0.3,0-0.5,0-0.5-0.2
		c0-0.1,0.1-0.2,0.4-0.3c0.9-0.2,1.1-0.5,1.2-1.1c0-0.4,0.1-3,0.1-5.3c0-0.6,0-1.8,0-2.3c0-0.4-0.1-0.7-0.9-0.8
		c-0.3-0.1-0.5-0.2-0.5-0.3C-37.9,38.8-37.8,38.8-37.5,38.8z"/>
	<path fill="#B90541" d="M-24.2,43.3c0.4,0.3,0.6,0.8,0.6,1.4c0,0.1-0.1,0.3-0.3,0.3c-0.2,0-2.9,0-3.7,0c0,0-0.1,0.1-0.1,0.1
		c0,0.1-0.1,0.4-0.1,0.6c0,0.6,0.3,1.4,0.6,1.8c0.4,0.5,1,0.9,1.8,0.9c0.7,0,1.2-0.2,1.5-0.6c0.1-0.1,0.1-0.2,0.2-0.2
		c0.1,0,0.1,0.1,0.1,0.2c0,0.1-0.1,0.3-0.1,0.4c-0.6,0.8-1.4,1.2-2.3,1.2c-1.7,0-2.9-1.3-2.9-3.2c0-1.3,0.7-2.6,1.9-3.2
		c0.4-0.2,1-0.3,1.2-0.3C-25.2,42.7-24.6,42.9-24.2,43.3z M-27.6,44.3c0,0.1,0,0.2,0.1,0.2c0.4,0,1.3,0,2.1,0c0.4,0,0.5-0.1,0.5-0.4
		c0-0.5-0.5-1-1.1-1C-26.7,43.1-27.3,43.5-27.6,44.3z"/>
	<path fill="#B90541" d="M-13.2,43.6c0.4,0.4,0.8,1.2,0.8,2.1c0,0.8-0.3,2-1.4,2.8c-0.9,0.7-1.8,0.8-2.6,0.8c-0.4,0-0.7,0-0.9-0.1
		c0,0-0.1,0.1-0.1,0.2c0,1.6,0,2.2,0.1,2.7c0,0.4,0.2,0.6,0.8,0.8c0.3,0.1,0.5,0.2,0.5,0.3c0,0.1-0.2,0.2-0.4,0.2
		c-0.4,0-1.3-0.1-1.9-0.1c-0.4,0-0.5,0-1,0c-0.2,0-0.5-0.1-0.5-0.2c0-0.1,0.1-0.2,0.4-0.2c0.9-0.2,0.9-0.3,1-1.5c0-0.5,0-1.9,0-3.5
		c0-1.1,0-2.3,0-3.3c0-0.7-0.1-0.8-0.1-0.8c-0.4-0.3-0.6-0.4-0.6-0.5c0-0.1,0.2-0.3,0.2-0.3c0.2-0.1,1-0.4,1.2-0.6
		c0.2-0.1,0.3-0.1,0.3-0.1c0,0,0.2,0.1,0.2,0.2c0,0.3,0,0.6,0,0.8c0,0.1,0.1,0.1,0.1,0.1c0.4-0.3,0.8-0.5,1-0.6
		c0.3-0.1,0.7-0.2,1.2-0.2C-14.5,42.7-13.7,43-13.2,43.6z M-17.2,43.8c-0.1,0.1-0.2,0.2-0.2,0.5c-0.1,0.5-0.1,2.2,0,2.9
		c0,0.3,0.1,0.6,0.2,0.7c0.4,0.6,1.2,0.9,1.6,0.9c0.2,0,0.5-0.1,0.7-0.3c0.8-0.7,1.1-1.9,1.1-2.4c0-0.4,0-1.2-0.7-2
		c-0.4-0.4-1.1-0.7-1.4-0.7C-16.5,43.5-17,43.6-17.2,43.8z"/>
	<path fill="#B90541" d="M-7.1,43.4c0.2,0.3,0.3,0.7,0.3,1.3c0,0.6-0.1,2.7-0.1,2.8c0,0.7,0.5,0.8,0.6,0.8c0.1,0,0.4-0.1,0.6-0.2
		c0,0,0.1,0,0.1,0c0,0,0,0.1,0,0.2c0,0.3-0.7,1-1.4,1c-0.4,0-0.8-0.2-1-0.8c0,0-0.1-0.1-0.1-0.1c-0.6,0.4-1.3,0.7-1.4,0.7
		c-0.2,0.1-0.6,0.1-0.6,0.1c-0.6,0-1.1-0.7-1.1-1.5c0-0.3,0.1-0.6,0.3-0.8c0.2-0.2,0.4-0.3,0.6-0.4c0.2-0.1,1.5-0.5,1.9-0.6
		c0.4-0.1,0.5-0.2,0.5-0.3c0-0.1,0-1.1,0-1.3c0-0.4-0.5-1.1-1.3-1.1c-0.3,0-0.5,0.1-0.7,0.2c-0.1,0-0.1,0.3-0.1,0.7
		c0,0-0.1,0.1-0.1,0.2c-0.2,0.1-1,0.5-1,0.5c-0.1,0-0.2-0.1-0.2-0.2c0-0.5,0.5-0.9,1.2-1.4c0.5-0.3,1.2-0.6,1.5-0.6
		C-7.8,42.6-7.4,43-7.1,43.4z M-8.2,48.2c0.1-0.1,0.2-0.4,0.2-0.4c0-0.4,0-0.9,0-1.3c0,0-0.1-0.1-0.1-0.1c-0.4,0-1.2,0.3-1.7,0.5
		c-0.2,0.1-0.3,0.2-0.3,0.6c0,0.7,0.7,1,1,1C-8.8,48.5-8.5,48.4-8.2,48.2z"/>
	<path fill="#B90541" d="M-4.5,43.2c0.5-0.2,1-0.4,1.2-0.5c0.2-0.1,0.3-0.2,0.3-0.2c0.1,0,0.1,0.1,0.1,0.2c0,0.3,0,0.6,0,0.9
		c0,0.1,0.1,0.1,0.1,0.1c0.6-0.6,1.3-1,1.8-1c0.7,0,0.8,0.4,0.8,0.5c0,0,0,0.1-0.1,0.2c-0.2,0.3-0.6,0.7-0.7,0.7c0,0-0.2,0-0.2,0
		c-0.2-0.2-0.6-0.4-0.9-0.4c-0.3,0-0.5,0-0.7,0.2c-0.1,0.1-0.2,0.3-0.2,0.4c0,0.3,0.1,3.2,0.1,3.5c0,0.5,0.1,0.8,0.4,0.8
		c0.2,0,0.5,0.1,0.7,0.2c0.3,0.1,0.3,0.2,0.3,0.3c0,0.1-0.1,0.1-0.4,0.1c-0.4,0-1-0.1-1.9-0.1c-0.5,0-0.7,0.1-1.1,0.1
		C-4.9,49.2-5,49.1-5,49c0-0.1,0.2-0.2,0.3-0.2c0.6-0.2,0.7-0.4,0.7-1.3c0-0.4,0-2,0-3.1c0-0.2,0-0.4-0.2-0.5
		c-0.4-0.3-0.5-0.4-0.5-0.4C-4.7,43.4-4.7,43.3-4.5,43.2z"/>
	<path fill="#B90541" d="M4.7,42.8c0,0,0.2,0.1,0.2,0.1c0,0,0,0.4,0,0.6c0,0.1-0.3,0.2-0.4,0.2c-0.1,0-1.6,0-1.8,0
		c-0.1,0-0.1,0.1-0.1,0.1c0,0.3,0,2.7,0,3.5c0,0.4,0.1,0.6,0.3,0.8c0.3,0.3,0.6,0.3,1,0.3c0.2,0,0.5-0.1,0.8-0.2
		c0.1-0.1,0.2-0.1,0.2-0.1c0,0,0.1,0,0.1,0.2c0,0.1-0.1,0.3-0.2,0.4c-0.4,0.4-1,0.7-1.7,0.7c-0.7,0-1.2-0.4-1.4-0.8
		c-0.2-0.3-0.2-0.6-0.2-1.1c0-0.6,0.1-3,0.1-3.6c0-0.1-0.3-0.2-0.6-0.3c-0.1,0-0.2-0.1-0.2-0.2c0-0.1,0-0.1,0.1-0.2
		c0.6-0.5,1.1-0.8,1.3-1.1c0.2-0.2,0.3-0.4,0.4-0.4c0.1,0,0.2,0.1,0.2,0.2c0,0.1,0,0.3,0,0.8c0,0,0.1,0.1,0.1,0.1
		C3,42.9,4.6,42.8,4.7,42.8z"/>
	<path fill="#B90541" d="M10.4,43.3c0.4,0.3,0.6,0.8,0.6,1.4c0,0.1-0.1,0.3-0.3,0.3c-0.2,0-2.9,0-3.7,0c0,0-0.1,0.1-0.1,0.1
		c0,0.1-0.1,0.4-0.1,0.6c0,0.6,0.3,1.4,0.6,1.8c0.4,0.5,1,0.9,1.8,0.9c0.7,0,1.2-0.2,1.5-0.6c0.1-0.1,0.1-0.2,0.2-0.2
		c0.1,0,0.1,0.1,0.1,0.2c0,0.1-0.1,0.3-0.1,0.4c-0.6,0.8-1.4,1.2-2.3,1.2c-1.7,0-2.9-1.3-2.9-3.2c0-1.3,0.7-2.6,1.9-3.2
		c0.4-0.2,1-0.3,1.2-0.3C9.4,42.7,10,42.9,10.4,43.3z M7.1,44.3c0,0.1,0,0.2,0.1,0.2c0.4,0,1.3,0,2.1,0c0.4,0,0.5-0.1,0.5-0.4
		c0-0.5-0.5-1-1.1-1C8,43.1,7.3,43.5,7.1,44.3z"/>
	<path fill="#B90541" d="M12.5,43.1c0.3-0.1,0.9-0.3,1.1-0.5c0.2-0.1,0.3-0.2,0.4-0.2s0.2,0.2,0.2,0.2c0,0.3-0.1,0.7-0.1,0.8
		c0,0.1,0.1,0,0.1,0c0.6-0.4,1.5-0.9,2.2-0.9c0.8,0,1.2,0.4,1.5,0.6c0.4,0.4,0.6,1.2,0.6,2c0,0.3,0,2.7,0,2.9c0,0.2,0.2,0.5,0.6,0.6
		c0.3,0.1,0.4,0.2,0.4,0.3c0,0.1-0.2,0.2-0.5,0.2c-0.4,0-0.7,0-1.2,0c-0.4,0-0.9,0-1.1,0c-0.1,0-0.4-0.1-0.4-0.2
		c0-0.1,0.2-0.2,0.4-0.3c0.4-0.1,0.5-0.3,0.5-0.8c0-0.5,0-2.5,0-2.9c0-0.6-0.3-1-0.5-1.2c-0.2-0.1-0.7-0.3-1-0.3
		c-0.7,0-1.1,0.2-1.4,0.5c0,0-0.2,0.2-0.2,0.4c0,0.2,0,3.7,0,3.9c0,0.2,0.1,0.4,0.6,0.5c0.2,0,0.3,0.1,0.3,0.2
		c0,0.1-0.2,0.2-0.4,0.2c-0.2,0-0.6,0-1,0c-0.6,0-1.1,0-1.3,0c-0.2,0-0.4-0.1-0.4-0.2c0-0.1,0.2-0.2,0.3-0.2
		c0.5-0.2,0.6-0.3,0.7-0.9c0-0.5,0.1-1.9,0.1-3.5c0-0.2,0-0.3-0.4-0.6c-0.2-0.1-0.3-0.2-0.3-0.3C12.2,43.3,12.4,43.1,12.5,43.1z"/>
	<path fill="#B90541" d="M24.3,43.4c0.2,0.3,0.3,0.7,0.3,1.3c0,0.6-0.1,2.7-0.1,2.8c0,0.7,0.5,0.8,0.6,0.8c0.1,0,0.4-0.1,0.6-0.2
		c0,0,0.1,0,0.1,0c0,0,0,0.1,0,0.2c0,0.3-0.7,1-1.4,1c-0.4,0-0.8-0.2-1-0.8c0,0-0.1-0.1-0.1-0.1c-0.6,0.4-1.3,0.7-1.4,0.7
		c-0.2,0.1-0.6,0.1-0.6,0.1c-0.6,0-1.1-0.7-1.1-1.5c0-0.3,0.1-0.6,0.3-0.8c0.2-0.2,0.4-0.3,0.6-0.4c0.2-0.1,1.5-0.5,1.9-0.6
		c0.4-0.1,0.5-0.2,0.5-0.3c0-0.1,0-1.1,0-1.3c0-0.4-0.5-1.1-1.3-1.1c-0.3,0-0.5,0.1-0.7,0.2c-0.1,0-0.1,0.3-0.1,0.7
		c0,0-0.1,0.1-0.1,0.2c-0.2,0.1-1,0.5-1,0.5c-0.1,0-0.2-0.1-0.2-0.2c0-0.5,0.4-0.9,1.2-1.4c0.5-0.3,1.2-0.6,1.5-0.6
		C23.7,42.6,24.1,43,24.3,43.4z M23.3,48.2c0.1-0.1,0.2-0.4,0.2-0.4c0-0.4,0-0.9,0-1.3c0,0-0.1-0.1-0.1-0.1c-0.5,0-1.2,0.3-1.7,0.5
		c-0.2,0.1-0.3,0.2-0.3,0.6c0,0.7,0.7,1,1,1C22.6,48.5,22.9,48.4,23.3,48.2z"/>
	<path fill="#B90541" d="M27.1,43.1c0.6-0.1,1.4-0.5,1.6-0.5c0.1,0,0.1,0.2,0.1,0.2c0,0.2-0.1,2.3-0.1,3.2c0,0.9,0,1.6,0,2.1
		c0,0.5,0.4,0.5,0.8,0.7c0.3,0.1,0.4,0.2,0.4,0.3c0,0.1-0.2,0.2-0.4,0.2c-0.1,0-0.9,0-1.3,0c-0.5,0-1.1,0.1-1.4,0.1
		c-0.3,0-0.4-0.1-0.4-0.2c0-0.1,0.1-0.2,0.4-0.3c0.4-0.1,0.6-0.3,0.6-0.5c0-0.2,0.1-1.2,0.1-1.7c0,0,0-2.3,0-2.5
		c0-0.1-0.2-0.2-0.7-0.6c-0.1-0.1-0.1-0.1-0.1-0.2C26.8,43.3,27,43.2,27.1,43.1z M29,40.2c0,0.4-0.5,0.8-0.8,0.8
		c-0.1,0-0.4-0.1-0.5-0.2c-0.1-0.1-0.2-0.3-0.2-0.6c0-0.1,0.1-0.4,0.2-0.6c0.2-0.1,0.4-0.2,0.6-0.2C28.7,39.4,29,39.9,29,40.2z"/>
	<path fill="#B90541" d="M31.1,43.2c0.5-0.2,1-0.4,1.2-0.5c0.2-0.1,0.3-0.2,0.3-0.2c0.1,0,0.1,0.1,0.1,0.2c0,0.3,0,0.6,0,0.9
		c0,0.1,0.1,0.1,0.1,0.1c0.6-0.6,1.3-1,1.8-1c0.7,0,0.8,0.4,0.8,0.5c0,0,0,0.1-0.1,0.2c-0.2,0.3-0.6,0.7-0.7,0.7c0,0-0.2,0-0.2,0
		c-0.2-0.2-0.6-0.4-0.9-0.4c-0.3,0-0.5,0-0.7,0.2c-0.1,0.1-0.2,0.3-0.2,0.4c0,0.3,0.1,3.2,0.1,3.5c0,0.5,0.1,0.8,0.4,0.8
		c0.2,0,0.5,0.1,0.7,0.2c0.3,0.1,0.3,0.2,0.3,0.3c0,0.1-0.1,0.1-0.4,0.1c-0.4,0-1-0.1-1.9-0.1c-0.5,0-0.7,0.1-1.1,0.1
		c-0.2,0-0.3-0.1-0.3-0.2c0-0.1,0.2-0.2,0.3-0.2c0.6-0.2,0.7-0.4,0.7-1.3c0-0.4,0-2,0-3.1c0-0.2,0-0.4-0.2-0.5
		c-0.4-0.3-0.5-0.4-0.5-0.4C30.9,43.4,30.9,43.3,31.1,43.2z"/>
	<path fill="#B90541" d="M40.7,43.3c0.4,0.3,0.6,0.8,0.6,1.4c0,0.1-0.1,0.3-0.3,0.3c-0.2,0-2.9,0-3.7,0c0,0-0.1,0.1-0.1,0.1
		c0,0.1-0.1,0.4-0.1,0.6c0,0.6,0.3,1.4,0.6,1.8c0.4,0.5,1,0.9,1.8,0.9c0.7,0,1.2-0.2,1.5-0.6c0.1-0.1,0.1-0.2,0.2-0.2
		c0.1,0,0.1,0.1,0.1,0.2c0,0.1-0.1,0.3-0.1,0.4c-0.6,0.8-1.4,1.2-2.3,1.2c-1.7,0-2.9-1.3-2.9-3.2c0-1.3,0.7-2.6,1.9-3.2
		c0.4-0.2,0.9-0.3,1.2-0.3C39.7,42.7,40.3,42.9,40.7,43.3z M37.3,44.3c0,0.1,0,0.2,0.1,0.2c0.4,0,1.3,0,2.1,0c0.4,0,0.5-0.1,0.5-0.4
		c0-0.5-0.5-1-1.1-1C38.2,43.1,37.6,43.5,37.3,44.3z"/>
	<path fill="#B90541" d="M50.2,43.3c0.4,0.3,0.6,0.8,0.6,1.4c0,0.1-0.1,0.3-0.3,0.3c-0.2,0-2.9,0-3.7,0c0,0-0.1,0.1-0.1,0.1
		c0,0.1-0.1,0.4-0.1,0.6c0,0.6,0.3,1.4,0.6,1.8c0.4,0.5,1,0.9,1.8,0.9c0.7,0,1.2-0.2,1.5-0.6c0.1-0.1,0.1-0.2,0.2-0.2
		c0.1,0,0.1,0.1,0.1,0.2c0,0.1-0.1,0.3-0.1,0.4c-0.6,0.8-1.4,1.2-2.3,1.2c-1.7,0-2.9-1.3-2.9-3.2c0-1.3,0.7-2.6,1.9-3.2
		c0.4-0.2,0.9-0.3,1.2-0.3C49.2,42.7,49.8,42.9,50.2,43.3z M46.8,44.3c0,0.1,0,0.2,0.1,0.2c0.4,0,1.3,0,2.1,0c0.4,0,0.5-0.1,0.5-0.4
		c0-0.5-0.5-1-1.1-1C47.7,43.1,47.1,43.5,46.8,44.3z"/>
	<path fill="#B90541" d="M51.9,42.8c0.2,0,1,0.1,1.4,0.1c0.3,0,0.7,0,1,0c0.2,0,0.4,0,0.4,0.1c0,0.1-0.1,0.2-0.3,0.3
		c-0.4,0.1-0.3,0.3-0.3,0.3c0,0.1,0.6,1.2,0.9,1.5c0,0,0.1,0,0.1,0c0.3-0.3,0.7-1,0.9-1.3c0.2-0.3,0.1-0.3-0.1-0.4
		c-0.4-0.1-0.4-0.2-0.4-0.3c0-0.1,0.1-0.2,0.3-0.2c0.2,0,0.4,0,0.7,0c0.4,0,1.1-0.1,1.4-0.1c0.2,0,0.3,0,0.3,0.2
		c0,0.1-0.2,0.2-0.3,0.2c-0.6,0.2-1,0.3-1.4,0.8c-0.4,0.5-0.7,0.9-1.1,1.5c0,0.1,0,0.1,0,0.2c0.2,0.4,0.8,1.6,1.3,2.3
		c0.5,0.7,0.9,0.8,1.2,0.9c0.3,0.1,0.4,0.2,0.4,0.2c0,0.1-0.1,0.2-0.4,0.2c-0.5,0-1.1-0.1-1.7-0.1c-0.3,0-0.5,0-0.8,0
		c-0.2,0-0.3-0.1-0.3-0.2c0-0.1,0.1-0.1,0.3-0.2c0.3-0.1,0.5-0.2,0.2-0.6c-0.2-0.3-0.7-1.3-0.8-1.4c0,0-0.1,0-0.1,0
		c-0.3,0.3-1,1.4-1,1.6c0,0.2,0.1,0.3,0.4,0.5c0.1,0,0.2,0.1,0.2,0.2c0,0.1-0.2,0.2-0.3,0.2c-0.3,0-0.4,0-0.7,0
		c-0.5,0-1,0.1-1.3,0.1c-0.2,0-0.5,0-0.5-0.2c0-0.1,0.2-0.2,0.4-0.3c0.6-0.2,0.9-0.4,1.2-0.7c0.3-0.4,0.9-1.2,1.3-1.8
		c0,0,0-0.1,0-0.2c-0.1-0.1-0.6-1.2-1.1-1.9c-0.4-0.6-0.7-0.8-1.1-1c-0.3-0.1-0.4-0.2-0.4-0.3C51.5,42.8,51.7,42.8,51.9,42.8z"/>
	<path fill="#B90541" d="M64.7,43.6c0.4,0.4,0.8,1.2,0.8,2.1c0,0.8-0.3,2-1.4,2.8c-0.9,0.7-1.8,0.8-2.6,0.8c-0.4,0-0.7,0-0.9-0.1
		c0,0-0.1,0.1-0.1,0.2c0,1.6,0,2.2,0.1,2.7c0,0.4,0.2,0.6,0.8,0.8c0.3,0.1,0.5,0.2,0.5,0.3c0,0.1-0.2,0.2-0.4,0.2
		c-0.4,0-1.3-0.1-1.9-0.1c-0.4,0-0.5,0-1,0c-0.2,0-0.5-0.1-0.5-0.2c0-0.1,0.1-0.2,0.4-0.2c0.9-0.2,0.9-0.3,1-1.5c0-0.5,0-1.9,0-3.5
		c0-1.1,0-2.3,0-3.3c0-0.7-0.1-0.8-0.1-0.8c-0.4-0.3-0.6-0.4-0.6-0.5c0-0.1,0.2-0.3,0.2-0.3c0.2-0.1,0.9-0.4,1.2-0.6
		c0.2-0.1,0.3-0.1,0.3-0.1c0,0,0.2,0.1,0.2,0.2c0,0.3,0,0.6,0,0.8c0,0.1,0.1,0.1,0.1,0.1c0.4-0.3,0.8-0.5,1-0.6
		c0.3-0.1,0.7-0.2,1.2-0.2C63.5,42.7,64.2,43,64.7,43.6z M60.8,43.8c-0.1,0.1-0.2,0.2-0.2,0.5c-0.1,0.5-0.1,2.2,0,2.9
		c0,0.3,0.1,0.6,0.2,0.7c0.4,0.6,1.2,0.9,1.6,0.9c0.2,0,0.5-0.1,0.7-0.3c0.8-0.7,1.1-1.9,1.1-2.4c0-0.4,0-1.2-0.7-2
		c-0.4-0.4-1.1-0.7-1.4-0.7C61.4,43.5,61,43.6,60.8,43.8z"/>
	<path fill="#B90541" d="M71.4,43.3c0.4,0.3,0.6,0.8,0.6,1.4c0,0.1-0.1,0.3-0.3,0.3c-0.2,0-2.9,0-3.7,0c0,0-0.1,0.1-0.1,0.1
		c0,0.1-0.1,0.4-0.1,0.6c0,0.6,0.3,1.4,0.6,1.8c0.4,0.5,1,0.9,1.8,0.9c0.7,0,1.2-0.2,1.5-0.6c0.1-0.1,0.1-0.2,0.2-0.2
		c0.1,0,0.1,0.1,0.1,0.2c0,0.1-0.1,0.3-0.1,0.4c-0.6,0.8-1.4,1.2-2.3,1.2c-1.7,0-2.9-1.3-2.9-3.2c0-1.3,0.7-2.6,1.9-3.2
		c0.4-0.2,1-0.3,1.2-0.3C70.4,42.7,71,42.9,71.4,43.3z M68,44.3c0,0.1,0,0.2,0.1,0.2c0.4,0,1.3,0,2.1,0c0.4,0,0.5-0.1,0.5-0.4
		c0-0.5-0.5-1-1.1-1C68.9,43.1,68.3,43.5,68,44.3z"/>
	<path fill="#B90541" d="M73.3,43.2c0.5-0.2,1-0.4,1.2-0.5c0.2-0.1,0.3-0.2,0.3-0.2c0.1,0,0.1,0.1,0.1,0.2c0,0.3,0,0.6,0,0.9
		c0,0.1,0.1,0.1,0.1,0.1c0.6-0.6,1.3-1,1.8-1c0.7,0,0.8,0.4,0.8,0.5c0,0,0,0.1-0.1,0.2c-0.2,0.3-0.6,0.7-0.7,0.7c0,0-0.2,0-0.2,0
		c-0.2-0.2-0.6-0.4-0.9-0.4c-0.3,0-0.5,0-0.7,0.2C75,44.1,75,44.3,75,44.3c0,0.3,0.1,3.2,0.1,3.5c0,0.5,0.1,0.8,0.4,0.8
		c0.2,0,0.5,0.1,0.7,0.2c0.3,0.1,0.3,0.2,0.3,0.3c0,0.1-0.1,0.1-0.4,0.1c-0.4,0-1-0.1-1.9-0.1c-0.5,0-0.7,0.1-1.1,0.1
		c-0.2,0-0.3-0.1-0.3-0.2c0-0.1,0.2-0.2,0.3-0.2c0.6-0.2,0.7-0.4,0.7-1.3c0-0.4,0-2,0-3.1c0-0.2,0-0.4-0.2-0.5
		c-0.4-0.3-0.5-0.4-0.5-0.4C73.1,43.4,73.2,43.3,73.3,43.2z"/>
	<path fill="#B90541" d="M82.5,42.8c0,0,0.2,0.1,0.2,0.1c0,0,0,0.4,0,0.6c0,0.1-0.3,0.2-0.4,0.2c-0.1,0-1.6,0-1.8,0
		c-0.1,0-0.1,0.1-0.1,0.1c0,0.3,0,2.7,0,3.5c0,0.4,0.1,0.6,0.3,0.8c0.3,0.3,0.6,0.3,1,0.3c0.2,0,0.5-0.1,0.8-0.2
		c0.1-0.1,0.2-0.1,0.2-0.1c0,0,0.1,0,0.1,0.2c0,0.1-0.1,0.3-0.2,0.4c-0.4,0.4-1,0.7-1.7,0.7c-0.7,0-1.2-0.4-1.4-0.8
		c-0.2-0.3-0.2-0.6-0.2-1.1c0-0.6,0.1-3,0.1-3.6c0-0.1-0.3-0.2-0.6-0.3c-0.1,0-0.2-0.1-0.2-0.2c0-0.1,0-0.1,0.1-0.2
		c0.6-0.5,1.1-0.8,1.3-1.1c0.2-0.2,0.3-0.4,0.4-0.4c0.1,0,0.2,0.1,0.2,0.2c0,0.1,0,0.3,0,0.8c0,0,0.1,0.1,0.1,0.1
		C80.9,42.9,82.5,42.8,82.5,42.8z"/>
	<path fill="#B90541" d="M91.7,42.7c0.1,0,0.1-0.1,0.1-0.2c0.1-0.4,0-2.9,0-3.3c0-0.1,0-0.3-0.8-0.7c-0.1-0.1-0.2-0.1-0.2-0.1
		c0-0.1,0.2-0.3,0.3-0.3c0.4,0,1.2-0.3,1.6-0.5c0.1,0,0.1,0,0.2,0c0,0,0.1,0.1,0.1,0.3C93,38.8,93,39.4,93,44.3c0,3.3,0,3.4,0,3.7
		c0,0.6,0.1,0.7,0.2,0.7c0.2,0,0.7-0.1,0.9-0.1c0.1,0,0.1,0.1,0.1,0.1c0,0.1-0.2,0.4-0.3,0.4c-0.3,0-1.1,0.2-1.4,0.3
		c-0.4,0.1-0.5,0.2-0.6,0.2c-0.1,0-0.2-0.1-0.2-0.2c0-0.1,0-0.4,0-0.7c0-0.1-0.1-0.1-0.1-0.1c-0.7,0.7-1.6,0.8-2.1,0.8
		c-0.8,0-1.5-0.4-2-0.9c-0.5-0.6-0.8-1.4-0.8-2.2c0-1.6,0.9-2.5,1.7-3c0.7-0.5,1.7-0.6,2.1-0.6C91.2,42.6,91.5,42.7,91.7,42.7z
		 M88.8,43.7c-0.3,0.3-0.7,1.1-0.7,2c0,1.3,0.9,2.8,2.3,2.8c0.5,0,0.9-0.2,1.2-0.4c0,0,0.2-0.5,0.3-1.1c0-1,0-1.9,0-2.7
		c0-0.1-0.2-0.4-0.4-0.6c-0.5-0.5-1.1-0.6-1.4-0.6C89.5,43.2,89.1,43.4,88.8,43.7z"/>
	<path fill="#B90541" d="M99.5,48c0.1-0.1,0.2-0.3,0.2-0.4l0-3.7c0-0.1-0.2-0.3-0.3-0.4c-0.2-0.1-0.6-0.2-0.7-0.2
		c-0.1,0-0.3-0.1-0.3-0.3c0-0.1,0.2-0.1,0.4-0.1c0.6,0,1.4-0.1,1.7-0.2c0.2,0,0.3-0.1,0.4-0.1c0.1,0,0.1,0.2,0.1,0.2
		c0,0.5-0.2,4-0.2,5.3c0,0,0.1,0.2,0.2,0.2c0.1,0,0.6-0.1,0.8-0.1c0.1,0,0.2,0.3,0.2,0.3c0,0-0.1,0.2-0.2,0.2
		c-0.4,0-1.1,0.2-1.5,0.3c-0.3,0.1-0.5,0.1-0.6,0.1c-0.1,0-0.2-0.1-0.2-0.2c0-0.1,0-0.4,0.1-0.7c0-0.1,0-0.1-0.1-0.1
		c-0.5,0.3-1.1,0.7-1.3,0.8c-0.3,0.1-0.6,0.2-1.1,0.2c-0.6,0-1.1-0.3-1.4-0.8c-0.1-0.2-0.2-0.5-0.2-0.8c0-1.2,0-3,0-3.8
		c0-0.5-0.3-0.5-0.6-0.6c-0.1-0.1-0.3-0.1-0.3-0.3c0,0,0.1-0.1,0.3-0.1c0.5,0,1.6-0.2,1.7-0.2c0.1,0,0.1,0.1,0.1,0.2
		c0,0.5,0,3.6,0,4.3c0,0.4,0.2,0.7,0.4,0.9c0.4,0.3,0.7,0.3,1.1,0.3C98.6,48.5,99.1,48.3,99.5,48z"/>
	<path fill="#B90541" d="M106.7,43.1c0.3-0.1,0.9-0.3,1.1-0.5c0.2-0.1,0.3-0.2,0.4-0.2c0.1,0,0.2,0.2,0.2,0.2c0,0.3-0.1,0.7-0.1,0.8
		c0,0.1,0.1,0,0.1,0c0.6-0.4,1.5-0.9,2.2-0.9c0.8,0,1.2,0.4,1.5,0.6c0.4,0.4,0.6,1.2,0.6,2c0,0.3,0,2.7,0,2.9c0,0.2,0.2,0.5,0.6,0.6
		c0.3,0.1,0.4,0.2,0.4,0.3c0,0.1-0.2,0.2-0.5,0.2c-0.4,0-0.7,0-1.2,0c-0.4,0-0.9,0-1.1,0c-0.1,0-0.4-0.1-0.4-0.2
		c0-0.1,0.2-0.2,0.4-0.3c0.4-0.1,0.5-0.3,0.5-0.8c0-0.5,0-2.5,0-2.9c0-0.6-0.3-1-0.5-1.2c-0.2-0.1-0.7-0.3-1-0.3
		c-0.7,0-1.1,0.2-1.4,0.5c0,0-0.2,0.2-0.2,0.4c0,0.2,0,3.7,0,3.9c0,0.2,0.1,0.4,0.6,0.5c0.2,0,0.3,0.1,0.3,0.2
		c0,0.1-0.2,0.2-0.4,0.2c-0.2,0-0.6,0-1,0c-0.6,0-1.1,0-1.3,0c-0.2,0-0.4-0.1-0.4-0.2c0-0.1,0.2-0.2,0.3-0.2
		c0.5-0.2,0.6-0.3,0.7-0.9c0-0.5,0.1-1.9,0.1-3.5c0-0.2,0-0.3-0.4-0.6c-0.2-0.1-0.3-0.2-0.3-0.3C106.4,43.3,106.5,43.1,106.7,43.1z"
		/>
	<path fill="#B90541" d="M121.1,45.9c0,1.3-0.8,2.4-1.4,2.8c-0.6,0.5-1.3,0.6-2,0.6c-0.7,0-1.5-0.3-2.1-0.8
		c-0.7-0.6-1.2-1.7-1.2-2.5c0-1.2,0.5-2,1.1-2.5c0.5-0.4,1.3-0.9,2.4-0.9C119.5,42.6,121.1,43.9,121.1,45.9z M116.6,43.6
		c-0.4,0.4-0.8,1.2-0.8,2.1c0,0.5,0.1,1,0.2,1.4c0.4,1.2,1.3,1.8,2.1,1.8c0.2,0,0.5-0.1,1-0.5c0.4-0.4,0.7-1.4,0.7-2.1
		c0-0.8-0.2-1.8-0.8-2.5c-0.4-0.4-0.9-0.6-1.4-0.6C117.3,43.1,116.9,43.3,116.6,43.6z"/>
	<path fill="#B90541" d="M126.3,42.8c0,0,0.2,0.1,0.2,0.1c0,0,0,0.4,0,0.6c0,0.1-0.3,0.2-0.4,0.2c-0.1,0-1.6,0-1.8,0
		c-0.1,0-0.1,0.1-0.1,0.1c0,0.3,0,2.7,0,3.5c0,0.4,0.1,0.6,0.3,0.8c0.3,0.3,0.6,0.3,1,0.3c0.2,0,0.5-0.1,0.8-0.2
		c0.1-0.1,0.2-0.1,0.2-0.1c0,0,0.1,0,0.1,0.2c0,0.1-0.1,0.3-0.2,0.4c-0.4,0.4-1,0.7-1.7,0.7c-0.7,0-1.2-0.4-1.4-0.8
		c-0.2-0.3-0.2-0.6-0.2-1.1c0-0.6,0.1-3,0.1-3.6c0-0.1-0.3-0.2-0.6-0.3c-0.1,0-0.2-0.1-0.2-0.2c0-0.1,0-0.1,0.1-0.2
		c0.6-0.5,1.1-0.8,1.3-1.1c0.2-0.2,0.3-0.4,0.4-0.4c0.1,0,0.2,0.1,0.2,0.2c0,0.1,0,0.3,0,0.8c0,0,0.1,0.1,0.1,0.1
		C124.6,42.9,126.2,42.8,126.3,42.8z"/>
	<path fill="#B90541" d="M131.5,43.4c0.2,0.3,0.3,0.7,0.3,1.3c0,0.6-0.1,2.7-0.1,2.8c0,0.7,0.5,0.8,0.6,0.8c0.1,0,0.4-0.1,0.6-0.2
		c0,0,0.1,0,0.1,0c0,0,0,0.1,0,0.2c0,0.3-0.7,1-1.4,1c-0.4,0-0.8-0.2-1-0.8c0,0-0.1-0.1-0.1-0.1c-0.6,0.4-1.3,0.7-1.4,0.7
		c-0.2,0.1-0.6,0.1-0.6,0.1c-0.6,0-1.1-0.7-1.1-1.5c0-0.3,0.1-0.6,0.3-0.8c0.2-0.2,0.4-0.3,0.6-0.4c0.2-0.1,1.5-0.5,1.9-0.6
		c0.4-0.1,0.5-0.2,0.5-0.3c0-0.1,0-1.1,0-1.3c0-0.4-0.5-1.1-1.3-1.1c-0.3,0-0.5,0.1-0.7,0.2c-0.1,0-0.1,0.3-0.1,0.7
		c0,0-0.1,0.1-0.1,0.2c-0.2,0.1-1,0.5-1,0.5c-0.1,0-0.2-0.1-0.2-0.2c0-0.5,0.5-0.9,1.2-1.4c0.5-0.3,1.2-0.6,1.5-0.6
		C130.8,42.6,131.2,43,131.5,43.4z M130.4,48.2c0.1-0.1,0.2-0.4,0.2-0.4c0-0.4,0-0.9,0-1.3c0,0-0.1-0.1-0.1-0.1
		c-0.5,0-1.2,0.3-1.7,0.5c-0.2,0.1-0.3,0.2-0.3,0.6c0,0.7,0.7,1,1,1C129.8,48.5,130.1,48.4,130.4,48.2z"/>
	<path fill="#B90541" d="M134.3,43.1c0.6-0.1,1.4-0.5,1.6-0.5c0.1,0,0.1,0.2,0.1,0.2c0,0.2-0.1,2.3-0.1,3.2c0,0.9,0,1.6,0,2.1
		c0,0.5,0.4,0.5,0.8,0.7c0.3,0.1,0.4,0.2,0.4,0.3c0,0.1-0.2,0.2-0.4,0.2c-0.1,0-0.9,0-1.3,0c-0.5,0-1.1,0.1-1.4,0.1
		c-0.3,0-0.4-0.1-0.4-0.2c0-0.1,0.1-0.2,0.4-0.3c0.4-0.1,0.6-0.3,0.6-0.5c0-0.2,0.1-1.2,0.1-1.7c0,0,0-2.3,0-2.5
		c0-0.1-0.2-0.2-0.7-0.6c-0.1-0.1-0.1-0.1-0.1-0.2C134,43.3,134.1,43.2,134.3,43.1z M136.2,40.2c0,0.4-0.5,0.8-0.8,0.8
		c-0.1,0-0.4-0.1-0.5-0.2c-0.1-0.1-0.2-0.3-0.2-0.6c0-0.1,0.1-0.4,0.2-0.6c0.2-0.1,0.4-0.2,0.6-0.2
		C135.9,39.4,136.2,39.9,136.2,40.2z"/>
	<path fill="#B90541" d="M138.3,43.2c0.5-0.2,1-0.4,1.2-0.5c0.2-0.1,0.3-0.2,0.3-0.2c0.1,0,0.1,0.1,0.1,0.2c0,0.3,0,0.6,0,0.9
		c0,0.1,0.1,0.1,0.1,0.1c0.6-0.6,1.3-1,1.8-1c0.7,0,0.8,0.4,0.8,0.5c0,0,0,0.1-0.1,0.2c-0.2,0.3-0.6,0.7-0.7,0.7c0,0-0.2,0-0.2,0
		c-0.2-0.2-0.6-0.4-0.9-0.4c-0.3,0-0.5,0-0.7,0.2c-0.1,0.1-0.2,0.3-0.2,0.4c0,0.3,0.1,3.2,0.1,3.5c0,0.5,0.1,0.8,0.4,0.8
		c0.2,0,0.5,0.1,0.7,0.2c0.3,0.1,0.3,0.2,0.3,0.3c0,0.1-0.1,0.1-0.4,0.1c-0.4,0-1-0.1-1.9-0.1c-0.5,0-0.7,0.1-1.1,0.1
		c-0.2,0-0.3-0.1-0.3-0.2c0-0.1,0.2-0.2,0.3-0.2c0.6-0.2,0.7-0.4,0.7-1.3c0-0.4,0-2,0-3.1c0-0.2,0-0.4-0.2-0.5
		c-0.4-0.3-0.5-0.4-0.5-0.4C138.1,43.4,138.1,43.3,138.3,43.2z"/>
	<path fill="#B90541" d="M147.9,43.3c0.4,0.3,0.6,0.8,0.6,1.4c0,0.1-0.1,0.3-0.3,0.3c-0.2,0-2.9,0-3.7,0c0,0-0.1,0.1-0.1,0.1
		c0,0.1-0.1,0.4-0.1,0.6c0,0.6,0.3,1.4,0.6,1.8c0.4,0.5,1,0.9,1.8,0.9c0.7,0,1.2-0.2,1.5-0.6c0.1-0.1,0.1-0.2,0.2-0.2
		c0.1,0,0.1,0.1,0.1,0.2c0,0.1-0.1,0.3-0.1,0.4c-0.6,0.8-1.4,1.2-2.3,1.2c-1.7,0-2.9-1.3-2.9-3.2c0-1.3,0.7-2.6,1.9-3.2
		c0.4-0.2,0.9-0.3,1.2-0.3C146.8,42.7,147.5,42.9,147.9,43.3z M144.5,44.3c0,0.1,0,0.2,0.1,0.2c0.4,0,1.3,0,2.1,0
		c0.4,0,0.5-0.1,0.5-0.4c0-0.5-0.5-1-1.1-1C145.4,43.1,144.8,43.5,144.5,44.3z"/>
</g>
<g>
	<rect x="14.3" y="6" fill="#010202" width="11.7" height="2.5"/>
	<rect x="17.6" y="10.7" fill="#010202" width="8.4" height="2.5"/>
	<rect x="20.8" y="15.5" fill="#010202" width="5.2" height="2.5"/>
	<path fill="#010202" d="M12.7,9.8v1.5c0.3,0.1,0.6,0.3,1,0.4c0.4,0.2,0.7,0.3,1.1,0.5c0.4,0.2,0.8,0.3,1.2,0.5
		c0.4,0.2,0.8,0.3,1.1,0.5c0.4,0.1,0.7,0.3,0.9,0.4c0.3,0.1,0.5,0.2,0.7,0.3c0.4,0.1,0.7,0.3,0.9,0.6c0.2,0.3,0.4,0.5,0.5,0.8
		c0.2,0.3,0.3,0.7,0.3,1V18H0v-1.7c0.1-0.4,0.2-0.7,0.4-1c0.1-0.3,0.3-0.6,0.5-0.8c0.2-0.3,0.5-0.5,0.9-0.6c0.2-0.1,0.4-0.2,0.7-0.3
		c0.3-0.1,0.6-0.3,1-0.4c0.4-0.2,0.8-0.3,1.2-0.5c0.4-0.2,0.8-0.4,1.2-0.5C6.3,12,6.7,11.8,7,11.6c0.4-0.2,0.7-0.3,0.9-0.4V9.7
		c0-0.1,0-0.2-0.1-0.3c0-0.1-0.1-0.3-0.1-0.4C7.7,8.8,7.7,8.6,7.6,8.4C7.3,7.9,7.1,7.4,7,6.8C6.8,6.2,6.8,5.5,6.8,4.9
		C6.8,4,6.9,3.2,7,2.6C7.2,2,7.5,1.5,7.8,1.1c0.3-0.4,0.7-0.7,1.1-0.8C9.4,0.1,9.9,0,10.4,0c0.5,0,1,0.1,1.4,0.3
		c0.4,0.2,0.8,0.4,1.1,0.8c0.3,0.4,0.6,0.9,0.8,1.5c0.2,0.6,0.3,1.4,0.3,2.3c0,0.7-0.1,1.3-0.2,1.9c-0.1,0.6-0.3,1.1-0.6,1.6
		C13.1,8.6,13,8.8,12.9,9c-0.1,0.2-0.1,0.3-0.1,0.5C12.7,9.6,12.7,9.7,12.7,9.8"/>
</g>
</svg>
