<?xml version="1.0" encoding="utf-8"?>
<!-- Generator: Adobe Illustrator 19.0.0, SVG Export Plug-In . SVG Version: 6.00 Build 0)  -->
<svg version="1.1" id="Calque_1" xmlns="http://www.w3.org/2000/svg" xmlns:xlink="http://www.w3.org/1999/xlink" x="0px" y="0px"
	 width="61.9px" height="11.3px" viewBox="0 0 61.9 11.3" enable-background="new 0 0 61.9 11.3" xml:space="preserve">
<g>
	<path fill="#B90541" d="M17.4,10.7c-0.2,0-0.4-0.1-0.5-0.3c-0.1-0.2,0-0.5,0.3-0.6c7.3-2.6,14.9-4.3,22.5-5.1
		c4.8-0.5,7.1-0.8,12-0.5C46.1,3,39.3,2,29.7,1.9C18.1,1.8,10.1,3.3,1.6,6C1.3,6.1,1,6,1,5.7C0.9,5.5,1,5.2,1.3,5.1
		C9.9,2.4,18,0.6,29.7,0.7C45.5,0.9,59.1,4.6,60.6,5c0.2,0.1,0.4,0.3,0.3,0.5c-0.1,0.2-0.3,0.4-0.5,0.4c-7.8-1-13.8-1.1-20.5-0.3
		c-7.5,0.8-15,2.6-22.2,5.1C17.5,10.7,17.5,10.7,17.4,10.7z"/>
</g>
</svg>
