<?xml version="1.0" encoding="utf-8"?>
<!-- Generator: Adobe Illustrator 19.0.0, SVG Export Plug-In . SVG Version: 6.00 Build 0)  -->
<svg version="1.1" id="Calque_1" xmlns="http://www.w3.org/2000/svg" xmlns:xlink="http://www.w3.org/1999/xlink" x="0px" y="0px"
	 width="313.1px" height="59.4px" viewBox="0 0 313.1 59.4" enable-background="new 0 0 313.1 59.4" xml:space="preserve">
<g>
	<g>
		<defs>
			<path id="SVGID_1_" d="M28.5,49.6c-0.6-4.2-1.7-8.4-1.9-12.6c-0.1-1.1-0.1-2.4,1.1-2.9c1.2-0.5,2.5,0.5,3.4,1.2
				c0.5,0.4,0.9,0.8,1.4,1.1c-0.4,1.3-0.9,2.6-1.5,3.9c-2.3,4.8-1.7,9.9,0.7,14.5h-2.5C29,53,28.7,51.3,28.5,49.6 M34.4,49.4
				c-0.1-0.2-0.1-0.3-0.2-0.5c0.6-0.3,1.1-0.8,1.7-1.2c0.8-0.5,1.6-1,2.2-1.7c2.3-2.9-1-6.4-3-8.3c-0.4-0.4-1-1-1.7-1.6
				c0.3-1.2,0.4-2.4,0.4-3.7c1.9,2,3.6,4.2,4.9,6.6c0.9,1.7,1.8,3.9,1.5,5.9c-0.2,1.2-0.9,2.2-1.9,2.9c-1.2,0.9-2.5,1.7-3.7,2.7
				C34.6,50.1,34.5,49.7,34.4,49.4 M11.4,54.7c0-0.1-1-2-1.4-2.9c-0.6-1.4-1-2.7-1.2-4.2c-0.3-2.2,0-4.4,0-6.6
				c0-0.8,0.2-1.9,0.2-1.9s1-0.6,1.4-0.9c3.2-2.6,3-7,1.6-10.8c1.1-0.7,2.3-1.4,3.6-1.9c2.3-0.7,4.8-0.7,7.1-0.1
				c0.6,2.4,1,4.9,0.5,7.4c-0.7,3.5-3.2,6.5-6.3,8.3c-1.7,1-3.7,1.3-5.3,2.4c-1.9,1.3-1.3,4.7-0.7,6.5c0.5,1.6,1.3,3.3,2.4,4.7H11.4
				z M4.6,24.9c0-1.5-0.3-2.9-0.8-4.2C3.5,19.8,3,19,2.4,18.2c2,1.1,3.9,2.4,5.4,4c1.3,1.3,2.3,3,3,4.8c-1,0.7-2.1,1.6-3.4,1.6
				c-0.1,0-0.1,0-0.2,0C5.2,28.6,4.6,26.6,4.6,24.9 M33.7,12.8c-1.3,1.2-3.1,2.7-5,2.5c-0.8-0.1-1.5-0.4-2-0.9c0,0,0,0,0,0
				c-0.6-0.4-1-1.5-1-1.5s0,0,0,0c0.6-0.8,0.9-2.2,0.8-3.1C26.2,8.4,25.2,7.5,24,7c0.2-0.4,0.4-0.9,0.6-1.3c0.1-0.2,0-0.6-0.3-0.6
				c-1.3-0.3-2.9-0.2-4.2,0.3c-2.1,0.9-2.7,3.5-2,5.5c0.5,1.6,1.8,2.6,3.4,3.1c0.3,0.1,0.5,0.2,0.8,0.2c0.1,0,0.1,0,0.2,0
				c0.2,0.2,0.4,0.5,0.6,0.7c0.6,1.3-0.6,1.6-1.3,2.5c-1.3,1.6-0.3,3.9,0.2,5.6c0.1,0.5,0.3,1,0.4,1.5c-0.1,0-0.2,0-0.2-0.1
				c-2.7-0.6-5.5-0.4-8,0.7c-0.9,0.4-1.8,0.8-2.6,1.3c-0.8-1.7-1.8-3.3-2.8-4.5c-2.2-2.4-5.2-4.4-8.2-5.6c-0.4-0.2-0.8,0.5-0.4,0.7
				c1.1,0.9,2,2.1,2.6,3.4c0.6,1.3,1,2.7,1,4.2c0,1.2,0.1,2.3,0.7,3.3c1.1,1.7,3.2,1.8,4.9,0.9c0.6-0.3,1.2-0.7,1.8-1
				c0.3,0.7,0.5,1.5,0.6,2.2c0.4,1.7,0.5,3.7-0.3,5.3c-0.4,1-1.1,1.8-2,2.4c-0.5,0.4-1.1,0.5-1.4,1.1c-0.4,1.2-0.3,3-0.3,4.2
				c-0.1,2.1,0,4.2,0.4,6.3c0.3,1.2,0.8,2.4,1.3,3.5c0.3,0.7,0.7,1.9,1.3,2.4c0.7,0.6,3.3,0.2,3.3,0.2c0.4,0,0.5-0.5,0.3-0.8
				c-1.1-1.4-2-3-2.6-4.7c-0.6-1.8-1.3-5.1,0.8-6.1c1.8-0.8,3.7-1.4,5.3-2.5c2.2-1.4,4-3.4,5.2-5.8c1.7-3.4,1.3-6.8,0.4-10.1
				c3.4,1,6.6,3.1,9.1,5.4c0.2,0.2,0.3,0.3,0.5,0.5c0,1.3-0.1,2.5-0.4,3.8c-2.1-1.9-4.9-3.6-6.5-1.2c-0.7,1-0.6,2.4-0.5,3.5
				c0.2,2.3,0.7,4.7,1.1,7c0.6,3.5,1.1,7.1,1.6,10.6c0,0.2,0.2,0.4,0.4,0.4h3.6c0.3,0,0.5-0.4,0.4-0.7c-1.7-2.9-2.7-6-2.4-9.3
				c0.2-2.9,1.7-5.2,2.6-7.9c0.1-0.2,0.1-0.5,0.2-0.7c0.3,0.3,0.6,0.6,0.9,0.9c1.4,1.4,3.2,3,3.8,5c0.5,2-0.9,3-2.4,4
				c-0.5,0.3-1.9,0.9-2.2,1.6c-0.3,0.7,0.5,2,0.7,2.7c0.1,0.3,0.5,0.4,0.7,0.2c1.3-1.1,2.8-2,4.1-3c0.8-0.6,1.5-1.4,1.9-2.3
				c1.7-3.9-1.6-8.6-3.8-11.5c-0.9-1.2-2-2.4-3.1-3.5c-0.1-2.7-0.9-5.5-1.9-8.1c-0.2-0.5-1.1-0.3-0.9,0.2c0.9,2.3,1.7,4.6,1.9,7
				c-2.8-2.6-6.1-4.6-9.7-5.6c-0.3-1.3-0.7-2.6-1-3.9c-0.1-0.5-0.2-1.1-0.2-1.7c0.1-0.9,0.6-1.3,1.3-1.8c0.7-0.6,1-1.5,0.6-2.4
				c-0.4-1.1-1-1.4-1.9-1.6c-2.4-0.6-3.9-2.8-3-5.4c0.6-1.9,2.8-2.3,4.6-2.1C23.4,6.2,23.2,6.6,23,7c-0.1,0.3,0,0.6,0.3,0.6
				c2,0.7,2.6,2.2,1.8,4.1c-0.2,0.4-0.5,0.9-0.5,1.3c0.1,0.6,0.7,1.3,1.1,1.7c2.3,2.5,5.6,1.1,7.8-0.8c2.8-2.4,5-5.5,7-8.7l-0.6-0.7
				C38.2,7.6,36.2,10.5,33.7,12.8 M41.5,2.1c-0.4,0.6-0.7,1.2-1.1,1.8L41,4.6c0.4-0.7,0.8-1.4,1.2-2c0.2-0.3-0.1-0.7-0.4-0.7
				C41.7,1.9,41.6,1.9,41.5,2.1"/>
		</defs>
		<clipPath id="SVGID_2_">
			<use xlink:href="#SVGID_1_"  overflow="visible"/>
		</clipPath>
		
			<linearGradient id="SVGID_3_" gradientUnits="userSpaceOnUse" x1="-836.4229" y1="516.4057" x2="-835.7985" y2="516.4057" gradientTransform="matrix(55.7329 -91.6645 -91.6645 -55.7329 93957.7031 -47834.6289)">
			<stop  offset="0" style="stop-color:#344967"/>
			<stop  offset="2.148350e-002" style="stop-color:#344967"/>
			<stop  offset="0.5007" style="stop-color:#009A9A"/>
			<stop  offset="1" style="stop-color:#2DAE9F"/>
		</linearGradient>
		<polygon clip-path="url(#SVGID_2_)" fill="url(#SVGID_3_)" points="-24.2,41.3 11.3,-17.1 66.5,16.5 31,74.9 		"/>
	</g>
	<g>
		<path fill="#B90541" d="M40.9,5.7c1.6,1.7,2.8,3.8,3.6,6.1c0.2,0.5,1,0.3,0.9-0.2c-0.9-2.6-2.3-4.8-4-6.7c0,0-0.4-0.5-0.6-0.7
			c-1.8-1.8-4-3.2-6.4-4.2c-0.5-0.2-0.8,0.6-0.2,0.9c2.4,1,4.4,2.4,6.2,4.1C40.3,5,40.7,5.4,40.9,5.7"/>
	</g>
</g>
<g>
	<g>
		<path fill="#344967" d="M70.1,31.1c-1.7,3-4,4.5-8.4,4.5c-5.2,0-8.8-3.6-8.8-9.9c0-6.3,3.5-9.8,9.4-9.8c4.1,0,6.5,1.8,7.9,4.9
			L65.6,23c-0.5-1.8-1.3-2.9-3.4-2.9c-2.7,0-4.3,2.1-4.3,5.7c0,3.5,1.5,5.5,4.4,5.5c1.5,0,2.9-0.9,3.5-2.6L70.1,31.1z"/>
		<path fill="#344967" d="M83.7,35.2c-0.6-0.5-0.9-1.2-1.1-2l-0.7-2.7c-0.4-1.4-0.9-1.6-2.3-1.6H78v6.4h-4.8v-19h7.8
			c4.2,0,7.1,1.5,7.1,5.9c0,2.9-1.6,4.5-4.1,4.8V27c1.7,0.3,2.6,1,3.1,2.6l1,3.5c0.2,0.8,0.5,1.4,1.1,2.1H83.7z M78,24.8h2.6
			c1.5,0,2.5-0.5,2.5-2.2c0-1.5-0.9-2.3-2.5-2.3H78V24.8z"/>
		<path fill="#344967" d="M97.1,16.2v19h-4.8v-19H97.1z"/>
		<path fill="#344967" d="M101.9,35.2v-19h7.4c5.2,0,9.3,2.6,9.3,9.3c0,7-4.1,9.7-9.6,9.7H101.9z M108.5,31.1c3.3,0,5.1-1.2,5.1-5.3
			c0-4.3-1.7-5.5-4.8-5.5h-2v10.8H108.5z"/>
		<path fill="#344967" d="M121.2,25.7c0-6.4,3.4-9.9,9.2-9.9c5.7,0,9.2,3.5,9.2,9.9c0,6.4-3.4,9.9-9.2,9.9
			C124.6,35.6,121.2,32.1,121.2,25.7z M126.2,25.8c0,3.5,1.3,5.6,4.1,5.6c2.8,0,4.1-2.1,4.1-5.6c0-3.5-1.4-5.6-4.1-5.6
			C127.5,20.1,126.2,22.3,126.2,25.8z"/>
		<path fill="#344967" d="M154.1,24.8c1,1.4,1.4,2.2,1.4,2.2h0.1c0,0-0.1-1.5-0.1-3.9v-6.9h4.8v19h-4.3l-6.4-8.4
			c-1.2-1.6-1.7-2.5-1.7-2.5h-0.1c0,0,0.2,1.4,0.2,4.2v6.7h-4.8v-19h4.5L154.1,24.8z"/>
	</g>
	<g>
		<path fill="#344967" d="M186.5,25.9v9.3H185l-0.2-3.3c-0.7,2.2-3,3.5-5.5,3.5c-4.9,0-8.2-3.4-8.2-9.7c0-6.4,3.5-9.8,8.5-9.8
			c3.4,0,5.6,1.5,6.8,4.5l-1.5,0.7c-0.9-2.5-2.8-3.8-5.4-3.8c-4.2,0-6.6,3.2-6.6,8.4c0,5,2.3,8.3,6.5,8.3c2.8,0,5.4-1.4,5.4-5.1
			v-1.5h-5.1v-1.5H186.5z"/>
		<path fill="#344967" d="M202.7,35.2c-0.5-0.5-0.7-1-0.9-1.9l-0.8-3.4c-0.5-2.3-1.8-3.1-4.3-3.1h-3.6v8.4h-1.7v-19h5.9
			c4.3,0,6.2,1.9,6.2,5.2c0,3-2.1,4.6-4.4,4.7v0.1c1.9,0.2,2.9,1.1,3.5,3.2l0.9,3.7c0.2,0.9,0.6,1.5,1.1,2.1H202.7z M193.2,25.4h4.1
			c3,0,4.5-1.3,4.5-3.9c0-2.5-1.4-3.9-4.5-3.9h-4.1V25.4z"/>
		<path fill="#344967" d="M218.6,29.2h-8.5l-2.3,6H206l7.2-19h2.2l7.2,19h-1.8L218.6,29.2z M210.6,27.7h7.4l-2.1-5.6
			c-1.1-2.9-1.5-4.7-1.5-4.7h-0.1c0,0-0.5,1.8-1.5,4.7L210.6,27.7z"/>
		<path fill="#344967" d="M236.6,29.4c1.2,1.8,2.1,3.5,2.1,3.5h0.1c0,0-0.1-1.9-0.1-4V16.2h1.7v19h-1.8L229.6,22
			c-1.2-1.7-2.1-3.5-2.1-3.5h-0.1c0,0,0.1,1.9,0.1,4v12.7h-1.7v-19h1.8L236.6,29.4z"/>
		<path fill="#344967" d="M246.1,35.2v-19h5.3c5.4,0,9.1,2.6,9.1,9.3c0,7-4.2,9.7-9.2,9.7H246.1z M251.1,33.8c4.6,0,7.5-2.7,7.5-8.2
			c0-5.5-2.9-7.9-7.4-7.9h-3.5v16.1H251.1z"/>
		<path fill="#344967" d="M282.3,35.2h-10.8v-19h10.8v1.5h-9.1V25h8.1v1.5h-8.1v7.3h9.1V35.2z"/>
		<path fill="#344967" d="M286.5,30.1c0.5,2.7,2.2,4,4.7,4c2.7,0,4.4-1.2,4.4-3.6c0-2.3-1.3-3.2-4.6-4.3c-2.8-0.9-5.5-1.9-5.5-5.3
			c0-3.7,2.8-5,5.6-5c3.3,0,5.7,1.4,6.1,5l-1.6,0.3c-0.4-2.6-1.9-3.9-4.4-3.9c-2.3,0-4,1.1-4,3.5c0,2.4,1.8,3.1,4.8,4.1
			c3,1,5.3,2.1,5.3,5.5c0,3.5-2.6,5.1-6.2,5.1c-3.6,0-5.8-1.6-6.3-5.1L286.5,30.1z"/>
		<path fill="#344967" d="M305.2,35.2V17.7h-6.2v-1.5h14.1v1.5H307v17.5H305.2z"/>
	</g>
</g>
<g>
	<path fill="#B90541" d="M53.5,44.8c0.4,0,0.7,0,1.2,0c0.6,0,1.7,0,2.1,0c0.3,0,0.4,0.1,0.4,0.2c0,0.1-0.1,0.2-0.4,0.3
		c-0.9,0.2-1,0.4-1.1,0.6c-0.1,0.7-0.1,2.3-0.1,4.7c0,1.3,0,2.8,0.1,3.3c0,0.2,0.4,0.6,0.5,0.6c0.4,0.1,1,0.1,1.5,0.1
		c0.5,0,0.9,0,1.1,0c0.1,0,0.3,0,0.6-0.3c0.2-0.2,0.5-0.5,0.9-1.1c0.2-0.3,0.3-0.4,0.4-0.4c0.1,0,0.1,0.2,0.1,0.4
		c-0.3,0.8-0.4,1.1-0.5,1.7c0,0.2-0.3,0.3-0.4,0.3c-0.2,0-1.7-0.1-4.9-0.1c-1.1,0-1.9,0.1-2.1,0.1c-0.3,0-0.5,0-0.5-0.2
		c0-0.1,0.1-0.2,0.4-0.3c0.9-0.2,1.1-0.5,1.2-1.1c0-0.4,0.1-3,0.1-5.3c0-0.6,0-1.8,0-2.3c0-0.4-0.1-0.7-0.9-0.8
		c-0.3-0.1-0.5-0.2-0.5-0.3C53.1,44.9,53.2,44.8,53.5,44.8z"/>
	<path fill="#B90541" d="M66.8,49.3c0.4,0.3,0.6,0.8,0.6,1.4c0,0.1-0.1,0.3-0.3,0.3c-0.2,0-2.9,0-3.7,0c0,0-0.1,0.1-0.1,0.1
		c0,0.1-0.1,0.4-0.1,0.6c0,0.6,0.3,1.4,0.6,1.8c0.4,0.5,1,0.9,1.8,0.9c0.7,0,1.2-0.2,1.5-0.6c0.1-0.1,0.1-0.2,0.2-0.2
		c0.1,0,0.1,0.1,0.1,0.2c0,0.1-0.1,0.3-0.1,0.4c-0.6,0.8-1.4,1.2-2.3,1.2c-1.7,0-2.9-1.3-2.9-3.2c0-1.3,0.7-2.6,1.9-3.2
		c0.4-0.2,1-0.3,1.2-0.3C65.8,48.7,66.4,48.9,66.8,49.3z M63.4,50.3c0,0.1,0,0.2,0.1,0.2c0.4,0,1.3,0,2.1,0c0.4,0,0.5-0.1,0.5-0.4
		c0-0.5-0.5-1-1.1-1C64.3,49.1,63.7,49.6,63.4,50.3z"/>
	<path fill="#B90541" d="M77.8,49.6c0.4,0.4,0.8,1.2,0.8,2.1c0,0.8-0.3,2-1.4,2.8c-0.9,0.7-1.8,0.8-2.6,0.8c-0.4,0-0.7,0-0.9-0.1
		c0,0-0.1,0.1-0.1,0.2c0,1.6,0,2.2,0.1,2.7c0,0.4,0.2,0.6,0.8,0.8c0.3,0.1,0.5,0.2,0.5,0.3c0,0.1-0.2,0.2-0.4,0.2
		c-0.4,0-1.3-0.1-1.9-0.1c-0.4,0-0.5,0-1,0c-0.2,0-0.5-0.1-0.5-0.2c0-0.1,0.1-0.2,0.4-0.2c0.9-0.2,0.9-0.3,1-1.5c0-0.5,0-1.9,0-3.5
		c0-1.1,0-2.3,0-3.3c0-0.7-0.1-0.8-0.1-0.8c-0.4-0.3-0.6-0.4-0.6-0.5c0-0.1,0.2-0.3,0.2-0.3c0.2-0.1,1-0.4,1.2-0.6
		c0.2-0.1,0.3-0.1,0.3-0.1c0,0,0.2,0.1,0.2,0.2c0,0.3,0,0.6,0,0.8c0,0.1,0.1,0.1,0.1,0.1c0.4-0.3,0.8-0.5,1-0.6
		c0.3-0.1,0.7-0.2,1.2-0.2C76.5,48.7,77.3,49.1,77.8,49.6z M73.8,49.8c-0.1,0.1-0.2,0.2-0.2,0.5c-0.1,0.5-0.1,2.2,0,2.9
		c0,0.3,0.1,0.6,0.2,0.7c0.4,0.6,1.2,0.9,1.6,0.9c0.2,0,0.5-0.1,0.7-0.3c0.8-0.7,1.1-1.9,1.1-2.4c0-0.4,0-1.2-0.7-2
		c-0.4-0.4-1.1-0.7-1.4-0.7C74.5,49.5,74,49.7,73.8,49.8z"/>
	<path fill="#B90541" d="M83.9,49.4c0.2,0.3,0.3,0.7,0.3,1.3c0,0.6-0.1,2.7-0.1,2.8c0,0.7,0.5,0.8,0.6,0.8c0.1,0,0.4-0.1,0.6-0.2
		c0,0,0.1,0,0.1,0c0,0,0,0.1,0,0.2c0,0.3-0.7,1-1.4,1c-0.4,0-0.8-0.2-1-0.8c0,0-0.1-0.1-0.1-0.1c-0.6,0.4-1.3,0.7-1.4,0.7
		c-0.2,0.1-0.6,0.1-0.6,0.1c-0.6,0-1.1-0.7-1.1-1.5c0-0.3,0.1-0.6,0.3-0.8c0.2-0.2,0.4-0.3,0.6-0.4c0.2-0.1,1.5-0.5,1.9-0.6
		c0.4-0.1,0.5-0.2,0.5-0.3c0-0.1,0-1.1,0-1.3c0-0.4-0.5-1.1-1.3-1.1c-0.3,0-0.5,0.1-0.7,0.2c-0.1,0-0.1,0.3-0.1,0.7
		c0,0-0.1,0.1-0.1,0.2c-0.2,0.1-1,0.5-1,0.5c-0.1,0-0.2-0.1-0.2-0.2c0-0.5,0.5-0.9,1.2-1.4c0.5-0.3,1.2-0.6,1.5-0.6
		C83.2,48.7,83.6,49.1,83.9,49.4z M82.8,54.2c0.1-0.1,0.2-0.4,0.2-0.4c0-0.4,0-0.9,0-1.3c0,0-0.1-0.1-0.1-0.1
		c-0.4,0-1.2,0.3-1.7,0.5c-0.2,0.1-0.3,0.2-0.3,0.6c0,0.7,0.7,1,1,1C82.2,54.5,82.5,54.4,82.8,54.2z"/>
	<path fill="#B90541" d="M86.5,49.2c0.5-0.2,1-0.4,1.2-0.5c0.2-0.1,0.3-0.2,0.3-0.2c0.1,0,0.1,0.1,0.1,0.2c0,0.3,0,0.6,0,0.9
		c0,0.1,0.1,0.1,0.1,0.1c0.6-0.6,1.3-1,1.8-1c0.7,0,0.8,0.4,0.8,0.5c0,0,0,0.1-0.1,0.2c-0.2,0.3-0.6,0.7-0.7,0.7c0,0-0.2,0-0.2,0
		c-0.2-0.2-0.6-0.4-0.9-0.4c-0.3,0-0.5,0-0.7,0.2c-0.1,0.1-0.2,0.3-0.2,0.4c0,0.3,0.1,3.2,0.1,3.5c0,0.5,0.1,0.8,0.4,0.8
		c0.2,0,0.5,0.1,0.7,0.2c0.3,0.1,0.3,0.2,0.3,0.3c0,0.1-0.1,0.1-0.4,0.1c-0.4,0-1-0.1-1.9-0.1c-0.5,0-0.7,0.1-1.1,0.1
		c-0.2,0-0.3-0.1-0.3-0.2c0-0.1,0.2-0.2,0.3-0.2c0.6-0.2,0.7-0.4,0.7-1.3c0-0.4,0-2,0-3.1c0-0.2,0-0.4-0.2-0.5
		c-0.4-0.3-0.5-0.4-0.5-0.4C86.3,49.5,86.3,49.3,86.5,49.2z"/>
	<path fill="#B90541" d="M95.7,48.8c0,0,0.2,0.1,0.2,0.1c0,0,0,0.4,0,0.6c0,0.1-0.3,0.2-0.4,0.2c-0.1,0-1.6,0-1.8,0
		c-0.1,0-0.1,0.1-0.1,0.1c0,0.3,0,2.7,0,3.5c0,0.4,0.1,0.6,0.3,0.8c0.3,0.3,0.6,0.3,1,0.3c0.2,0,0.5-0.1,0.8-0.2
		c0.1-0.1,0.2-0.1,0.2-0.1c0,0,0.1,0,0.1,0.2c0,0.1-0.1,0.3-0.2,0.4c-0.4,0.4-1,0.7-1.7,0.7c-0.7,0-1.2-0.4-1.4-0.8
		c-0.2-0.3-0.2-0.6-0.2-1.1c0-0.6,0.1-3,0.1-3.6c0-0.1-0.3-0.2-0.6-0.3c-0.1,0-0.2-0.1-0.2-0.2c0-0.1,0-0.1,0.1-0.2
		c0.6-0.5,1.1-0.8,1.3-1.1c0.2-0.2,0.3-0.4,0.4-0.4c0.1,0,0.2,0.1,0.2,0.2c0,0.1,0,0.3,0,0.8c0,0,0.1,0.1,0.1,0.1
		C94,48.9,95.6,48.8,95.7,48.8z"/>
	<path fill="#B90541" d="M101.4,49.3c0.4,0.3,0.6,0.8,0.6,1.4c0,0.1-0.1,0.3-0.3,0.3c-0.2,0-2.9,0-3.7,0c0,0-0.1,0.1-0.1,0.1
		c0,0.1-0.1,0.4-0.1,0.6c0,0.6,0.3,1.4,0.6,1.8c0.4,0.5,1,0.9,1.8,0.9c0.7,0,1.2-0.2,1.5-0.6c0.1-0.1,0.1-0.2,0.2-0.2
		c0.1,0,0.1,0.1,0.1,0.2c0,0.1-0.1,0.3-0.1,0.4c-0.6,0.8-1.4,1.2-2.3,1.2c-1.7,0-2.9-1.3-2.9-3.2c0-1.3,0.7-2.6,1.9-3.2
		c0.4-0.2,1-0.3,1.2-0.3C100.4,48.7,101,48.9,101.4,49.3z M98.1,50.3c0,0.1,0,0.2,0.1,0.2c0.4,0,1.3,0,2.1,0c0.4,0,0.5-0.1,0.5-0.4
		c0-0.5-0.5-1-1.1-1C99,49.1,98.3,49.6,98.1,50.3z"/>
	<path fill="#B90541" d="M103.5,49.1c0.3-0.1,0.9-0.3,1.1-0.5c0.2-0.1,0.3-0.2,0.4-0.2c0.1,0,0.2,0.2,0.2,0.2c0,0.3-0.1,0.7-0.1,0.8
		c0,0.1,0.1,0,0.1,0c0.6-0.4,1.5-0.9,2.2-0.9c0.8,0,1.2,0.4,1.5,0.6c0.4,0.4,0.6,1.2,0.6,2c0,0.3,0,2.7,0,2.9c0,0.2,0.2,0.5,0.6,0.6
		c0.3,0.1,0.4,0.2,0.4,0.3c0,0.1-0.2,0.2-0.5,0.2c-0.4,0-0.7,0-1.2,0c-0.4,0-0.9,0-1.1,0c-0.1,0-0.4-0.1-0.4-0.2
		c0-0.1,0.2-0.2,0.4-0.3c0.4-0.1,0.5-0.3,0.5-0.8c0-0.5,0-2.5,0-2.9c0-0.6-0.3-1-0.5-1.2c-0.2-0.1-0.7-0.3-1-0.3
		c-0.7,0-1.1,0.2-1.4,0.5c0,0-0.2,0.2-0.2,0.4c0,0.2,0,3.7,0,3.9c0,0.2,0.1,0.4,0.6,0.5c0.2,0,0.3,0.1,0.3,0.2
		c0,0.1-0.2,0.2-0.4,0.2c-0.2,0-0.6,0-1,0c-0.6,0-1.1,0-1.3,0c-0.2,0-0.4-0.1-0.4-0.2c0-0.1,0.2-0.2,0.3-0.2
		c0.5-0.2,0.6-0.3,0.7-0.9c0-0.5,0.1-1.9,0.1-3.5c0-0.2,0-0.3-0.4-0.6c-0.2-0.1-0.3-0.2-0.3-0.3C103.2,49.3,103.4,49.2,103.5,49.1z"
		/>
	<path fill="#B90541" d="M115.3,49.4c0.2,0.3,0.3,0.7,0.3,1.3c0,0.6-0.1,2.7-0.1,2.8c0,0.7,0.5,0.8,0.6,0.8c0.1,0,0.4-0.1,0.6-0.2
		c0,0,0.1,0,0.1,0c0,0,0,0.1,0,0.2c0,0.3-0.7,1-1.4,1c-0.4,0-0.8-0.2-1-0.8c0,0-0.1-0.1-0.1-0.1c-0.6,0.4-1.3,0.7-1.4,0.7
		c-0.2,0.1-0.6,0.1-0.6,0.1c-0.6,0-1.1-0.7-1.1-1.5c0-0.3,0.1-0.6,0.3-0.8c0.2-0.2,0.4-0.3,0.6-0.4c0.2-0.1,1.5-0.5,1.9-0.6
		c0.4-0.1,0.5-0.2,0.5-0.3c0-0.1,0-1.1,0-1.3c0-0.4-0.5-1.1-1.3-1.1c-0.3,0-0.5,0.1-0.7,0.2c-0.1,0-0.1,0.3-0.1,0.7
		c0,0-0.1,0.1-0.1,0.2c-0.2,0.1-1,0.5-1,0.5c-0.1,0-0.2-0.1-0.2-0.2c0-0.5,0.4-0.9,1.2-1.4c0.5-0.3,1.2-0.6,1.5-0.6
		C114.7,48.7,115.1,49.1,115.3,49.4z M114.3,54.2c0.1-0.1,0.2-0.4,0.2-0.4c0-0.4,0-0.9,0-1.3c0,0-0.1-0.1-0.1-0.1
		c-0.5,0-1.2,0.3-1.7,0.5c-0.2,0.1-0.3,0.2-0.3,0.6c0,0.7,0.7,1,1,1C113.6,54.5,113.9,54.4,114.3,54.2z"/>
	<path fill="#B90541" d="M118.1,49.2c0.6-0.1,1.4-0.5,1.6-0.5c0.1,0,0.1,0.2,0.1,0.2c0,0.2-0.1,2.3-0.1,3.2c0,0.9,0,1.6,0,2.1
		c0,0.5,0.4,0.5,0.8,0.7c0.3,0.1,0.4,0.2,0.4,0.3c0,0.1-0.2,0.2-0.4,0.2c-0.1,0-0.9,0-1.3,0c-0.5,0-1.1,0.1-1.4,0.1
		c-0.3,0-0.4-0.1-0.4-0.2c0-0.1,0.1-0.2,0.4-0.3c0.4-0.1,0.6-0.3,0.6-0.5c0-0.2,0.1-1.2,0.1-1.7c0,0,0-2.3,0-2.5
		c0-0.1-0.2-0.2-0.7-0.6c-0.1-0.1-0.1-0.1-0.1-0.2C117.8,49.3,118,49.2,118.1,49.2z M120,46.2c0,0.4-0.5,0.8-0.8,0.8
		c-0.1,0-0.4-0.1-0.5-0.2c-0.1-0.1-0.2-0.3-0.2-0.6c0-0.1,0.1-0.4,0.2-0.6c0.2-0.1,0.4-0.2,0.6-0.2C119.7,45.4,120,45.9,120,46.2z"
		/>
	<path fill="#B90541" d="M122.1,49.2c0.5-0.2,1-0.4,1.2-0.5c0.2-0.1,0.3-0.2,0.3-0.2c0.1,0,0.1,0.1,0.1,0.2c0,0.3,0,0.6,0,0.9
		c0,0.1,0.1,0.1,0.1,0.1c0.6-0.6,1.3-1,1.8-1c0.7,0,0.8,0.4,0.8,0.5c0,0,0,0.1-0.1,0.2c-0.2,0.3-0.6,0.7-0.7,0.7c0,0-0.2,0-0.2,0
		c-0.2-0.2-0.6-0.4-0.9-0.4c-0.3,0-0.5,0-0.7,0.2c-0.1,0.1-0.2,0.3-0.2,0.4c0,0.3,0.1,3.2,0.1,3.5c0,0.5,0.1,0.8,0.4,0.8
		c0.2,0,0.5,0.1,0.7,0.2c0.3,0.1,0.3,0.2,0.3,0.3c0,0.1-0.1,0.1-0.4,0.1c-0.4,0-1-0.1-1.9-0.1c-0.5,0-0.7,0.1-1.1,0.1
		c-0.2,0-0.3-0.1-0.3-0.2c0-0.1,0.2-0.2,0.3-0.2c0.6-0.2,0.7-0.4,0.7-1.3c0-0.4,0-2,0-3.1c0-0.2,0-0.4-0.2-0.5
		c-0.4-0.3-0.5-0.4-0.5-0.4C121.9,49.5,121.9,49.3,122.1,49.2z"/>
	<path fill="#B90541" d="M131.7,49.3c0.4,0.3,0.6,0.8,0.6,1.4c0,0.1-0.1,0.3-0.3,0.3c-0.2,0-2.9,0-3.7,0c0,0-0.1,0.1-0.1,0.1
		c0,0.1-0.1,0.4-0.1,0.6c0,0.6,0.3,1.4,0.6,1.8c0.4,0.5,1,0.9,1.8,0.9c0.7,0,1.2-0.2,1.5-0.6c0.1-0.1,0.1-0.2,0.2-0.2
		c0.1,0,0.1,0.1,0.1,0.2c0,0.1-0.1,0.3-0.1,0.4c-0.6,0.8-1.4,1.2-2.3,1.2c-1.7,0-2.9-1.3-2.9-3.2c0-1.3,0.7-2.6,1.9-3.2
		c0.4-0.2,0.9-0.3,1.2-0.3C130.7,48.7,131.3,48.9,131.7,49.3z M128.3,50.3c0,0.1,0,0.2,0.1,0.2c0.4,0,1.3,0,2.1,0
		c0.4,0,0.5-0.1,0.5-0.4c0-0.5-0.5-1-1.1-1C129.2,49.1,128.6,49.6,128.3,50.3z"/>
	<path fill="#B90541" d="M141.2,49.3c0.4,0.3,0.6,0.8,0.6,1.4c0,0.1-0.1,0.3-0.3,0.3c-0.2,0-2.9,0-3.7,0c0,0-0.1,0.1-0.1,0.1
		c0,0.1-0.1,0.4-0.1,0.6c0,0.6,0.3,1.4,0.6,1.8c0.4,0.5,1,0.9,1.8,0.9c0.7,0,1.2-0.2,1.5-0.6c0.1-0.1,0.1-0.2,0.2-0.2
		c0.1,0,0.1,0.1,0.1,0.2c0,0.1-0.1,0.3-0.1,0.4c-0.6,0.8-1.4,1.2-2.3,1.2c-1.7,0-2.9-1.3-2.9-3.2c0-1.3,0.7-2.6,1.9-3.2
		c0.4-0.2,0.9-0.3,1.2-0.3C140.2,48.7,140.8,48.9,141.2,49.3z M137.8,50.3c0,0.1,0,0.2,0.1,0.2c0.4,0,1.3,0,2.1,0
		c0.4,0,0.5-0.1,0.5-0.4c0-0.5-0.5-1-1.1-1C138.7,49.1,138.1,49.6,137.8,50.3z"/>
	<path fill="#B90541" d="M142.9,48.8c0.2,0,1,0.1,1.4,0.1c0.3,0,0.7,0,1,0c0.2,0,0.4,0,0.4,0.1c0,0.1-0.1,0.2-0.3,0.3
		c-0.4,0.1-0.3,0.3-0.3,0.3c0,0.1,0.6,1.2,0.9,1.5c0,0,0.1,0,0.1,0c0.3-0.3,0.7-1,0.9-1.3c0.2-0.3,0.1-0.3-0.1-0.4
		c-0.4-0.1-0.4-0.2-0.4-0.3c0-0.1,0.1-0.2,0.3-0.2c0.2,0,0.4,0,0.7,0c0.4,0,1.1-0.1,1.4-0.1c0.2,0,0.3,0,0.3,0.2
		c0,0.1-0.2,0.2-0.3,0.2c-0.6,0.2-1,0.3-1.4,0.8c-0.4,0.5-0.7,0.9-1.1,1.5c0,0.1,0,0.1,0,0.2c0.2,0.4,0.8,1.6,1.3,2.3
		c0.5,0.7,0.9,0.8,1.2,0.9c0.3,0.1,0.4,0.2,0.4,0.2c0,0.1-0.1,0.2-0.4,0.2c-0.5,0-1.1-0.1-1.7-0.1c-0.3,0-0.5,0-0.8,0
		c-0.2,0-0.3-0.1-0.3-0.2c0-0.1,0.1-0.1,0.3-0.2c0.3-0.1,0.5-0.2,0.2-0.6c-0.2-0.3-0.7-1.3-0.8-1.4c0,0-0.1,0-0.1,0
		c-0.3,0.3-1,1.4-1,1.6c0,0.2,0.1,0.3,0.4,0.5c0.1,0,0.2,0.1,0.2,0.2c0,0.1-0.2,0.2-0.3,0.2c-0.3,0-0.4,0-0.7,0
		c-0.5,0-1,0.1-1.3,0.1c-0.2,0-0.5,0-0.5-0.2c0-0.1,0.2-0.2,0.4-0.3c0.6-0.2,0.9-0.4,1.2-0.7c0.3-0.4,0.9-1.2,1.3-1.8
		c0,0,0-0.1,0-0.2c-0.1-0.1-0.6-1.2-1.1-1.9c-0.4-0.6-0.7-0.8-1.1-1c-0.3-0.1-0.4-0.2-0.4-0.3C142.5,48.9,142.7,48.8,142.9,48.8z"/>
	<path fill="#B90541" d="M155.7,49.6c0.4,0.4,0.8,1.2,0.8,2.1c0,0.8-0.3,2-1.4,2.8c-0.9,0.7-1.8,0.8-2.6,0.8c-0.4,0-0.7,0-0.9-0.1
		c0,0-0.1,0.1-0.1,0.2c0,1.6,0,2.2,0.1,2.7c0,0.4,0.2,0.6,0.8,0.8c0.3,0.1,0.5,0.2,0.5,0.3c0,0.1-0.2,0.2-0.4,0.2
		c-0.4,0-1.3-0.1-1.9-0.1c-0.4,0-0.5,0-1,0c-0.2,0-0.5-0.1-0.5-0.2c0-0.1,0.1-0.2,0.4-0.2c0.9-0.2,0.9-0.3,1-1.5c0-0.5,0-1.9,0-3.5
		c0-1.1,0-2.3,0-3.3c0-0.7-0.1-0.8-0.1-0.8c-0.4-0.3-0.6-0.4-0.6-0.5c0-0.1,0.2-0.3,0.2-0.3c0.2-0.1,0.9-0.4,1.2-0.6
		c0.2-0.1,0.3-0.1,0.3-0.1c0,0,0.2,0.1,0.2,0.2c0,0.3,0,0.6,0,0.8c0,0.1,0.1,0.1,0.1,0.1c0.4-0.3,0.8-0.5,1-0.6
		c0.3-0.1,0.7-0.2,1.2-0.2C154.5,48.7,155.2,49.1,155.7,49.6z M151.8,49.8c-0.1,0.1-0.2,0.2-0.2,0.5c-0.1,0.5-0.1,2.2,0,2.9
		c0,0.3,0.1,0.6,0.2,0.7c0.4,0.6,1.2,0.9,1.6,0.9c0.2,0,0.5-0.1,0.7-0.3c0.8-0.7,1.1-1.9,1.1-2.4c0-0.4,0-1.2-0.7-2
		c-0.4-0.4-1.1-0.7-1.4-0.7C152.4,49.5,152,49.7,151.8,49.8z"/>
	<path fill="#B90541" d="M162.4,49.3c0.4,0.3,0.6,0.8,0.6,1.4c0,0.1-0.1,0.3-0.3,0.3c-0.2,0-2.9,0-3.7,0c0,0-0.1,0.1-0.1,0.1
		c0,0.1-0.1,0.4-0.1,0.6c0,0.6,0.3,1.4,0.6,1.8c0.4,0.5,1,0.9,1.8,0.9c0.7,0,1.2-0.2,1.5-0.6c0.1-0.1,0.1-0.2,0.2-0.2
		c0.1,0,0.1,0.1,0.1,0.2c0,0.1-0.1,0.3-0.1,0.4c-0.6,0.8-1.4,1.2-2.3,1.2c-1.7,0-2.9-1.3-2.9-3.2c0-1.3,0.7-2.6,1.9-3.2
		c0.4-0.2,1-0.3,1.2-0.3C161.4,48.7,162,48.9,162.4,49.3z M159,50.3c0,0.1,0,0.2,0.1,0.2c0.4,0,1.3,0,2.1,0c0.4,0,0.5-0.1,0.5-0.4
		c0-0.5-0.5-1-1.1-1C159.9,49.1,159.3,49.6,159,50.3z"/>
	<path fill="#B90541" d="M164.3,49.2c0.5-0.2,1-0.4,1.2-0.5c0.2-0.1,0.3-0.2,0.3-0.2c0.1,0,0.1,0.1,0.1,0.2c0,0.3,0,0.6,0,0.9
		c0,0.1,0.1,0.1,0.1,0.1c0.6-0.6,1.3-1,1.8-1c0.7,0,0.8,0.4,0.8,0.5c0,0,0,0.1-0.1,0.2c-0.2,0.3-0.6,0.7-0.7,0.7c0,0-0.2,0-0.2,0
		c-0.2-0.2-0.6-0.4-0.9-0.4c-0.3,0-0.5,0-0.7,0.2c-0.1,0.1-0.2,0.3-0.2,0.4c0,0.3,0.1,3.2,0.1,3.5c0,0.5,0.1,0.8,0.4,0.8
		c0.2,0,0.5,0.1,0.7,0.2c0.3,0.1,0.3,0.2,0.3,0.3c0,0.1-0.1,0.1-0.4,0.1c-0.4,0-1-0.1-1.9-0.1c-0.5,0-0.7,0.1-1.1,0.1
		c-0.2,0-0.3-0.1-0.3-0.2c0-0.1,0.2-0.2,0.3-0.2c0.6-0.2,0.7-0.4,0.7-1.3c0-0.4,0-2,0-3.1c0-0.2,0-0.4-0.2-0.5
		c-0.4-0.3-0.5-0.4-0.5-0.4C164.1,49.5,164.2,49.3,164.3,49.2z"/>
	<path fill="#B90541" d="M173.5,48.8c0,0,0.2,0.1,0.2,0.1c0,0,0,0.4,0,0.6c0,0.1-0.3,0.2-0.4,0.2c-0.1,0-1.6,0-1.8,0
		c-0.1,0-0.1,0.1-0.1,0.1c0,0.3,0,2.7,0,3.5c0,0.4,0.1,0.6,0.3,0.8c0.3,0.3,0.6,0.3,1,0.3c0.2,0,0.5-0.1,0.8-0.2
		c0.1-0.1,0.2-0.1,0.2-0.1c0,0,0.1,0,0.1,0.2c0,0.1-0.1,0.3-0.2,0.4c-0.4,0.4-1,0.7-1.7,0.7c-0.7,0-1.2-0.4-1.4-0.8
		c-0.2-0.3-0.2-0.6-0.2-1.1c0-0.6,0.1-3,0.1-3.6c0-0.1-0.3-0.2-0.6-0.3c-0.1,0-0.2-0.1-0.2-0.2c0-0.1,0-0.1,0.1-0.2
		c0.6-0.5,1.1-0.8,1.3-1.1c0.2-0.2,0.3-0.4,0.4-0.4c0.1,0,0.2,0.1,0.2,0.2c0,0.1,0,0.3,0,0.8c0,0,0.1,0.1,0.1,0.1
		C171.9,48.9,173.5,48.8,173.5,48.8z"/>
	<path fill="#B90541" d="M182.7,48.7c0.1,0,0.1-0.1,0.1-0.2c0.1-0.4,0-2.9,0-3.3c0-0.1,0-0.3-0.8-0.7c-0.1-0.1-0.2-0.1-0.2-0.1
		c0-0.1,0.2-0.3,0.3-0.3c0.4,0,1.2-0.3,1.6-0.5c0.1,0,0.1,0,0.2,0c0,0,0.1,0.1,0.1,0.3c-0.1,0.9-0.1,1.4-0.1,6.4c0,3.3,0,3.4,0,3.7
		c0,0.6,0.1,0.7,0.2,0.7c0.2,0,0.7-0.1,0.9-0.1c0.1,0,0.1,0.1,0.1,0.1c0,0.1-0.2,0.4-0.3,0.4c-0.3,0-1.1,0.2-1.4,0.3
		c-0.4,0.1-0.5,0.2-0.6,0.2c-0.1,0-0.2-0.1-0.2-0.2c0-0.1,0-0.4,0-0.7c0-0.1-0.1-0.1-0.1-0.1c-0.7,0.7-1.6,0.8-2.1,0.8
		c-0.8,0-1.5-0.4-2-0.9c-0.5-0.6-0.8-1.4-0.8-2.2c0-1.6,0.9-2.5,1.7-3c0.7-0.5,1.7-0.6,2.1-0.6C182.2,48.7,182.5,48.7,182.7,48.7z
		 M179.8,49.8c-0.3,0.3-0.7,1.1-0.7,2c0,1.3,0.9,2.8,2.3,2.8c0.5,0,0.9-0.2,1.2-0.4c0,0,0.2-0.5,0.3-1.1c0-1,0-1.9,0-2.7
		c0-0.1-0.2-0.4-0.4-0.6c-0.5-0.5-1.1-0.6-1.4-0.6C180.5,49.2,180.1,49.5,179.8,49.8z"/>
	<path fill="#B90541" d="M190.5,54c0.1-0.1,0.2-0.3,0.2-0.4l0-3.7c0-0.1-0.2-0.3-0.3-0.4c-0.2-0.1-0.6-0.2-0.7-0.2
		c-0.1,0-0.3-0.1-0.3-0.3c0-0.1,0.2-0.1,0.4-0.1c0.6,0,1.4-0.1,1.7-0.2c0.2,0,0.3-0.1,0.4-0.1c0.1,0,0.1,0.2,0.1,0.2
		c0,0.5-0.2,4-0.2,5.3c0,0,0.1,0.2,0.2,0.2c0.1,0,0.6-0.1,0.8-0.1c0.1,0,0.2,0.3,0.2,0.3c0,0-0.1,0.2-0.2,0.2
		c-0.4,0-1.1,0.2-1.5,0.3c-0.3,0.1-0.5,0.1-0.6,0.1c-0.1,0-0.2-0.1-0.2-0.2c0-0.1,0-0.4,0.1-0.7c0-0.1,0-0.1-0.1-0.1
		c-0.5,0.3-1.1,0.7-1.3,0.8c-0.3,0.1-0.6,0.2-1.1,0.2c-0.6,0-1.1-0.3-1.4-0.8c-0.1-0.2-0.2-0.5-0.2-0.8c0-1.2,0-3,0-3.8
		c0-0.5-0.3-0.5-0.6-0.6c-0.1-0.1-0.3-0.1-0.3-0.3c0,0,0.1-0.1,0.3-0.1c0.5,0,1.6-0.2,1.7-0.2c0.1,0,0.1,0.1,0.1,0.2
		c0,0.5,0,3.6,0,4.3c0,0.4,0.2,0.7,0.4,0.9c0.4,0.3,0.7,0.3,1.1,0.3C189.6,54.6,190.1,54.4,190.5,54z"/>
	<path fill="#B90541" d="M197.7,49.1c0.3-0.1,0.9-0.3,1.1-0.5c0.2-0.1,0.3-0.2,0.4-0.2c0.1,0,0.2,0.2,0.2,0.2c0,0.3-0.1,0.7-0.1,0.8
		c0,0.1,0.1,0,0.1,0c0.6-0.4,1.5-0.9,2.2-0.9c0.8,0,1.2,0.4,1.5,0.6c0.4,0.4,0.6,1.2,0.6,2c0,0.3,0,2.7,0,2.9c0,0.2,0.2,0.5,0.6,0.6
		c0.3,0.1,0.4,0.2,0.4,0.3c0,0.1-0.2,0.2-0.5,0.2c-0.4,0-0.7,0-1.2,0c-0.4,0-0.9,0-1.1,0c-0.1,0-0.4-0.1-0.4-0.2
		c0-0.1,0.2-0.2,0.4-0.3c0.4-0.1,0.5-0.3,0.5-0.8c0-0.5,0-2.5,0-2.9c0-0.6-0.3-1-0.5-1.2c-0.2-0.1-0.7-0.3-1-0.3
		c-0.7,0-1.1,0.2-1.4,0.5c0,0-0.2,0.2-0.2,0.4c0,0.2,0,3.7,0,3.9c0,0.2,0.1,0.4,0.6,0.5c0.2,0,0.3,0.1,0.3,0.2
		c0,0.1-0.2,0.2-0.4,0.2c-0.2,0-0.6,0-1,0c-0.6,0-1.1,0-1.3,0c-0.2,0-0.4-0.1-0.4-0.2c0-0.1,0.2-0.2,0.3-0.2
		c0.5-0.2,0.6-0.3,0.7-0.9c0-0.5,0.1-1.9,0.1-3.5c0-0.2,0-0.3-0.4-0.6c-0.2-0.1-0.3-0.2-0.3-0.3C197.4,49.3,197.5,49.2,197.7,49.1z"
		/>
	<path fill="#B90541" d="M212.1,52c0,1.3-0.8,2.4-1.4,2.8c-0.6,0.5-1.3,0.6-2,0.6c-0.7,0-1.5-0.3-2.1-0.8c-0.7-0.6-1.2-1.7-1.2-2.5
		c0-1.2,0.5-2,1.1-2.5c0.5-0.4,1.3-0.9,2.4-0.9C210.5,48.7,212.1,49.9,212.1,52z M207.6,49.6c-0.4,0.4-0.8,1.2-0.8,2.1
		c0,0.5,0.1,1,0.2,1.4c0.4,1.2,1.3,1.8,2.1,1.8c0.2,0,0.5-0.1,1-0.5c0.4-0.4,0.7-1.4,0.7-2.1c0-0.8-0.2-1.8-0.8-2.5
		c-0.4-0.4-0.9-0.6-1.4-0.6C208.3,49.2,207.9,49.3,207.6,49.6z"/>
	<path fill="#B90541" d="M217.3,48.8c0,0,0.2,0.1,0.2,0.1c0,0,0,0.4,0,0.6c0,0.1-0.3,0.2-0.4,0.2c-0.1,0-1.6,0-1.8,0
		c-0.1,0-0.1,0.1-0.1,0.1c0,0.3,0,2.7,0,3.5c0,0.4,0.1,0.6,0.3,0.8c0.3,0.3,0.6,0.3,1,0.3c0.2,0,0.5-0.1,0.8-0.2
		c0.1-0.1,0.2-0.1,0.2-0.1c0,0,0.1,0,0.1,0.2c0,0.1-0.1,0.3-0.2,0.4c-0.4,0.4-1,0.7-1.7,0.7c-0.7,0-1.2-0.4-1.4-0.8
		c-0.2-0.3-0.2-0.6-0.2-1.1c0-0.6,0.1-3,0.1-3.6c0-0.1-0.3-0.2-0.6-0.3c-0.1,0-0.2-0.1-0.2-0.2c0-0.1,0-0.1,0.1-0.2
		c0.6-0.5,1.1-0.8,1.3-1.1c0.2-0.2,0.3-0.4,0.4-0.4c0.1,0,0.2,0.1,0.2,0.2c0,0.1,0,0.3,0,0.8c0,0,0.1,0.1,0.1,0.1
		C215.6,48.9,217.2,48.8,217.3,48.8z"/>
	<path fill="#B90541" d="M222.5,49.4c0.2,0.3,0.3,0.7,0.3,1.3c0,0.6-0.1,2.7-0.1,2.8c0,0.7,0.5,0.8,0.6,0.8c0.1,0,0.4-0.1,0.6-0.2
		c0,0,0.1,0,0.1,0c0,0,0,0.1,0,0.2c0,0.3-0.7,1-1.4,1c-0.4,0-0.8-0.2-1-0.8c0,0-0.1-0.1-0.1-0.1c-0.6,0.4-1.3,0.7-1.4,0.7
		c-0.2,0.1-0.6,0.1-0.6,0.1c-0.6,0-1.1-0.7-1.1-1.5c0-0.3,0.1-0.6,0.3-0.8c0.2-0.2,0.4-0.3,0.6-0.4c0.2-0.1,1.5-0.5,1.9-0.6
		c0.4-0.1,0.5-0.2,0.5-0.3c0-0.1,0-1.1,0-1.3c0-0.4-0.5-1.1-1.3-1.1c-0.3,0-0.5,0.1-0.7,0.2c-0.1,0-0.1,0.3-0.1,0.7
		c0,0-0.1,0.1-0.1,0.2c-0.2,0.1-1,0.5-1,0.5c-0.1,0-0.2-0.1-0.2-0.2c0-0.5,0.5-0.9,1.2-1.4c0.5-0.3,1.2-0.6,1.5-0.6
		C221.8,48.7,222.2,49.1,222.5,49.4z M221.4,54.2c0.1-0.1,0.2-0.4,0.2-0.4c0-0.4,0-0.9,0-1.3c0,0-0.1-0.1-0.1-0.1
		c-0.5,0-1.2,0.3-1.7,0.5c-0.2,0.1-0.3,0.2-0.3,0.6c0,0.7,0.7,1,1,1C220.8,54.5,221.1,54.4,221.4,54.2z"/>
	<path fill="#B90541" d="M225.3,49.2c0.6-0.1,1.4-0.5,1.6-0.5c0.1,0,0.1,0.2,0.1,0.2c0,0.2-0.1,2.3-0.1,3.2c0,0.9,0,1.6,0,2.1
		c0,0.5,0.4,0.5,0.8,0.7c0.3,0.1,0.4,0.2,0.4,0.3c0,0.1-0.2,0.2-0.4,0.2c-0.1,0-0.9,0-1.3,0c-0.5,0-1.1,0.1-1.4,0.1
		c-0.3,0-0.4-0.1-0.4-0.2c0-0.1,0.1-0.2,0.4-0.3c0.4-0.1,0.6-0.3,0.6-0.5c0-0.2,0.1-1.2,0.1-1.7c0,0,0-2.3,0-2.5
		c0-0.1-0.2-0.2-0.7-0.6c-0.1-0.1-0.1-0.1-0.1-0.2C225,49.3,225.1,49.2,225.3,49.2z M227.2,46.2c0,0.4-0.5,0.8-0.8,0.8
		c-0.1,0-0.4-0.1-0.5-0.2c-0.1-0.1-0.2-0.3-0.2-0.6c0-0.1,0.1-0.4,0.2-0.6c0.2-0.1,0.4-0.2,0.6-0.2
		C226.9,45.4,227.2,45.9,227.2,46.2z"/>
	<path fill="#B90541" d="M229.3,49.2c0.5-0.2,1-0.4,1.2-0.5c0.2-0.1,0.3-0.2,0.3-0.2c0.1,0,0.1,0.1,0.1,0.2c0,0.3,0,0.6,0,0.9
		c0,0.1,0.1,0.1,0.1,0.1c0.6-0.6,1.3-1,1.8-1c0.7,0,0.8,0.4,0.8,0.5c0,0,0,0.1-0.1,0.2c-0.2,0.3-0.6,0.7-0.7,0.7c0,0-0.2,0-0.2,0
		c-0.2-0.2-0.6-0.4-0.9-0.4c-0.3,0-0.5,0-0.7,0.2c-0.1,0.1-0.2,0.3-0.2,0.4c0,0.3,0.1,3.2,0.1,3.5c0,0.5,0.1,0.8,0.4,0.8
		c0.2,0,0.5,0.1,0.7,0.2c0.3,0.1,0.3,0.2,0.3,0.3c0,0.1-0.1,0.1-0.4,0.1c-0.4,0-1-0.1-1.9-0.1c-0.5,0-0.7,0.1-1.1,0.1
		c-0.2,0-0.3-0.1-0.3-0.2c0-0.1,0.2-0.2,0.3-0.2c0.6-0.2,0.7-0.4,0.7-1.3c0-0.4,0-2,0-3.1c0-0.2,0-0.4-0.2-0.5
		c-0.4-0.3-0.5-0.4-0.5-0.4C229.1,49.5,229.1,49.3,229.3,49.2z"/>
	<path fill="#B90541" d="M238.9,49.3c0.4,0.3,0.6,0.8,0.6,1.4c0,0.1-0.1,0.3-0.3,0.3c-0.2,0-2.9,0-3.7,0c0,0-0.1,0.1-0.1,0.1
		c0,0.1-0.1,0.4-0.1,0.6c0,0.6,0.3,1.4,0.6,1.8c0.4,0.5,1,0.9,1.8,0.9c0.7,0,1.2-0.2,1.5-0.6c0.1-0.1,0.1-0.2,0.2-0.2
		c0.1,0,0.1,0.1,0.1,0.2c0,0.1-0.1,0.3-0.1,0.4c-0.6,0.8-1.4,1.2-2.3,1.2c-1.7,0-2.9-1.3-2.9-3.2c0-1.3,0.7-2.6,1.9-3.2
		c0.4-0.2,0.9-0.3,1.2-0.3C237.8,48.7,238.5,48.9,238.9,49.3z M235.5,50.3c0,0.1,0,0.2,0.1,0.2c0.4,0,1.3,0,2.1,0
		c0.4,0,0.5-0.1,0.5-0.4c0-0.5-0.5-1-1.1-1C236.4,49.1,235.8,49.6,235.5,50.3z"/>
</g>
</svg>
