<?xml version="1.0" encoding="utf-8"?>
<!-- Generator: Adobe Illustrator 19.0.0, SVG Export Plug-In . SVG Version: 6.00 Build 0)  -->
<svg version="1.1" id="Calque_1" xmlns="http://www.w3.org/2000/svg" xmlns:xlink="http://www.w3.org/1999/xlink" x="0px" y="0px"
	 width="103.1px" height="91.8px" viewBox="0 0 103.1 91.8" enable-background="new 0 0 103.1 91.8" xml:space="preserve">
<g>
	<path fill="#34B7BB" d="M26.9,59.1c-3.2,0-6.5,0-9.7,0c-2,0-3.3,1.3-3.4,3.3c0,1,0,2,0,3.1c0,2.2,1.3,3.5,3.5,3.5
		c1.1,0,2.2,0,3.3,0l1.4,0l1.5,0c0.5,0,1,0,1.5,0c0.7,0,1.3,0,2,0c2,0,3.3-1.3,3.3-3.3c0-1,0-2.1,0-3.1
		C30.3,60.4,28.9,59.1,26.9,59.1z M27.7,65.6c0,0.6-0.2,0.8-0.8,0.8c-1.1,0-2.3,0-3.4,0l-1.5,0l-1.4,0c-1.1,0-2.2,0-3.3,0
		c-0.8,0-0.9-0.1-1-1.1c0-1,0-1.9,0-2.9c0-0.6,0.2-0.8,0.8-0.8c3.2,0,6.5,0,9.7,0c0.6,0,0.8,0.2,0.8,0.9
		C27.7,63.5,27.7,64.6,27.7,65.6z"/>
	<path fill="#34B7BB" d="M25.8,71.7c-1.2,0-2.4,0.4-3.2,1.3c-0.9,0.8-1.3,2-1.3,3.2c0,1.2,0.5,2.4,1.3,3.2c0.8,0.9,2,1.3,3.2,1.3
		c0,0,0,0,0,0c1.2,0,2.3-0.5,3.2-1.3c0.9-0.9,1.3-2,1.3-3.2C30.3,73.7,28.3,71.7,25.8,71.7z M27.1,77.6c-0.4,0.4-0.9,0.6-1.4,0.6
		c0,0,0,0,0,0c-0.5,0-1-0.2-1.4-0.6c-0.4-0.4-0.6-0.9-0.6-1.4c0-0.5,0.2-1,0.6-1.4c0.4-0.4,0.8-0.6,1.4-0.6c1.1,0,1.9,0.9,1.9,1.9
		C27.7,76.7,27.5,77.2,27.1,77.6z"/>
	<rect x="33.8" y="71.7" fill="#34B7BB" width="35.5" height="2.6"/>
	<path fill="#34B7BB" d="M6.4,24.5l1.1,0.2c1.2,0.2,1.2,0.5,1.2,0.9c0,4.3,0,8.7,0,13c0,0.2,0,0.7-0.7,0.7c-0.1,0-0.2,0-0.3,0
		l-1.2,0.2v5.1h7.9V19.4H6.4V24.5z M8.9,22h2.8V42H9v-0.3c1.4-0.4,2.3-1.6,2.3-3.1c0-4.4,0-8.7,0-13.1c0-1.6-0.8-2.6-2.3-3.1V22z"/>
	<path fill="#34B7BB" d="M77.3,71.7c-2.5,0-4.5,2-4.5,4.5c0,1.2,0.5,2.3,1.3,3.2c0.9,0.9,2,1.3,3.2,1.3c0,0,0,0,0,0
		c1.2,0,2.3-0.5,3.2-1.3c0.9-0.9,1.3-2,1.3-3.2c0-1.2-0.5-2.3-1.3-3.2C79.6,72.1,78.5,71.6,77.3,71.7z M78.7,77.6
		c-0.4,0.4-0.9,0.6-1.4,0.6c0,0,0,0,0,0c-0.5,0-1-0.2-1.4-0.6c-0.4-0.4-0.6-0.9-0.6-1.4c0-1.1,0.9-1.9,1.9-2c0,0,0,0,0,0
		c0.5,0,1,0.2,1.4,0.6c0.4,0.4,0.6,0.8,0.6,1.4C79.3,76.7,79.1,77.2,78.7,77.6z"/>
	<path fill="#34B7BB" d="M94.4,38.6c0-4.3,0-8.7,0-13.1c0-0.2,0-0.6,0.8-0.7c0.1,0,0.2,0,0.4-0.1l1.2-0.2v-5.1h-7.9v25.2h7.9v-5
		l-1.1-0.1C94.4,39.2,94.4,38.9,94.4,38.6z M94.2,42h-2.8V22h2.8v0.4c-1.4,0.4-2.3,1.6-2.3,3.1c0,4.4,0,8.8,0,13.1
		c0,1.1,0.4,2.5,2.3,3.1V42z"/>
	<path fill="#34B7BB" d="M85.9,59.1c-3.2,0-6.5,0-9.7,0c-2,0-3.4,1.3-3.4,3.4c0,1,0,2,0,3c0,2.2,1.3,3.5,3.5,3.5c1.1,0,2.3,0,3.4,0
		l1.3,0l1.5,0c0.5,0,1,0,1.5,0c0.7,0,1.3,0,2,0c2,0,3.3-1.3,3.3-3.3c0-1.1,0-2.2,0-3.2C89.3,60.4,87.9,59.1,85.9,59.1z M86.8,65.6
		c0,0.6-0.2,0.8-0.8,0.8c-1.1,0-2.3,0-3.4,0l-1.5,0l-1.3,0c-1.1,0-2.3,0-3.4,0c-0.8,0-0.9-0.2-1-1c0-1,0-1.9,0-2.9
		c0-0.7,0.2-0.9,0.9-0.9c3.2,0,6.5,0,9.7,0c0.6,0,0.8,0.2,0.8,0.8C86.8,63.4,86.8,64.5,86.8,65.6z"/>
	<rect x="33.8" y="65.2" fill="#34B7BB" width="35.5" height="2.6"/>
	<path fill="#34B7BB" d="M103.1,25.4c0-1.6-1.1-2.8-2.6-3.1V16h-9.2V3.9h-4C86.9,1.4,85.3,0,82.6,0L20.5,0c-0.2,0-0.3,0-0.5,0
		c-2.1,0.1-3.8,1.8-3.9,3.9h-4.3V16H2.6v6.3C1.1,22.6,0,23.9,0,25.5c0,4.4,0,8.7,0,13.1c0,1.6,1.1,2.9,2.6,3.2c0,0,0,0,0,0V48h9.2
		v5.1c-0.1,0-0.2,0-0.3,0c-1.9,0-2.8,1-2.8,2.8l0,4.3c0,3.4,0,6.8,0,10.2c0,0.4,0,1.2,0.3,1.8c-0.2,0.4-0.3,0.9-0.3,1.4
		c0,1.2,0,2.4,0,3.6c0,1.3,0,2.6,0,3.8c0,1.7,1,2.7,2.7,2.8c0.4,0,0.9,0,1.3,0l0,2l0,1.6c0,2.7,1.5,4.2,4.2,4.2h13.2
		c2.8,0,4.3-1.5,4.3-4.3l0-3.5h34.1l0,0.3c0,1.2,0,2.3,0,3.5c0,2.4,1.6,4,4,4c2.3,0,4.5,0,6.8,0s4.5,0,6.8,0c2.5,0,4.1-1.6,4.1-4.1
		c0-1.1,0-2.3,0-3.4V84c0.4,0,0.8,0,1.3,0c1.8,0,2.8-1,2.8-2.8v-2.6c0-1.6,0-3.1,0-4.7c0-0.6-0.1-1.2-0.4-1.6
		c0.2-0.3,0.3-0.7,0.3-1.2c0-4.4,0-8.9,0-13.3l0-1.9c0-1.5-1-2.5-2.5-2.6c-0.2,0-0.3,0-0.5,0V48h9.1v-6.2c1.5-0.3,2.6-1.6,2.6-3.1
		C103.1,34.2,103.1,29.8,103.1,25.4z M99.8,39.3c-0.1,0-0.2,0-0.3,0l-1.6,0v6.1h-9.1v10.3l1.8,0c0.4,0,0.8,0,1.1,0c0,0,0,0,0.1,0
		c0,0,0,0,0,0l0,1.9c0,4.4,0,8.9,0,13.2c0,0.1-0.1,0.3-0.2,0.4c-0.1,0.2-0.2,0.4-0.3,0.6l-0.5,1.2l1,0.5c0,0.1,0,0.1,0,0.3
		c0,1.6,0,3.1,0,4.7l0,2.6c0,0.1,0,0.2,0,0.3c-0.1,0-0.1,0-0.3,0c-0.6,0-1.1,0-1.7,0l-2.1,0l0,2.8c0,1.1,0,2.3,0,3.4
		c0,1.1-0.4,1.6-1.5,1.6c-4.5,0-9.1,0-13.6,0c-1,0-1.5-0.5-1.5-1.5c0-1.1,0-2.3,0-3.4l0-2.8H31.9l0,6c0,1.3-0.4,1.7-1.7,1.7H17
		c-1.3,0-1.7-0.4-1.7-1.6v-6.2l-2,0c-0.6,0-1.2,0-1.8,0c-0.1,0-0.2,0-0.2,0c0,0,0-0.1,0-0.2c0-1.3,0-2.6,0-3.8c0-1.2,0-2.4,0-3.7
		c0-0.1,0-0.2,0-0.2c0,0,0.1-0.1,0.2-0.1l3-1.3l-3.2-1c0,0-0.1,0-0.1,0c0-0.1,0-0.4,0-0.6c0-3.4,0-6.8,0-10.2l0-4.3
		c0-0.1,0-0.2,0-0.3c0.1,0,0.1,0,0.3,0c0.3,0,0.7,0,1,0l1.8,0V45.5H5.2v-6L4,39.4c-0.2,0-0.3,0-0.4,0c-0.2,0-0.3,0-0.5,0
		c-0.3-0.1-0.5-0.4-0.5-0.7c0-4.4,0-8.7,0-13.1c0-0.2,0-0.7,0.8-0.8c0.1,0,0.2,0,0.3,0l1.5,0v-6.2h9.2V6.5h4.3l0-1.7
		c0-0.2,0-0.5,0-0.7c0-0.8,0.7-1.5,1.5-1.5c0.1,0,0.2,0,0.4,0l62.1,0c1.4,0,2,0.6,2,2c0,0.2,0,0.3,0,0.5l0.1,1.4h3.9v12.1h9.2v6.2
		l1.6,0c0.1,0,0.2,0,0.3,0c0.2,0,0.7,0.1,0.7,0.7c0,4.4,0,8.8,0,13.2C100.5,39.2,100,39.3,99.8,39.3z"/>
	<rect x="33.8" y="58.1" fill="#34B7BB" width="35.5" height="2.6"/>
	<path fill="#34B7BB" d="M85.4,10.2H17.7v25.7h67.6V10.2z M82.8,33.3H20.3V12.7h62.5V33.3z"/>
</g>
</svg>
