<?xml version="1.0" encoding="utf-8"?>
<!-- Generator: Adobe Illustrator 19.0.0, SVG Export Plug-In . SVG Version: 6.00 Build 0)  -->
<svg version="1.1" id="Calque_1" xmlns="http://www.w3.org/2000/svg" xmlns:xlink="http://www.w3.org/1999/xlink" x="0px" y="0px"
	 width="142.8px" height="142.8px" viewBox="0 0 142.8 142.8" enable-background="new 0 0 142.8 142.8" xml:space="preserve">
<g id="XMLID_26_">
	<path id="XMLID_35_" fill="#00999D" d="M71.4,0C32,0,0,32,0,71.4c0,39.4,32,71.4,71.4,71.4c39.4,0,71.4-32,71.4-71.4
		C142.8,32,110.8,0,71.4,0z M108.8,104.9c0,2.1-1.7,3.8-3.8,3.8h-27c-2.2,0-3.8-1.6-3.8-3.8v-5.5c0-0.8,0.2-1.5,0.6-2l0.2-2.2
		l1-10.5l1.2-13.5c-0.7,0.5-1.5,0.8-2.4,0.8h-7.3c-0.8,0-1.5-0.2-2-0.6l2.2,23.8l0.2,2.2c0.4,0.6,0.6,1.3,0.6,2v5.5
		c0,2.1-1.7,3.7-3.8,3.7h-27c-0.3,0-0.5,0-0.8-0.1c-1.6-0.3-2.8-1.5-3-3c0-0.2-0.1-0.4-0.1-0.6v-5.5c0-0.9,0.3-1.7,0.8-2.3l-0.6,0
		l1.1-2.7l0.1-0.1L43,74.3V52.6v-2h2h5.2v-7.1c-0.4,0-0.8-0.1-1.2-0.3c-1.2-0.5-2.1-1.4-2.6-2.6l-0.1-0.4v-0.1
		C46,39.7,46,39.3,46,38.8c0-2.6,2-4.6,4.6-4.6h12.7c0.7,0,1.4,0.1,2,0.4c1.1,0.5,1.9,1.3,2.4,2.4c0.2,0.6,0.4,1.2,0.4,1.8
		c0,2.5-1.9,4.5-4.3,4.7v8.1l0,0.5c0.2-1.9,1.8-3.4,3.8-3.4h7.3c2.2,0,3.8,1.6,3.8,3.8c0,0.2,0,0.4,0,0.6h0.3l0-0.3l0-0.3l0.1-0.9
		v-8.1c-2.4-0.2-4.2-2.2-4.2-4.7c0-2.6,2-4.6,4.6-4.6h12.7c0.3,0,0.7,0,1,0.1c1.9,0.4,3.3,1.8,3.6,3.7c0.1,0.3,0.1,0.6,0.1,0.9
		c0,2.5-1.9,4.5-4.3,4.7v7.1h5.2h2v2v21.7l7.8,20l1.1,2.7l-0.7,0c0.5,0.6,0.8,1.4,0.8,2.3V104.9z"/>
	<path id="XMLID_38_" fill="#00999D" d="M105,97.6H103c0-0.1,0.1-0.2,0.1-0.4v-2.2l2.7,0l-8-20.4V52.6h-7.2V42.2
		c0-0.2,0-0.5-0.1-0.7h1.7c1.5,0,2.7-1.2,2.7-2.7c0-0.2,0-0.3,0-0.5c-0.2-1.1-1-1.9-2.1-2.1c-0.2,0-0.4-0.1-0.6-0.1H79.5
		c-1.5,0-2.6,1.1-2.6,2.6c0,1.5,1.1,2.7,2.6,2.7h1.7c-0.1,0.2-0.1,0.5-0.1,0.7v10.4H81l0,0.3l-0.2,2.2c-0.1,0-0.2,0-0.3,0h-5.8v-0.8
		h0.2c1.1,0,1.8-0.8,1.8-1.8c0-1-0.8-1.8-1.8-1.8h-7.3c-1,0-1.8,0.8-1.8,1.8c0,1,0.8,1.8,1.8,1.8h0.2v0.8h-5.4c-0.1,0-0.2,0-0.3,0
		l-0.2-2.5h-0.1V42.2c0-0.2,0-0.5-0.1-0.7h1.7c1.5,0,2.7-1.2,2.7-2.7c0-0.4-0.1-0.7-0.2-1c-0.3-0.6-0.7-1.1-1.4-1.4
		c-0.3-0.2-0.7-0.2-1.1-0.2H50.6c-1.5,0-2.6,1.1-2.6,2.6c0,0.4,0.1,0.7,0.2,1.1v0c0.3,0.7,0.8,1.2,1.5,1.5c0.3,0.1,0.6,0.2,0.9,0.2
		h1.7c-0.1,0.2-0.1,0.5-0.1,0.7v10.4H45v22.1l-7.8,20.2l-0.1,0.2l0.2,0l2.5,0v2.2c0,0.1,0,0.2,0,0.3c0,0,0,0,0,0h-2
		c-1,0-1.8,0.8-1.8,1.7v5.5c0,0.1,0,0.2,0,0.3c0.1,0.7,0.7,1.3,1.4,1.4c0.1,0,0.3,0,0.4,0h27c1,0,1.8-0.8,1.8-1.7v-5.5
		c0-1-0.8-1.7-1.8-1.7h-2c0,0,0,0,0,0c0,0,0,0,0-0.1c0-0.1,0-0.2,0-0.3v-2l3,0l-2.3-25L63,65.6h4.8v0.8h-0.2c-1,0-1.8,0.8-1.8,1.8
		c0,1,0.8,1.8,1.8,1.8h7.3c1.1,0,1.8-0.8,1.8-1.8c0-1-0.8-1.8-1.8-1.8h-0.2v-0.8h5.1L78,84.8l-1,10.5l3.1,0h0v2c0,0.1,0,0.2,0.1,0.4
		h-2.1c-1.1,0-1.8,0.8-1.8,1.8v5.5c0,1,0.8,1.8,1.8,1.8h27c1,0,1.8-0.8,1.8-1.8v-5.5C106.8,98.4,106,97.6,105,97.6z"/>
</g>
</svg>
