<?xml version="1.0" encoding="utf-8"?>
<!-- Generator: Adobe Illustrator 19.0.0, SVG Export Plug-In . SVG Version: 6.00 Build 0)  -->
<svg version="1.1" id="Calque_1" xmlns="http://www.w3.org/2000/svg" xmlns:xlink="http://www.w3.org/1999/xlink" x="0px" y="0px"
	 width="142.8px" height="142.8px" viewBox="0 0 142.8 142.8" enable-background="new 0 0 142.8 142.8" xml:space="preserve">
<g id="XMLID_6_">
	<path id="XMLID_14_" fill="none" d="M111.3,29l-3.3-5.7l0,0c-0.4-0.7-1-1.3-1.8-1.7c-0.5-0.3-1.1-0.4-1.7-0.4c-0.1,0-0.3,0-0.4,0
		c-0.8,0-1.4,0.2-1.9,0.4l-0.2,0.1l-0.2,0.2l-0.2,0.2c-0.9,0.6-1.6,1.4-1.9,2.4l-14.1,8.2l-10.4,6L72.7,40l-0.3-0.5
		c1.2-1,1.7-2.6,1.2-4.2c-0.1-0.3-0.2-0.5-0.3-0.8l-0.1-0.2l-0.1-0.1l0-0.1l0-0.1c-0.6-1-1.6-1.6-2.7-1.8c-0.2,0-0.5-0.1-0.7-0.1
		c-0.7,0-1.3,0.2-1.9,0.5l-6.9,4c-0.4-0.1-0.8-0.2-1.2-0.2c-0.6,0-1.3,0.2-1.8,0.5l-0.3,0.2c-0.8,0.4-1.4,1.2-1.6,2.1
		c-0.3,0.9-0.1,1.9,0.4,2.7l1.5,2.7l0.3,0.5l0,0l0,0c0.5,0.8,1.2,1.3,2.1,1.5c0.3,0.1,0.6,0.1,0.9,0.1c0.6,0,1.3-0.2,1.8-0.5
		l0.4-0.2c0,0,0.1-0.1,0.1-0.1l0.6,1.1l0.2,0.4l-0.1,0.1l-14.7,8.5l-4.7,2.7l-1.7,1l1,1.7l0.2,0.4l-11.1,6.4
		c-0.6-0.4-1.3-0.7-2.1-0.7h-0.5l-0.3,0.2c-0.2,0.1-0.5,0.2-0.8,0.4l-0.1,0.1c-1.5,0.9-2,2.9-1.1,4.4l3.2,5.6l0.2,0.4
		c0.5,0.9,1.3,1.5,2.3,1.7c0.2,0,0.4,0.1,0.6,0.1c0.5,0,1-0.1,1.4-0.3l0.1,0l0.2-0.1l0.2-0.1c1.2-0.7,1.8-2,1.6-3.3l11.1-6.4
		l0.2,0.4l1,1.7l1.7-1L63.4,65v0.9l-14.7,28L37.1,116c-0.4,0.7-0.6,1.4-0.7,2.1c-0.1,1.1,0.1,2,0.6,2.6c0.5,0.5,1.1,0.8,1.8,0.8
		c0.6,0,1.2-0.2,1.7-0.6c0,0,0.1,0,0.1-0.1c0,0,0.1-0.1,0.1-0.1c0.3-0.3,0.6-0.6,0.9-1l0.1-0.1l0-0.1L55,98.8L70.1,75l1,23.5l0,0.1
		l0,0.1c0.4,2.9,2,3.3,2.7,3.3c2,0,3.1-2.2,3.1-4.3l0.9-22.4l28.3,44.6l0,0.1l0.1,0.1c0.3,0.4,1.4,1.8,2.9,1.8
		c0.9,0,1.7-0.5,2.1-1.2c0.8-1.4,0.3-3.2-0.4-4.4L84.4,65.7v-5.3c0-1.4-1-2.6-2.4-2.6h-1.9l8.1-4.6l11.8-6.8l9-5.2
		c0.4,0.1,0.9,0.2,1.3,0.2c0.8,0,1.5-0.2,2.2-0.6l0.3-0.1l0.1,0l0.1,0c2.1-1.3,2.8-3.9,1.5-6L111.3,29z M111.9,38.9l-0.3,0.2
		c-0.4,0.2-0.8,0.3-1.2,0.3c-0.5,0-1-0.2-1.4-0.5l-9.9,5.7l-11.8,7l-10.2,6.1h0L77,57.6c0.3,0,0.4,0.1,0.4,0.3v1.8H82
		c0.3,0,0.4,0.4,0.4,0.6v5.8l26.6,50.7c0.7,1.3,0.7,2.7,0.1,2.7c-0.3,0-0.7-0.2-1.3-0.9L77.3,70.8H76l-1.1,26.9
		c0,1.3-0.6,2.3-1.1,2.3c-0.3,0-0.6-0.4-0.8-1.4l-1.2-27.8h-1.4l-17.2,27l-13.2,20.9c-0.2,0.3-0.5,0.5-0.6,0.7c0,0,0,0-0.1,0
		c0,0,0,0,0,0c-0.2,0.1-0.4,0.2-0.5,0.2c-0.4,0-0.6-0.5-0.5-1.2c0.1-0.4,0.2-1,0.5-1.5l11.6-22.1l14.9-28.4v-4.9L51,69.8l-1.2-2.1
		l0,0l-14.3,8.3l0,0l0.3,0.6c0.3,0.7,0.2,1.5-0.4,1.8l-0.3,0.1c-0.2,0.1-0.4,0.2-0.6,0.2c-0.1,0-0.2,0-0.2,0
		c-0.4-0.1-0.7-0.3-0.9-0.7l-0.3-0.5l-3.2-5.6c-0.3-0.6-0.2-1.4,0.4-1.8l0.3-0.2c0.1-0.1,0.3-0.1,0.4-0.2c0.5,0,1.1,0.2,1.3,0.7
		l0.3,0.6L47,62.8l-1.2-2.1l4.7-2.7l14.7-8.5l1.8-1l-1.1-2.1l2-1.2v0l-2.3-3.9l-2.6,1.5c0.3,0.7,0,1.4-0.6,1.9l-0.4,0.3
		C61.6,45,61.4,45,61.1,45c-0.1,0-0.3,0-0.4-0.1c-0.4-0.1-0.7-0.3-0.9-0.7l-0.3-0.5L57.9,41c-0.4-0.7-0.2-1.7,0.5-2l0.4-0.3
		c0.2-0.1,0.5-0.2,0.8-0.2c0.4,0,0.9,0.2,1.2,0.6l7.9-4.5c0.3-0.2,0.6-0.2,0.9-0.2c0.1,0,0.2,0,0.4,0c0.5,0.1,1,0.4,1.3,0.9l0.1,0.1
		l0.1,0.2c0.1,0.1,0.1,0.3,0.2,0.4c0.3,0.8-0.1,1.8-0.9,2.2l-1.1,0.7l2.3,3.9l4.1-2.4l10.4-6l14.9-8.6c0-0.8,0.5-1.6,1.2-2l0.3-0.3
		c0.4-0.1,0.7-0.3,1.1-0.3c0.1,0,0.2,0,0.3,0c0.3,0,0.6,0.1,0.9,0.2c0.4,0.2,0.7,0.5,0.9,0.9l0,0l3.3,5.7l3.3,5.7
		C113.5,36.8,113.1,38.2,111.9,38.9z M64.8,44.6c0.1-0.2,0.1-0.3,0.2-0.5l0.2,0.3L64.8,44.6L64.8,44.6z"/>
	<path id="XMLID_27_" fill="#37486B" d="M109.6,30l-3.3-5.7l0,0c-0.2-0.4-0.5-0.7-0.9-0.9c-0.3-0.2-0.6-0.2-0.9-0.2
		c-0.1,0-0.2,0-0.3,0c-0.4,0-0.8,0.1-1.1,0.3l-0.3,0.3c-0.8,0.4-1.2,1.2-1.2,2l-14.9,8.6l-10.4,6L72,42.8l-2.3-3.9l1.1-0.7
		c0.8-0.4,1.1-1.4,0.9-2.2c0-0.1-0.1-0.3-0.2-0.4l-0.1-0.2l-0.1-0.1c-0.3-0.5-0.8-0.8-1.3-0.9c-0.1,0-0.2,0-0.4,0
		c-0.3,0-0.6,0.1-0.9,0.2L60.8,39c-0.3-0.4-0.7-0.6-1.2-0.6c-0.3,0-0.5,0.1-0.8,0.2l-0.4,0.3c-0.7,0.4-1,1.3-0.5,2l1.5,2.8l0.3,0.5
		c0.2,0.3,0.6,0.6,0.9,0.7c0.1,0,0.3,0.1,0.4,0.1c0.3,0,0.5-0.1,0.8-0.2l0.4-0.3c0.6-0.4,0.9-1.2,0.6-1.9l2.6-1.5l2.3,3.9v0l-2,1.2
		l1.1,2.1l-1.8,1l-14.7,8.5l-4.7,2.7l1.2,2.1L32.6,71l-0.3-0.6c-0.3-0.5-0.8-0.7-1.3-0.7c-0.2,0.1-0.3,0.1-0.4,0.2l-0.3,0.2
		c-0.6,0.3-0.8,1.1-0.4,1.8l3.2,5.6l0.3,0.5c0.2,0.4,0.5,0.6,0.9,0.7c0.1,0,0.2,0,0.2,0c0.2,0,0.4-0.1,0.6-0.2l0.3-0.1
		c0.6-0.4,0.8-1.1,0.4-1.8l-0.3-0.6l0,0l14.3-8.3l0,0l1.2,2.1l14.4-8.3v4.9L50.5,94.8l-11.6,22.1c-0.3,0.5-0.5,1-0.5,1.5
		c-0.1,0.7,0.1,1.2,0.5,1.2c0.1,0,0.3-0.1,0.5-0.2c0,0,0,0,0,0c0,0,0,0,0.1,0c0.2-0.2,0.4-0.4,0.6-0.7l13.2-20.9l17.2-27.1h1.4
		l1.2,27.8c0.1,1.1,0.4,1.5,0.8,1.5c0.5,0,1.1-1.1,1.1-2.4l1.1-27h1.3l30.5,48.1c0.5,0.7,1,1,1.3,1c0.7,0,0.7-1.4,0-2.7L82.4,66.2
		v-5.8c0-0.3-0.2-0.4-0.4-0.4h-4.5v-2c0-0.3-0.2-0.5-0.5-0.5l0,0h0l10.2-5.9l11.8-6.8L109,39c0.4,0.3,0.9,0.5,1.4,0.5
		c0.4,0,0.8-0.1,1.2-0.3l0.3-0.2c1.1-0.7,1.6-2.1,0.9-3.2L109.6,30z"/>
	<path id="XMLID_30_" fill="#37486B" d="M64.9,44.1c0,0.2-0.1,0.3-0.2,0.5l0,0l0.3-0.2L64.9,44.1z"/>
	<path id="XMLID_38_" fill="#37486B" d="M142,60c-5.4-34-35-60-70.5-60C31.9,0,0,31.9,0,71.3c0,36.3,27,66.3,62.1,70.8
		c3,0.4,6.2,0.6,9.3,0.6c39.4,0,71.4-31.9,71.4-71.4C142.8,67.5,142.5,63.7,142,60z M113,40.7L113,40.7l-0.2,0.1l-0.3,0.1
		c-0.7,0.4-1.4,0.6-2.2,0.6c-0.4,0-0.9-0.1-1.3-0.2l-9,5.2l-11.8,6.8L80.1,58H82c1.4,0,2.4,1.1,2.4,2.4v5.3l26.4,50.3
		c0.7,1.2,1.2,3,0.4,4.4c-0.4,0.8-1.2,1.2-2.1,1.2c-1.5,0-2.5-1.3-2.9-1.8l-0.1-0.1l0-0.1L77.8,75.1l-0.9,22.4
		c0,2.1-1.1,4.3-3.1,4.3c-0.7,0-2.4-0.3-2.7-3.3l0-0.1l0-0.1l-1-23.5L55,98.8l-13.2,20.9l0,0.1l-0.1,0.1c-0.3,0.4-0.6,0.7-0.9,1
		c0,0-0.1,0.1-0.1,0.1c0,0-0.1,0-0.1,0.1c-0.5,0.4-1.1,0.6-1.7,0.6c-0.7,0-1.4-0.3-1.8-0.8c-0.6-0.7-0.8-1.6-0.6-2.6
		c0.1-0.7,0.4-1.5,0.7-2.1l11.6-22.1l14.7-28V65L52,71.5l-1.7,1l-1-1.7l-0.2-0.4L38,76.8c0.2,1.3-0.4,2.6-1.6,3.3l-0.2,0.1L36,80.2
		l-0.1,0c-0.4,0.2-0.9,0.3-1.4,0.3c-0.2,0-0.4,0-0.6-0.1c-1-0.2-1.8-0.8-2.3-1.7l-0.2-0.4l-3.2-5.6c-0.9-1.6-0.4-3.5,1.1-4.4
		l0.1-0.1c0.3-0.2,0.6-0.3,0.8-0.4l0.3-0.2H31c0.8,0,1.6,0.2,2.1,0.7L44.3,62L44,61.7l-1-1.7l1.7-1l4.7-2.7l14.7-8.5l0.1-0.1
		l-0.2-0.4l-0.6-1.1c0,0-0.1,0.1-0.1,0.1l-0.4,0.2c-0.5,0.3-1.2,0.5-1.8,0.5c-0.3,0-0.6,0-0.9-0.1c-0.9-0.2-1.6-0.8-2.1-1.5l0,0l0,0
		l-0.3-0.5L56.2,42c-0.5-0.8-0.6-1.8-0.4-2.7c0.2-0.9,0.8-1.6,1.6-2.1l0.3-0.2c0.5-0.3,1.2-0.5,1.8-0.5c0.4,0,0.8,0.1,1.2,0.2l6.9-4
		c0.6-0.3,1.2-0.5,1.9-0.5c0.3,0,0.5,0,0.7,0.1c1.1,0.2,2.1,0.9,2.7,1.8l0,0.1l0,0.1l0.1,0.1l0.1,0.2c0.1,0.2,0.3,0.5,0.3,0.8
		c0.5,1.5,0,3.2-1.2,4.2l0.3,0.5l2.4-1.4l10.4-6l14.1-8.2c0.3-1,1-1.9,1.9-2.4l0.2-0.2l0.2-0.2l0.2-0.1c0.5-0.2,1.1-0.4,1.9-0.4
		c0.1,0,0.3,0,0.4,0c0.6,0,1.1,0.2,1.7,0.4c0.8,0.4,1.4,1,1.8,1.7l0,0l3.3,5.7l3.3,5.6C115.8,36.7,115.1,39.4,113,40.7z"/>
</g>
</svg>
