<?xml version="1.0" encoding="utf-8"?>
<!-- Generator: Adobe Illustrator 19.0.0, SVG Export Plug-In . SVG Version: 6.00 Build 0)  -->
<svg version="1.1" id="Calque_1" xmlns="http://www.w3.org/2000/svg" xmlns:xlink="http://www.w3.org/1999/xlink" x="0px" y="0px"
	 width="293.8px" height="549.8px" viewBox="150.2 146.1 293.8 549.8" enable-background="new 150.2 146.1 293.8 549.8"
	 xml:space="preserve">
<g>
	<path fill="#2E4867" d="M298.2,695.8c-33.1,0-60-26.6-60-59.4c0-33.3,26.3-59.4,60-59.4c32.7,0,59.4,26.6,59.4,59.4
		c0,15.9-6.3,30.8-17.8,42.1C328.7,689.5,313.5,695.8,298.2,695.8z M298.2,591.1c-25.8,0-46,19.9-46,45.4c0,25,20.6,45.4,46,45.4
		c24.6,0,45.4-20.8,45.4-45.4C343.6,611.4,323.3,591.1,298.2,591.1z"/>
	<path fill="#2E4867" d="M297.6,551.8c-28.6,0-51.1-22.4-51.1-51.1c0-78.1,39.4-118.5,65.6-145.3c21.3-24.2,32.1-36.4,32.1-61.3
		c0-26-20.6-47.2-46-47.2c-26,0-47.2,21.2-47.2,47.2c0,27.5-22.6,49.9-50.5,49.9c-13.3,0-26-5.2-35.6-14.8
		c-9.6-9.5-14.9-22-14.9-35.1c0-39.3,15.5-76.4,43.6-104.5c28.1-28.1,65.2-43.6,104.5-43.6c39.3,0,76.2,15.5,103.8,43.6
		c27.6,28,42.4,64.9,41.9,104c0,65.8-32.3,101.2-58.3,129.6l-0.7,0.8c-21.7,22.8-37.4,39.3-37.4,76.7
		C347.5,529.3,325.6,551.8,297.6,551.8z M298.2,233c33.1,0,60,27.4,60,61.2c0,30.2-13.4,45.4-35.7,70.7l-0.3,0.3
		c-24.6,25.1-61.7,63-61.7,135.6c0,20.8,16.3,37.1,37.1,37.1c20.1,0,35.9-16.3,35.9-37.1c0-43,19.1-63.1,41.2-86.3l0.6-0.7
		c25.6-28,54.7-59.7,54.7-120.2l0-0.1c0.5-35.3-12.9-68.6-37.8-94c-25-25.4-58.4-39.4-93.9-39.4c-73.9,0-134.1,60.1-134.1,134.1
		c0,19.4,16.7,35.9,36.5,35.9c20.1,0,36.5-16.1,36.5-35.9C237.1,260.4,264.5,233,298.2,233z"/>
</g>
</svg>
