<?xml version="1.0" encoding="utf-8"?>
<!-- Generator: Adobe Illustrator 19.0.0, SVG Export Plug-In . SVG Version: 6.00 Build 0)  -->
<svg version="1.1" id="Calque_1" xmlns="http://www.w3.org/2000/svg" xmlns:xlink="http://www.w3.org/1999/xlink" x="0px" y="0px"
	 width="472.4px" height="574.3px" viewBox="44.5 63 472.4 574.3" enable-background="new 44.5 63 472.4 574.3"
	 xml:space="preserve">
<g>
	<path fill="#2E4867" d="M497.1,63H217c-0.7,0-1.3,0-2,0.1c-0.1,0-0.3,0-0.4,0.1c-0.5,0.1-1,0.1-1.6,0.2c-0.1,0-0.2,0-0.2,0.1
		c-0.6,0.1-1.1,0.3-1.7,0.4c0,0,0,0,0,0c-3,0.9-5.8,2.6-8.1,4.9L50.2,221.6c-2.7,2.7-4.5,6.1-5.3,9.8c0,0.1,0,0.1-0.1,0.2
		c-0.1,0.5-0.2,1-0.2,1.6c0,0.1,0,0.3-0.1,0.4c-0.1,0.7-0.1,1.3-0.1,2v382c0,10.9,8.9,19.7,19.7,19.7h431.3c3,0,5.9-0.7,8.4-1.9
		c7.5-2.8,12.9-10,12.9-18.5V82.8C516.9,71.9,508,63,497.1,63z M197.3,94.4v121.5H75.8L197.3,94.4z M502.9,616.9c0,0.2,0,0.5,0,0.7
		h-1.6c0,2.1-1.1,3.9-2.7,4.9c-0.4,0.1-0.9,0.2-1.4,0.2v0.4c-0.5,0.2-1.1,0.2-1.6,0.2H64.2c-3.2,0-5.7-2.6-5.7-5.7v-382
		c0-0.4,0-0.7,0.1-1.1c0,0,0,0,0-0.1c0.1-0.3,0.2-0.6,0.3-0.9c0-0.1,0.1-0.1,0.1-0.2c0.1-0.2,0.2-0.5,0.4-0.7
		c0.1-0.1,0.2-0.3,0.3-0.4c0.1-0.1,0.2-0.3,0.3-0.4c1.1-1.2,2.6-1.9,4.3-1.9h147.1V82.8c0-1.7,0.7-3.2,1.9-4.2
		c0.2-0.1,0.3-0.3,0.5-0.4c0.1-0.1,0.2-0.1,0.3-0.2c0.3-0.2,0.5-0.3,0.8-0.4c0,0,0.1,0,0.1-0.1c0.3-0.1,0.6-0.2,1-0.3c0,0,0,0,0.1,0
		c0.4-0.1,0.7-0.1,1.1-0.1h280.1c3.2,0,5.7,2.6,5.7,5.7V616.9z"/>
	<path fill="#2E4867" d="M434.2,313H153.5c-3.3,0-6,2.7-6,6c0,3.3,2.7,6,6,6h280.7c3.3,0,6-2.7,6-6C440.2,315.7,437.6,313,434.2,313
		z"/>
	<path fill="#2E4867" d="M434.2,375.6H153.5c-3.3,0-6,2.7-6,6s2.7,6,6,6h280.7c3.3,0,6-2.7,6-6S437.6,375.6,434.2,375.6z"/>
	<path fill="#2E4867" d="M434.2,438.3H153.5c-3.3,0-6,2.7-6,6s2.7,6,6,6h280.7c3.3,0,6-2.7,6-6S437.6,438.3,434.2,438.3z"/>
</g>
</svg>
