<?xml version="1.0" encoding="utf-8"?>
<!-- Generator: Adobe Illustrator 19.0.0, SVG Export Plug-In . SVG Version: 6.00 Build 0)  -->
<svg version="1.1" id="Calque_1" xmlns="http://www.w3.org/2000/svg" xmlns:xlink="http://www.w3.org/1999/xlink" x="0px" y="0px"
	 width="142.8px" height="142.8px" viewBox="0 0 142.8 142.8" enable-background="new 0 0 142.8 142.8" xml:space="preserve">
<g id="XMLID_10_">
	<path id="XMLID_28_" fill="#FAB612" d="M71.4,57.9c-7.5,0-13.5,6.1-13.5,13.5s6.1,13.5,13.5,13.5s13.5-6.1,13.5-13.5
		S78.8,57.9,71.4,57.9z M71.4,79.8c-4.7,0-8.4-3.8-8.4-8.4s3.8-8.4,8.4-8.4c4.7,0,8.4,3.8,8.4,8.4S76,79.8,71.4,79.8z"/>
	<path id="XMLID_33_" fill="#FAB612" d="M71.4,50.4c-19.7,0-36.3,17.4-39.5,21c3.2,3.6,19.9,21,39.5,21c19.7,0,36.3-17.4,39.5-21
		C107.7,67.8,91.1,50.4,71.4,50.4z M71.4,86.9c-8.6,0-15.5-7-15.5-15.5s7-15.5,15.5-15.5c8.6,0,15.5,7,15.5,15.5
		S79.9,86.9,71.4,86.9z"/>
	<path id="XMLID_34_" fill="#FAB612" d="M71.4,64.9c-3.5,0-6.4,2.9-6.4,6.4c0,3.5,2.9,6.4,6.4,6.4c3.5,0,6.4-2.9,6.4-6.4
		C77.8,67.8,74.9,64.9,71.4,64.9z"/>
	<path id="XMLID_52_" fill="#FAB612" d="M71.3,0C31.9,0,0,31.9,0,71.4c0,39.4,31.9,71.3,71.3,71.3c5.9,0,11.6-0.7,17.1-2.1
		c25.6-6.3,45.7-26.3,52.1-51.8c1.4-5.6,2.2-11.5,2.2-17.5C142.8,31.9,110.8,0,71.3,0z M113,72c-0.8,0.9-18.9,22.3-41.6,22.3
		S30.5,72.9,29.7,72l-0.5-0.6l0.5-0.6c0.8-0.9,18.9-22.3,41.6-22.3s40.9,21.4,41.6,22.3l0.5,0.6L113,72z"/>
</g>
</svg>
