<?xml version="1.0" encoding="utf-8"?>
<!-- Generator: Adobe Illustrator 19.0.0, SVG Export Plug-In . SVG Version: 6.00 Build 0)  -->
<svg version="1.1" id="Calque_1" xmlns="http://www.w3.org/2000/svg" xmlns:xlink="http://www.w3.org/1999/xlink" x="0px" y="0px"
	 width="24.8px" height="22px" viewBox="0 0 24.8 22" enable-background="new 0 0 24.8 22" xml:space="preserve">
<path fill="none" stroke="#000000" stroke-miterlimit="10" d="M24,18.4c-0.2-0.3-0.4-0.7-0.6-1c-0.3-0.3-0.6-0.5-1.1-0.7
	c-0.2-0.1-0.5-0.2-0.8-0.3c-0.3-0.1-0.7-0.3-1.1-0.5c-0.4-0.2-0.8-0.4-1.3-0.5c-0.5-0.2-0.9-0.4-1.4-0.6c-0.4-0.2-0.9-0.4-1.3-0.6
	c-0.4-0.2-0.8-0.4-1.1-0.5V12c0-0.1,0-0.2,0.1-0.4c0.1-0.2,0.1-0.4,0.2-0.6c0.1-0.2,0.1-0.5,0.2-0.7c0.3-0.6,0.5-1.2,0.7-1.9
	c0.2-0.7,0.3-1.4,0.3-2.2c0-1-0.1-1.9-0.3-2.7c-0.2-0.7-0.5-1.3-0.9-1.8c-0.4-0.4-0.8-0.8-1.3-1c-0.5-0.2-1.1-0.3-1.6-0.3
	c-0.6,0-1.1,0.1-1.6,0.3c-0.5,0.2-1,0.5-1.3,1c-0.4,0.5-0.7,1-0.9,1.8C8.4,4.3,8.3,5.2,8.3,6.2c0,0.8,0.1,1.5,0.3,2.2
	S9,9.8,9.3,10.3c0.1,0.2,0.2,0.5,0.2,0.7c0.1,0.2,0.1,0.3,0.1,0.5c0,0.2,0.1,0.3,0.1,0.4v1.8c-0.3,0.1-0.7,0.3-1.1,0.5
	c-0.4,0.2-0.9,0.4-1.3,0.6c-0.5,0.2-0.9,0.4-1.4,0.6c-0.5,0.2-0.9,0.4-1.4,0.6c-0.4,0.2-0.8,0.3-1.2,0.5c-0.4,0.1-0.6,0.2-0.8,0.3
	c-0.4,0.2-0.8,0.4-1,0.7c-0.3,0.3-0.5,0.6-0.6,1c-0.2,0.4-0.3,0.8-0.4,1.2v2h24v-2C24.3,19.2,24.2,18.8,24,18.4z"/>
</svg>
