<?xml version="1.0" encoding="utf-8"?>
<!-- Generator: Adobe Illustrator 19.0.0, SVG Export Plug-In . SVG Version: 6.00 Build 0)  -->
<svg version="1.1" id="Mode_Isolation" xmlns="http://www.w3.org/2000/svg" xmlns:xlink="http://www.w3.org/1999/xlink" x="0px"
	 y="0px" width="530.1px" height="386.6px" viewBox="32 152.9 530.1 386.6" enable-background="new 32 152.9 530.1 386.6"
	 xml:space="preserve">
<g>
	<path fill="#2E4867" d="M521.8,364.8L521.8,364.8c-3.2-1.4-57.7-26.1-73.6-33.3l0-19.5c0-0.1,0.1-0.9,0.7-3.5
		c0.5-2.1,1.2-4.4,2-7.2c0.8-2.7,1.8-5.8,2.8-9.1c3.8-7.7,6.9-16.4,9-25.9c2.2-9.8,3.3-20.2,3.3-30.8c0-15-1.4-27.2-4.4-37.3
		c-2.9-10.3-7.1-19-12.7-25.9c-5.6-6.8-12.1-11.9-19.5-15c-7.3-3-14.9-4.5-23.1-4.5c-8.4,0-16.3,1.6-23.4,4.6
		c-7.4,3.2-13.9,8.3-19.4,15.2c-5.3,6.7-9.5,15.3-12.5,25.8c-2.9,10.2-4.4,22.6-4.4,37c0,11,1.1,21.6,3.4,31.5
		c2.2,9.4,5.3,18.2,9.2,26.1c1,3.1,1.8,5.7,2.4,8.1c0.4,1.2,0.7,2.5,1,3.7c0.3,1.1,0.5,2.1,0.9,3.3c0.4,1.3,0.6,2.3,0.8,3.3
		c0.1,0.2,0.1,0.5,0.2,0.7v18.7c-3.8,2.6-10.5,7.5-22.2,16.1c-8.3,6.1-18.6,13.6-20.6,14.9l-9.5,4.3l7.8,7.2
		c13.8,12.7,29,19.8,46.6,28c20,9.4,45,21,77.3,45.4l1.9,1.4h116.2v-34.4C562.1,383.4,525.9,366.7,521.8,364.8z M548.1,433.9h-97.5
		c-32.6-24.3-57.7-36-77.9-45.5c-14.1-6.6-25.7-12-36.2-19.9c3.3-2.4,7.8-5.7,14.3-10.4c9.2-6.7,21.8-16,24-17.3l3.9-1.9v-28.7
		l-0.2-0.9c-0.1-0.3-0.2-0.8-0.3-1.2c-0.2-1-0.5-2.3-1-3.8c-0.3-1-0.5-2-0.8-3c-0.3-1.3-0.7-2.6-1-3.9c-0.7-2.7-1.6-5.5-2.8-9.1
		l-0.2-0.5l-0.2-0.5c-3.5-7-6.4-15-8.4-23.5c-2-8.9-3.1-18.4-3.1-28.3c0-13.1,1.3-24.2,3.8-33.2c2.5-8.7,5.9-15.7,10-20.9
		c4-5.1,8.7-8.8,14-11.1c5.5-2.4,11.4-3.5,17.9-3.5c6.3,0,12.1,1.1,17.7,3.4c5.3,2.2,9.9,5.8,14,10.9c4.3,5.3,7.7,12.4,10.1,20.8
		l0,0.1c2.6,8.7,3.8,19.9,3.8,33.4c0,9.6-1,18.9-3,27.7c-2,8.6-4.7,16.5-8.2,23.3l-0.3,0.6l-0.2,0.6c-1,3.4-2,6.7-2.9,9.6
		c-0.9,3-1.6,5.5-2.2,7.7c-0.8,3.3-1.2,5.3-1.2,7v28.4l4,1.9c3.3,1.5,73.1,33.2,77.9,35.3c1.4,0.6,31.9,14.3,31.9,35.9V433.9z"/>
	<path fill="#2E4867" d="M462.7,473.5c-3-6.4-7-12.5-12.2-18.6c-5.5-6.5-12.7-11.3-21.6-14.5c-3.6-1.2-8.3-3-13.8-5.3l-19.6-8
		l-2.8-1.2c-6.5-2.7-13.2-5.5-20.2-8.5l-7.3-3.1c-5.6-2.4-11.2-4.8-16.7-7.2l-10.1-4.4c-4.4-1.9-8.7-3.8-12.9-5.7
		c-5.7-2.5-11-4.8-15.7-6.9v-27.4c0-0.1,0-1.3,1.1-5.1c0.8-2.8,1.8-6,3-9.8c1.1-3.5,2.3-7.2,3.6-11.1l0.3-1
		c5.4-10.2,9.7-21.8,12.7-34.3c3.1-12.8,4.7-26.4,4.7-40.6c0-19.2-2.1-35.8-6.2-49.1c-4.2-13.7-10.1-25.1-17.5-33.7
		c-7.5-8.7-16.4-15.2-26.5-19.1c-9.7-3.9-20.3-5.8-31.4-5.8c-11.3,0-22,2-31.7,6c-10,4-18.9,10.6-26.4,19.5
		c-7.3,8.7-13.1,20-17.3,33.6c-4.1,13.4-6.2,29.8-6.2,48.7c0,14.5,1.6,28.4,4.9,41.4c3.1,12.7,7.5,24.3,12.9,34.5
		c1.5,4.3,2.6,7.8,3.5,10.9c0.9,3.1,1.8,6.1,2.6,9c0.7,2.6,1.2,4.5,1.5,5.7v25.7c-4.2,1.9-9.2,4.1-15.5,6.9c-4.4,1.9-9,3.9-13.7,6
		c-3.3,1.4-6.6,2.9-10,4.3c-5.2,2.3-10.4,4.5-15.7,6.8c-3.2,1.4-6.4,2.7-9.5,4.1c-8.8,3.8-16.7,7.1-24.1,10.2
		c-8,3.3-14.7,6-20.7,8.4c-5.8,2.3-10.7,4.2-14.6,5.4l-0.2,0.1c-8.6,3.2-15.7,8-21.2,14.5C47,461.1,43,467.1,40,473.5
		c-3.5,7.1-6.1,14.8-7.9,22.8L32,497v42.4h438.4v-42.3l-0.1-0.7C468.8,488.5,466.2,480.7,462.7,473.5z M456.4,525.4H46v-26.9
		c1.5-6.7,3.8-13.1,6.7-19l0.1-0.1c2.4-5.2,5.7-10.2,10.2-15.5c3.9-4.6,8.9-8,15.3-10.4c4.1-1.4,9.3-3.3,15.3-5.7
		c6-2.4,12.8-5.2,20.8-8.5c7.5-3.1,15.4-6.5,24.3-10.3c3.2-1.4,6.4-2.7,9.5-4.1c5.3-2.3,10.5-4.5,15.7-6.8c3.4-1.5,6.7-2.9,10-4.3
		c4.8-2.1,9.4-4.1,13.8-6c8.5-3.8,14.6-6.5,19.7-8.8l4.1-1.9v-36.5l-0.2-0.8c-0.3-1.4-0.9-3.4-1.8-6.9c-0.8-2.8-1.7-6.1-2.6-9.3
		c-1-3.4-2.3-7.2-3.9-12l-0.2-0.5l-0.3-0.5c-5-9.3-9-20-11.9-31.8c-3-11.9-4.4-24.7-4.4-38c0-17.6,1.9-32.6,5.6-44.6
		c3.6-11.8,8.6-21.4,14.7-28.7c6-7.1,13-12.3,20.9-15.5c8.1-3.3,16.9-4.9,26.4-4.9c9.3,0,18.1,1.6,26.2,4.8c7.9,3.1,15,8.3,21,15.2
		c6.1,7.1,11.1,16.8,14.7,28.6c3.7,12,5.6,27.2,5.6,45c0,13-1.4,25.5-4.3,37.2c-2.8,11.6-6.8,22.2-11.8,31.6l-0.3,0.6l-0.7,2.2
		c-1.3,3.9-2.5,7.7-3.6,11.2c-1.2,3.9-2.2,7.2-3.1,10.1c-1.1,3.9-1.6,6.7-1.6,8.9v36.5l4.2,1.8c5.8,2.5,12.5,5.5,19.9,8.7
		c4.2,1.9,8.5,3.7,12.9,5.7l10.1,4.4c5.6,2.4,11.2,4.8,16.8,7.3l7.3,3.1c7.1,3,13.8,5.8,20.3,8.5l22.5,9.2
		c5.8,2.4,10.7,4.2,14.5,5.5c6.6,2.4,11.7,5.8,15.6,10.4c4.4,5.1,7.7,10.2,10.2,15.5l0,0.1c2.9,6,5,12.3,6.4,18.9V525.4z"/>
</g>
</svg>
