<?xml version="1.0" encoding="utf-8"?>
<!-- Generator: Adobe Illustrator 19.0.0, SVG Export Plug-In . SVG Version: 6.00 Build 0)  -->
<svg version="1.1" id="Calque_1" xmlns="http://www.w3.org/2000/svg" xmlns:xlink="http://www.w3.org/1999/xlink" x="0px" y="0px"
	 width="60.9px" height="116.4px" viewBox="0 0 60.9 116.4" enable-background="new 0 0 60.9 116.4" xml:space="preserve">
<g>
	<g>
		<path fill="#010202" d="M9.6,116.4V29.8l51.3-17.4v86.2L9.6,116.4z M13.6,32.7v78l43.3-15V18L13.6,32.7z"/>
	</g>
</g>
<g>
	<polygon fill="#010202" points="9.6,116.3 0.5,112 0.8,26 12.2,29.4 11,33.2 4.8,31.4 4.5,109.5 11.3,112.6 	"/>
</g>
<g>
	<polygon fill="#010202" points="3.9,28.9 1,26.1 25.8,0 25.8,13.5 21.8,13.5 21.8,10 	"/>
</g>
<g>
	<polygon fill="#010202" points="3.6,29.2 1.4,25.9 34.5,4.7 34.5,15.9 30.5,15.9 30.5,12 	"/>
</g>
<g>
	<polygon fill="#010202" points="5.7,31.2 3.6,27.8 39.8,5.4 39.8,16.6 35.8,16.6 35.8,12.6 	"/>
</g>
<g>
	<polygon fill="#010202" points="10,31.4 8,27.9 45.5,6.4 45.5,14.4 41.5,14.4 41.5,13.3 	"/>
</g>
<g>
	<polygon fill="#010202" points="12.1,33 10.2,29.4 51.8,7.4 51.8,18.7 47.8,18.7 47.8,14 	"/>
</g>
</svg>
