<?xml version="1.0" encoding="utf-8"?>
<!-- Generator: Adobe Illustrator 19.0.0, SVG Export Plug-In . SVG Version: 6.00 Build 0)  -->
<svg version="1.1" id="Calque_1" xmlns="http://www.w3.org/2000/svg" xmlns:xlink="http://www.w3.org/1999/xlink" x="0px" y="0px"
	 width="162.5px" height="141.8px" viewBox="0 0 162.5 141.8" enable-background="new 0 0 162.5 141.8" xml:space="preserve">
<g>
	<g>
		<path fill="#010202" d="M71.4,117l-50.6,24.8l24.8-50.6l13.6,0l0,12l12.1,0V117z M29.5,133l37.8-18.6l0-7.3l-12.1,0l0-12h-7.2
			L29.5,133z"/>
	</g>
	<g>
		<polygon fill="#010202" points="41.6,129.1 25.2,137.4 33.3,120.8 		"/>
	</g>
	<g>
		<path fill="#010202" d="M159,29.3l-87.5,87.5l-2.8-2.8l87.5-87.5c3.3-3.3,3-9-0.7-12.8L148.8,7C145,3.3,139.3,3,136,6.3L48.5,93.7
			l-2.8-2.8l87.5-87.5c4.9-4.9,13.1-4.5,18.4,0.7l6.7,6.7C163.6,16.2,163.9,24.4,159,29.3z"/>
	</g>
	<g>
		
			<rect x="51.8" y="56.8" transform="matrix(0.7071 -0.7071 0.7071 0.7071 -11.2127 90.5396)" fill="#010202" width="103.7" height="4"/>
	</g>
	<g>
		<path fill="#010202" d="M145.9,42.4l-2.8-2.8c3.3-3.3,3-9-0.7-12.8l-6.7-6.7c-3.7-3.7-9.4-4.1-12.8-0.7l-2.8-2.8
			c4.9-4.9,13.1-4.5,18.4,0.7l6.7,6.7C150.5,29.3,150.8,37.5,145.9,42.4z"/>
	</g>
</g>
<g>
	<path fill="#010202" d="M0,10.5C0,8.3,2.1,6.1,6.4,4c4.3-2.1,9.2-3.2,14.7-3.2c8.7,0,15.3,2.4,19.8,7.3c4.6,4.9,6.9,11.1,6.9,18.7
		c0,4.3-0.8,8.4-2.5,12.3C43.7,43,42,46,40.1,48c-1.8,2-4.1,4.4-6.9,7.1c-2.8,2.7-4.6,4.5-5.3,5.5c-1.9,2.2-3.1,4.9-3.6,8
		c-0.5,3.1-0.7,8-0.7,14.7c0,1.9-1.1,2.9-3.2,2.9c-2,0-3-1.1-3-3.3c0-7.8,0.4-13.5,1.3-17.1c0.9-3.6,2.3-6.5,4.2-8.6
		c0.8-0.9,2.5-2.6,5.3-5.2c2.7-2.6,4.9-4.8,6.4-6.5c1.5-1.7,3-4.3,4.5-7.6c1.4-3.3,2.2-6.9,2.2-10.6c0-6.4-1.8-11.3-5.3-14.8
		c-3.5-3.5-8.6-5.3-15.4-5.3c-3.7,0-6.7,0.5-9.2,1.6C8.9,9.8,7,10.9,5.8,12c-1.3,1.1-2.2,1.7-2.9,1.7c-0.7,0-1.3-0.3-1.9-0.9
		C0.3,12.1,0,11.4,0,10.5z M16.6,107.6c-0.9-1.2-1.3-2.5-1.3-4.2c0-1.6,0.5-3,1.4-4.2c0.9-1.2,2.1-1.7,3.7-1.7c1.5,0,2.9,0.6,4,1.7
		c1.2,1.2,1.7,2.6,1.7,4.2c0,1.6-0.6,3-1.7,4.2c-1.1,1.2-2.5,1.7-4.1,1.7C18.7,109.4,17.5,108.8,16.6,107.6z"/>
</g>
</svg>
