<?xml version="1.0" encoding="utf-8"?>
<!-- Generator: Adobe Illustrator 19.0.0, SVG Export Plug-In . SVG Version: 6.00 Build 0)  -->
<svg version="1.1" id="Calque_1" xmlns="http://www.w3.org/2000/svg" xmlns:xlink="http://www.w3.org/1999/xlink" x="0px" y="0px"
	 width="57.5px" height="57.3px" viewBox="0 0 57.5 57.3" style="enable-background:new 0 0 57.5 57.3;" xml:space="preserve">
<style type="text/css">
	.st0{fill:#010202;}
</style>
<g>
	<path class="st0" d="M57,0.4C56.8,0.1,56.5,0,56.2,0c-0.5,0-1.3,0.4-2.7,1.2C51.4,2.5,42.4,8,42.1,8.3c0,0-0.2,1.8,2.5,4.5
		c2.3,2.3,4,2.5,4.4,2.5c0.1,0,0.1,0,0.1,0S55,6.3,56.5,4.1S57.6,1,57,0.4z M55.3,3.3C54,5,49.9,11.4,48.4,13.7
		c-0.6-0.2-1.5-0.7-2.7-1.9C44.5,10.5,44,9.6,43.8,9c1.8-1.2,6.6-4.1,8.8-5.5l1.7-1.1c1-0.6,1.4-0.8,1.7-0.9
		C56.1,2,55.6,2.9,55.3,3.3z"/>
	<path class="st0" d="M41.4,9L15.2,34.9l0.9,0.9c-2.2,0.8-4.5,1.7-4.6,1.8c0,0,0.4,1.6,3.6,4.8c3.2,3.2,4.8,3.6,4.8,3.6
		s0.9-2.3,1.8-4.5l0.5,0.5l26.2-25.9c0,0-1.6,0-4.3-2.7C41.4,10.6,41.4,9,41.4,9z M19.1,43.9c-0.7-0.5-1.7-1.3-3-2.6
		c-1.3-1.3-2.1-2.3-2.6-3c0.7-0.3,1.8-0.7,3.5-1.3c0.2,0.1,0.4,0.2,0.6,0.3l2.9,2.9C20.1,41.5,19.6,42.9,19.1,43.9z M22.3,39.8
		l-0.5-0.5c-0.6-1-2-2.3-3.1-3.1l-1.3-1.3l23.5-23.2c0.5,0.8,1.2,1.7,2.2,2.7c1,1,1.9,1.7,2.7,2.2L22.3,39.8z"/>
	<path class="st0" d="M14.4,24.7C4.5,28.6,0,32.3,0,32.3l9.1,6.6l18.7-18.7C27.7,20.3,22.3,21.6,14.4,24.7z M8.9,37l-6.3-4.6
		C4.6,31,8.7,28.6,15,26.1c2.9-1.1,5.4-2,7.5-2.7L8.9,37z"/>
	<path class="st0" d="M24.9,57.3c0,0,3.7-4.5,7.6-14.4C35.6,35,37,29.6,37,29.6L18.3,48.2L24.9,57.3z M31.1,42.3
		c-2.5,6.3-4.9,10.4-6.2,12.4l-4.6-6.3l13.6-13.6C33.2,36.9,32.3,39.4,31.1,42.3z"/>
</g>
</svg>
