<?xml version="1.0" encoding="utf-8"?>
<!-- Generator: Adobe Illustrator 19.0.0, SVG Export Plug-In . SVG Version: 6.00 Build 0)  -->
<svg version="1.1" id="Calque_1" xmlns="http://www.w3.org/2000/svg" xmlns:xlink="http://www.w3.org/1999/xlink" x="0px" y="0px"
	 width="59.7px" height="45px" viewBox="0 0 59.7 45" style="enable-background:new 0 0 59.7 45;" xml:space="preserve">
<style type="text/css">
	.st0{fill:#010202;}
</style>
<g>
	<path class="st0" d="M58.5,18.6l0.1-0.1c0.1-0.1,1-1,1-2.6c0-1.9-2.3-2.8-2.6-2.9l-0.2-0.1h-2.1c-0.2-1-0.6-2.9-1.4-4.6
		c-1.2-2.6-3.7-5.9-3.8-6L49.4,2l-0.3-0.1C48.8,1.8,42.2,0,29.8,0C17.3,0,11,1.9,10.8,2l-0.2,0.1l-0.2,0.1c-0.1,0.1-2.6,2.2-3.9,5.7
		c-0.9,2.3-1.3,4-1.5,5l-1.9,0c-1,0.1-3,0.8-3,3c0,1.5,0.5,2.4,0.9,2.9c-0.4,1-1,3.1-1.1,6.1C-0.1,29,0.7,32.3,0.9,33
		c0,3.1,0.1,7.7,0,8.4c-0.1,0.9,0.2,1.9,0.8,2.6c0.5,0.6,1.2,0.9,1.9,0.9h6c1.7,0,2.3-1.7,2.4-2.9V38l35.5,0.1v4.7l0.1,0.2
		c0.2,0.3,1,1.9,2.4,1.9c0.2,0,0.6,0,1.2,0c1.7,0.1,2.9,0.1,3.8,0.1c1.3,0,1.9-0.1,2.2-0.2c1.2-0.5,1.4-2.3,1.5-3.1l0.2-8.7
		c0.1-0.6,0.7-3.1,0.7-7c0-2.6-0.9-5.9-1.3-7.4L58.5,18.6z M56.2,18.4c0,0,1.5,4.4,1.5,7.6c0,4.2-0.7,6.6-0.7,6.6l-0.2,9
		c0,0.5-0.2,1-0.3,1.3c-0.8,0.1-3.9,0-5.1,0c-0.5,0-0.9,0-1.2,0c0,0,0,0-0.1,0c-0.1,0-0.4-0.3-0.5-0.6v-6.1L10.1,36l0,5.9
		c0,0.4-0.3,1-0.4,1h-6c-0.1,0-0.3,0-0.4-0.2c-0.2-0.2-0.4-0.7-0.3-1c0.1-1,0-8,0-8.8l0-0.3c0,0-1-3.3-0.9-7.6c0.1-3.9,1.2-6,1.2-6
		l0.6-1l-1-0.4c0,0-0.6-0.3-0.6-1.7c0-0.8,1-0.9,1.1-1l3.5,0L6.9,14c0,0,0.3-2.1,1.5-5.4c1-2.6,2.7-4.3,3.2-4.8
		c0.3-0.1,0.8-0.2,1.6-0.4l-0.1,0.1C13,3.6,10.8,5.3,10,8.7c-0.4,1.8-0.4,4.8-0.4,4.9l0,1h40.2l0.1-0.9c0-0.1,0.4-2.8-0.6-5.4
		c-1-2.5-2.9-4.6-3-4.7L46,3.4l-0.3-0.1c-0.3,0-6.6-1.1-16.4-1.1c-7,0-13.6,0.8-15.3,1.1C16.8,2.8,22.1,2,29.8,2
		c10.6,0,17,1.4,18.5,1.7c0.6,0.8,2.4,3.3,3.3,5.3c1,2.4,1.4,4.9,1.4,5l0.1,0.9h3.5c0.5,0.2,1.1,0.6,1.1,0.9c0,0.6-0.2,0.9-0.3,1.1
		l-1.5,0.7L56.2,18.4z M14.1,5.3c1.4-0.2,8.2-1.1,15.2-1.1c8.3,0,14.3,0.8,15.7,1c0.5,0.6,1.7,2.1,2.4,3.8c0.5,1.3,0.6,2.6,0.6,3.5
		H11.6c0-1,0.1-2.4,0.4-3.4C12.5,7,13.7,5.7,14.1,5.3z"/>
	<path class="st0" d="M48.8,29.2c-3.8-0.1-6-0.5-6.4-0.5l-1.7-0.6H18.9l-1.7,0.6c-0.4,0.1-2.6,0.4-6.4,0.5c-4.1,0.1-7.2-0.5-7.2-0.5
		l-0.4,2c0.1,0,3.4,0.7,7.7,0.6c4.3-0.1,6.7-0.6,6.8-0.6l1.6-0.5h21.1l1.4,0.5l0.1,0c0.1,0,2.5,0.5,6.8,0.6c0.3,0,0.6,0,0.9,0
		c3.9,0,6.7-0.6,6.8-0.6l-0.4-2C56,28.7,52.9,29.3,48.8,29.2z"/>
	<path class="st0" d="M7.9,28.5h5.4c2.1,0,3.8-1.7,3.8-3.8V24c0-2.1-1.7-3.8-3.8-3.8H7.9C5.7,20.2,4,21.9,4,24v0.7
		C4,26.8,5.7,28.5,7.9,28.5z M6,24c0-1,0.8-1.8,1.8-1.8h5.4c1,0,1.8,0.8,1.8,1.8v0.7c0,1-0.8,1.8-1.8,1.8H7.9c-1,0-1.8-0.8-1.8-1.8
		V24z"/>
	<path class="st0" d="M46.2,28.5h5.4c2.1,0,3.8-1.7,3.8-3.8V24c0-2.1-1.7-3.8-3.8-3.8h-5.4c-2.1,0-3.8,1.7-3.8,3.8v0.7
		C42.3,26.8,44.1,28.5,46.2,28.5z M44.3,24c0-1,0.8-1.8,1.8-1.8h5.4c1,0,1.8,0.8,1.8,1.8v0.7c0,1-0.8,1.8-1.8,1.8h-5.4
		c-1,0-1.8-0.8-1.8-1.8V24z"/>
</g>
</svg>
