<?xml version="1.0" encoding="utf-8"?>
<!-- Generator: Adobe Illustrator 19.0.0, SVG Export Plug-In . SVG Version: 6.00 Build 0)  -->
<svg version="1.1" id="Capa_1" xmlns="http://www.w3.org/2000/svg" xmlns:xlink="http://www.w3.org/1999/xlink" x="0px" y="0px"
	 width="452.6px" height="498.4px" viewBox="181.9 -159.4 452.6 498.4" style="enable-background:new 181.9 -159.4 452.6 498.4;"
	 xml:space="preserve">
<g>
	<g>
		<g>
			<path d="M548.3-159.4H233.1v68.3h-51.2V89.9h51.2V339h401.4V-78.8L548.3-159.4z M452.8-8.3V6.5h-36.7V44h-17.7v-88h60.4v14.9
				h-42.6v20.8L452.8-8.3L452.8-8.3z M383.3,0.9c0,7.2-0.9,13.5-2.7,18.7c-2.2,6.4-5.4,11.6-9.4,15.5c-3.1,3.1-7.2,5.4-12.4,7
				c-4,1.2-9.2,1.9-15.7,1.9h-33.4v-88H342c7.3,0,12.9,0.5,16.8,1.7c5.1,1.6,9.5,4.2,13.2,8.1c3.7,3.9,6.5,8.6,8.4,14.3
				C382.3-14.3,383.3-7.4,383.3,0.9z M245.4,10.8v33.2h-17.7v0v-88h28.5c10.8,0,17.8,0.5,21.1,1.3c5,1.3,9.3,4.2,12.6,8.5
				c3.5,4.5,5.1,10.2,5.1,17.1c0,5.4-1,9.9-2.9,13.6c-1.9,3.8-4.4,6.6-7.5,8.7c-3,2-6,3.5-9.1,4.1c-4.3,0.8-10.4,1.3-18.4,1.3
				L245.4,10.8L245.4,10.8z M605.4,309.8c-25.8,0-317.3,0-343.1,0c0-13.2,0-116.5,0-219.8h244.6V-91.2H262.3c0-20.5,0-34.8,0-39.1
				c25.8,0,264,0,274.5,0c7,6.6,60.9,57,68.6,64.2C605.4-54.3,605.4,283.2,605.4,309.8z"/>
			<path d="M358.1-24.1c-2.2-2.1-4.9-3.4-8.2-4.1c-2.5-0.6-7.3-0.9-14.5-0.9h-8v58.2h13.2c4.9,0,8.5-0.3,10.7-0.8
				c2.9-0.7,5.3-2,7.2-3.7c1.9-1.7,3.5-4.5,4.7-8.5c1.2-4,1.8-9.4,1.8-16.1c0-6.7-0.6-12-1.8-15.6C361.9-19.2,360.2-22,358.1-24.1z"
				/>
			<path d="M273.7-24.6c-1.9-2.1-4.2-3.3-7.1-3.9c-2-0.4-6.4-0.6-12.7-0.6h-8.5v25h9.6c7,0,11.6-0.4,14-1.4c2.4-0.9,4.2-2.3,5.6-4.3
				c1.3-2,2-4.2,2-6.9C276.5-19.8,275.7-22.4,273.7-24.6z"/>
		</g>
	</g>
</g>
</svg>
