<?xml version="1.0" encoding="utf-8"?>
<!-- Generator: Adobe Illustrator 19.0.0, SVG Export Plug-In . SVG Version: 6.00 Build 0)  -->
<svg version="1.1" id="Calque_1" xmlns="http://www.w3.org/2000/svg" xmlns:xlink="http://www.w3.org/1999/xlink" x="0px" y="0px"
	 width="162.5px" height="141.8px" viewBox="0 0 162.5 141.8" enable-background="new 0 0 162.5 141.8" xml:space="preserve">
<g>
	<path fill="#010202" d="M158.3,10.9l-6.7-6.7c-5.3-5.3-13.5-5.6-18.4-0.7l-13.1,13.1c0,0,0,0,0,0l0,0L45.7,90.9l0.3,0.3h-0.4
		l-24.8,50.6L71.4,117v-0.4l0.2,0.2L159,29.3C163.9,24.4,163.6,16.2,158.3,10.9z M40.3,127.8l-5.5-5.5l13.3-27.1h7.2l0,12l12.1,0
		l0,7.3L40.3,127.8z M71.4,111.3v-8.2l-12.1,0l0-12l-8.2,0l71.8-71.8c3.3-3.3,9-3,12.8,0.7l1.9,1.9l-72,72l2.8,2.8l72-72l1.9,1.9
		c3.7,3.7,4.1,9.4,0.7,12.8l0,0L71.4,111.3z M156.2,26.5l-6.8,6.8c-0.1-3.3-1.5-6.7-4.2-9.3l-6.7-6.7c-2.6-2.6-6-4-9.3-4.2l6.8-6.8
		c3.3-3.3,9-3,12.8,0.7l6.7,6.7C159.2,17.5,159.5,23.2,156.2,26.5z"/>
	<path fill="#010202" d="M35.9,12.4c3.5,3.5,5.3,8.4,5.3,14.8c0,3.8-0.7,7.3-2.2,10.6c-1.4,3.3-2.9,5.8-4.5,7.6
		c-1.5,1.7-3.7,3.9-6.4,6.5c-2.7,2.6-4.5,4.3-5.3,5.2c-1.9,2.1-3.3,5-4.2,8.6c-0.9,3.6-1.3,9.3-1.3,17.1c0,2.2,1,3.3,3,3.3
		c2.1,0,3.2-1,3.2-2.9c0-6.6,0.2-11.5,0.7-14.7c0.5-3.1,1.7-5.8,3.6-8c0.8-1,2.5-2.8,5.3-5.5c2.8-2.7,5.1-5.1,6.9-7.1
		c1.8-2,3.6-5,5.2-8.9c1.6-3.9,2.5-8,2.5-12.3c0-7.6-2.3-13.8-6.9-18.7c-4.6-4.9-11.2-7.3-19.8-7.3C15.6,0.8,10.7,1.9,6.4,4
		C2.1,6.1,0,8.3,0,10.5c0,0.9,0.3,1.6,0.9,2.2c0.6,0.6,1.3,0.9,1.9,0.9c0.7,0,1.6-0.6,2.9-1.7c1.2-1.1,3.1-2.2,5.6-3.2
		c2.5-1.1,5.5-1.6,9.2-1.6C27.2,7.2,32.4,8.9,35.9,12.4z"/>
	<path fill="#010202" d="M26.1,103.5c0-1.6-0.6-3-1.7-4.2c-1.2-1.2-2.5-1.7-4-1.7c-1.5,0-2.8,0.6-3.7,1.7c-0.9,1.2-1.4,2.6-1.4,4.2
		c0,1.6,0.4,3,1.3,4.2c0.9,1.2,2.1,1.7,3.8,1.7c1.6,0,3-0.6,4.1-1.7C25.6,106.5,26.1,105.1,26.1,103.5z"/>
</g>
</svg>
