<?xml version="1.0" encoding="utf-8"?>
<!-- Generator: Adobe Illustrator 19.0.0, SVG Export Plug-In . SVG Version: 6.00 Build 0)  -->
<svg version="1.1" id="Calque_1" xmlns="http://www.w3.org/2000/svg" xmlns:xlink="http://www.w3.org/1999/xlink" x="0px" y="0px"
	 width="245.4px" height="291.5px" viewBox="174.9 200.8 245.4 291.5" enable-background="new 174.9 200.8 245.4 291.5"
	 xml:space="preserve">
<path fill="#E6E6E6" d="M411.4,238.9H355v-29.2c0-4.9-4-8.9-8.9-8.9h-96.9c-4.9,0-8.9,4-8.9,8.9v29.2h-56.4c-4.9,0-8.9,4-8.9,8.9
	V286c0,4.9,4,8.9,8.9,8.9h7.9v188.4c0,4.9,4,8.9,8.9,8.9h193.9c4.9,0,8.9-4,8.9-8.9V294.9h7.9c4.9,0,8.9-4,8.9-8.9v-38.2
	C420.3,242.9,416.3,238.9,411.4,238.9z M258.1,218.6h79.1v20.3h-79.1V218.6z M192.8,256.8h209.7v20.3H192.8V256.8z M385.6,474.4
	h-176V294.9h30.6v120c0,4.9,4,8.9,8.9,8.9s8.9-4,8.9-8.9v-120h30.6v120c0,4.9,4,8.9,8.9,8.9c4.9,0,8.9-4,8.9-8.9v-120h30.6v120
	c0,4.9,4,8.9,8.9,8.9c4.9,0,8.9-4,8.9-8.9v-120h30.6L385.6,474.4L385.6,474.4z"/>
</svg>
