<?xml version="1.0" encoding="utf-8"?>
<!-- Generator: Adobe Illustrator 19.0.0, SVG Export Plug-In . SVG Version: 6.00 Build 0)  -->
<svg version="1.1" id="Calque_1" xmlns="http://www.w3.org/2000/svg" xmlns:xlink="http://www.w3.org/1999/xlink" x="0px" y="0px"
	 width="110px" height="110.5px" viewBox="0 0 110 110.5" enable-background="new 0 0 110 110.5" xml:space="preserve">
<g>
	<path fill="#010202" d="M68.1,77.5c-1.7,1.7-4.5,0.2-13-6.7c-6.3-5.2-12.5-11.3-17.3-17.3c-4.6-5.7-5.7-8.5-4-10.2l1.8-1.8
		l-29-28.9l-1.7,2.2C-1.5,22.8-4.8,46.6,28,80.3c24.1,24.7,42.4,29.9,53.6,29.9c0,0,0.1,0,0.1,0c7.5,0,12.5-2.5,14.5-4.5l1.7-1.8
		l-28.1-28L68.1,77.5z M81.7,105.1C81.7,105.1,81.7,105.1,81.7,105.1c-8.5,0-26-3.7-50.1-28.3C3.7,48.2,3.9,28.4,7.3,20.5l21.4,21.4
		C26,47,31,53.2,33.8,56.7c5,6.2,11.5,12.6,18.1,18c6.8,5.5,12.7,10.3,17.7,7.9l20.9,20.9C88.7,104.3,85.8,105.1,81.7,105.1z"/>
	<path fill="#010202" d="M108,86.4v-0.2l-0.7-0.7C92,70.4,88.8,67.1,88.1,66.4l0,0c-2.5-2.5-6.5-2.5-9,0l-8.7,8.7l28.2,28.1l5.2-5.2
		c1.5-1.5,2.5-2.5,3.1-3.2l0.4-0.3C109.5,92.3,109.7,88.9,108,86.4z M103.8,90.9l-1,0.7l0,0.3c-1.1,1.1-2.9,2.9-4.3,4.3L77.4,75.1
		l5.2-5.2c0.6-0.5,1.4-0.6,1.9,0l0.1,0.1c1.4,1.4,15,14.9,18.3,18.3l0.7,0.7C104.1,89.5,104.3,90.3,103.8,90.9z"/>
	<path fill="#010202" d="M41,35.2c1.8-1.8,2.9-2.9,3.5-3.5l0,0c2.2-2.2,2.4-5.6,0.7-8.1v-0.2l-0.7-0.7c0,0-17.9-17.8-19.6-19.5
		L24.7,3c-2.5-2.5-6.5-2.5-9,0L7,11.7l28.7,28.7L41,35.2z M19.3,6.5c0.5-0.5,1.4-0.6,1.9,0l0,0c0.8,0.8,4.1,4.1,19,19l0.7,0.8
		c0.5,0.5,0.6,1.3,0,1.9l-0.7,0.7c-1,1-3,3-4.5,4.5L14.1,11.7L19.3,6.5z"/>
</g>
</svg>
