<?xml version="1.0" encoding="utf-8"?>
<!-- Generator: Adobe Illustrator 19.0.0, SVG Export Plug-In . SVG Version: 6.00 Build 0)  -->
<svg version="1.1" id="Calque_1" xmlns="http://www.w3.org/2000/svg" xmlns:xlink="http://www.w3.org/1999/xlink" x="0px" y="0px"
	 width="9.6px" height="17px" viewBox="0 0 9.6 17" enable-background="new 0 0 9.6 17" xml:space="preserve">
<path fill="#010202" d="M7.8,17H1.9c-1,0-1.8-0.8-1.8-1.8V1.8c0-1,0.8-1.8,1.8-1.8h5.9c1,0,1.8,0.8,1.8,1.8v13.4
	C9.6,16.2,8.8,17,7.8,17z M1.9,1C1.4,1,1.1,1.4,1.1,1.8v13.4c0,0.5,0.4,0.8,0.8,0.8h5.9c0.5,0,0.8-0.4,0.8-0.8V1.8
	C8.6,1.4,8.2,1,7.8,1H1.9z M5.6,15.3H4v-1h1.6V15.3z"/>
</svg>
