<?xml version="1.0" encoding="utf-8"?>
<!-- Generator: Adobe Illustrator 19.2.1, SVG Export Plug-In . SVG Version: 6.00 Build 0)  -->
<svg version="1.1" id="Calque_1" xmlns="http://www.w3.org/2000/svg" xmlns:xlink="http://www.w3.org/1999/xlink" x="0px" y="0px"
	 width="27px" height="27px" viewBox="0 0 27 27" style="enable-background:new 0 0 27 27;" xml:space="preserve">
<style type="text/css">
	.st0{fill:#2E4867;}
</style>
<path class="st0" d="M14,0L14,0l-1,0v0C5.8,0.3,0,6.2,0,13.5C0,21,6,27,13.5,27C21,27,27,21,27,13.5C27,6.2,21.2,0.3,14,0z M26,12.6
	H14V1C20.3,1.3,25.5,6.3,26,12.6z M13.5,26C6.6,26,1,20.4,1,13.5C1,6.8,6.3,1.3,13,1v11.5v0.5v0.5h13C26,20.4,20.4,26,13.5,26z"/>
</svg>
