<?xml version="1.0" encoding="utf-8"?>
<!-- Generator: Adobe Illustrator 19.0.0, SVG Export Plug-In . SVG Version: 6.00 Build 0)  -->
<svg version="1.1" id="Calque_1" xmlns="http://www.w3.org/2000/svg" xmlns:xlink="http://www.w3.org/1999/xlink" x="0px" y="0px"
	 width="128px" height="70.4px" viewBox="0 0 128 70.4" enable-background="new 0 0 128 70.4" xml:space="preserve">
<g>
	<path fill="#010202" d="M124.6,34.2C123.5,32.8,97.2,1.7,64,1.7S4.5,32.8,3.4,34.2l-1.1,1.3l1.1,1.3C4.5,38.1,30.8,69.2,64,69.2
		s59.5-31.2,60.6-32.5l1.1-1.3L124.6,34.2z M64,65.2c-27.6,0-51.1-23.9-56.4-29.8C12.9,29.6,36.3,5.7,64,5.7
		c27.6,0,51.1,23.9,56.4,29.8C115.1,41.3,91.6,65.2,64,65.2z"/>
	<path fill="#010202" d="M64,12.5c-12.7,0-23,10.3-23,23c0,12.7,10.3,23,23,23s23-10.3,23-23C87,22.8,76.7,12.5,64,12.5z M64,54.5
		c-10.5,0-19-8.5-19-19c0-10.5,8.5-19,19-19s19,8.5,19,19C83,45.9,74.5,54.5,64,54.5z"/>
	<path fill="#010202" d="M71.3,20.3c-2.3,0-4.3,1-5.8,2.5c-0.5-0.1-1-0.1-1.5-0.1c-7,0-12.8,5.7-12.8,12.8c0,7,5.7,12.8,12.8,12.8
		s12.8-5.7,12.8-12.8c0-0.4,0-0.8-0.1-1.3c1.6-1.5,2.6-3.6,2.6-5.9C79.3,23.9,75.7,20.3,71.3,20.3z M71.3,24.3c2.2,0,4,1.8,4,4
		c0,2.2-1.8,4-4,4s-4-1.8-4-4C67.3,26.1,69.1,24.3,71.3,24.3z M64,44.2c-4.8,0-8.8-3.9-8.8-8.8c0-4.6,3.6-8.4,8.2-8.7
		c-0.1,0.5-0.2,1-0.2,1.6c0,4.4,3.6,8,8,8c0.5,0,1-0.1,1.4-0.1C72.3,40.7,68.6,44.2,64,44.2z"/>
</g>
</svg>
