<?xml version="1.0" encoding="utf-8"?>
<!-- Generator: Adobe Illustrator 19.2.1, SVG Export Plug-In . SVG Version: 6.00 Build 0)  -->
<svg version="1.1" id="Calque_1" xmlns="http://www.w3.org/2000/svg" xmlns:xlink="http://www.w3.org/1999/xlink" x="0px" y="0px"
	 width="472.4px" height="574.3px" viewBox="1464.5 63 472.4 574.3" style="enable-background:new 1464.5 63 472.4 574.3;"
	 xml:space="preserve">
<style type="text/css">
	.st0{fill:#2E4867;}
	.st1{fill:none;stroke:#2E4867;stroke-width:14;stroke-miterlimit:10;}
</style>
<path class="st0" d="M1917.1,63H1637c-5.2,0-10.2,2-14,5.8l-152.8,152.8c-3.7,3.7-5.7,8.7-5.7,13.9v382c0,10.9,8.9,19.7,19.7,19.7
	h431.3c3,0,5.9-0.7,8.4-1.9c7.5-2.8,12.9-10,12.9-18.5V82.8C1936.9,71.9,1928,63,1917.1,63z M1922.9,616.9c0,0.2,0,0.5,0,0.7h-1.6
	c0,2.1-1.1,3.9-2.7,4.9c-0.4,0.1-0.9,0.2-1.4,0.2v0.4c-0.5,0.2-1.1,0.2-1.6,0.2h-431.3c-3.2,0-5.7-2.6-5.7-5.7v-382
	c0-1.5,0.6-3,1.7-4.1l152.8-152.8c1.1-1.1,2.6-1.7,4.1-1.7h280.1c3.2,0,5.7,2.6,5.7,5.7V616.9z"/>
<g>
	<g>
		<path class="st1" d="M1471.5,235.6c0-7,5.7-12.7,12.7-12.7h140.1V82.8c0-7,5.7-12.7,12.7-12.7"/>
	</g>
</g>
<g>
	<path class="st0" d="M1669.6,450.4c0,28.4,14.5,46.7,45.1,46.7c26.8,0,44.5-14.5,44.5-38.8c0.3-5.4,4.1-7.9,10.4-7.9
		c6.6,0,10.4,2.5,10.4,10.4c0,32.2-25.9,55.5-65.9,55.5c-38.5,0-65.3-20.8-65.3-65.9v-15.5h-19.5c-4.7,0-7.9-3.5-7.9-8.2
		s3.2-8.5,7.9-8.5h19.5v-30.3h-19.5c-4.7,0-7.9-3.5-7.9-8.2c0-4.7,3.2-8.5,7.9-8.5h19.5V351c0-48.9,28.7-67.2,65.3-67.2
		c40,0,65.9,23,65.9,54.6c0,7.9-3.8,10.4-10.4,10.4s-10.4-2.5-10.4-7.6c0-23.3-17.3-38.2-44.8-38.2c-28.1,0-44.8,15.1-44.8,47.9
		v20.2h53.3c4.1,0,8.2,3.8,8.2,8.5c0,4.7-4.1,8.2-8.2,8.2h-53.3v30.3h53.3c4.1,0,8.2,3.8,8.2,8.5s-4.1,8.2-8.2,8.2h-53.3V450.4z"/>
</g>
</svg>
