<?xml version="1.0" encoding="utf-8"?>
<!-- Generator: Adobe Illustrator 19.0.0, SVG Export Plug-In . SVG Version: 6.00 Build 0)  -->
<svg version="1.1" id="Calque_1" xmlns="http://www.w3.org/2000/svg" xmlns:xlink="http://www.w3.org/1999/xlink" x="0px" y="0px"
	 width="80.7px" height="81.7px" viewBox="0 0 80.7 81.7" enable-background="new 0 0 80.7 81.7" xml:space="preserve">
<path fill="#010202" d="M80.7,78.9L54.3,52.2c5-5.5,8.1-12.9,8.1-21C62.4,14,48.4,0,31.2,0C14,0,0,14,0,31.2s14,31.2,31.2,31.2
	c7.7,0,14.8-2.8,20.2-7.5l26.4,26.8L80.7,78.9z M4,31.2C4,16.2,16.2,4,31.2,4s27.2,12.2,27.2,27.2S46.2,58.4,31.2,58.4
	S4,46.2,4,31.2z"/>
</svg>
