<?xml version="1.0" encoding="utf-8"?>
<!-- Generator: Adobe Illustrator 19.2.1, SVG Export Plug-In . SVG Version: 6.00 Build 0)  -->
<svg version="1.1" id="Calque_1" xmlns="http://www.w3.org/2000/svg" xmlns:xlink="http://www.w3.org/1999/xlink" x="0px" y="0px"
	 width="92px" height="84.1px" viewBox="0 0 92 84.1" style="enable-background:new 0 0 92 84.1;" xml:space="preserve">
<title>Artboard 18</title>
<g>
	<path d="M6,13.6c0.1,0,0.2,0,0.3,0c11.7,0.5,23.2,3.1,34,7.7c0.1,0.1,0.3,0,0.4-0.2c0-0.1,0-0.2-0.1-0.3C24.5,11,10.7,8.6,7,8.1
		C6.5,8,5.9,8.4,5.8,8.9c0,0,0,0,0,0v0l-0.6,3.3C5.1,12.9,5.4,13.4,6,13.6z"/>
	<path d="M14.2,4.9c0.1,0,0.2,0.1,0.3,0.1c10,2.5,19.6,6.5,28.3,12v0c0.2,0.1,0.4,0.1,0.6-0.1s0.1-0.4-0.1-0.6
		C30.8,5.6,19.4,1.2,16.1,0.1c-0.5-0.2-1.1,0.1-1.3,0.6c0,0,0,0,0,0l-1.1,2.9C13.4,4,13.7,4.6,14.2,4.9z"/>
	<path d="M51.5,21.2c0.1,0.1,0.2,0.1,0.3,0.1l0,0c10.8-4.6,22.3-7.2,34-7.7c0.6,0,1-0.4,1-1c0-0.1,0-0.2,0-0.3L86.2,9
		C86.1,8.4,85.6,8,85,8.1c0,0,0,0,0,0C81.3,8.6,67.5,11,51.6,20.8C51.5,20.9,51.4,21.1,51.5,21.2z"/>
	<path d="M42,27c-12-5.7-25.1-8.8-38.4-9l-1.5,0C1,18.1,0,19.1,0,20.3v53c0,0,0,0,0,0c0,1.2,1,2.2,2.2,2.2h1.3
		c12.9,0.2,25.6,3.1,37.3,8.5c0.2,0.1,0.5,0.2,0.7,0.2c1,0,1.8-0.8,1.8-1.8V29.2C43.4,28.3,42.9,27.4,42,27z"/>
	<path d="M49.3,16.9c8.8-5.5,18.3-9.5,28.3-12c0.5-0.1,0.9-0.6,0.8-1.2c0-0.1,0-0.2-0.1-0.3l-1.2-2.8c-0.2-0.5-0.7-0.8-1.3-0.6
		c0,0,0,0,0,0c-3.3,1.1-14.6,5.5-27.1,16.2c-0.2,0.1-0.2,0.4-0.1,0.6S49.1,17,49.3,16.9z"/>
	<path d="M89.9,18.1h-1.4c-13.3,0.2-26.4,3.3-38.4,9c-0.8,0.4-1.4,1.2-1.4,2.2v53.1c0,1,0.8,1.8,1.8,1.8c0.2,0,0.5-0.1,0.7-0.2
		c11.7-5.4,24.4-8.3,37.3-8.5h1.3c1.2,0,2.2-1,2.2-2.2v0v-53C92,19.1,91,18.1,89.9,18.1z"/>
</g>
</svg>
