<?xml version="1.0" encoding="utf-8"?>
<!-- Generator: Adobe Illustrator 19.2.1, SVG Export Plug-In . SVG Version: 6.00 Build 0)  -->
<svg version="1.1" id="Calque_1" xmlns="http://www.w3.org/2000/svg" xmlns:xlink="http://www.w3.org/1999/xlink" x="0px" y="0px"
	 width="20.6px" height="24px" viewBox="0 0 20.6 24" style="enable-background:new 0 0 20.6 24;" xml:space="preserve">
<style type="text/css">
	.st0{fill:#2E4867;}
</style>
<path id="calendar.svg" class="st0" d="M20.5,2.9h-4.3V1.1c0-0.6-0.5-1.1-1.1-1.1c-0.6,0-1.1,0.5-1.1,1.1l0,0v1.9H6.4V1.1
	C6.4,0.5,5.9,0,5.3,0S4.2,0.5,4.2,1.1v1.9H0v18.3C0,22.7,1.2,24,2.7,24c0,0,0,0,0,0h15c1.5,0,2.8-1.2,2.8-2.8c0,0,0,0,0,0L20.5,2.9
	L20.5,2.9z M17.8,22.4h-15c-0.6,0-1.2-0.5-1.2-1.2V10.6h17.3v10.6C18.9,21.8,18.4,22.4,17.8,22.4z"/>
</svg>
