<?xml version="1.0" encoding="utf-8"?>
<!-- Generator: Adobe Illustrator 19.2.1, SVG Export Plug-In . SVG Version: 6.00 Build 0)  -->
<svg version="1.1" id="Calque_1" xmlns="http://www.w3.org/2000/svg" xmlns:xlink="http://www.w3.org/1999/xlink" x="0px" y="0px"
	 width="24.2px" height="24px" viewBox="0 0 24.2 24" style="enable-background:new 0 0 24.2 24;" xml:space="preserve">
<style type="text/css">
	.st0{fill:#2E4867;}
</style>
<g>
	<polygon class="st0" points="18.5,3.5 18.5,7.7 20,5.6 20,2 15,2 15,3.5 	"/>
	<path class="st0" d="M18.5,22.5h-17v-19H5l0-1V5h10V0H5v2H0v22h20v-9.6l-1.5,2.2V22.5z M6.5,1.5h7v2h-7V1.5z"/>
	<rect x="3.5" y="8.3" class="st0" width="13" height="1.5"/>
	<path class="st0" d="M22.3,6.5c-0.2-0.1-0.3-0.1-0.5-0.1c-0.1,0-0.2,0-0.3,0c-0.3,0.1-0.5,0.2-0.6,0.5l-4.4,6.5v-1.1h-13v1.5h12.7
		l-1.7,2.5H3.1v1.5h10.4l0,0l-0.6,1l-0.1,1.7l1.7-0.5l8.2-12.2C22.9,7.4,22.7,6.8,22.3,6.5z"/>
</g>
</svg>
