<?xml version="1.0" encoding="utf-8"?>
<!-- Generator: Adobe Illustrator 19.2.1, SVG Export Plug-In . SVG Version: 6.00 Build 0)  -->
<svg version="1.1"
	 id="Calque_1" xmlns:cc="http://creativecommons.org/ns#" xmlns:dc="http://purl.org/dc/elements/1.1/" xmlns:inkscape="http://www.inkscape.org/namespaces/inkscape" xmlns:rdf="http://www.w3.org/1999/02/22-rdf-syntax-ns#" xmlns:sodipodi="http://sodipodi.sourceforge.net/DTD/sodipodi-0.dtd" xmlns:svg="http://www.w3.org/2000/svg"
	 xmlns="http://www.w3.org/2000/svg" xmlns:xlink="http://www.w3.org/1999/xlink" x="0px" y="0px" width="68px" height="90px"
	 viewBox="0 0 68 90" style="enable-background:new 0 0 68 90;" xml:space="preserve">
<g transform="translate(0,-952.36218)">
	<path d="M6,952.4c-3.3,0-6,2.7-6,6v78c0,3.3,2.7,6,6,6h56c3.3,0,6-2.7,6-6v-78c0-3.3-2.7-6-6-6L6,952.4L6,952.4z M6,956.4h56
		c1.1,0,2,0.9,2,2v78c0,1.1-0.9,2-2,2H6c-1.1,0-2-0.9-2-2v-78C4,957.2,4.9,956.4,6,956.4L6,956.4z M12,968.4c-1,0-2,1.1-2,2v6
		c0,1,1,2,2,2h6c1,0,2-1,2-2v-6c0-1-1-2-2-2H12z M29,971.4c-1.1,0-2,0.9-2,2s0.9,2,2,2h27c1.1,0,2-0.9,2-2s-0.9-2-2-2H29z M14,972.4
		h2v2h-2V972.4z M12,984.4c-1,0-2,1.1-2,2v6c0,1,1,2,2,2h6c1,0,2-1,2-2v-6c0-1-1-2-2-2H12z M29,987.4c-1.1,0-2,0.9-2,2s0.9,2,2,2h27
		c1.1,0,2-0.9,2-2s-0.9-2-2-2H29z M14,988.4h2v2h-2V988.4z M12,1000.4c-1,0-2,1.1-2,2v6c0,1,1,2,2,2h6c1,0,2-1,2-2v-6c0-1-1-2-2-2
		H12z M29,1003.4c-1.1,0-2,0.9-2,2s0.9,2,2,2h27c1.1,0,2-0.9,2-2s-0.9-2-2-2H29z M14,1004.4h2v2h-2V1004.4z M12,1016.4
		c-1,0-2,1.1-2,2v6c0,1,1,2,2,2h6c1,0,2-1,2-2v-6c0-1-1-2-2-2L12,1016.4L12,1016.4z M29,1019.4c-1.1,0-2,0.9-2,2s0.9,2,2,2h27
		c1.1,0,2-0.9,2-2s-0.9-2-2-2H29z M14,1020.4h2v2h-2V1020.4z"/>
</g>
</svg>
