<?xml version="1.0" encoding="utf-8"?>
<!-- Generator: Adobe Illustrator 19.2.1, SVG Export Plug-In . SVG Version: 6.00 Build 0)  -->
<svg version="1.1" id="Calque_1" xmlns="http://www.w3.org/2000/svg" xmlns:xlink="http://www.w3.org/1999/xlink" x="0px" y="0px"
	 width="40px" height="32.6px" viewBox="0 0 40 32.6" style="enable-background:new 0 0 40 32.6;" xml:space="preserve">
<path d="M40,3.9c-1.5,0.7-3.1,1.1-4.7,1.3c1.7-1,3-2.6,3.6-4.6c-1.6,0.9-3.3,1.6-5.2,2C32.2,1,30.1,0,27.7,0c-4.5,0-8.2,3.7-8.2,8.2
	c0,0.6,0.1,1.3,0.2,1.9C12.9,9.8,6.8,6.5,2.8,1.5C2.1,2.7,1.7,4.1,1.7,5.6c0,2.9,1.4,5.4,3.7,6.8c-1.3,0-2.6-0.4-3.7-1
	c0,0,0,0.1,0,0.1c0,4,2.8,7.3,6.6,8.1c-0.7,0.2-1.4,0.3-2.2,0.3c-0.5,0-1-0.1-1.5-0.1c1,3.3,4.1,5.6,7.7,5.7C9.3,27.7,5.8,29,2,29
	c-0.7,0-1.3,0-2-0.1c3.6,2.3,7.9,3.7,12.6,3.7c15.1,0,23.3-12.5,23.3-23.4c0-0.4,0-0.7,0-1.1C37.5,7,38.9,5.5,40,3.9L40,3.9z"/>
</svg>
