<?xml version="1.0" encoding="utf-8"?>
<!-- Generator: Adobe Illustrator 16.0.0, SVG Export Plug-In . SVG Version: 6.00 Build 0)  -->
<!DOCTYPE svg PUBLIC "-//W3C//DTD SVG 1.1//EN" "http://www.w3.org/Graphics/SVG/1.1/DTD/svg11.dtd">
<svg version="1.1" id="Calque_1" xmlns="http://www.w3.org/2000/svg" xmlns:xlink="http://www.w3.org/1999/xlink" x="0px" y="0px"
	 width="71.972px" height="43.115px" viewBox="0 0 71.972 43.115" enable-background="new 0 0 71.972 43.115" xml:space="preserve">
<path d="M50.936,1.041c-6.102,0-11.596,2.603-15.437,6.753l7.603,12.483c0.816-3.575,4.01-6.243,7.833-6.243
	c4.442,0,8.042,3.601,8.042,8.042c0,4.443-3.6,8.043-8.042,8.043c-2.768,0-5.209-1.397-6.654-3.524l-0.006,0.018L27.578,0L0,42.371
	h39.282c-4.224-2.436-7.62-6.147-9.656-10.607H23.14l4.438-6.807l5.57,8.347c0.372,0.589,0.772,1.153,1.197,1.7l0.055,0.077h0.007
	c3.851,4.889,9.821,8.034,16.529,8.034c11.618,0,21.036-9.422,21.036-21.039S62.553,1.041,50.936,1.041z"/>
</svg>
