<?xml version="1.0" encoding="utf-8"?>
<!-- Generator: Adobe Illustrator 16.0.0, SVG Export Plug-In . SVG Version: 6.00 Build 0)  -->
<!DOCTYPE svg PUBLIC "-//W3C//DTD SVG 1.1//EN" "http://www.w3.org/Graphics/SVG/1.1/DTD/svg11.dtd">
<svg version="1.1" id="Calque_1" xmlns="http://www.w3.org/2000/svg" xmlns:xlink="http://www.w3.org/1999/xlink" x="0px" y="0px"
	 width="184.172px" height="841.891px" viewBox="205.554 0 184.172 841.891" enable-background="new 205.554 0 184.172 841.891"
	 xml:space="preserve">
<g>
	<path fill="#3475BB" d="M310.072,159.284c-43.305,0-77.568-36.807-77.568-80.698C232.503,34.684,266.749,0,310.072,0
		c43.322,0,79.654,34.685,79.654,78.577C389.726,122.469,353.394,159.284,310.072,159.284z M310.072,12.742
		c-36.377,0-64.984,28.967-64.984,65.844c0,36.867,28.606,67.956,64.984,67.956c36.377,0,67.07-31.089,67.07-67.957
		C377.15,41.709,346.457,12.742,310.072,12.742z M253.445,153.969l-38.473,38.973l-9.418-9.629l38.92-39.411
		C249.411,150.839,246.886,148.646,253.445,153.969z"/>
</g>
<g>
	<path fill="#3475BB" d="M287.831,817.414c-31.58,0-56.512-26.773-56.512-58.695c-0.018-31.913,24.932-57.144,56.512-57.144
		c31.588,0,58.047,25.23,58.047,57.144C345.878,790.64,319.394,817.414,287.831,817.414z M287.831,710.844
		c-26.502,0-47.347,21.065-47.347,47.874c0,26.853,20.836,49.435,47.347,49.435c26.528,0,48.883-22.582,48.883-49.435
		C336.714,731.91,314.351,710.844,287.831,710.844z M246.561,813.564l-28.045,28.326l-12.961-13.102l28.343-28.66
		C237.52,805.172,241.782,809.688,246.561,813.564z"/>
</g>
</svg>
