<?xml version="1.0" encoding="utf-8"?>
<!-- Generator: Adobe Illustrator 14.0.0, SVG Export Plug-In . SVG Version: 6.00 Build 43363)  -->
<!DOCTYPE svg PUBLIC "-//W3C//DTD SVG 1.1//EN" "http://www.w3.org/Graphics/SVG/1.1/DTD/svg11.dtd">
<svg version="1.1" id="Calque_1" xmlns="http://www.w3.org/2000/svg" xmlns:xlink="http://www.w3.org/1999/xlink" x="0px" y="0px"
	 width="184.172px" height="192.941px" viewBox="0 0 184.172 192.941" enable-background="new 0 0 184.172 192.941"
	 xml:space="preserve">
<g>
	<path fill="#3775B5" d="M104.518,159.284c-43.305,0-77.569-36.808-77.569-80.698C26.948,34.684,61.194,0,104.518,0
		c43.322,0,79.654,34.685,79.654,78.577C184.172,122.469,147.84,159.284,104.518,159.284z M104.518,12.742
		c-36.377,0-64.985,28.967-64.985,65.844c0,36.867,28.606,67.956,64.985,67.956c36.377,0,67.07-31.089,67.07-67.957
		C171.596,41.709,140.903,12.742,104.518,12.742z M47.891,153.969L9.418,192.941L0,183.313l38.92-39.411
		C43.856,150.839,41.332,148.646,47.891,153.969z"/>
</g>
</svg>
